<svg id="Layer_1" data-name="Layer 1" xmlns="http://www.w3.org/2000/svg" viewBox="0 0 233.41 126.8"><title>about-logo</title><path d="M68,101c0.06-1.76-.24-3-0.91-3.66a2.35,2.35,0,0,0-1.78-.68c-2,0-2.95,1.42-2.95,4.33v0.24H68V101Zm-3.85-1.44c0.24-1.23.8-1.23,1.17-1.23a0.7,0.7,0,0,1,.58.18,1.9,1.9,0,0,1,.38,1H64.16Z" style="fill:#fff"/><path d="M30.59,86a5.81,5.81,0,0,0-5.8-5.8,5.9,5.9,0,0,0-6,5.8,5.78,5.78,0,0,0,2.73,4.9L20.69,91l-1.31.12V107H10.93V82.58H0v33.91H30V90.15l-1.32.12A5.72,5.72,0,0,0,30.59,86ZM19.15,111.3l-0.81,3.52H1.67V84.25H9.26V108.7h9.9v2.61ZM20.48,86a4.23,4.23,0,0,1,4.31-4.13A4.08,4.08,0,0,1,28.91,86a4.2,4.2,0,0,1-4.26,4.13A4.16,4.16,0,0,1,20.48,86Zm7.86,28.8H21.06V92.65L28.34,92v22.84Z" style="fill:#fff"/><path d="M54.22,116.49v-6.7c1.83,4.65,6,7.28,11.78,7.28a15.78,15.78,0,0,0,10-3.4v2.82H86.59V99.89a2.63,2.63,0,0,1,1.11-.58h0.38a4.36,4.36,0,0,1,.09,1v16.13H98.78V97.82c0-6.41-4.29-7.75-7.89-7.75a12.21,12.21,0,0,0-5.63,1.31,2.7,2.7,0,0,0-.09-0.28l-0.39-1.17-1.21.2-7.13,1.2-1.51.25,0.36,1.49a24.72,24.72,0,0,1,.58,4.1,10.74,10.74,0,0,0-2.48-4.1c-2-2-4.79-3-8.33-3-5.27,0-9.11,2.69-10.86,7.33-0.19-6-4.37-7.33-7.88-7.33a12.22,12.22,0,0,0-5.63,1.31l-0.09-.28-0.39-1.17-1.21.2-7.12,1.2-1.51.25,0.35,1.49a31.9,31.9,0,0,1,.67,7.37v16H42V99.89a2.66,2.66,0,0,1,1.1-.58h0.39a4.45,4.45,0,0,1,.09,1v16.13H54.22ZM83.65,91.81A9,9,0,0,1,84,93.7l0,0.43,0.34-.25a10.62,10.62,0,0,1,6.5-2.14c5.57,0,6.22,3.48,6.22,6.09v17H89.84V100.36c0-2.55-.81-2.73-2.15-2.73A4.68,4.68,0,0,0,85,99l-0.08.07v15.73H77.63V100.45A34.62,34.62,0,0,0,77,92.93ZM76,107.45v3.23l-2.17-3.23H76ZM65.07,91.73c3.08,0,5.48.85,7.14,2.52,2,2,3,5.34,3,9.85v1.68H62.38V106c0,1,.28,4.42,3.93,4.42a10,10,0,0,0,6-2.21L75,112.28a14,14,0,0,1-9,3.12c-7.09,0-11.17-4.27-11.17-11.7S58.66,91.73,65.07,91.73Zm5.42,15.72a7.86,7.86,0,0,1-4.18,1.31,2,2,0,0,1-2.05-1.31h6.23ZM43.12,97.63A4.69,4.69,0,0,0,40.43,99l-0.08.07v15.73H33.07V100.45a34.78,34.78,0,0,0-.66-7.51l6.68-1.12a9.06,9.06,0,0,1,.37,1.89l0,0.43,0.35-.25a10.45,10.45,0,0,1,6.5-2.14c5.58,0,6.22,3.48,6.22,6.09v17H45.27V100.36C45.27,97.81,44.45,97.63,43.12,97.63Z" style="fill:#fff"/><path d="M229.61,92.6a1.9,1.9,0,1,0,3.81,0C233.41,90.15,229.61,90.17,229.61,92.6Zm2.92,1a1.45,1.45,0,0,1-1,.42,1.41,1.41,0,0,1-1-.42,1.45,1.45,0,0,1-.42-1,1.47,1.47,0,0,1,.41-1,1.46,1.46,0,0,1,2.05,0,1.44,1.44,0,0,1,.42,1A1.42,1.42,0,0,1,232.53,93.62Z" style="fill:#fff"/><path d="M231.84,92.7a0.48,0.48,0,0,0,.4-0.54c0-.32-0.18-0.55-0.74-0.55h-0.66v1.92h0.49V92.77c0.11,0,.15,0,0.23.23l0.2,0.54h0.57L232,92.91A0.42,0.42,0,0,0,231.84,92.7Zm-0.37-.29h-0.14V92h0.14c0.15,0,.23,0,0.23.18A0.19,0.19,0,0,1,231.47,92.41Z" style="fill:#fff"/><path d="M40.56,81.09H70.1A7.06,7.06,0,0,0,74,79.62V57.25h22.5A7,7,0,0,0,98,53.38v-32a2.49,2.49,0,0,0-2.49-2.48H40.56a2.49,2.49,0,0,0-2.48,2.48V78.6A2.49,2.49,0,0,0,40.56,81.09ZM54.42,20.91H66.51L75.31,31,84,20.91H96V55.26H84V42.95l-8.64,10L66.51,42.79V65.14H54.42V20.91Zm-14.25,0H52.35V67.13h19.8v12h-32V20.89Z" style="fill:#fff"/><polygon points="94.27 59.81 76.63 59.81 76.63 77.46 94.27 59.81" style="fill:#fff"/><path d="M224.74,89.92a6.23,6.23,0,0,0-3.81,1.26l0-.07-0.35-1.25-1.28.22-7.12,1.2-1.53.26L211,93a22.23,22.23,0,0,1,.57,4.06A10.73,10.73,0,0,0,209.11,93c-2-2-4.79-3-8.33-3-4.67,0-8.21,2.12-10.17,5.82l1.06-5.24h-4.55a47.24,47.24,0,0,1,.22-5.27l0.2-1.85-1.84.28L178,84.9l-1,.16-0.15,1a35.11,35.11,0,0,0-.28,4.48h-1.87V92A18.78,18.78,0,0,0,166,90c-6.51,0-10.88,3.72-10.88,9.27a7.29,7.29,0,0,0,2.49,5.85l-0.19-.11-2.27,4.69a5.2,5.2,0,0,1-.42-2.6l0.09-7.91a12.39,12.39,0,0,0-.42-4c-1-3.31-4.55-5.2-9.65-5.2a22,22,0,0,0-11.08,3.46l-0.83.5c-1.1-2.63-3.42-4-6.94-4a10.8,10.8,0,0,0-6.46,2,7.45,7.45,0,0,0-5.3-2,9.47,9.47,0,0,0-4.58,1.26v0l0-.15-0.35-1.25-1.27.22-7.13,1.2-1.51.25L99.63,93a31.85,31.85,0,0,1,.67,7.37v16h10.4V99.12a3.29,3.29,0,0,1,1.06-.28h0.08c0,0.5,0,1.38,0,1.91v15.68H122V99.31a4.71,4.71,0,0,1,1.08-.34h0.11a14.25,14.25,0,0,1,.08,1.81v15.64h10.3v-4.07c1.37,3,4.32,4.65,8.45,4.65a10.65,10.65,0,0,0,5.47-1.41,7.59,7.59,0,0,0,2.69,1.7l0.82,0.26,0.62-.6,3.07-3a22.65,22.65,0,0,0,10.59,3c5.47,0,9.59-2.21,11.28-5.77,0.7,5.82,6.57,5.82,8.58,5.82a14.86,14.86,0,0,0,6.45-1.48l1-.48-0.23-1.1-0.11-.54c2.2,2.3,5.42,3.55,9.44,3.55a15.8,15.8,0,0,0,10-3.4v2.82H222.3V99.7a1.47,1.47,0,0,1,1.29-.63,2.76,2.76,0,0,1,1.57.44l1.58,0.88,2.63-9.2-1.18-.49A8.18,8.18,0,0,0,224.74,89.92Zm-92.82,24.83h-7v-14c0-3-.26-3.46-1.86-3.46a6.65,6.65,0,0,0-2.61.92l-0.1.06v16.47h-6.83v-14c0-2.93-.06-3.55-1.77-3.55a5,5,0,0,0-2.62.94l-0.08.06v16.59h-7.1V100.35a34.72,34.72,0,0,0-.66-7.53L108,91.68a8.24,8.24,0,0,1,.38,2l0,0.44,0.33-.29a8.39,8.39,0,0,1,5.43-2.22,6,6,0,0,1,5,2.42l0.14,0.17,0.16-.15a9.07,9.07,0,0,1,6.45-2.44c2.8,0,6,.75,6,6.6v16.53Zm1.43-19,2.63,4.51,0.57,1a8.43,8.43,0,0,0-3,3.21V98.25A13.46,13.46,0,0,0,133.35,95.71Zm17.21,19.94a5.91,5.91,0,0,1-2.61-2.13l-0.12-.24-0.2.17a8.6,8.6,0,0,1-5.61,1.87c-6.68,0-7.68-4.56-7.68-7.27,0-4.41,3.92-7.27,10-7.27a12.19,12.19,0,0,1,1.25,0l0.25,0.05V99.19c0-1.28-.16-2.35-2.08-2.35a10.51,10.51,0,0,0-6.48,2.31l-2.58-4.43a20.21,20.21,0,0,1,10-3.11c4.34,0,7.28,1.47,8.08,4a10.87,10.87,0,0,1,.35,3.5l-0.09,7.93c0,1.75.13,3.42,1.66,4.53ZM139,100a8.4,8.4,0,0,1,4.78-1.48,2.31,2.31,0,0,1,.4,0,4,4,0,0,1,0,.62A16.12,16.12,0,0,0,139,100Zm26.28,15.31a20.89,20.89,0,0,1-9.69-2.78l2.52-5.21c1.85,1.11,5.29,2.85,7.44,2.85a2.41,2.41,0,0,0,2.62-1.95c0-1.45-1-1.83-3.19-2.3l-3-.62c-3.46-.71-5.22-2.75-5.22-6.07,0-4.63,3.62-7.62,9.23-7.62a17.29,17.29,0,0,1,8.12,1.94l0.68,0.31-2.21,4.42A12.4,12.4,0,0,0,167,96.67c-1.31,0-2.22.62-2.22,1.5s0.79,1.65,2.57,2l2.85,0.62c3.83,0.84,5.54,2.85,5.54,6.52C175.75,112.19,171.64,115.33,165.27,115.33Zm-5.68-9a10.6,10.6,0,0,0,2.06.63l3,0.63a6.67,6.67,0,0,1,1.88.56s0,0,0,.06a1.25,1.25,0,0,1-1,.37C164.06,108.57,161.43,107.36,159.6,106.33Zm11.27-7-0.29-.07-2.85-.63a5.28,5.28,0,0,1-.93-0.27H167A9.67,9.67,0,0,1,170.87,99.32Zm5.63,3.88a6.86,6.86,0,0,0-3-2.94l0.5-1,0.67-1.34v0.62h1.87v4.67Zm8.64,12.17c-5,0-7-1.55-7-5.36V96.84h-1.87V92.19h1.87V92a44.43,44.43,0,0,1,.24-5.51l7.28-1.09a55.48,55.48,0,0,0-.2,5.79v1h4.18l-0.94,4.65h-3.24v9.47c0,3.1.38,4.13,2.62,4.13a4.77,4.77,0,0,0,1.81-.35l0.84,4A13.2,13.2,0,0,1,185.14,115.37Zm4.37-6.89-0.16.08a3,3,0,0,1-1.27.27,1.86,1.86,0,0,1-.73-0.08,5.9,5.9,0,0,1-.24-2.4V98.53h2.42a18.92,18.92,0,0,0-.66,5.11A17.6,17.6,0,0,0,189.51,108.49Zm12.19,6.84c-7.11,0-11.19-4.27-11.19-11.72s3.83-12,10.25-12c3.09,0,5.5.85,7.16,2.52,2,2,3,5.35,3,9.87v1.7H198.11v0.21c0,1,.28,4.4,3.91,4.4a10,10,0,0,0,6-2.22l2.74,4.1A14.07,14.07,0,0,1,201.71,115.33Zm4.5-7.93A7.88,7.88,0,0,1,202,108.7a2,2,0,0,1-2-1.31h6.23Zm5.47,3.23-2.17-3.23h2.17v3.23Zm14-12.71a4.25,4.25,0,0,0-2.14-.52,3.19,3.19,0,0,0-2.9,1.75l0,0.05v15.56h-7.32V101a36,36,0,0,0-.67-8.15l6.72-1.13a9.88,9.88,0,0,1,.43,2.48V94.8l0.38-.51c1-1.34,2.26-2.76,4.55-2.76a6.29,6.29,0,0,1,2.64.58Z" style="fill:#fff"/><path d="M203.7,100.89c0.06-1.75-.23-2.94-0.9-3.63a2.33,2.33,0,0,0-1.76-.68c-2,0-2.93,1.41-2.93,4.31v0.21h5.58v-0.2Zm-3.82-1.4c0.24-1.23.8-1.23,1.17-1.23a0.68,0.68,0,0,1,.57.17,1.9,1.9,0,0,1,.38,1.05h-2.13Z" style="fill:#fff"/><path d="M141.46,108a2.24,2.24,0,0,0,2.35,2.44,3,3,0,0,0,2-.84l0-.06v-4.28h-0.2C142.88,105.13,141.46,106.06,141.46,108Zm2.75,0.74a1.32,1.32,0,0,1-.39.09c-0.35,0-.7-0.06-0.7-0.79,0-.33,0-0.83,1.09-1v1.73Z" style="fill:#fff"/></svg>