<?xml version="1.0" encoding="utf-8"?>
<!-- Generator: Adobe Illustrator 19.2.1, SVG Export Plug-In . SVG Version: 6.00 Build 0)  -->
<!DOCTYPE svg PUBLIC "-//W3C//DTD SVG 1.1//EN" "http://www.w3.org/Graphics/SVG/1.1/DTD/svg11.dtd">
<svg version="1.1" id="Layer_1" xmlns="http://www.w3.org/2000/svg" xmlns:xlink="http://www.w3.org/1999/xlink" x="0px" y="0px"
	 viewBox="0 0 337 172.6" style="enable-background:new 0 0 337 172.6;" xml:space="preserve">
<style type="text/css">
	.st0{opacity:0.1;fill:#FFFFFF;enable-background:new    ;}
	.st1{fill:#FFFFFF;}
	.st2{opacity:0.2;fill:#FFFFFF;enable-background:new    ;}
</style>
<title>about-life-education-logo</title>
<path class="st0" d="M291.5,23.2c0-0.1,0-0.1-0.1-0.1c-0.1,0-0.1,0-0.2,0l-0.5-0.3l-0.1-0.9l0.7-2.4l-0.9,0.7
	c-0.2,0.1-0.5,0.1-0.6-0.1c0-0.1-0.1-0.1-0.1-0.2l-0.1-0.7l-1.6,2.1c-0.1,0.2-0.4,0.2-0.5,0.1c-0.1-0.1-0.2-0.3-0.1-0.5l1.9-3.9
	c-0.3,0.1-0.5,0.3-0.7,0.5c-0.8,1.7-2.5,2.9-4.4,2.9c-3.2,0.2-5.5,2.9-5.8,6.3l-1.7,5.6c0.5,0.1,1,0.1,1.5,0.1
	c1-0.3,1.9-0.6,2.9-0.8c3.5-0.2,7,0,10.1,1.9c0.7,0.4,1.4,0.8,1.9,0c0.3-0.6,0.4-1.3,0.3-1.9c-0.1-0.7-0.2-1.4-0.3-2.1
	c0.4-1.9,0-4-1.1-5.6l0.1-0.1l-0.1,0.1L291.5,23.2z M318.7,118.4c-0.3-1.2-1.3-2-2.5-2.1c-1.2,0-2.4,0-3.6,0c-1.9,0.1-2.7,1-2.4,2.5
	c0.7,4.5,1.3,8.9,2.1,13.4c0.3,1.3,0.9,2.6,1.9,3.6c1.5,1.3,3.1,2.4,4.8,3.4c0.9,0.7,2.2,0.7,3-0.1c0.9-0.7,1.2-1.9,0.8-2.9
	c-0.6-2.1-1.1-4.2-1.5-6.4C320.4,126.1,319.5,122.3,318.7,118.4z M320.1,113.8c1.1,0.1,2.6-0.7,3.6-2.6c0.8-1.6,1.8-3.1,2.7-4.7
	c1.5-2.7,1.4-3.3-0.9-5.2c-1.9-1.6-3.8-3.2-5.7-4.8c-0.9-0.8-2.3-0.7-3,0.2c-0.1,0.1-0.2,0.3-0.3,0.4c-2,3.5-4.5,6.8-3.5,11.4
	C314.1,113.4,313.3,113.3,320.1,113.8L320.1,113.8z M312.5,81.1l-0.2,0c0.1,1.4,0.4,2.8,0.7,4.2c0.7,1.6,2.3,2.5,4,2.4
	c1.7-0.2,1.7-1.7,2-3c0.3-1.2,0.5-2.4,0.8-3.6c0.8-2.8,0.7-3-2-4.3c-0.4-0.2-0.8-0.4-1.2-0.6c-2.2-0.8-3.7,0-4.1,2.4
	C312.6,79.5,312.6,80.3,312.5,81.1L312.5,81.1z M255.1,54.7l0.7,0c0.1-0.6,0.2-1.2,0.4-1.8c0.3-1.3,0.8-2.5,1.4-3.6
	c0.5-1,1.7-1.5,2.7-1c0.2,0.1,0.4,0.2,0.6,0.4l-2.5,1.3c-0.1,0.1-0.2,0.2-0.1,0.3c0,0.1,0.1,0.1,0.2,0.1l3.8,0.8
	c0.7-1.2,1.3-2.3,0.4-3.5c-0.8-1-2.2-1.4-3.4-0.9c-1.1,0.4-2.1,1.1-2.9,2.1c-0.7,1.4-1.2,2.9-1.5,4.5C254.9,54,255,54.4,255.1,54.7z
	"/>
<path class="st1" d="M303.9,162.2c0.3-0.6,0.5-0.9,0.7-1.3c2.5-6.1,5-12.1,7.5-18.2c0.9-2.3,1.5-2.5,3.8-2c0.6,0.1,1.1,0.3,1.7,0.4
	c4.8,0.7,9,2.4,11.6,6.8c0.2,0.2,0.4,0.4,0.7,0.5c0-4.1,0-8.1,0-12.1c-0.1-0.6-0.4-1.2-0.9-1.6c-2.3-2.2-4-5.1-4.8-8.2
	c-0.5-1.8-1.1-3.6-1.7-5.3c-0.9-2.2-0.6-4.6,0.8-6.5c1.5-2.3,3-4.7,4.4-7c1.6-2.9,1.1-6.5-1.1-8.9c-0.6-0.6-1.2-1.2-1.9-1.8
	c-2.9-2.1-3.8-5.3-4.3-8.5c-0.1-1.4,0.1-2.7,0.6-4c0.8-2,2-3.9,2.9-5.9c0.3-0.8,0.6-1.7,0.9-2.6c-1.5,0-2.5,0-3.5,0
	c-1.8,0.1-3.5-1-4.1-2.6c-0.7-1.7-1.8-3.3-2.6-5c-0.8-1.4-1-3-0.5-4.5c0.4-1,0.6-2.1,0.8-3.2c0.3-2.2,1.1-3.9,3.7-4.2l-0.6-2
	c-0.4,0-0.8,0-1.2,0c-1.4,0.2-3,0.8-4.2-0.4c-1.8-1.8-4.3-3.1-4.4-6.2c-0.1-3.3-0.4-6.7-0.8-10c-0.1-1.3-0.6-2.6-1.2-3.7
	c-1.9-3.3-3.9-6.5-4.6-10.2c-0.2-1.4-0.1-2.9,0.3-4.3c0.5-1.7,2.3-2.7,4-2.3c0.5,0.1,0.9,0.5,1.1,0.9c-0.1,0.5-0.4,0.9-0.7,1.2
	c-0.1,0.1-0.3,0.1-0.4,0.2c-0.5,0.4-1.5,1-1.4,1.3c0.3,1,1.3,1,2.1,0.9c1.8-0.1,3.6-1,4.8-2.3c1-1.3,2.6-2,4.2-1.9
	c0.4,0,0.7,0,1.1-0.2c0.6-0.4,1.6-0.9,1.6-1.4c-0.1-0.8-0.5-1.6-1.2-2c-2.8-1.5-5.9-1.4-8.9-1c-4.1,0.5-8.2,1.7-12,3.5
	c-0.6,0.3-1.2,0.5-2,0.8c-0.5-1.7-1-3.2-1.5-4.8c-0.5-1.5-1.1-3-1.7-4.6c0.2-0.2,0.5-0.4,0.8-0.6c2.3-1.4,2.3-2.8-0.1-4.1
	c-1.9-1.2-4.3-1.3-6.3-0.4c-1.7,0.8-1.9,1.8-0.8,3.3c0.3,0.3,0.5,0.6,0.7,1.1c-0.2,2.7-0.8,5.3-2,7.8l-4-6.7c0-0.2,0-0.3,0.1-0.5
	c0.7-1.1,1.3-2.2,0.4-3.4c-1-1.2-2.5-1.1-3.6-0.6c-1.6,0.7-3.1,1.6-4.4,2.7c-0.6,0.7-0.9,1.6-0.6,2.5c0.3,0.6,1.5,0.9,2.4,1
	c0.9,0,1.8-0.1,2.6-0.3c0.3,1.3,0.5,2.5,0.7,3.6c0.4,1.3-0.2,2.7-1.4,3.4c-1.3,0.7-2.6,1.4-3.9,1.9c-2.6,0.9-4.4,3.3-4.6,6.1
	c0,0.4-0.1,0.9-0.1,1.3c0,3.3-1.7,6.3-4.5,8c-1.7,1.1-3.4,2.2-5.1,3.4c-2.6,1.8-4.2,4.6-4.5,7.8c-0.1,1.4-0.3,2.8-0.3,4.3
	c0,1.8-0.5,3.5-1.6,4.9c-1.3,1.7-1,2.4,0.7,3.4c0.7,0.4,1.3,0.9,1.9,1.4c1,1.4,2.8,1.9,4.3,1.3c1.7-0.5,3.3-1.2,4.8-2.2
	c2.3-1.5,4.8-2.6,7.5-3.1c1-0.2,1.9-0.5,2.8-0.7c7.5-2.1,11.6-7.4,11.5-15.2c0-0.3,0.1-0.7,0.1-1.3c0.4,0.2,0.8,0.5,1,0.9
	c0.1,1.7,1.3,3,2.9,3.4c0.3,0.1,0.5,0.3,0.7,0.5c0.2,0.3,0.3,0.6,0.3,0.9c-0.3,0.3-0.6,0.5-1.1,0.5c-0.9-0.4-1.8-0.8-2.6-1.3
	c-0.2,0.8-0.3,1.6-0.4,2.4c-0.2,1.9-0.9,3.7-2.3,5.1c-2.8,3.4-6.8,5.6-11.2,6.2c-3.2,0.3-6.2,1.7-8.5,4c-1.3,1.3-3.1,2-5,1.8
	c-1.5-0.1-3-0.5-4.6,0.2c0.3,1,1.2,1.6,2.3,1.5c2.4,0.2,4.8-0.1,7.1,0.9c0.7,0,1.4-0.3,1.9-0.8c0.9-0.9,1.7-1.8,2.5-2.7
	c3.1-3.6,7.7-5.5,12.4-5.4c1.9,0,3.8,0.1,5.7,0.1c6.7,0,11.4-3.2,13.9-9.3c0.1-0.4,0.2-0.7,0.4-1c0.5-0.4,1-0.7,1.5-1
	c0.3,0.5,0.6,1.1,0.6,1.7c-0.1,1.2-0.5,2.3-1,3.3c-1.5,2.1-3.2,4-5,5.8c-0.7,0.7-1,1.6-0.8,2.6c2.1,9.8,3.1,19.7,2.9,29.7
	c-0.4,14.4-2.8,28.6-7.1,42.3c-3.5,11-7.7,21.7-12.5,32.1h-6.3c0.4-0.8,0.7-1.5,1-2.2c6.6-14.3,12.5-28.8,16.5-44.1
	c3.6-13.9,6-28,5.4-42.5c-0.3-5.3-1.1-10.6-2.3-15.8c-4.8,1.6-9.7,0.6-14.6,1.1c-3.8,0.4-7.2,1.9-9.4,5.2c-1,1.5-2.5,2.5-4.2,2.8
	c-3.5,0.8-7.2,0.6-10.5-0.6c-3.2-1.1-3.9-2.6-3.1-6c-0.7-0.4-1.4-0.8-2.2-1.2c-1.3-0.5-2-2.1-1.4-3.4c0.1-0.2,0.1-0.3,0.2-0.5
	c0.1-0.3,0.3-0.5,0.5-0.7c2.2-2.3,2.7-5.1,2.5-8.1c-0.4-4.2,1.6-8.4,5.3-10.6c2-1.3,3.9-2.8,5.7-4.5c1-1,1.8-2.3,2.3-3.6
	c0.5-0.9,0.2-2.1-0.6-2.8c-0.6-0.7-0.8-1.7-0.7-2.6l1.3,1.4l0.7-3c-1.5,0-2.9,0-4.3,0c-2-0.1-2.9-1.3-2-3.2c0.7-1.6,2.1-2.9,3.8-3.4
	c2.4-0.8,4.8-1.4,7.3-2.1c0-0.1,0-0.1,0-0.2c-2.9-1.2-2.8-4.5-0.5-6.4c2.8-2.5,6.5-3.8,10.2-3.8c1.1,0.2,2.3,0.5,3.3,0.9
	c3.1-3.2,6.9-2.8,10.8-1c3.9,1.8,4.3,4.6,1.4,7.9l1.4,4.4c3.2-0.8,6.2-1.8,9.2-2.4c3.8-0.9,7.7-0.9,11.5,0.2
	c1.5,0.5,2.9,1.2,4.2,2.1c1.3,0.8,1.9,2.4,1.4,3.9c-0.5,1.6-1.8,1.9-3.3,2c-0.5,0-1,0.1-1.5,0.1c-2-0.2-3.5,0.2-4.5,2.2
	c-0.4,0.9-1.5,1.5-2.6,2.6c1.3,2.1,2.5,4.4,3.9,6.5c3.3,4.6,6.2,9.5,8.5,14.6c2.2,5.3,4.3,10.7,6,16.1c3.1,10.1,4.6,20.6,5.9,31.1
	c2.8,22.8,2.5,69.6,2.5,69.6h-7.7c0.2-1.6,0.5-3.2,0.6-4.7c0.3-2.3-0.5-4.6-2-6.4c-0.7-0.7-1.4-1.5-1.9-2.3
	c-1.6-2.5-4.2-4.2-7.2-4.6c-2.7-0.4-3.7-0.3-4.9,2.1c-2.7,5.2-5.1,10.7-7.6,16L303.9,162.2L303.9,162.2z M329.2,130.9
	c0.1,0,0.3,0,0.3-0.1c-0.3-2.4-0.1-18.5-0.8-20.1h-0.2c-0.3,1.7-1.5,2.8-3.1,4.3c-1.3,1.6-1.6,3.8-0.8,5.8c1,2.6,2,5.3,3.2,7.9
	C328.1,129.4,328.6,130.2,329.2,130.9L329.2,130.9z M323.8,73.3l-4.3-14.6c-2.6,1-4.5,5.3-3.5,7.8c0.8,2,1.8,3.9,3.1,5.7
	C320.2,74,321.1,74.1,323.8,73.3L323.8,73.3z M325.8,81.5c-5.5,4.2-3.6,13.6,1.7,14.5L325.8,81.5z M310.1,40.4
	c-0.1-0.2-0.3-0.2-0.5-0.1c-0.1,0.1-0.2,0.2-0.2,0.4c0.2,2.3,0.3,4.6,0.7,6.9c0.3,2.9,2.9,5.1,5.9,4.7c0.2,0,0.4-0.1,0.6-0.1
	L310.1,40.4z M260.9,18.3c3.1,1.5,6.4,0.9,6.9-0.8l-0.9-1.3c1.4-0.8,2.7-0.4,4-0.2c0.9,0,1.8-0.3,2.5-0.7c0.1-0.3,0.1-0.6,0-0.9
	c-0.7-0.4-1.4-0.6-2.2-0.7c-3.2,0.2-6.3,1.2-9,3C261.8,17.1,261.3,17.7,260.9,18.3z M306.3,30.9c2.3-0.9,3.4-2,3.4-3.2
	C306.8,28.7,306.1,29.3,306.3,30.9L306.3,30.9z M309.1,34.9l0.1,0.7c0.5,0.1,1,0.2,1.5,0c0.8-0.7,2.3-1.1,1.6-3L309.1,34.9z
	 M320.3,45.1c-1.6,0.1-3.2,0.3-4.1,2C317.8,47,319.3,46.3,320.3,45.1L320.3,45.1z M317.7,49.2c1.5,0.1,2.9-0.6,3.7-1.8
	C320,47.3,318.6,48,317.7,49.2L317.7,49.2z M310.7,30.3c-1.2,0.5-2.6,0.8-3.3,2.6C309.1,32.4,310.3,31.9,310.7,30.3L310.7,30.3z
	 M308.6,26.4c-1.4-0.2-2.8,0.4-3.6,1.6l0.3,0.5L308.6,26.4z M319.2,43.6l-0.3-0.8c-1.2,0.5-2.6,0.5-3.4,1.8l0.2,0.5
	c0.4,0.9,1.6,1.4,2.5,0.9C319.1,45.6,319.5,44.6,319.2,43.6L319.2,43.6z M314.7,42.2l0.2,0.6l3.1-1.1c-1-0.8-2.4-0.7-3.2,0.3
	C314.8,42.1,314.8,42.2,314.7,42.2L314.7,42.2z M306.9,25.3l-0.2-0.7c-1.3-0.5-2,0.3-2.7,1.2l0.2,0.5c0.3,0.7,1.1,1.1,1.9,0.8
	C306.8,26.7,307.1,26,306.9,25.3L306.9,25.3z M311,36.1c0.7,1.2,1.3,2.4,2,3.7l3-1.8c-0.7-1.2-1.4-2.3-2.1-3.5
	c-0.5-0.8-1.5-1-2.2-0.5C310.9,34.4,310.6,35.4,311,36.1L311,36.1z M273.9,12.2l0-0.3c-0.3,0-0.6,0-0.9,0.1c0,0-0.1,0.1-0.1,0.1
	L273.9,12.2z"/>
<path class="st2" d="M306.3,162.2c2.5-5.3,4.9-10.8,7.6-16c1.2-2.4,2.2-2.5,4.9-2.1c3,0.4,5.6,2.1,7.2,4.6c0.6,0.8,1.2,1.6,1.9,2.3
	c1.5,1.7,2.3,4.1,2,6.4c-0.1,1.6-0.4,3.2-0.6,4.7C321.7,162.2,314,162.3,306.3,162.2z"/>
<path class="st1" d="M93.8,157.5c-0.6,1-1.2,1.9-1.8,2.9c-0.3,0.4-0.4,1-0.6,1.4c-1,1.8-2,1.9-3.4,0.3c-0.2-0.3-0.4-0.6-0.6-0.9
	c-1.4,0.7-2.2,2.6-4.1,2c-1.5-0.4-2.9-1-3.4-2.8c-1.8,0.9-2.9,2.5-5,2.6c-3.3,0.3-4.7-0.6-5-3.9c-0.4-4.4,0.5-8.8,2.5-12.7
	c0.7-1.4,1.6-2.7,2.8-4.6c0.6,1.1,1.2,1.7,1.2,2.4c0.2,1.5,0.2,3-0.1,4.5c-0.8,3.3-1.8,6.6-2.8,9.8c-0.5,1.7-0.3,2.2,1.5,2
	c1.5-0.2,3-0.6,4.5-0.9c0.1-3.6,1.6-6.4,3.4-9.2c0.6-0.9,1.2-1.9,2.6-1.1c2,1.1,2.9,2.4,2.1,3.7c-1.1,1.9-2.4,3.8-3.9,5.5
	c-0.8,0.7-1.2,1.9-0.9,3c2.2-0.7,4.2-1.3,5.4-3.7c0.9-1.9,2-3.8,3.1-5.6c2.6-3.8,2.1-3.9,5.5-2.7l-0.4,1.3c1.4,0,1.6,0.9,1.5,2
	c-0.1,1.3-0.2,2.6-0.3,3.9c-0.2,2-0.4,4-0.6,5.9c-2-0.3-2.7-1.4-2.9-5c0-0.1-0.1-0.2-0.2-0.2C93.9,157.4,93.8,157.5,93.8,157.5z
	 M83.7,155.2l1.7-2.5l0.1-0.6l-0.2,0.1L83.7,155.2l0,0.1L83.7,155.2z M91.4,158.2l0.4,0.2l3.7-6.4l-0.5-0.3
	C92.9,153.4,92.3,155.8,91.4,158.2L91.4,158.2z"/>
<path class="st1" d="M132.4,169.8l2.4,1.7c5.6-3,5.7-8.6,6.6-13.8l-3.2,5.2c-1.2,0.1-2,0.1-2.9,0.2c-1.7,0.1-3.3-1-3.8-2.7
	c-0.2-1.3-0.3-2.6-0.2-3.9c0.1-0.8,0.2-1.6,0.4-2.5c0-0.2-0.1-0.3-0.3-0.3c-0.1,0-0.3,0.1-0.3,0.2l-3.7,9.2
	c-1.6-0.1-2.3-0.6-2.3-2.2c-0.1-1.5,0.1-2.9,0.4-4.3c0.5-2.2,1.2-4.4,1.7-6.5c0.1-0.7,0.8-1.2,1.5-1.1c0,0,0.1,0,0.1,0
	c0.6,0,1.1,0.6,1.1,1.2c0,0.1,0,0.2-0.1,0.3c-0.1,0.7-0.1,1.4,0.1,2.1c0.4-0.5,0.7-1.1,1.1-1.6c0.4-1,1.5-1.5,2.5-1.2
	c1.3,0.3,1.5,1.3,1.5,2.3c-0.1,1.5-0.2,3-0.4,4.5c-0.2,1.3-0.6,2.6-0.8,3.8c-0.1,0.7-0.1,1.4,0.8,1.4c0.4-0.3,0.7-0.7,0.7-1.2
	c0.1-4.6,2.7-8,5.3-11.5c0.4-0.3,1-0.5,1.5-0.4c2.2,0.3,3.7,2.2,3.4,4.4c0,0.1,0,0.1,0,0.2c-0.4,3.4-0.7,6.8-1.4,10.2
	c-0.6,3.4-2.5,6.3-5.3,8.2C136.2,173.4,133.6,172.7,132.4,169.8z M137.8,160.3c2.4-2.7,4.2-5.8,5.3-9.3
	C140.8,153.8,138.6,156.7,137.8,160.3L137.8,160.3z"/>
<path class="st1" d="M55.4,129.3c-0.2-15-0.4-29.5-0.6-44.3h18.3v8.3l-9.2,0.5v10.8h8v8.1h-7.8v8.6h9.2v8.1L55.4,129.3L55.4,129.3z"
	/>
<path class="st1" d="M252.9,130.7c-2.8-10.3-5.1-20.5-8.2-30.6c-1,1.8-0.6,3.6-0.6,5.4c-0.1,2,0,3.9,0.1,5.9c0,1.9,0.1,3.8,0.2,5.7
	c0.1,2,0.1,3.9,0.2,5.9c0,1.9,0,3.8,0,5.8h-4.7V85.6h5.2c2.7,10.4,5.1,20.9,8.4,31.3c0.6-2.7,0.4-5.4,0.3-8.1
	c-0.1-2.8-0.1-5.7-0.2-8.5c-0.1-2.8-0.3-5.5-0.3-8.3c-0.1-2.7,0-5.5,0-8.3h4.5c0.2,15.5,0.4,30.9,0.6,46.6L252.9,130.7z"/>
<path class="st1" d="M43,114.3v15.4h-8.6c-0.2-15-0.4-30-0.6-45.3h18.5v8.4h-9.5v13h8.5v8.5L43,114.3L43,114.3z"/>
<path class="st1" d="M137.4,84.1l5.1-0.6c0.4,2.8,0.7,5.4,1,8.1c1.2,9.3,1.2,18.6,0.2,27.9c-0.3,2.1-0.8,4.1-1.5,6.1
	c-0.9,3-3.6,5-6.7,5c-3.4,0.1-5.6-1.6-7-4.6c-1.3-3-2-6.3-2.1-9.6c-0.9-9.9-0.3-19.8,0.8-29.7c0-0.4,0.1-0.7,0.3-1.3
	c0.8,0.1,1.6,0.1,2.3,0.2c0.7,0.1,1.4,0.2,2.4,0.4c-0.1,1.7-0.3,3.4-0.4,5c-0.8,9.8-1.3,19.6,0.2,29.4c0.2,1.3,0.6,2.6,1.2,3.7
	c0.5,0.8,1.3,1.3,2.2,1.5c1.1,0.1,2.1-0.6,2.3-1.7c0.6-2.2,1.1-4.4,1.3-6.6c0.6-10,0.3-20-1.1-29.9
	C137.6,86.5,137.5,85.4,137.4,84.1z"/>
<path class="st1" d="M18.4,129.8H0V84.7h8.5l0.3,37.1h9.6L18.4,129.8L18.4,129.8z"/>
<path class="st1" d="M105.2,129.8c0-1.2,0-2.3,0-3.3c0-13.2-0.1-26.3-0.1-39.5c0-2.3,0-2.3,2.4-2.6c7.3-0.8,11.9,2.1,14.1,9.1
	c0.4,1.3,0.8,2.7,1,4c1,7.5,1.3,15.1-0.5,22.5C119.9,128.4,113.9,131.9,105.2,129.8z M110,89c0.1,12.4-0.1,24.7,0.5,36.9
	c2.7,0.1,4-0.5,5-2.4c0.7-1.3,1.2-2.8,1.5-4.3c1.4-7.7,1.4-15.6,0-23.2c-0.4-1.8-1.2-3.6-2.1-5.2C113.9,89.1,112.3,88.4,110,89z"/>
<path class="st1" d="M236.3,106.8c-0.5,5.1-0.9,9.9-1.6,14.6c-0.4,2-1.1,3.9-2.1,5.7c-2.3,4.4-9.7,4.6-12.2,0.4
	c-1.3-2-2.1-4.3-2.6-6.6c-1.6-8.8-1.6-17.9-0.1-26.7c0.5-2.5,1.4-4.9,2.7-7.1c2.1-3.3,6.5-4.2,9.7-2.1c0.8,0.5,1.5,1.2,2.1,2
	c1.2,1.8,2,3.9,2.5,6C235.5,97.6,235.8,102.4,236.3,106.8z M230.7,108c-0.2-4.1-0.2-7.6-0.5-11c-0.2-2.1-0.6-4.2-1.2-6.2
	c-0.4-1.3-1.1-2.7-2.7-2.7c-1.6,0-2.2,1.3-2.6,2.6c-0.5,1.3-0.8,2.6-1,4c-1,8.5-0.9,17,0.1,25.5c0.2,1.7,0.7,3.3,1.5,4.7
	c0.5,1.2,1.8,1.8,3,1.3c0.6-0.2,1.1-0.7,1.3-1.3c0.7-1.4,1.2-2.8,1.3-4.3C230.2,116.1,230.5,111.7,230.7,108L230.7,108z"/>
<path class="st1" d="M164.8,101.8h-5c0-1.3,0.1-2.5,0-3.8c-0.2-2.2-0.4-4.3-0.6-6.5c0-0.7-0.3-1.3-0.6-1.8c-0.5-0.6-1.3-1.5-1.9-1.5
	c-0.9,0.2-1.7,0.7-2.2,1.4c-0.5,0.7-0.8,1.4-0.9,2.2c-0.3,0.9-0.4,1.9-0.5,2.9c-0.7,8.2-0.7,16.5,0.1,24.8c0.3,1.8,0.7,3.6,1.3,5.3
	c0.3,1.1,1.3,1.9,2.5,1.8c1.2,0,2.1-0.8,2.3-2c0.5-1.9,0.8-3.8,1-5.8c0.2-2.5,0-4.9,0-7.6l5.2-0.2c0.1,5.6,0.3,10.9-2.2,15.9
	c-1.2,2.5-3.8,4.1-6.6,3.9c-3,0-5.4-1.2-6.6-3.8c-1.1-2.4-1.9-4.9-2.3-7.5c-1.1-8.1-1.1-16.3,0-24.4c0.4-2.7,1.2-5.2,2.4-7.7
	c1.3-2.9,3.9-4,7-3.8c3.2,0.1,5,2.1,6.1,4.9C164.6,91.6,165.3,98,164.8,101.8z"/>
<path class="st1" d="M173.2,84.3h7.1l6.8,46.3H182l-1.4-10.5H173l-1.2,8.7H167L173.2,84.3z M177.1,91.7c0-0.2-0.2-0.3-0.4-0.3
	c-0.2,0-0.3,0.2-0.3,0.3l-3,23.8h6.7L177.1,91.7z"/>
<rect x="21" y="84.4" class="st1" width="8.7" height="45.5"/>
<path class="st1" d="M92.3,105.9h8.4v4.5h-8.3v14.7h9.6v4.9l-14.6-0.5c-0.2-15-0.3-29.8-0.5-44.8h14.5v4.5c-2.2,0-4.5,0.1-6.9,0.1
	C92,89.3,92,89.3,92,91.9c0,3.9,0.1,7.9,0.1,11.8C92.1,104.4,92.2,105,92.3,105.9z"/>
<polygon class="st1" points="203.7,89.2 197.7,89.2 197.7,129.9 192.6,129.9 192.6,89.3 186.3,89.3 186.3,84.5 203.7,84.5 "/>
<path class="st1" d="M212.4,129.8h-5.1v-45h4.7C212.1,99.6,212.3,114.6,212.4,129.8z"/>
<path class="st1" d="M186.9,159.8c1-2.1,2-4.3,3.1-6.4c0.1-0.2,0.3-0.4,0.4-0.6c0.8-1.2,1.6-2.9,3.2-2.2c1.1,0.4,2,1,1.8,2.4
	c-0.2,1.5-0.5,3-0.7,4.5c-0.2,1.6-0.2,3.3-0.3,5h2c-0.2,0.3-0.4,0.6-0.7,0.8c-1.6,0.4-3.3-0.6-3.8-2.2c-0.3-1.4-0.4-2.8-0.3-4.3
	c0-1,0.3-2,0.3-3c-2.8,2.5-3.3,6.2-4.8,9.3c-2.2,0.2-2.4-1.6-3.1-3.2c-0.4,0.5-0.8,1-1.2,1.6c-0.9,1.8-2.2,2.4-4,1.5
	c-2.1-0.9-3.5-3-3.6-5.3c-0.1-1.1-0.1-2.2,0-3.3c0.4-1.5,0-3.1-1.2-4.2c1.7-0.1,2.2-1.1,2.7-2.2c0.8-1.6,1.7-3.1,2.7-4.5
	c1.4,1.9,1.5,2.2,1.3,6.1c0.8,0.1,1.5,0.2,2.3,0.3c0.7,0.1,1.4,0.2,2.1,0.3l4.1-11c2.4,0.5,2.9,1.1,2.4,3.1
	c-1.1,4.1-2.3,8.1-3.5,12.1c-0.5,1.7-1.1,3.4-1.6,5.2L186.9,159.8z M185,150.9c-1.6,0.5-3.1,0.9-4.6,1.4c-0.4,0.1-0.7,0.4-0.9,0.8
	c-0.5,2.1-1,4.2-1.4,6.4c0,0.6,0.4,1.2,0.9,1.5c1.3,0.6,4.8-1.5,5-2.9C184.4,155.8,184.7,153.4,185,150.9L185,150.9z"/>
<path class="st1" d="M206.5,142.4c2,3.6,0.7,7,0.6,10.6l2.7-0.2c0.8-2.5,1.5-4.8,2.2-7.2c0.2-0.6,0.5-1.2,0.8-1.8
	c0.4-0.6,0.6-1.8,1.6-1.2c0.7,0.4,1.2,1.1,1.3,2c0,2.2-0.3,4.3-0.5,6.5c0,0.4-0.1,0.9-0.2,1.4l1.8,0.8c-2.4,0.8-2.7,2.5-3.1,4.3
	c-0.4,1.8-0.9,3.6-1.4,5.6c-1.4-0.4-2.5-1.7-2.5-3.2c-0.1-1.4,0-2.7,0-4.2c-0.7,0-1.1-0.1-1.5-0.1c-2.3,0-2.5,0.1-2.9,2.3
	c-0.3,1.6-0.4,3.2-0.7,5.1c-0.9,0.2-1.8-0.4-2-1.3c0,0,0,0,0-0.1c-0.3-0.9-0.4-1.8-0.4-2.8c0.1-5.2,1.2-10.4,3.1-15.3
	C205.7,143.3,206.1,142.8,206.5,142.4z"/>
<path class="st1" d="M122.3,162l2.1-0.4c-0.4,2.2-1.5,2.3-4,0.3c-2.5,1.9-5.1,1-5.7-2.1c-0.1-1.3-0.1-2.6,0.1-3.9
	c0.1-0.8,0.2-1.6,0.3-2.3l-0.5-0.2l-3.9,9.6c-1.6-0.1-2.3-0.6-2.3-2.2c0-1.7,0.2-3.5,0.6-5.2c0.4-1.9,1.1-3.7,1.5-5.6
	c0.2-0.7,0.9-1.3,1.6-1.2c1.1,0.1,1.1,0.9,1,1.8c-0.1,0.5-0.1,1-0.1,2.1c0.7-1,1.2-1.6,1.6-2.2c0.5-0.8,1.4-1.1,2.3-0.8
	c0.8,0.1,1.5,0.8,1.4,1.7c-0.1,1.8-0.2,3.6-0.4,5.4c-0.2,1.6-0.6,3.2-0.9,4.7c0,0.2,0.1,0.4,0.3,0.4c0.1,0,0.1,0,0.2,0l2.3-0.8
	c-0.6-4.4-0.2-8.3,2.9-11.8c1.3,0.5,2,2,1.5,3.4c-0.5,2.2-1.1,4.4-1.6,6.6C122.4,160.2,122.4,161,122.3,162z"/>
<path class="st1" d="M155.9,156.2c0.8-1.8,1.6-3.6,2.4-5.4c0.2-0.8,1-1.2,1.8-1c0,0,0.1,0,0.1,0c0.5,0.4,0.8,1.1,0.8,1.7
	c0,2.3-0.2,4.5-0.2,6.8c0,0.8,0.1,1.5,0.2,2.3l0.6,0.2c0.7-0.8,1.2-1.7,1.6-2.6c0.6-2.4,1.1-4.8,1.5-7.2c0.2-0.9-0.2-2.2,1-2.3
	c1.2-0.1,1.9,0.8,2.2,2c0.8,2.8,0.4,5.9-1.1,8.4c-0.5,0.9-1.1,1.7-1.8,2.5c-0.8,1-1.6,2.1-3,1.7c-1.7-0.3-3-1.6-3.5-3.3
	c-0.2-1.5-0.5-2.9-0.9-4.4l-2.9,7.5c-1.2-0.3-2-1.3-2-2.5c-0.3-4.2,0.3-8.5,1.7-12.4c1.4,1.1,1.4,1.1,0.8,7.1l-0.3,2.1l0.3,0.1
	L155.9,156.2z"/>
<path class="st1" d="M257,149.6c1-2.5,1.8-4.8,2.8-6.9c0.7-1.6,1.2-1.7,3.2-1.1c0.2,3.9-0.7,7.8-2.6,11.3c-1.1,2.1-1.4,4.5-0.8,6.7
	c0.6,2.8,1.4,3.1,3.8,1.3c0.3-0.3,0.7-0.5,1.4-1.1c-0.9,2-1.9,3-3.7,3.2c-2.4,0.2-2.7-2-4-3.5c-0.4,0.7-0.7,1.4-1,2
	c-1,1.8-1.6,2.2-3.2,1.8c-1.5-0.3-2.5-1.6-2.6-3.1c0-0.9,0.1-1.9,0.4-2.8c0.7-1.8,1.6-3.6,2.4-5.3
	C253.9,150.4,254.9,149.1,257,149.6z M256.5,153.1c-2.6,2.1-4.3,6.9-3.1,8.6C255.6,159.4,256.7,156.3,256.5,153.1L256.5,153.1z
	 M260.7,147.2c0.1-0.1,0.1-0.1,0.2-0.2c0-0.1-0.1-0.3-0.1-0.4L260.7,147.2z"/>
<path class="st1" d="M225.1,163c-3-0.8-3.7-2.7-3.6-5.1c0-0.1-0.1-0.3-0.2-0.3c-0.1,0-0.2,0-0.2,0.1c-0.5,0.8-1.1,1.5-1.6,2.3
	c-0.3,0.5-0.4,1.1-0.7,1.6c-0.5,0.8-1.1,1.8-2.1,1.5c-1.1-0.3-1.9-1.3-1.8-2.5c0.1-1.2,0.4-2.3,0.9-3.3c1.2-2.3,2.5-4.4,3.9-6.5
	c1.6-2.3,1.7-2.3,4.6-1.2l-0.4,1.2l0.4-0.2c0.5,0.5,0.8,1.2,1,1.9c0,1.5-0.1,2.9-0.3,4.3C224.6,158.7,223.8,160.7,225.1,163z
	 M219,158c1.5-1.8,2.6-4,3.3-6.2C220.6,153.6,219.1,155.5,219,158l-0.3,0l0,0.1L219,158z"/>
<path class="st1" d="M235.1,158.6c0.5-3.5,2-6.7,4.4-9.2c0.7-0.8,1.9-1.4,2.1,0.5c1.2,0.3,1.6,1.3,2.1,2.2c2.1,4,0.6,7.5-2.2,10.2
	c-1.2,1.2-3,1.5-4.4,0.7C235.4,162.3,235,160.8,235.1,158.6z M240.5,151.2c-1.5,3.4-2.7,6.6-2.8,10.3
	C240.8,160.3,242.2,155,240.5,151.2L240.5,151.2z"/>
<path class="st1" d="M250.8,139.7c1.7,0.7,1.5,2.2,1.3,3.5c-0.7,3.7-1.5,7.4-2.3,11.1c-0.4,1.8-0.9,3.5-1.2,5.3
	c-0.1,1.2-0.1,2.3,0,3.5c-1-0.2-1.8-1-1.8-2.1c-0.4-2-0.6-4-0.6-6c0.3-5.2,2.2-10.1,4.2-14.8C250.5,140,250.7,139.9,250.8,139.7z"/>
<path class="st1" d="M100.2,149.2c2.1,0.3,2.2,0.4,3.1,2.3c1.7-1.9,3.5-2.7,6.1-1.1c0.8,0.5,1.1,1.6,0.5,2.5c-0.4,0.6-1,0.9-1.7,0.8
	l-0.4-0.1l-0.3-2.1c-3,1.2-5.7,6.4-5.9,11.3c-1.9,0.5-2.7,0-2.9-1.9c-0.1-1.2,0-2.3,0.2-3.5C99.4,154.8,99.8,152,100.2,149.2z"/>
<path class="st1" d="M228.9,163.1c-2,0.2-2.8-0.4-2.9-2.3c0-1.2,0.1-2.5,0.3-3.7c0.4-2.6,0.8-5.3,1.2-8.1c1.5,0.3,2.7,0.8,3,2.6
	c1.8-2.2,3.7-2.7,6.3-1.2l-1.6,3.7c-0.2-1.2-0.3-1.9-0.6-3C231.1,154.1,229,158.4,228.9,163.1z"/>
<path class="st1" d="M171.5,162l2.1-0.3c-0.3,1.6-0.7,1.9-2,1.5c-1.5-0.4-2.5-1.6-2.7-3.1c-0.7-3.8,0.4-7.7,2.9-10.6
	c1.3,0.4,2.1,1.9,1.6,3.2c0,0,0,0,0,0c-0.5,2-1,3.9-1.4,5.9C171.7,159.7,171.6,160.7,171.5,162z"/>
<path class="st1" d="M175.2,146.1c-1.3,1.8-2,2.1-3.7,1.2C172.1,145,173,144.7,175.2,146.1z"/>
<path class="st1" d="M126.1,146.5c-0.6,0.5-1.2,0.9-1.9,1.2c-0.6,0.1-1.2,0-1.8-0.1c0.2-0.6,0.2-1.6,0.6-1.8
	c0.7-0.3,1.5-0.3,2.2-0.2C125.6,145.8,125.9,146.1,126.1,146.5z"/>
<path class="st1" d="M292.1,23.7c1.1,1.7,1.5,3.7,1.1,5.6c0,0.7,0.1,1.4,0.3,2.1c0.1,0.7,0,1.3-0.3,1.9c-0.5,0.8-1.2,0.4-1.9,0
	c-3.1-1.9-6.6-2.1-10.1-1.9c-1,0.2-2,0.4-2.9,0.8c-0.4,0-0.8,0-1.1,0c-0.2,0-0.3-0.2-0.3-0.4c0,0,0,0,0-0.1l1.6-5.2
	c0.3-3.4,2.6-6.1,5.8-6.3c1.9,0,3.6-1.1,4.4-2.9c0.1-0.3,0.4-0.5,0.7-0.5l-1.8,3.9c-0.8,0.3-1.5,0.6-2.3,0.8c-3,0.3-5.2,3-4.9,6.1
	c0,0.2,0,0.3,0.1,0.5c0.1,0.4,0.4,0.8,0.7,1c0.2,0.2,0.5,0.2,0.7,0c0,0,0,0,0.1-0.1c0.2-0.3,0.4-0.6,0.5-1c0.3-0.9,0.3-1.9,0.6-2.8
	c0.4-1.2,1.1-2.1,2.2-1.5c0.4-0.5,0.8-0.9,1.4-1.2c1.4,0,2.9,0.1,4.3,0.2l0.5,0.3c0.1,0,0.2,0.1,0.2,0.1L292.1,23.7L292.1,23.7z
	 M285.8,27.8l1-1.7c-1.8-1.1-1.8-1.1-2.9,0.7L285.8,27.8z M287.4,23.5l-0.3,0.2l1,2.5c0.2-0.3,0.4-0.6,0.7-0.8
	c0.3-0.1,0.9-0.1,0.9-0.2c0-0.7-0.1-1.4-0.2-2l-0.9,1.5L287.4,23.5z M283.9,28.2l-0.1,0.8l2,0.2l0.1-0.6L283.9,28.2z M290.9,27.9
	c-0.2-0.2-0.5-0.4-0.8-0.5c-0.3,0.2-0.5,0.4-0.7,0.7c0.1,0.2,0.3,0.4,0.6,0.5C290.3,28.4,290.6,28.2,290.9,27.9L290.9,27.9z
	 M290.3,25.1l0.4,0.1l0.3-1.1l-0.3-0.1L290.3,25.1z"/>
<path class="st1" d="M316.5,116.3c1,0,1.9,0.7,2.1,1.7c0.9,4,1.7,7.9,2.6,11.8c0.5,2.1,0.9,4.3,1.5,6.4c0.4,1,0.1,2.2-0.8,2.9
	c-0.9,0.8-2.1,0.8-3,0.1c-1.7-1-3.3-2.1-4.8-3.4c-1-1-1.6-2.2-1.9-3.6c-0.8-4.4-1.4-8.9-2.1-13.4c-0.2-1.6,0.5-2.4,2.4-2.5
	C313.8,116.3,315.1,116.3,316.5,116.3z M312.4,118.5c0.5,3.1,0.8,5.9,1.3,8.8c0.4,2.1,0.9,4.2,1.6,6.3c0.8,2.1,2.7,3,4.7,3.6
	c0.1-0.1,0.2-0.2,0.3-0.4c-1.3-5.8-2.5-11.6-3.9-17.4c-0.3-0.5-0.8-0.9-1.4-1.1C314.2,118.2,313.3,118.3,312.4,118.5L312.4,118.5z"
	/>
<path class="st1" d="M320.1,113.8c-6.8-0.5-6-0.4-7-5.3c-1-4.6,1.4-7.9,3.5-11.4c0.6-1.1,1.9-1.5,2.9-0.9c0.2,0.1,0.3,0.2,0.4,0.3
	c1.9,1.6,3.8,3.2,5.7,4.8c2.3,1.9,2.4,2.5,0.9,5.2c-0.9,1.6-1.9,3.1-2.7,4.7C322.7,113.1,321.2,113.9,320.1,113.8z M318.2,111.1
	c1.6,0,2.9-0.1,3.7-1.4c0.9-1.5,1.8-3,2.7-4.5c0.6-0.8,0.4-1.9-0.4-2.5c0,0,0,0-0.1,0c-1.2-1-2.4-2.1-3.6-3.1
	c-0.9-0.7-2.1-0.6-2.8,0.3c0,0-0.1,0.1-0.1,0.1c-1.7,2.4-3.2,4.8-1.8,7.9c0.2,0.4,0.3,0.9,0.3,1.3
	C316.2,110.7,317,111.3,318.2,111.1L318.2,111.1z"/>
<path class="st1" d="M312.7,78.8c0.4-2.3,1.9-3.2,4.1-2.4c0.4,0.2,0.8,0.4,1.2,0.6c2.7,1.3,2.8,1.5,2,4.3c-0.3,1.2-0.6,2.4-0.8,3.6
	c-0.3,1.3-0.3,2.7-2,3c-1.7,0.1-3.3-0.8-4-2.4c-0.4-1.4-0.7-2.8-0.7-4.2C312.4,80.4,312.5,79.6,312.7,78.8z M314.2,82.5
	c0.3,0.9,0.6,1.9,1.1,2.7c0.2,0.5,0.8,0.7,1.3,0.5c0.3-0.2,0.6-0.5,0.6-0.9c0.4-1.5,0.7-3.1,0.9-4.7c0.2-1.3-0.8-1.7-1.9-1.9
	c-1.1-0.2-1.4,0.6-1.5,1.4C314.6,80.5,314.4,81.3,314.2,82.5L314.2,82.5z"/>
<path class="st1" d="M255.1,54.7c-0.2-0.4-0.2-0.7-0.2-1.1c0.3-1.6,0.8-3.1,1.5-4.5c0.7-1,1.7-1.7,2.9-2.1c1.2-0.5,2.6-0.2,3.4,0.9
	c0.9,1.2,0.3,2.3-0.4,3.5l-3.8-0.8c-0.1,0-0.2-0.2-0.2-0.3c0-0.1,0.1-0.1,0.1-0.2l2.5-1.3c-0.8-0.8-2.1-0.8-2.9,0
	c-0.2,0.2-0.3,0.4-0.4,0.6c-0.6,1.2-1.1,2.4-1.4,3.6c-0.2,0.6-0.3,1.2-0.4,1.8L255.1,54.7z"/>
<path class="st1" d="M290.7,21.9c-0.6,0.2-1,0.3-0.7-0.6c0.2-0.4,0.4-0.9,0.6-1.3l0.8-0.6L290.7,21.9z"/>
<path class="st1" d="M289.9,20.2c-0.5,0.5-0.4,2.1-1.8,1l1.6-2.1L289.9,20.2z"/>
<polygon class="st1" points="292.1,23.7 292.1,23.7 292.2,23.6 "/>
<path class="st2" d="M329.2,130.9c-0.6-0.7-1.1-1.5-1.5-2.3c-1.1-2.6-2.1-5.3-3.2-7.9c-1-2.3-0.3-5,1.6-6.7c0.9-1,1.7-2.1,2.2-3.3
	c0.1-0.2,0.3-0.3,0.5-0.2c0.1,0.1,0.2,0.2,0.2,0.3l0.7,19.8c0,0.2-0.1,0.3-0.3,0.3C329.4,131,329.3,131,329.2,130.9z"/>
<path class="st2" d="M323.8,73.3c-2.7,0.8-3.6,0.7-4.7-1.1c-1.2-1.8-2.2-3.7-3.1-5.7c-1-2.5,0.9-6.8,3.5-7.8L323.8,73.3z"/>
<path class="st2" d="M325.8,81.5l1.7,14.5C322.2,95.1,320.3,85.8,325.8,81.5z"/>
<path class="st2" d="M310.1,40.4l6.5,11.8c-2.9,0.7-5.7-1.1-6.4-4c0-0.2-0.1-0.4-0.1-0.6c-0.4-2.3-0.5-4.6-0.7-6.9
	c0-0.2,0.1-0.4,0.3-0.4C309.9,40.2,310,40.3,310.1,40.4z"/>
<path class="st2" d="M260.9,18.3c0.4-0.6,0.9-1.2,1.4-1.7c2.7-1.8,5.8-2.8,9-3c0.8,0.1,1.5,0.3,2.2,0.7c0.1,0.3,0.1,0.6,0,0.9
	c-0.8,0.4-1.6,0.7-2.5,0.7c-1.3-0.1-2.5-0.6-4,0.2l0.9,1.3C267.3,19.3,264,19.8,260.9,18.3z"/>
<path class="st2" d="M312.4,118.5c0.9-0.2,1.8-0.3,2.6-0.2c0.6,0.1,1.1,0.5,1.4,1.1c1.4,5.8,2.6,11.6,3.9,17.4
	c-0.1,0.1-0.2,0.3-0.3,0.4c-2-0.5-3.9-1.4-4.7-3.6c-0.7-2-1.3-4.2-1.6-6.3C313.2,124.4,312.9,121.5,312.4,118.5z"/>
<path class="st2" d="M318.2,111.1c-1.2,0.2-2-0.4-2.2-1.9c0-0.5-0.1-0.9-0.3-1.3c-1.3-3.1,0.1-5.6,1.8-7.9c0.6-0.9,1.9-1.1,2.8-0.5
	c0,0,0.1,0.1,0.1,0.1c1.2,1,2.4,2.1,3.6,3.1c0.8,0.5,1,1.6,0.5,2.4c0,0,0,0,0,0.1c-0.9,1.5-1.8,3-2.7,4.5
	C321.1,111,319.8,111.1,318.2,111.1z"/>
<path class="st2" d="M314.3,82.9c-0.1-0.2-0.1-0.5,0-0.8c0.2-1,0.3-1.7,0.5-2.5c0.2-0.8,0.5-1.6,1.5-1.4c1,0.2,2.1,0.6,1.9,1.9
	c-0.2,1.6-0.5,3.1-0.9,4.7c0,0.6-0.5,1-1.1,0.9c-0.4,0-0.7-0.3-0.9-0.6C314.9,84.5,314.5,83.7,314.3,82.9z"/>
</svg>
