<svg id="Layer_1" data-name="Layer 1" xmlns="http://www.w3.org/2000/svg" viewBox="0 0 280 126.8"><title>about-logo</title><path d="M275.52,93.05a2.06,2.06,0,1,0,4.12,0C279.64,90.4,275.52,90.42,275.52,93.05Zm3.16,1.1a1.57,1.57,0,0,1-2.21,0,1.58,1.58,0,0,1-.45-1.11,1.55,1.55,0,0,1,1.56-1.57,1.58,1.58,0,0,1,1.12.46,1.55,1.55,0,0,1,.46,1.11A1.54,1.54,0,0,1,278.68,94.16Z" style="fill:#fff"/><path d="M32.82,81.11l86.71,0a2.06,2.06,0,0,0,1.92-1.36,2.39,2.39,0,0,0,.08-0.59,2.58,2.58,0,0,0-.6-1.65l0,0L78.7,18a7.5,7.5,0,0,0-2.17-2.13,3.56,3.56,0,0,0-1.87-.55,3.67,3.67,0,0,0-1.87.56,6.62,6.62,0,0,0-2.07,2.07l-39.11,59a5.13,5.13,0,0,0-.95,2.22,1.15,1.15,0,0,0,0,.17,1.35,1.35,0,0,0,.27.8A2.41,2.41,0,0,0,32.82,81.11Zm42.9-22.34,0-42.06,7.68,11.82L94.57,53.45l3-5.77L120,79.49H107.39l-6.6-9.77-6.18,9.77L86.27,65l0,14.49H75.73V58.77ZM73.52,16.88v62.6H63.09V71.71H49.69l-5,7.78H32.38Z" style="fill:#fff"/><polygon points="62.72 50.54 54.72 63.39 62.72 63.39 62.72 50.54" style="fill:#fff"/><path d="M72.09,2.86A3.76,3.76,0,0,1,73.5,1.29,4.58,4.58,0,0,1,75.55.64a3.58,3.58,0,0,1,1.61.28,4.18,4.18,0,0,1,2,1.65A3.33,3.33,0,0,1,79.28,6a10.73,10.73,0,0,1-2.91,2.38c-0.9.54-2,1.29-2,2.55,0,0.15,0,.23,0,0.23H73.9l-0.29,3.9a4.1,4.1,0,0,1,1.07-.14,3.23,3.23,0,0,1,1,.14l-0.19-3.9H75.12s0-.09,0-0.22c0-.88,1.11-1.63,2.34-2.35a8.07,8.07,0,0,0,2.46-2.06,3.91,3.91,0,0,0,.28-3.6A4.3,4.3,0,0,0,77.77.45,5.15,5.15,0,0,0,73.94.3,4.79,4.79,0,0,0,71.45,2.5,4.19,4.19,0,0,0,71,5h0.7A4.32,4.32,0,0,1,72.09,2.86Z" style="fill:#fff"/><path d="M15.43,93.63a28.53,28.53,0,0,1-.82,4.8l-1.21,4.92h3.89L16,97.87A26.09,26.09,0,0,1,15.43,93.63Zm-0.22,8.3,0.14-.59,0.14,0.59H15.21Z" style="fill:#fff"/><path d="M39.83,98a2.61,2.61,0,0,0-2.33,1.12v10a1.45,1.45,0,0,0,1.43.6c1.77,0,3.15-.39,3.15-6.26C42.08,100,41.82,98,39.83,98Zm-0.91,10.29h0V99.75a1.39,1.39,0,0,1,.91-0.29c0.35,0,.83,0,0.83,4C40.66,108.33,39.86,108.33,38.92,108.33Z" style="fill:#fff"/><path d="M62.64,98a2.61,2.61,0,0,0-2.33,1.12v10a1.45,1.45,0,0,0,1.43.6c1.77,0,3.15-.39,3.15-6.26C64.89,100,64.63,98,62.64,98Zm-0.91,10.29h0V99.75a1.4,1.4,0,0,1,.92-0.29c0.35,0,.83,0,0.83,4C63.47,108.33,62.67,108.33,61.74,108.33Z" style="fill:#fff"/><path d="M81.56,108.32a2,2,0,0,0,2.08,2.16,2.67,2.67,0,0,0,1.77-.74v-3.89C82.25,105.77,81.56,107,81.56,108.32Zm1.6-.62a1.81,1.81,0,0,1,.83-0.33V109a1.29,1.29,0,0,1-.35.08c-0.33,0-.66-0.06-0.66-0.74A0.75,0.75,0,0,1,83.16,107.7Z" style="fill:#fff"/><path d="M132.88,112.92c0.76,2.34,2.65,4.16,7.38,4.16a16.33,16.33,0,0,0,5.19-.74v0.17h10.14V99.74a3.09,3.09,0,0,1,1-.29h0c0,0.49,0,1.32,0,1.82v15.24h9.88V99.93a5.51,5.51,0,0,1,1-.35h0.08a12.49,12.49,0,0,1,.08,1.73v15.2H177.8V98.86c0-5.33-2.51-8-7.47-8a10.5,10.5,0,0,0-6.26,2,7.28,7.28,0,0,0-5.14-2,9.12,9.12,0,0,0-4.42,1.23l-0.38-1.38-1.27.21-8.41,1.42,0.35,1.47a31,31,0,0,1,.65,7.15v9.75l-0.19-.73-0.54-1.21-1.61.27h-0.17a16.07,16.07,0,0,1-.23-3.53V88.92a39,39,0,0,0-.36-5.8l-0.23-1.41-1.41.24-8.84,1.49,0.25,1.41a54,54,0,0,1,.24,6.9v8.82a12.07,12.07,0,0,0-3.09-6.8c-1.93-1.94-4.66-2.93-8.1-2.93a10.69,10.69,0,0,0-9,4.2l0.87-3-1.16-.48a7.88,7.88,0,0,0-3.35-.76A6,6,0,0,0,104.89,92l-0.36-1.27-1.26.21-8.43,1.42,0.37,1.49a32.67,32.67,0,0,1,.65,7.74V111l-0.54-.34c-0.83-.53-1.07-1.24-1.07-3.17l0.08-7.68a12.16,12.16,0,0,0-.4-3.88c-1-3.23-4.43-5.06-9.39-5.06a21.32,21.32,0,0,0-10.76,3.36l-1.19.72,4,6.83a8.64,8.64,0,0,0-2.27,2.12c0-.34,0-0.67,0-1,0-9.92-5.54-12-10.19-12a8.52,8.52,0,0,0-3.81,1L60,90.53l-1.27.37-8.41,1.42,0.35,1.47a29.19,29.19,0,0,1,.65,6.38c-0.92-7.62-5.83-9.33-10-9.33a8.51,8.51,0,0,0-3.81,1l-0.3-1.27L36,90.89l-8.41,1.42,0.35,1.47a30.87,30.87,0,0,1,.65,7.15v8.58L20.71,83.57H10.59L0,116.52H11.14l1.64-5.79h5l1.56,5.79h9.26V126.8L38.92,124v-5.67c0-.57,0-1-0.06-1.44a9.84,9.84,0,0,0,1.8.18c3.72,0,9.72-1.58,10.72-11.34V126.8L61.73,124v-5.67c0-.57,0-1-0.07-1.44a9.88,9.88,0,0,0,1.8.18,9.75,9.75,0,0,0,9.61-6.47c0.82,4.08,4,6.47,8.83,6.47a10.24,10.24,0,0,0,5.31-1.39,7.3,7.3,0,0,0,2.59,1.67l0.81,0.26,5.25-5.09v4h10.35V100.36a1.5,1.5,0,0,1,1.22-.69,2.62,2.62,0,0,1,1.51.43l1,0.53a19.52,19.52,0,0,0-.31,3.46c0,8.14,4.66,13,12.48,13a15.41,15.41,0,0,0,9.94-3.49Zm20.21-20.63a9.13,9.13,0,0,1,.43,2.16,8.29,8.29,0,0,1,5.4-2.21,6,6,0,0,1,5,2.42,9.06,9.06,0,0,1,6.39-2.42c3.11,0,6,1,6,6.61V115.1h-7.21V101.32c0-3-.3-3.16-1.6-3.16a6.32,6.32,0,0,0-2.42.87V115.1h-7V101.28c0-2.94-.08-3.24-1.51-3.24a4.7,4.7,0,0,0-2.42.87V115.1h-7.3V100.93a32.12,32.12,0,0,0-.69-7.47ZM20.39,115.1l-1.56-5.79H11.71l-1.64,5.79H1.94L11.62,85h8l8.9,29.41v0.7H20.39Zm20.26,0.56a8.78,8.78,0,0,1-3.5-.74,11.07,11.07,0,0,1,.34,3.42v4.58L30,125v-24a32,32,0,0,0-.69-7.47l6.91-1.16a9.69,9.69,0,0,1,.47,2c0.48-.91,2.51-2,4.67-2,7.82,0,8.77,6.43,8.77,10.58C50.11,111.52,46.66,115.66,40.65,115.66Zm22.81,0a8.8,8.8,0,0,1-3.5-.74,11,11,0,0,1,.34,3.42v4.58l-7.52,2v-24a32,32,0,0,0-.69-7.47L59,92.29a10,10,0,0,1,.48,2c0.47-.91,2.5-2,4.66-2,7.82,0,8.77,6.43,8.77,10.58C72.92,111.52,69.47,115.66,63.46,115.66ZM90.24,116a5.84,5.84,0,0,1-2.76-2.21,8.58,8.58,0,0,1-5.57,1.86c-5.53,0-7.64-3.28-7.64-7.26,0-4.23,3.67-7.25,9.89-7.25a11.54,11.54,0,0,1,1.25,0V99.81c0-1.3-.17-2.07-1.82-2.07a10.14,10.14,0,0,0-6.35,2.33L74.52,95.4a19.92,19.92,0,0,1,10-3.15c4.24,0,7.21,1.42,8,4.06a10.84,10.84,0,0,1,.34,3.46l-0.08,7.69c0,1.86.17,3.37,1.73,4.36ZM79.15,100.5a8.1,8.1,0,0,1,4.44-1.35l0.35,0c0,0.16,0,.45,0,0.55A15.74,15.74,0,0,0,79.15,100.5Zm30.49-1.64a4,4,0,0,0-2.2-.61,2.91,2.91,0,0,0-2.64,1.6V115.1H97.29V101.54a34.35,34.35,0,0,0-.69-8.08l6.91-1.17a10,10,0,0,1,.48,2.63c0.91-1.21,2.2-2.76,4.58-2.76a6.47,6.47,0,0,1,2.8.65ZM141,83.35a37.61,37.61,0,0,1,.35,5.57v16.54c0,3.93.13,5,1.82,5a2.4,2.4,0,0,0,.78-0.13L145.1,115a14.44,14.44,0,0,1-4.84.69c-6.35,0-6.48-3.28-6.48-7.73V92.72a63.37,63.37,0,0,0-.26-8.12Zm-8.26,28.87-3-4.47h2.67v0.18A19.58,19.58,0,0,0,132.69,112.22Zm-10.61,3.45c-7.13,0-11.06-4.36-11.06-11.57s3.84-11.84,10.15-11.84c7.17,0,10.11,4.58,10.06,12.22v1.86H118.8c0,1.38.47,4.06,3.59,4.06a9.58,9.58,0,0,0,5.87-2.25l2.89,4.32A14,14,0,0,1,122.08,115.66Zm4.06-7.91a7.62,7.62,0,0,1-3.76,1.22,1.89,1.89,0,0,1-1.93-1.22h5.68Z" style="fill:#fff"/><path d="M121.43,97.48c-1.6,0-2.63,1-2.63,4h5C123.89,99,123.25,97.48,121.43,97.48ZM120.34,100c0.23-1.12.75-1.14,1.09-1.14a0.66,0.66,0,0,1,.54.16,1.89,1.89,0,0,1,.35,1h-2Z" style="fill:#fff"/><path d="M186.62,108.32a2,2,0,0,0,2.07,2.16,2.67,2.67,0,0,0,1.77-.74v-3.89C187.31,105.77,186.62,107,186.62,108.32Zm1.6-.62a1.82,1.82,0,0,1,.82-0.33V109a1.22,1.22,0,0,1-.35.08c-0.33,0-.65-0.06-0.65-0.74A0.74,0.74,0,0,1,188.22,107.7Z" style="fill:#fff"/><path d="M246.71,97.48c-1.6,0-2.64,1-2.64,4h5C249.17,99,248.52,97.48,246.71,97.48Zm-1.1,2.55c0.23-1.12.75-1.14,1.1-1.14a0.66,0.66,0,0,1,.54.16,1.89,1.89,0,0,1,.35,1h-2Z" style="fill:#fff"/><path d="M270.38,90.74A6,6,0,0,0,266.71,92l-0.35-1.28-1.26.21-8.42,1.42L257,93.8a30.73,30.73,0,0,1,.65,7,12.18,12.18,0,0,0-3.14-7c-1.93-1.94-4.66-2.93-8.1-2.93-7.14,0-11.57,5.08-11.57,13.26a17.66,17.66,0,0,0,.45,4l-1.34.72a3,3,0,0,1-1.23.26,3,3,0,0,1-.66-0.05,5.15,5.15,0,0,1-.25-2.33V99.16h2.85l1.56-7.76h-4.42V91.21a43.91,43.91,0,0,1,.21-4.89l0.2-1.83-1.82.27L221.91,86l-0.15,1a34.28,34.28,0,0,0-.25,4.32h-1.84v1.73l-0.57-.26a18.39,18.39,0,0,0-8.55-2c-6.33,0-10.58,3.63-10.58,9a7,7,0,0,0,2.88,5.91l-0.63-.39-2.33,4.82c-0.43-.52-0.58-1.28-0.58-2.75l0.08-7.68a12.37,12.37,0,0,0-.41-3.88c-1-3.22-4.43-5.06-9.39-5.06a21.35,21.35,0,0,0-10.76,3.36l-1.19.73,4,6.82a7.77,7.77,0,0,0-3.73,6.66c0,5.44,3.39,8.68,9.06,8.68a10.25,10.25,0,0,0,5.32-1.39,7.24,7.24,0,0,0,2.59,1.67l0.81,0.26,3.7-3.59,0.15,0.08a22,22,0,0,0,10.34,3c6.31,0,10.76-3,11.62-7.68v0.91c0,6.81,6.34,6.81,8.42,6.81a14.44,14.44,0,0,0,6.27-1.43l1-.48-0.92-4.38c1.92,4,5.78,6.25,11.09,6.25a15.42,15.42,0,0,0,9.94-3.49l0.4-.31v3.23H268V100.36a1.5,1.5,0,0,1,1.22-.69,2.63,2.63,0,0,1,1.51.43l1.56,0.87,2.56-9-1.16-.48A7.89,7.89,0,0,0,270.38,90.74ZM195.3,116a5.84,5.84,0,0,1-2.76-2.21,8.58,8.58,0,0,1-5.58,1.86c-5.53,0-7.64-3.28-7.64-7.26,0-4.23,3.67-7.25,9.89-7.25a11.49,11.49,0,0,1,1.25,0V99.81c0-1.3-.17-2.07-1.81-2.07a10.15,10.15,0,0,0-6.35,2.33l-2.72-4.67a19.93,19.93,0,0,1,10-3.15c4.24,0,7.21,1.42,8,4.06a10.8,10.8,0,0,1,.34,3.46l-0.08,7.69c0,1.69.16,3.09,1.35,4.08l-0.59,1.22Zm-11.09-15.5a8.1,8.1,0,0,1,4.45-1.35l0.34,0c0,0.16,0,.45,0,0.55A15.73,15.73,0,0,0,184.2,100.51Zm25.65,15.16a20.47,20.47,0,0,1-9.41-2.67l-0.27-.13,0.87-1.8,1.76-3.64c1.47,0.91,5.1,2.85,7.3,2.85a2.14,2.14,0,0,0,2.34-1.68c0-1.21-.73-1.55-2.94-2l-2.9-.61c-3.58-.73-5.23-2.94-5.23-6.09,0-4.58,3.58-7.6,9.16-7.6,4.41,0,6.65,1.34,8.81,2.28L217,99.2a12,12,0,0,0-5.49-1.64c-1.17,0-1.94.52-1.94,1.26s0.52,1.38,2.33,1.77l2.76,0.61c3.93,0.86,5.53,3,5.53,6.52C220.23,112.55,216.08,115.66,209.86,115.66Zm-5.59-9.06a9.84,9.84,0,0,0,2.06.73l2.89,0.6a7,7,0,0,1,1.84.54,1.12,1.12,0,0,1-.93.37C208.64,108.84,206,107.6,204.26,106.6Zm10.39-6.87-2.42-.53A5.1,5.1,0,0,1,211.5,99h0A9.06,9.06,0,0,1,214.65,99.73Zm3.17,1.08,1.85-3.71v2.06h1.81v6.73A6.72,6.72,0,0,0,217.81,100.81Zm12.09,14.9c-4.19,0-7-1.08-7-5.4V97.73h-1.81V92.81h1.81a40.76,40.76,0,0,1,.26-5.53l7.47-1.13a58.92,58.92,0,0,0-.21,6.66h4.1l-1,4.92h-3.11v9c0,3.11.43,3.8,2.33,3.8a4.31,4.31,0,0,0,1.91-.43l0.91,4.32A13,13,0,0,1,229.9,115.71Zm17.45,0c-7.12,0-11.05-4.36-11.05-11.57s3.84-11.84,10.15-11.84c7.17,0,10.11,4.58,10.06,12.22v1.86H244.07c0,1.38.48,4.06,3.59,4.06a9.58,9.58,0,0,0,5.87-2.25l2.89,4.32A14,14,0,0,1,247.35,115.66Zm4.07-7.91a7.62,7.62,0,0,1-3.76,1.22,1.88,1.88,0,0,1-1.93-1.22h5.68Zm3.56,0h2.72v4.05Zm16.49-8.89a4.05,4.05,0,0,0-2.2-.61,2.91,2.91,0,0,0-2.64,1.6V115.1h-7.51V101.54a34.43,34.43,0,0,0-.69-8.08l6.91-1.17a10.41,10.41,0,0,1,.47,2.63c0.91-1.21,2.2-2.76,4.58-2.76a6.48,6.48,0,0,1,2.81.65Z" style="fill:#fff"/><path d="M277.93,93.16a0.53,0.53,0,0,0,.44-0.58c0-.35-0.2-0.6-0.81-0.6h-0.72v2.08h0.53V93.24c0.12,0,.17,0,0.25.24l0.22,0.58h0.62l-0.31-.68A0.43,0.43,0,0,0,277.93,93.16Zm-0.4-.31h-0.15V92.43h0.15c0.17,0,.25,0,0.25.2A0.21,0.21,0,0,1,277.53,92.85Z" style="fill:#fff"/></svg>