<svg id="Layer_1" data-name="Layer 1" xmlns="http://www.w3.org/2000/svg" viewBox="0 0 40 40"><title>burrells-footer-logo</title><path d="M20,0A20,20,0,1,0,40,20,20,20,0,0,0,20,0ZM18.07,29.51a0.71,0.71,0,0,1-.71.71H14.23a0.71,0.71,0,0,1-.71-0.71V10.57a0.71,0.71,0,0,1,.71-0.71h3.13a0.71,0.71,0,0,1,.71.71V29.51Zm8.31-.65a4.18,4.18,0,0,1-3.13,1.36H21.12a0.36,0.36,0,0,1-.27-0.59,7.18,7.18,0,0,0,1.86-4.49,5.58,5.58,0,0,0-2.07-4.34A1,1,0,0,1,20.29,20h0a1,1,0,0,1,.35-0.75A5.58,5.58,0,0,0,22.71,15a7.09,7.09,0,0,0-1.85-4.51,0.36,0.36,0,0,1,.27-0.59h1.81a4.2,4.2,0,0,1,3.12,1.34A5.58,5.58,0,0,1,27.51,15a5.36,5.36,0,0,1-3,5.1A5.6,5.6,0,0,1,26.38,28.86Z" style="fill:#fff"/></svg>