<svg id="Layer_1" data-name="Layer 1" xmlns="http://www.w3.org/2000/svg" viewBox="0 0 207.1101 100"><title>client-</title><circle cx="21.8409" cy="29.6567" r="7.4786" fill="#fff"/><path d="M12.131,29.7143c-.1045.3618-.5745.2714-.6152-.1029A15.6485,15.6485,0,0,1,18.79,14.9006c12.2207-7.8048,34.614.3009,51.443,22.3853a.2135.2135,0,0,1-.302.2985C55.7655,25.9331,37.6913,13.61,24.3409,17.4608,14.6864,20.2457,13.2881,25.7094,12.131,29.7143Z" fill="#fff"/><path d="M177.7833,33.0112a17.8859,17.8859,0,1,0,17.8859,17.8859A17.8859,17.8859,0,0,0,177.7833,33.0112Zm.2524,28.1674a10.2816,10.2816,0,1,1,10.2816-10.2816A10.2816,10.2816,0,0,1,178.0357,61.1786Z" fill="#fff"/><path d="M164.0935,74.3778a6.8111,6.8111,0,1,0,6.8111,6.8111A6.8111,6.8111,0,0,0,164.0935,74.3778Zm.0961,10.7264a3.9153,3.9153,0,1,1,3.9153-3.9153A3.9153,3.9153,0,0,1,164.19,85.1042Z" fill="#fff"/><path d="M153.6457,57.1814a10.2818,10.2818,0,1,1,.1761-12.3331l5.5131-4.991a17.8851,17.8851,0,1,0-.1214,22.2341Z" fill="#fff"/><polygon points="63.031 68.256 54.922 68.256 54.922 32.634 80.556 52.499 80.556 34.139 88.256 34.139 88.256 68.256 63.196 48.665 63.031 68.256" fill="#fff"/><polygon points="126.785 60.147 126.785 68.256 91.163 68.256 111.028 41.838 92.668 41.838 92.668 34.139 126.785 34.139 107.194 59.983 126.785 60.147" fill="#fff"/><path d="M33.1663,32.6339,13.8533,68.2561h8.7706l4.4672-8.27h12.15l4.4672,8.27h8.7706ZM29.7581,54.142l3.4082-6.6238,3.37,6.6238Z" fill="#fff"/><path d="M149.1,74.3778a6.8111,6.8111,0,1,0,6.8111,6.8111A6.8111,6.8111,0,0,0,149.1,74.3778Zm.0961,10.7264a3.9153,3.9153,0,1,1,3.9153-3.9153A3.9153,3.9153,0,0,1,149.1961,85.1042Z" fill="#fff"/><polygon points="141.133 77.791 141.133 74.926 131.635 74.926 131.635 87.513 134.501 87.513 134.501 82.748 140.517 82.748 140.517 79.883 134.501 79.883 134.501 77.791 141.133 77.791" fill="#fff"/><path d="M177.433,74.9257h-4.5914V87.5128h4.7871c2.8852,0,6.7746-1.0716,6.7746-6.2936S180.3182,74.9257,177.433,74.9257Zm.1957,9.7217H175.707V77.7911h1.9214c2.1024,0,3.91.8437,3.91,3.4282C181.5379,83.7951,179.6795,84.6474,177.6287,84.6474Z" fill="#fff"/><path d="M195.27,76.5226a6.6115,6.6115,0,0,0-4.8041-2.1459c-3.0331,0-4.6088,1.6377-4.6088,4.0165s1.2233,3.456,4.9987,4.1992c1.3267.2612,1.7345.9117,1.7345,1.2971,0,.5988-.7416,1.2147-1.6279,1.2147-1.7581,0-3.5975-1.7243-3.5975-1.7243l-2.0261,2.0261S187.5685,88,190.466,88s4.99-1.952,4.99-4.25c0-2.4521-1.5414-3.4735-4.0183-3.9641s-2.7149-1.1887-2.7149-1.5441.0719-1,1.3034-1a4.9494,4.9494,0,0,1,3.218,1.3066Z" fill="#fff"/></svg>