<svg id="Layer_1" data-name="Layer 1" xmlns="http://www.w3.org/2000/svg" viewBox="0 0 157.3333 100"><title>client-</title><path d="M92.7712,44.2478l12.8156.6042a.5312.5312,0,0,0-.0263-1.0618l-13.9551-.8784Z" fill="#fff"/><path d="M101.3207,36.3437a.5312.5312,0,0,0-.0263-1.0618L84.5411,33.726l1.0145,1.3994Z" fill="#fff"/><path d="M142.637,33.1985c-4.9427-18.8188-37.59-26.5521-72.92-17.2729S9.7537,47.9827,14.6963,66.8015s37.59,26.5521,72.92,17.2729S147.58,52.0173,142.637,33.1985ZM60.312,23.4074l17.29,2.121,4.4349,5.5275-1.2212-5.0133,21.1381,2.2949a7.6253,7.6253,0,0,1,5.5415,3.381l2.2643,3.4315c.67,1,.729,2.315.0434,2.7189a4.8616,4.8616,0,0,1,2.79,2.1027l5.9168,9.4916a2.5478,2.5478,0,0,1-2.1621,3.8957H86.15L71.6884,31.5059l-15.8113-1.414Zm.9962,29.7908L65.6467,42.24l11.505.45,7.3894,10.6694Zm18.0444,3.88,1.1238,7.7955-2.6475.1413-.9829-7.9036Zm-14.1871,7.29-.7635,1.5511-1.5367-.7563a3.2239,3.2239,0,0,1-2.2295.9411l-7.3539.1006a2.5269,2.5269,0,0,1-2.5537-2.4848l-.0348-2.5476A3.6817,3.6817,0,0,1,54.21,57.4192l6.64-.0908a3.0094,3.0094,0,0,1,2.9443,2.9564l.0347,2.5369a3.2054,3.2054,0,0,1-.1027.8376Zm-.1472-1.75L64.74,57.2687l2.6008-.0374.2415,4.635a1.8568,1.8568,0,0,0,1.9553,1.741l2.8493-.1485a1.5527,1.5527,0,0,0,1.5092-1.42l-.609-4.8932,2.5311-.0364.7213,5.8346a2.8436,2.8436,0,0,1-2.7522,2.6192l-5.1988.2709A3.4076,3.4076,0,0,1,65.0183,62.618ZM54.9773,31.5059l15.4256,1.2212,5.72,8.4841-11.8906-.6427L59.2193,52.9732H40.0658ZM38.9651,57.625l11.0269-.1326L49.69,59.8432l-7.7968.0715L41.72,61.0611l7.416-.17-.229,1.88-7.508.1386-.2472,1.6023,8.1509-.363-.227,2.3821-11.9187.6026ZM36.0487,79.39C11.6454,68.6917,20.101,53.4865,20.101,53.4865S17.8615,66.09,33.9277,74.28c17.0792,8.7067,47.3375,5.399,47.3375,5.399S53.4332,87.0107,36.0487,79.39ZM87.6,62.6285l-4.17.1433.318,1.9395-2.4826.1294-1.1478-7.7777s5.1806-.0765,6.1129-.0765A3.0424,3.0424,0,0,1,89.4859,59.71l.2151,1.1813C89.765,61.6679,89.0579,62.6285,87.6,62.6285Zm13.6776,1.1693-1.7738-4.824L98.492,63.9406l-2.0144.1089-3.94-4.4721,1.4537,4.5965-2.4464.13-2.0575-7.3668,3.8264-.0523,3.4378,3.9825.6611-4.0385,3.3524-.0459,2.8149,6.898Zm2.9014-.1631-2.7075-6.8612,6.3791-.0964.7155,1.633-4.355.11.338.8179,3.6952-.143.5939,1.4362-3.5891.1343.3925,1.0843,4.3462-.132.7392,1.6952Zm11.77-.5985L111.04,58.7739l2.1163,4.4048-2.0514.107-2.9309-6.6013,2.9717-.0454,4.3782,3.8474-1.9082-3.88,2.1088-.0288L118.65,62.891Zm4.8909-.2577-2.0789-4.88-2.0407.0161-.6583-1.3411,5.9249-.081.6626,1.35h-1.88l2.3138,4.8205Zm17.9226-22.8707s-3.4216-12.6394-20.4112-18.6855c-18.0609-6.4274-44.9915-.5142-44.9915-.5142s24.7756-9.0392,42.999-3.7278C141.9394,24.4358,138.7622,39.9076,138.7622,39.9076Z" fill="#fff"/><path d="M59.8906,59.9469H55.1861a1.6619,1.6619,0,0,0-1.6571,1.6571V62.71a1.3544,1.3544,0,0,0,1.35,1.35h3.9833a2.1986,2.1986,0,0,0,1.128-.3128l-2.2853-1.1248.7635-1.5512L61.0265,62.33a2.2018,2.2018,0,0,0,.0568-.49v-.7A1.1961,1.1961,0,0,0,59.8906,59.9469Z" fill="#fff"/><path d="M86.4833,59.0471H82.8191l.3049,1.86,3.3594-.1a.88.88,0,0,0,0-1.7595Z" fill="#fff"/></svg>