<svg id="Layer_1" data-name="Layer 1" xmlns="http://www.w3.org/2000/svg" viewBox="0 0 270 100"><title>client</title><path d="M56.65,70.5v-41h199.3v41H56.65Zm101-7.86a0.84,0.84,0,0,0-.19-0.07c-2.76-.15-4.63-1.7-6.15-3.86-1.76-2.49-3.57-4.94-5.35-7.42-0.07-.1-0.12-0.2-0.19-0.32,0.62-.23,1.2-0.42,1.77-0.66a6.8,6.8,0,0,0-.55-12.94,14.94,14.94,0,0,0-3.83-.61c-4-.1-8.06-0.08-12.09-0.1-0.17,0-.33,0-0.53,0v1.4c0.76,0.06,1.48.07,2.19,0.19a1.53,1.53,0,0,1,1.39,1.45c0.06,0.7.13,1.4,0.13,2.1q0,8.54,0,17.08c0,0.47,0,.94,0,1.41-0.12,1.56-.79,2.19-2.37,2.21h-1.3V64h12v-1.4c-0.71,0-1.39,0-2.06-.13a1.6,1.6,0,0,1-1.52-1.54,9.94,9.94,0,0,1-.12-1.4c0-2.45,0-4.91,0-7.36,0-.16,0-0.33,0-0.55a8.76,8.76,0,0,0,1.17,0,1.35,1.35,0,0,1,1.41.7c2.68,3.74,5.4,7.46,8.09,11.2a1.12,1.12,0,0,0,1,.55c1.81,0,3.63,0,5.44,0h1.61v-1.4Zm53.23-6.86-0.58-.68q-7.37-9-14.74-17.94a1.17,1.17,0,0,0-1-.5c-2.15,0-4.31,0-6.46,0-0.23,0-.46,0-0.67,0v1.48a5.28,5.28,0,0,1,4.79,2.13,1.84,1.84,0,0,1,.37,1c0,5.87,0,11.73,0,17.6,0,0.45,0,.9,0,1.34-0.13,1.68-.74,2.25-2.43,2.29h-1.26V64h10V62.55h-1.31c-1.68,0-2.34-.58-2.35-2.24-0.06-5.4-.05-10.79-0.07-16.19a1,1,0,0,1,.09-0.25l0.25,0.28Q203.5,54,211.6,63.87a1.57,1.57,0,0,0,1.81.55V63.64q0-10.85,0-21.69a14.22,14.22,0,0,1,.07-1.79,1.93,1.93,0,0,1,2.19-2c0.48,0,1,0,1.47,0,0-.26,0-0.42,0-0.59,0-.93,0-0.93-0.92-0.93h-9.07v1.52c0.47,0,.9,0,1.32,0,1.68,0,2.32.58,2.34,2.26,0.06,5,.06,10.07.08,15.1A1.26,1.26,0,0,1,210.84,55.77ZM112.08,38h1.28c1.7,0,2.37.58,2.39,2.28,0.05,4.41,0,8.83,0,13.24,0,0.83-.1,1.66-0.17,2.49a5.79,5.79,0,0,1-3.55,5.07,9.32,9.32,0,0,1-5.74.73,5.11,5.11,0,0,1-4.46-4.46,27.15,27.15,0,0,1-.41-4.13c-0.05-3.94,0-7.89,0-11.84a12.63,12.63,0,0,1,.11-1.47A1.91,1.91,0,0,1,103.67,38c0.5,0,1,0,1.51,0V36.55h-12V38c0.58,0,1.11,0,1.64,0a1.77,1.77,0,0,1,1.92,1.66,4.42,4.42,0,0,1,.11.82c0,2.26,0,4.52.06,6.78,0,3,0,6.06.22,9.08a7.88,7.88,0,0,0,5.66,7.39,14.61,14.61,0,0,0,9.43,0,7.92,7.92,0,0,0,5.65-6.28,26.12,26.12,0,0,0,.45-4.38c0.06-3.75,0-7.51,0-11.26a13.56,13.56,0,0,1,.1-1.85,2.15,2.15,0,0,1,2.3-2H122V36.56h-9.94V38Zm-46.69.09c0.73,0.05,1.44.05,2.12,0.16A1.58,1.58,0,0,1,69,39.89a19.53,19.53,0,0,1,.12,2q0,8.45,0,16.89c0,0.51-.06,1-0.07,1.53,0,1.72-1,2.14-2.37,2.19-0.44,0-.87,0-1.31,0V64h12V62.55H76c-1.54,0-2.21-.62-2.25-2.16-0.07-2.77-.06-5.54-0.09-8.32a2.13,2.13,0,0,1,.06-0.33l0.4,0.08a15.31,15.31,0,0,0,6,.16,7,7,0,0,0,5.9-5.5,7.2,7.2,0,0,0-2.81-7.93,9.87,9.87,0,0,0-5.9-1.79c-3.82-.09-7.63-0.07-11.45-0.09a3.44,3.44,0,0,0-.48.06v1.39Zm165,24.49c-0.58-.08-1.11-0.13-1.63-0.24-1.39-.28-1.7-0.74-1.22-2.05,0.6-1.63,1.32-3.23,2-4.83a0.69,0.69,0,0,1,.53-0.29c3,0,6,0,9,0a0.55,0.55,0,0,1,.6.42c0.32,0.86.7,1.69,1,2.55s0.68,1.7.93,2.58a1.14,1.14,0,0,1-1,1.65c-0.51.12-1,.16-1.59,0.24V64h11.29V62.6c-0.24,0-.45-0.08-0.66-0.09a3.33,3.33,0,0,1-2.84-1.89c-0.28-.53-0.57-1.05-0.79-1.6q-4.59-11.16-9.16-22.33a0.74,0.74,0,0,0-.79-0.63,1,1,0,0,0-1.07.62c-2,4.64-4,9.26-6,13.88q-2,4.68-4.11,9.36a3.8,3.8,0,0,1-3.29,2.64,1.25,1.25,0,0,0-.24.06V64h9V62.6Zm-53,0c-0.51,0-1,0-1.4,0a2.06,2.06,0,0,1-2.3-2.29c0-.26,0-0.51,0-0.77q0-9.05,0-18.11c0-.4,0-0.81.07-1.21,0.1-1.34.66-1.86,2.18-2,0.48,0,1,0,1.46,0V36.72h-12v1.46c0.54,0,1,0,1.43,0,1.64,0.11,2.24.73,2.3,2.36,0,0.19,0,.38,0,0.58q0,9.15,0,18.3a9.12,9.12,0,0,1-.1,1.4,1.68,1.68,0,0,1-1.69,1.67c-0.63.08-1.26,0.08-1.91,0.11V64h12V62.56Z" style="fill:#fff"/><path d="M14.05,70.46V29.52H54.92V70.46H14.05Zm39.43-1.34V68.48q0-18.45,0-36.91a0.58,0.58,0,0,0-.72-0.71q-18.39,0-36.78,0a0.58,0.58,0,0,0-.71.73q0,18.42,0,36.84c0,0.22,0,.45,0,0.69H53.48Z" style="fill:#fff"/><path d="M138.8,49.64c0-2.18,0-4.18,0-6.19,0-1.24,0-2.47,0-3.71a0.64,0.64,0,0,1,.3-0.51,7.9,7.9,0,0,1,4.35.05,4.62,4.62,0,0,1,3.14,4.06c0.41,3.43-1.79,5.52-4.81,6C140.84,49.55,139.86,49.56,138.8,49.64Z" style="fill:#fff"/><path d="M73.74,49.76V39.38A5.18,5.18,0,0,1,81,44.13a6.54,6.54,0,0,1-.54,3.37c-1,2-2.87,2.9-5.36,2.5Z" style="fill:#fff"/><path d="M238.56,52.85h-7.82l4-9.29Z" style="fill:#fff"/><path d="M52,32.46V44.07H40.43V32.46H52Z" style="fill:#fff"/><path d="M28.61,44.15l-4.47,0H17.55c-0.35,0-.62,0-0.62-0.48,0-3.64,0-7.29,0-10.93A1.3,1.3,0,0,1,17,32.47H28.58v11.7Z" style="fill:#fff"/><path d="M28.58,44.17H40.23c0,0.28.06,0.53,0.06,0.77,0,3.37,0,6.74,0,10.11a0.64,0.64,0,0,1-.78.8c-3.39,0-6.78,0-10.17,0l-0.71,0V55.08q0-5.08,0-10.17c0-.25,0-0.51,0-0.76Z" style="fill:#fff"/><path d="M28.55,56V67.53c-0.19,0-.36,0-0.52,0H17.55c-0.41,0-.62-0.08-0.61-0.55,0-3.54,0-7.07,0-10.61A4.2,4.2,0,0,1,17,56H28.55Z" style="fill:#fff"/><path d="M40.43,67.52V56H52V67.52H40.43Z" style="fill:#fff"/></svg>