<svg id="Layer_1" data-name="Layer 1" xmlns="http://www.w3.org/2000/svg" viewBox="0 0 240.6328 100"><title>client-</title><polygon points="181.658 36.474 169.883 49.166 230.316 28.456 181.658 36.474" fill="#fff"/><polygon points="97.903 42.614 92.451 60.804 95.475 63.736 80.309 63.736 84.479 61.078 88.465 47.379 85.67 45.042 97.903 42.614" fill="#fff"/><polygon points="179.581 49.395 176.114 60.804 179.138 63.736 163.972 63.736 168.142 61.078 170.143 54.16 167.348 51.823 179.581 49.395" fill="#fff"/><path d="M157.5682,51.874l.7534-2.4791-12.2333,2.4283,2.7949,2.3367-2.0008,6.9185-4.1694,2.6574h15.1657l-3.024-2.9323,1.6108-5.3006,5.2467-2.9008,4.429,3.7265,1.8938-7.1628C163.6625,48.4761,159.3533,50.7619,157.5682,51.874Z" fill="#fff"/><path d="M138.8643,44.3244H122.3089L125.42,46.763l-4.1653,14.3154-4.1694,2.6574h15.1657l-3.024-2.9323,1.5381-5.1316h4.9832c5.2.0916,11.18-2.4054,12.2562-5.6737C148.9671,46.2335,143.9959,44.3244,138.8643,44.3244Zm.4359,5.5817c-.6611,2.0068-1.7078,3.3833-7.5605,3.3833h-.26l2-6.6712.1389.0047C137.673,46.623,139.891,47.5945,139.3,49.9062Z" fill="#fff"/><path d="M197.0834,60.2079a11.5018,11.5018,0,0,1-6.2007,1.2829c-2.8407-.3665-1.6494-4.429.5192-8.3388s5.3149-.55,5.3149-.55l4.1236,3.2989s.994-3.4789,1.5752-5.4935c-.0374-.0217-.07-.0442-.109-.0657-3.99-2.23-16.2195-1.5425-20.2514,4.23-4.5193,6.4707,3.5109,9.5759,7.6974,9.5759,3.2625,0,6.985-.5226,9.4383-2.1049Z" fill="#fff"/><path d="M33.2393,56.8632s-8.7054,5.3607-12.34,4.5665c-3.7837-.8267-2.5774-6.9953.581-12.15a6.1585,6.1585,0,0,1,6.75-2.8572A6.4068,6.4068,0,0,1,30.6815,47.51l4.5127,3.373s.6492-2.9169,1.4356-5.6421c-5.2331-3.1172-19.1831-2.3364-24.5277,5.6508-5.4981,8.2166,3.1,12.7253,6.9643,13.0733,5.0505.4549,8.5685.3645,12.4013-1.2829Z" fill="#fff"/><path d="M223.504,56.8632a5.7138,5.7138,0,0,0-3.0384-6.7352c-3.99-2.23-14.5242-1.3287-18.5562,4.4443-4.5192,6.4707,3.511,9.5759,7.6974,9.5759,3.8095,0,9.0585-.48,11.637-2.6859l-2.1374-1.8653c-2.23,1.3745-4.0238,2.5189-7.789,2.1076-3.6349-.3971-1.5883-4.8414-1.5883-4.8414Zm-9.1779-5.6585c2.4283,0,1.3745,3.3676,1.3745,3.3676h-5.2S211.8977,51.2047,214.326,51.2047Z" fill="#fff"/><path d="M118.58,56.8632a5.7138,5.7138,0,0,0-3.0384-6.7352c-3.99-2.23-14.5242-1.3287-18.5562,4.4443-4.5192,6.4707,3.511,9.5759,7.6974,9.5759,3.8095,0,9.0585-.48,11.637-2.6859l-2.1374-1.8653c-2.23,1.3745-4.0238,2.5189-7.789,2.1076-3.6349-.3971-1.5883-4.8414-1.5883-4.8414Zm-9.1779-5.6585c2.4283,0,1.3745,3.3676,1.3745,3.3676h-5.2S106.9741,51.2047,109.4024,51.2047Z" fill="#fff"/><path d="M77.2281,49.0059a12.9121,12.9121,0,0,0-7.4636,1.9995L72.28,42.6139,60.0464,45.0423l2.7949,2.3367L57.917,64.3029l8.3113-2.21A8.8653,8.8653,0,0,0,72.28,64.4537c3.6349.0093,11.0574-3.696,11.0574-8.5832C83.3371,51.0458,79.9466,49.0059,77.2281,49.0059Zm-3.5432,8.7889c-1.008,2.7491-2.8185,4.3129-4.49,3.5269A4.8424,4.8424,0,0,1,67.226,59.474l1.6357-5.4571c1.634-1.47,2.9568-2.1477,4.3955-2.1477C75.1044,51.8691,74.6954,55.039,73.6849,57.7948Z" fill="#fff"/><path d="M56.7132,63.7053l-3.024-2.9323,1.9235-6.2993c1.3088-4.3071-1.7555-4.9565-6.3372-5.4147s-10.7519,1.2829-10.7519,1.2829L37.18,55.3333s6.2617-3.8918,9.7668-3.9835c1.7061-.0446.7713,2.78.7713,2.78l-.3,1.0377c-2.5926-.1323-11.3784-.2675-13.6361,3.7809-2.0419,3.6615,2.0847,5.5058,4.4214,5.5058,1.7266,0,5.511-1.915,7.3726-2.9165l-.627,2.1682ZM43.2581,60.5286c-1.3287.672-3.3294.55-2.016-1.9549,1.0816-2.0626,4.4825-1.7642,5.6514-1.5945l-.6072,2.1C45.2455,59.5659,43.9669,60.17,43.2581,60.5286Z" fill="#fff"/></svg>