<svg id="Layer_1" data-name="Layer 1" xmlns="http://www.w3.org/2000/svg" viewBox="0 0 220 100"><title>client-</title><path d="M160.67,40.4844h5.2291v1.24q0,11.971.0027,23.9419c0,.3594.039.7187.058,1.048a57.06,57.06,0,0,0,8.7763-.0115c.0173-.2541.0532-.536.0533-.818q.0043-15.8823-.0008-31.7645c0-.2792-.0462-.5584-.0734-.8659a6.0737,6.0737,0,0,0-.6819-.0832c-3.4767-.0045-6.9536-.0194-10.43.0162a3.0113,3.0113,0,0,0-1.4042.4292,3.2455,3.2455,0,0,0-1.6592,2.8759c-.03,1.1054-.0122,2.2123-.0011,3.3184A4.1,4.1,0,0,0,160.67,40.4844Z" fill="#fff"/><path d="M204.5739,46.495c1.32,3.7158.73,7.051-1.996,9.77-2.737,2.7293-6.1025,3.1712-9.7245,1.9412-.2357.2256-.4466.42-.65.6231-1.1928,1.19-2.3891,2.3757-3.5735,3.5736a2.8772,2.8772,0,0,1-2.4818.9588c-.5128-.0629-1.0155-.208-1.6406-.341a2.71,2.71,0,0,0,.2414.2677,18.2881,18.2881,0,0,0,4.4192,2.7212,17.779,17.779,0,0,0,10.1883,1.2233,18.0112,18.0112,0,0,0,5.7106-1.9947,17.3359,17.3359,0,0,0,8.0341-9.29,16.7641,16.7641,0,0,0,.9084-8.2246,17.0274,17.0274,0,0,0-2.53-6.9077,9.1319,9.1319,0,0,0-.5632-.719C208.7683,42.2938,206.6368,44.3511,204.5739,46.495Z" fill="#fff"/><path d="M127.2451,66.837c.3172.0234.55.0554.7823.0555q8.8113.0042,17.6225-.0014a6.1237,6.1237,0,0,0,.72-.08,48.6155,48.6155,0,0,0-.013-7.4732c-.3016-.0245-.6331-.074-.9646-.0748-2.7659-.0063-5.5318-.0013-8.2976-.0066-.3047-.0006-.6093-.0441-.8894-.0658a26.0219,26.0219,0,0,1,.0473-5.4292h.8959q3.9117,0,7.8235-.0035c.3043-.0007.6085-.0477.9416-.0757a5.5693,5.5693,0,0,0,.0931-.684q.0094-3.0424-.0015-6.0849a5.5055,5.5055,0,0,0-.131-.8076c-1.68,0-3.2827.0043-4.8854-.0012-1.5973-.0056-3.1958.0246-4.7662-.0177a24.2392,24.2392,0,0,1,.0329-5.4191h.8256q4.1883,0,8.3766-.0028c.3059-.0005.6117-.0391.8886-.0581a38.8806,38.8806,0,0,0-.0263-7.4262c-.23-.0141-.4867-.0436-.7437-.0438q-7.5468-.0038-15.0937.0017a3.2312,3.2312,0,0,0-3.2512,2.5774,5.3432,5.3432,0,0,0-.0741,1.0994q-.0061,10.3522-.003,20.7045,0,4.1488.0039,8.2976C127.1588,66.1464,127.2128,66.475,127.2451,66.837Z" fill="#fff"/><path d="M181.4621,59.6568a4.4824,4.4824,0,0,0,.4709.5075c.1693-.1343.2795-.2055.37-.2962q2.7685-2.7632,5.53-5.5336a4.6035,4.6035,0,0,0,.4071-.5459c-1.4981-3.7888-1.0479-7.26,1.8138-10.1219,2.8945-2.8949,6.4121-3.2353,10.18-1.78.2309-.2116.4492-.3978.6519-.6,1.1761-1.1707,2.3392-2.3546,3.5253-3.5151a3.0162,3.0162,0,0,1,3.348-.7191c.1633.0583.3263.1173.6311.227a2.1033,2.1033,0,0,0-.2451-.367c-.4468-.3677-.883-.7519-1.3556-1.0839a17.7336,17.7336,0,0,0-13.0313-3.1395,17.3261,17.3261,0,0,0-11.313,6.3065,17.0764,17.0764,0,0,0-3.8634,12.89A16.39,16.39,0,0,0,181.4621,59.6568Z" fill="#fff"/><path d="M57.5059,66.8134a4.5028,4.5028,0,0,0,.5694.0861q3.8308.0067,7.6616-.0011a4.1686,4.1686,0,0,0,.6592-.1162v-23.03q0-4.7787-.0035-9.5573c-.0006-.3285-.049-.657-.0742-.9722a2.685,2.685,0,0,0-.4007-.0759c-1.8166-.0043-3.6343-.0394-5.4491.0182a3.1,3.1,0,0,0-1.4663.4969,3.4462,3.4462,0,0,0-1.5558,3.1737q.013,14.5335.0068,29.067C57.4535,66.1858,57.4853,66.469,57.5059,66.8134Z" fill="#fff"/><path d="M70.0079,40.6662h7.0773V41.82q0,10.9777,0,21.9554c0,.7634-.0124,1.5272.0081,2.29a4.9583,4.9583,0,0,0,.1458.7925h8.7887c.0285-.4214.0766-.8035.0768-1.1856q.0065-11.9254.0061-23.8508c0-.3567.042-.7134.07-1.1537h2.3557c.79,0,1.58.0177,2.3692-.0051a9.6125,9.6125,0,0,0,2.2389-.0883,44.1932,44.1932,0,0,0-.0525-7.3967c-.26-.0134-.5435-.04-.8273-.0407-1.3162-.0045-2.6325-.0021-3.9488-.002q-7.5027,0-15.0055.0039a3.2119,3.2119,0,0,0-3.3806,3.3743c-.0093,1.0793-.0068,2.1587.0014,3.238C69.9329,40.0286,69.9762,40.3057,70.0079,40.6662Z" fill="#fff"/><path d="M96.8072,61.489c0,1.4745-.0051,2.9491.0045,4.4236a8.7191,8.7191,0,0,0,.0882.8755,57.9342,57.9342,0,0,0,8.8409-.1006c.0031-4.1-.0005-8.2429.0023-12.58l8.1794,12.7882c.3726,0,.66.0012.9464,0q4.9347-.0229,9.8694-.0487c.02,0,.0426-.03.0583-.0507a1.3525,1.3525,0,0,0,.0733-.1545c-1.1164-1.4648-2.2581-2.9679-3.4054-4.4667-1.1361-1.4843-2.2888-2.956-3.4139-4.4486-1.1308-1.5-2.3357-2.9471-3.4585-4.5816.4091-.1324.704-.2269.9982-.3231a8.3479,8.3479,0,0,0,5.3864-5.0765,11.9139,11.9139,0,0,0,.2058-8.05,8.358,8.358,0,0,0-3.8475-4.83,11.721,11.721,0,0,0-5.8539-1.6931c-3.8426-.0832-7.6881-.0308-11.5324-.0345a2.8486,2.8486,0,0,0-1.5652.4752A3.3693,3.3693,0,0,0,96.8,36.6849Q96.8206,49.0869,96.8072,61.489Zm8.9859-21.433a8.8982,8.8982,0,0,1,4.7683.6723c1.5721.8,2.1123,2.2991,1.8276,4.16-.3156,2.0635-1.8912,2.8292-3.5066,3.0941-.696.1141-1.41.1173-2.1146.1817-.31.0283-.6171.0834-.9746.1332Z" fill="#fff"/><path d="M15.46,66.7715,24.7838,46.84a2.23,2.23,0,0,1,.122.872q.01,9.0088.0242,18.0175c.0007.3571.052.714.083,1.1124h8.514l9.8935-20.1578a19.6247,19.6247,0,0,1,.0057,2.4q-.0183,8.4557-.002,16.9115a5.7049,5.7049,0,0,0,.106.7937,59.4878,59.4878,0,0,0,8.7166-.0814c.0179-.3062.0541-.6413.0546-.9764q.0064-4.9.0026-9.7992,0-10.787-.0034-21.574c0-.381-.05-.7619-.082-1.2236h-.9576c-2.8976,0-5.7954.0156-8.6928-.0054a4.0027,4.0027,0,0,0-3.8846,2.4837c-1.2714,2.69-2.4584,5.419-3.6817,8.1313q-.9895,2.1941-1.9814,4.387l-.1574-.0163q0-.4306,0-.8612-.01-6.48-.0242-12.96c-.001-.3569-.0533-.7137-.0853-1.1143-.346-.018-.605-.0429-.8641-.0432-2.74-.0029-5.4791.0009-8.2186-.0027a4.0164,4.0164,0,0,0-3.8894,2.48c-1.2611,2.6946-2.4595,5.4186-3.681,8.1317Q13.02,50.589,9.9434,57.4334q-1.88,4.1781-3.76,8.3563c-.136.3034-.2333.6241-.35.94A77.5574,77.5574,0,0,0,15.46,66.7715Z" fill="#fff"/></svg>