<svg id="Layer_1" data-name="Layer 1" xmlns="http://www.w3.org/2000/svg" viewBox="0 0 280 100"><title>client</title><g id="RzTr9W"><path d="M89.48,72l2-2.55-4.75-3.87c1.44-.39,1.45-1.88,2.3-2.88,1.06,0.52,2.14,1,3.19,1.59a0.86,0.86,0,0,1,.29.66c0,1.39,0,2.78-.07,4.17a0.82,0.82,0,0,1-.09.38,13.54,13.54,0,0,1-2.78,3.4l-1.41-1.09c-0.05.36-.11,0.6-0.12,0.84a3.35,3.35,0,0,1-1.29,2.67c-0.66.52-1.34,1-2,1.54a0.79,0.79,0,0,1-1.38-.24A4.06,4.06,0,0,0,82.89,76c-0.32.66-.63,1.23-0.89,1.82-0.81,1.81-2.46,2.49-4.15,3.08a1.09,1.09,0,0,1-.75-0.38,3.13,3.13,0,0,1-.42-0.82c-0.26.38-.49,0.68-0.68,1-1.13,2-3.09,2.37-5.08,2.65a1.26,1.26,0,0,1-.71-0.63A2.81,2.81,0,0,1,70,81.81a7.29,7.29,0,0,0-.76.73,4.9,4.9,0,0,1-4,1.91H65.26a4,4,0,0,1-1.7-.05,3,3,0,0,1-.5-1.46,7.15,7.15,0,0,0-1.09.67c-1.19,1-2.55.91-3.94,0.67A4,4,0,0,1,56.37,84c-0.27-.21-0.13-1-0.18-1.59-0.67.24-1.36,0.45-2,.74a2.1,2.1,0,0,1-1.74,0c-0.73-.29-1.47-0.54-2.21-0.81s-0.92-.51-0.52-1.33c0.1-.2.19-0.41,0.35-0.75-0.88.12-1.62,0.28-2.36,0.31a3.32,3.32,0,0,1-1.49-.23c-0.73-.34-1.39-0.83-2.09-1.24s-0.76-.75-0.21-1.29a7,7,0,0,0,.52-0.67,16,16,0,0,0-2.17-.2,2.17,2.17,0,0,1-1.75-.71c-0.51-.52-1-1.07-1.52-1.59a0.72,0.72,0,0,1,.09-1.28l0.65-.44-0.13-.24a9.23,9.23,0,0,0-1.17-.27,3.29,3.29,0,0,1-2.64-1.87c-0.23-.41-0.46-0.82-0.66-1.25-0.5-1.06-.49-1.07.57-1.65l0.42-.26c-1.21-1-3.16-1.14-3.1-3.31l-4.24,2-4.31,2.1a2.76,2.76,0,0,1-3.57-1.37c0-.09-0.08-0.18-0.16-0.35a1.72,1.72,0,0,1-2.29-.07,3.15,3.15,0,0,1-1.43-2,5.17,5.17,0,0,0-.27-0.87c-1.82.29-1.86,0.3-2.67-1.42a12.59,12.59,0,0,1-.58-2.1c-0.1-.37-0.22-0.74-0.34-1.17-0.69.24-.93-0.16-1.21-0.65a5.22,5.22,0,0,1-.56-3.71,6,6,0,0,0,.05-0.66,0.61,0.61,0,0,0-.19-0.11C10,53.77,10,53.9,10,52.53a7.18,7.18,0,0,1,.4-3.4,0.65,0.65,0,0,0,0-.52C9.83,47.5,10.09,46.3,10,45.14c0-.69.18-1,0.88-0.89a3.09,3.09,0,0,0,.53,0c0-.73-0.05-1.44-0.14-2.15a4.12,4.12,0,0,1,.82-2.8,0.67,0.67,0,0,1,.39-0.33c0.84,0.25.8-.41,1-0.87a27.11,27.11,0,0,1,1-3.1c0.52-1.13.63-1.09,1.74-.62,0.14,0.06.29,0.09,0.53,0.16,0.24-1,.36-2,1.28-2.61s1.55-1.25,2.5-.47a7.79,7.79,0,0,1,1.22-1.37A2.86,2.86,0,0,1,25,29.93c3.49,1.85,7.07,3.54,10.61,5.3l0.59,0.27c0.57-1.88,2.5-1.78,3.79-2.64a0.71,0.71,0,0,0-.1-0.24c-1.15-1.06-1.13-1-.21-2.34,1.1-1.56,2.41-2.77,4.45-2.83a4.76,4.76,0,0,0,.81-0.18,3.48,3.48,0,0,0-.24-0.41c-0.8-.95-0.8-0.95.11-1.76,0.2-.17.41-0.33,0.59-0.52A5.17,5.17,0,0,1,49.55,23a5,5,0,0,0,.92-0.11c-0.56-1.63-.5-1.53,1-2.45a5.56,5.56,0,0,1,4.88-.78,0.76,0.76,0,0,0,.31,0,0.82,0.82,0,0,0,.22-0.09,0.75,0.75,0,0,0,0-.24c-0.3-1.31-.3-1.32,1-1.79,0.76-.28,1.52-0.56,2.3-0.77a1.7,1.7,0,0,1,1,0c0.81,0.28,1.59.63,2.44,1a3.7,3.7,0,0,0,.09-0.45c0.06-1.46.06-1.46,1.5-1.57a5.76,5.76,0,0,0,1-.14,3.1,3.1,0,0,1,3.09.81,11.66,11.66,0,0,0,1.24.87c0.16-.55.25-1,0.42-1.42a0.67,0.67,0,0,1,.45-0.39c0.94,0,1.88.09,2.82,0.19A2.73,2.73,0,0,1,76.26,17c0.24,0.36.54,0.69,0.82,1.06a1.1,1.1,0,0,0,.2-0.22c0.53-1.31.36-1.49,2.31-1.05A4.18,4.18,0,0,1,83,19.64a3.93,3.93,0,0,0,.31.6,0.52,0.52,0,0,0,.19-0.07c0.91-1.41.58-1.55,2.48-.61,1.44,0.71,2.53,1.69,2.58,3.44a2.76,2.76,0,0,0,.14.61,0.61,0.61,0,0,0,.15.15,2.49,2.49,0,0,0,.34-0.25c0.89-.89.89-0.9,1.82-0.08,0.08,0.07.15,0.15,0.23,0.21a4.06,4.06,0,0,1,1.85,4.11,2.38,2.38,0,0,0,0,.55,1.5,1.5,0,0,0,.1.26c0.31-.2.61-0.36,0.88-0.57s0.65-.32.91,0.09C95.58,29,96.2,30,96.74,31a1.77,1.77,0,0,1,0,1c-0.11.82-.26,1.64-0.43,2.67a13.52,13.52,0,0,0,1.36-.59c0.49-.28.82-0.27,1,0.31,0.31,0.82.65,1.63,1,2.62-1.43-.17-1-1.59-1.86-2.09L86.74,40.23l0.6,1.62,3.37-1.26c-0.53,1-1,1.91-1.44,2.77a2.06,2.06,0,0,1-.57.64,0.82,0.82,0,0,1-1.44-.43,22.56,22.56,0,0,0-3.45-7c-3.39-4.39-7.71-7.16-13.4-7.69a22.86,22.86,0,0,0-14.56,3.71,23.49,23.49,0,0,0-7,6.64A24.28,24.28,0,0,0,44.7,51.45a17.58,17.58,0,0,0,1.65,8.92A17.89,17.89,0,0,0,60.77,71c5.65,0.81,10.64-.92,15.42-3.65A2.46,2.46,0,0,0,77,66.76c0.85-1.19,2-1.3,3.36-1.35a4.55,4.55,0,0,1,3.79,1.48C85.81,68.65,87.63,70.23,89.48,72ZM42.75,49.21c0-.45,0-0.71,0-1a12.25,12.25,0,0,0-3.38-8.55,4.33,4.33,0,0,0-6.27-.33,9,9,0,0,0-3.08,5A17.92,17.92,0,0,0,29.63,52a12.25,12.25,0,0,0,2.88,6.41,4.64,4.64,0,0,0,7.15-.2A13.27,13.27,0,0,0,42.75,49.21Zm35,30.94,2.78-1.46L75.39,68.64c-0.41.22-.75,0.41-1.1,0.57a0.81,0.81,0,0,0-.45,1.26c0.26,0.54.44,1.12,0.67,1.67ZM66.41,71.79c-0.5,0-.86,0-1.22,0a0.62,0.62,0,0,0-.75.74c-0.16,3.48-.34,7-0.5,10.43,0,0.25,0,.5,0,0.83l3-.36Zm18.13-51.9L77.8,30.43l1.62,1L87,21.3ZM66.81,28.22c0.21-3.85.43-7.61,0.61-11.38A0.66,0.66,0,0,0,67,16.36c-0.85,0-1.7.16-2.64,0.26l0.54,11.6h1.89ZM71,82.63c0.76-.22,1.37-0.46,2-0.58s0.89-.5.7-1.21c-0.83-3.13-1.63-6.28-2.39-9.43-0.15-.64-0.4-0.78-1-0.55a2.22,2.22,0,0,1-.46.11,0.72,0.72,0,0,0-.67,1c0.35,1.74.59,3.51,0.88,5.26S70.67,80.75,71,82.63ZM96,31.13l-1.61-2.49L84.35,36.23l1,1.42Zm-18.46,36,6.57,9.17,2.47-2.06-7.5-8.41ZM50.14,36.37l-8.31-7.31-2,2.42c0.22,0.18.37,0.32,0.53,0.44l7.36,5.23c1.49,1.06,1.57,1,2.41-.61A0.81,0.81,0,0,0,50.14,36.37Zm6.76,47c0.92,0.11,1.76.24,2.61,0.29a0.73,0.73,0,0,0,.4-0.51q0.95-5.4,1.84-10.8a0.74,0.74,0,0,0-.12-0.57,1.34,1.34,0,0,0-1.81.57c-0.48,1.79-.94,3.58-1.42,5.37S57.43,81.44,56.91,83.42Zm3.52-53.9,0.71-.2c1.17-.36,1.18-0.36,1-1.56-0.39-2.26-.8-4.52-1.2-6.78-0.2-1.12-.39-2.24-0.6-3.44-0.85.28-1.58,0.55-2.33,0.77a0.53,0.53,0,0,0-.41.8c0.37,1.25.68,2.52,1,3.77C59.21,25.06,59.81,27.25,60.43,29.52ZM57.36,71c-1.46-.81-1.55-0.79-2.22.57q-2.25,4.58-4.5,9.16c-0.12.24-.21,0.51-0.33,0.81,0.81,0.27,1.52.54,2.25,0.72a0.79,0.79,0,0,0,.67-0.37C54.63,78.29,56,74.67,57.36,71Zm-10-46.95L44.91,26l7.33,8.36c0.41-.28.75-0.53,1.1-0.74a0.56,0.56,0,0,0,.17-1c-0.39-.46-0.7-1-1.05-1.46Zm22.16,4c1.66,0.33,1.71.31,2.11-1.14,0.46-1.69.9-3.38,1.35-5.07l1.41-5.31a16.87,16.87,0,0,1-2.09-.25c-0.78-.19-0.91.16-1,0.82-0.36,2.4-.79,4.79-1.19,7.19C69.93,25.55,69.74,26.81,69.55,28.06Zm4.28,0.64,1.77,0.67L81,18.21c-0.75-.26-1.4-0.44-2-0.7a0.53,0.53,0,0,0-.83.38c-0.45,1.17-.91,2.33-1.38,3.5Zm-23-7,5.39,9.88c1.8-.78,1.81-0.81,1.11-2.43l-0.27-.65C56,26,55,23.47,53.91,21a0.9,0.9,0,0,0-.6-0.48C52.5,20.82,51.72,21.24,50.85,21.68ZM48.72,65.49L39.55,74l1.83,2L50,66.74Zm-1.49-2.07-0.51-.9a0.55,0.55,0,0,0-.89-0.24c-3.24,2-6.49,4-9.72,6a0.63,0.63,0,0,0-.24.53c0.39,0.69.84,1.34,1.3,2ZM81.5,32.91c0.21,0.23.33,0.37,0.45,0.5,0.76,0.79.76,0.79,1.58,0l5.61-5.16,2.78-2.56-1.81-1.94ZM44.38,78.48c0.63,0.36,1.2.66,1.75,1a0.65,0.65,0,0,0,1.06-.29c1.32-2.14,2.67-4.25,4-6.38l2.17-3.46C53.2,69.21,53.1,69.1,53,69c-0.94-.68-0.95-0.68-1.64.25L48,73.65ZM26.93,50.42H26.27l-5,.19c-3.3.12-6.6,0.23-9.89,0.37a0.75,0.75,0,0,0-.58.41,11.12,11.12,0,0,0,0,1.62c1.38-.11,2.65-0.2,3.92-0.32,3.8-.34,7.61-0.7,11.41-1C27.08,51.57,27.09,51.6,26.93,50.42ZM10.79,46.9l16,0.68c0.28-1.18.19-1.31-.86-1.36-0.68,0-1.36-.1-2-0.16l-8.53-.72L10.79,45V46.9ZM34.13,65l1-.41q4.72-2.21,9.44-4.44a1.25,1.25,0,0,0,.7-0.59,5.17,5.17,0,0,0-.47-1.4,0.31,0.31,0,0,0-.28-0.07,10.71,10.71,0,0,0-3,1.15,33.88,33.88,0,0,1-6.27,3.71c-0.53.25-1,.55-1.57,0.83Zm-4.59-7.26C29.31,57,29,56.67,28.2,57c-2.85,1-5.72,2-8.57,3-1.62.57-3.23,1.16-4.94,1.77l0.8,1.43Zm-1.92-4.24-15.46,3.3c0.44,1.43.44,1.42,1.72,1.12L21.65,56,28,54.55ZM14.68,36.14a0.69,0.69,0,0,0,.15.19c4.6,1.59,9.19,3.19,13.8,4.75a1.49,1.49,0,0,0,.68-0.37A1.41,1.41,0,0,0,29,40.1Q22.42,37.53,15.85,35a0.77,0.77,0,0,0-.67.22A4.4,4.4,0,0,0,14.68,36.14Zm13.19,7.49a0.73,0.73,0,0,0-.19-0.12Q20.4,41.66,13.1,39.83a0.68,0.68,0,0,0-.55.25,5.68,5.68,0,0,0-.46.94,3.77,3.77,0,0,0,.54.22c4.72,1,9.44,2.08,14.15,3.14C27.46,44.54,27.84,44.38,27.88,43.63Zm9.48-8.57c-0.52.61-.47,1,0.23,1.23a10.6,10.6,0,0,1,4.92,4,1.16,1.16,0,0,0,.46.41c1,0.43,2,.84,3,1.22a0.69,0.69,0,0,0,.63-0.16,16.13,16.13,0,0,0,.81-1.54ZM18.47,32.79c0.24,0.12.42,0.22,0.61,0.3,3.88,1.7,7.77,3.38,11.65,5.09a1.16,1.16,0,0,0,1.49-.54c-0.31-.15-0.56-0.28-0.82-0.4l-11.09-5C19.31,31.78,19.25,31.79,18.47,32.79Zm0.09,32.47c0.77,1,.81,1.05,1.79.61L28,62.37l3.93-1.8a1.14,1.14,0,0,0-1.69-.52c-1.89.9-3.82,1.7-5.74,2.55Zm4.41-35v0.25a0.68,0.68,0,0,0,.16.16q5.76,2.8,11.52,5.58a2.44,2.44,0,0,0,.82.08,0.45,0.45,0,0,0-.2-0.36c-3.79-1.9-7.58-3.81-11.39-5.69A2.29,2.29,0,0,0,23,30.28ZM22.69,67.65a3.9,3.9,0,0,0,1.37,0c3.71-1.81,7.39-3.66,11.09-5.5A2.6,2.6,0,0,1,35.49,62C34.61,61.77,24.18,66.49,22.69,67.65Z" style="fill:#fff"/><path d="M71.41,54.41H65l1.08-6.13H81.44c-0.07.45-.11,0.8-0.18,1.15a22.6,22.6,0,0,1-4.62,10.53,17.12,17.12,0,0,1-11.73,6.29,15.88,15.88,0,0,1-9.1-1.47A11,11,0,0,1,49.57,55c-0.34-6.78,1.86-12.64,7.09-17.13a18,18,0,0,1,10-4.17,16.44,16.44,0,0,1,7.37.67c3.71,1.31,5.87,4,6.91,7.83L73.1,45.3C73,45.1,73,45,73,44.87c-1.07-4.27-4.9-5.29-8.33-4a10.48,10.48,0,0,0-5.58,5.5,12.18,12.18,0,0,0-1.19,8.23,6.15,6.15,0,0,0,5.29,5.19,7.33,7.33,0,0,0,7.43-3.52C70.89,55.74,71.08,55.16,71.41,54.41Z" style="fill:#fff"/><path d="M200.82,31.72L194.17,35c-0.09-.17-0.16-0.27-0.2-0.38a4.23,4.23,0,0,0-5.34-2.79c-3.83.89-6,3.56-7.28,7.05a9.16,9.16,0,0,0-.51,4.4,4.52,4.52,0,0,0,4.83,4.26,7,7,0,0,0,6.61-4.14c0.12-.25.2-0.53,0.36-1l-5.41.61c0-.35.07-0.67,0.13-1,0.19-1.08.46-2.15,0.58-3.24a0.83,0.83,0,0,1,.9-0.83l9.51-1.14,3.15-.37c-0.6,1.94-1,3.75-1.71,5.43a17.64,17.64,0,0,1-18,10.89c-6-.51-8.52-4.84-8.06-10a18.53,18.53,0,0,1,14.75-16.25,15.13,15.13,0,0,1,7-.07A7.28,7.28,0,0,1,200.82,31.72Z" style="fill:#fff"/><path d="M203,50.09c0.23-1.29.44-2.55,0.67-3.8Q205.5,36.15,207.39,26a0.93,0.93,0,0,1,.56-0.64c1.86-.06,3.72-0.06,5.58-0.07a2.56,2.56,0,0,1,.45.11l-1.68,9.38a7.53,7.53,0,0,0,.82.09c2.73,0,5.45-.06,8.18-0.05a0.65,0.65,0,0,0,.72-0.7c0.51-2.86,1-5.71,1.57-8.56,0-.1.05-0.19,0.08-0.32h6.48c-0.23,1.32-.45,2.6-0.68,3.87-1.24,6.71-2.49,13.42-3.71,20.13a0.75,0.75,0,0,1-.89.79c-1.86,0-3.71,0-5.76,0l1.85-10.11c-0.37,0-.62-0.06-0.88-0.06h-7.39c-1.36,0-1.35,0-1.58,1.32-0.54,3-1.08,5.91-1.64,8.93H203Z" style="fill:#fff"/><path d="M263,46.69l5.67,12-1.41-.35c-1.87-.48-3.74-1-5.62-1.45a1.19,1.19,0,0,1-.92-0.83c-1.15-3.09-2.32-6.17-3.48-9.25a2.45,2.45,0,0,0-.58-1l-1.8,9.28-6.18-1.62,4.57-24.83,2.85,0.73c2.58,0.68,5.18,1.27,7.72,2.09,2.84,0.91,5,2.68,5.69,5.75a8.33,8.33,0,0,1-1.39,7.09,5.21,5.21,0,0,1-4,2.2C263.82,46.58,263.51,46.63,263,46.69Zm-4.41-11.63c-0.4,2.15-.77,4.1-1.1,6a0.61,0.61,0,0,0,.37.46,11.93,11.93,0,0,0,2.39.42,2.53,2.53,0,0,0,2.48-1.36,3.11,3.11,0,0,0-1.22-4.35A27.77,27.77,0,0,0,258.62,35.06Z" style="fill:#fff"/><path d="M171.87,53.77l-3.65.78c-0.92.19-1.85,0.35-2.76,0.57-0.54.13-.81,0.07-0.93-0.55-0.2-1.07-.49-2.13-0.77-3.28l-4.58.91c-1.46.3-2.92,0.58-4.37,0.93a1.44,1.44,0,0,0-.81.6c-0.72,1.21-1.37,2.47-2.09,3.69a1.23,1.23,0,0,1-.67.56c-2,.45-4.09.86-6.14,1.27a2.65,2.65,0,0,1-.54,0L147,54.76q5.88-10.8,11.75-21.6a1.6,1.6,0,0,1,1.25-.89c1.9-.35,3.8-0.72,5.69-1.16,0.73-.17.93,0,1.09,0.73,1.67,7.21,3.38,14.41,5.08,21.61A2.52,2.52,0,0,1,171.87,53.77ZM161.54,39.61l-0.24-.08L157,48l5.83-1.2Z" style="fill:#fff"/><path d="M79.79,63.64c0.12-.24.22-0.47,0.35-0.69q6.65-11.58,13.3-23.17A1.27,1.27,0,0,1,94.71,39c1.75,0,3.51,0,5.27-.05a1,1,0,0,1,1.2.94c1.36,6.95,2.77,13.89,4.16,20.83l0.59,2.9H99c-0.23-1.14-.47-2.29-0.67-3.44a0.77,0.77,0,0,0-.9-0.78c-2.57,0-5.14,0-7.71,0a1,1,0,0,0-1,.57c-0.61,1.1-1.25,2.18-1.91,3.25a1.06,1.06,0,0,1-.69.5c-2,0-4,0-6.05,0A1.09,1.09,0,0,1,79.79,63.64Zm12-9.09h5.56l-1.21-7.73-0.25,0Z" style="fill:#fff"/><path d="M246.77,37.39l-1,5.36-3.39-.53c-1.06-.17-2.11-0.35-3.17-0.55a0.57,0.57,0,0,0-.78.58c-0.15,1-.33,2-0.56,3-0.14.59,0,.79,0.61,0.87,2.07,0.3,4.13.65,6.2,1a6.74,6.74,0,0,1,.67.18l-1,5.31c-1.65-.26-3.27-0.5-4.89-0.76-2.79-.45-5.57-0.93-8.36-1.37-0.56-.09-0.66-0.27-0.55-0.82q2.18-11.76,4.31-23.52c0-.2.1-0.39,0.16-0.61l13.8,2.24c-0.07.55-.12,1.08-0.21,1.6-0.19,1.06-.42,2.1-0.59,3.16-0.08.5-.23,0.64-0.77,0.54-2.26-.4-4.54-0.75-7-1.13l-0.8,4.24Z" style="fill:#fff"/><path d="M108.72,63.52l2.41-13.11c0.66-3.6,1.33-7.19,2-10.79a1,1,0,0,1,1-1c1.87-.08,3.75-0.24,5.75-0.37l-3.54,19.4,8-.52c-0.21,1.24-.4,2.36-0.61,3.47a3.54,3.54,0,0,1-.45,1.77,3.34,3.34,0,0,1-1.78.27L111,63.37Z" style="fill:#fff"/><path d="M134.33,55.69l8.08-1.08c-0.22,1.26-.4,2.45-0.63,3.64-0.35,1.78-.37,1.74-2.22,2-4,.53-8,1.11-12,1.66-0.25,0-.51,0-0.91.07l4.56-24.79,6.66-.89Z" style="fill:#fff"/><path d="M269.2,62.14l-1.1,2.23L267,62l-0.19,0V64h-0.35a22.14,22.14,0,0,1,0-3c1.39,0.26,1,1.7,1.78,2.26,0.7-.59.51-1.91,1.83-2.23,0,1,0,1.9,0,2.78a0.92,0.92,0,0,1-.3.36,1.2,1.2,0,0,1-.28-0.44c0-.51,0-1,0-1.54Z" style="fill:#fff"/><path d="M265.62,61.26l-0.88.13c0,0.71,0,1.41,0,2.11a1.39,1.39,0,0,1-.24.48,1.37,1.37,0,0,1-.29-0.5c0-.7,0-1.4,0-2.09l-1.06-.33h2.49v0.2Z" style="fill:#fff"/><path d="M41.67,49.1a14.1,14.1,0,0,1-1.47,6.3A4.78,4.78,0,0,1,37.43,58a3.47,3.47,0,0,1-3.69-.86,10,10,0,0,1-2.53-5.31,13.56,13.56,0,0,1,1-8.8,7.23,7.23,0,0,1,.92-1.46,3.93,3.93,0,0,1,6.4.06,10.79,10.79,0,0,1,1.88,5C41.55,47.48,41.59,48.3,41.67,49.1Zm-3.54,4.31c2.31-1.77,2.47-6.7.08-8.59A14.51,14.51,0,0,1,38.13,53.42Z" style="fill:#fff"/></g></svg>