<svg id="Layer_1" data-name="Layer 1" xmlns="http://www.w3.org/2000/svg" viewBox="0 0 242.6667 100"><title>client-</title><path d="M38.3664,60.6V40.8811l1.06,0c6.3948.0006,12.79-.0063,19.1842.0276a28.7215,28.7215,0,0,1,8.82,1.3134,9.6567,9.6567,0,0,1,3.0764,1.5312,4.5752,4.5752,0,0,1-.0406,7.52,11.4627,11.4627,0,0,1-4.4312,1.9255,37.361,37.361,0,0,1-8.1074.8774c-2.354.0506-4.71.0105-7.2477.0105V60.6ZM50.688,49.2109c2.3032-.0409,4.5356.0925,6.7684-.1386a3.5459,3.5459,0,0,0,.7507-.2239,1.4945,1.4945,0,0,0,1.084-1.3922,1.5827,1.5827,0,0,0-.8073-1.5884,2.624,2.624,0,0,0-1.17-.4116c-2.1827-.0394-4.3665-.0189-6.6257-.0189Z" fill="#fff"/><path d="M161.9622,46.1987l6.3986-5.2762h10.961L167.8451,49.979l13.5918,10.74H167.1344l-7.7557-6.0076-7.0841,6.0151H139.5488l14.19-10.1229L141.39,40.9478h14.0328Z" fill="#fff"/><path d="M116.8637,53.2134c-.8061,2.5614.0965,4.1585,2.6409,4.7191a20.233,20.233,0,0,0,5.9554.2494,28.45,28.45,0,0,0,9.5916-2.2592l.497-.2243.97.5979s-.4835.297-.6788.4217a30.3221,30.3221,0,0,1-12.8484,4.3346,35.8217,35.8217,0,0,1-10.6563-.23,11.9241,11.9241,0,0,1-3.2793-1.06,5.2612,5.2612,0,0,1-2.8607-6.9432,13.1277,13.1277,0,0,1,4.3976-6.0136,29.6815,29.6815,0,0,1,14.59-6.171,27.9921,27.9921,0,0,1,10.3181-.0169,9.3254,9.3254,0,0,1,4.39,1.9844,2.6073,2.6073,0,0,1,.346,4.0116,8.9324,8.9324,0,0,1-2.9794,2.2735,36.1831,36.1831,0,0,1-11.5394,3.43C122.7714,52.79,119.788,52.8935,116.8637,53.2134Zm.5209-1.4767a42.5177,42.5177,0,0,0,7.3045-.9912,13.0413,13.0413,0,0,0,6.0984-3.4087,5.0469,5.0469,0,0,0,1.43-2.0381,2.1718,2.1718,0,0,0-2.1639-3.1041,6.496,6.496,0,0,0-3.0344.7124A23.8149,23.8149,0,0,0,117.3846,51.7367Z" fill="#fff"/><path d="M87.9165,41.02V55.9547h15.0174v4.616H75.5358V41.02Z" fill="#fff"/><path d="M11.4867,59.2188a1.4514,1.4514,0,0,1-.1407-.78,4.27,4.27,0,0,1,.559-1.2176c2.6629-4.7144,4.7852-8.079,7.416-13.001.6263-1.4-.6172-1.6531-2.8925-1.6121l-1.9063.11.5438-1.3191c5.9458-.4633,11.9675-.4348,18.2143-1.2847L22.9031,57.56c-.4071,1.2215,1.1684.7478,1.83.5687a11.6022,11.6022,0,0,0,3.2956-1.41c.838-.5361,1.6691-1.0829,2.5058-1.6267.1178-.0861.2813-.2.2813-.2l1.2877.7387c-3.8475,3.0113-7.7306,5.4809-12.6917,5.5239a20.4949,20.4949,0,0,1-5.4758-.3916A3.5252,3.5252,0,0,1,11.4867,59.2188Z" fill="#fff"/><ellipse cx="30.9937" cy="32.863" rx="6.6254" ry="3.4028" fill="#fff"/><polygon points="107.544 66.748 231.333 66.748 231.333 66.919 106.15 70.54 107.544 66.748" fill="#fff"/></svg>