<svg id="Layer_1" data-name="Layer 1" xmlns="http://www.w3.org/2000/svg" viewBox="0 0 154.6667 100"><title>client-</title><polygon points="31.37 56.007 28.97 56.007 39.982 19.023 42.382 19.023 31.37 56.007" fill="#fff"/><path d="M24.53,79.0567l5.4656-18.2311h-2.4L22.0639,79.2784C22.83,79.1711,23.6512,79.1007,24.53,79.0567Z" fill="#fff"/><path d="M20.0459,79.6823l5.6535-18.8567H23.3l-5.9888,19.975A10.9485,10.9485,0,0,1,20.0459,79.6823Z" fill="#fff"/><path d="M11.5039,87.1942a12.615,12.615,0,0,1,3.4826-4.7152l6.3778-21.6533H19.3516l-8.225,26.9395h.1917Z" fill="#fff"/><path d="M35.37,20.0787,24.5022,56.4024a13.7146,13.7146,0,0,1,2.5009-.3381L38.0295,19.21A12.6244,12.6244,0,0,0,35.37,20.0787Z" fill="#fff"/><path d="M29.7436,26.199h0L19.8992,58.7809a13.2991,13.2991,0,0,1,1.4651-1.0034c.4027-.2384.7757-.4458,1.1384-.6271L33.0263,21.4773A9.2722,9.2722,0,0,0,29.7436,26.199Z" fill="#fff"/><path d="M126.4187,40.2471c-1.4413-.37-2.4477,1.4512-3.0887,3.8768h4.0171C127.7552,42.145,127.715,40.58,126.4187,40.2471Z" fill="#fff"/><polygon points="49.523 42.728 53.703 42.728 52.939 36.838 49.523 42.728" fill="#fff"/><path d="M139.1189,19.12H44.3751L33.3825,56.1035h92.1884a8.7863,8.7863,0,0,0,8.4208-6.2783l9.5484-32.06A7.8917,7.8917,0,0,1,139.1189,19.12ZM59.543,50.4185h-7.04l.16-.8273h.9847a.83.83,0,0,0,.8234-.9371l-.63-4.857H48.9039l-2.5362,4.3746a.9551.9551,0,0,0,.8262,1.4341h1.0309l-.163.8128h-5.6l.1625-.8273h.6236a1.3774,1.3774,0,0,0,1.18-.6672L53.04,34.6119l2.7.029,2.2507,13.9513a1.1708,1.1708,0,0,0,1.1559.9844h.556Zm6.7784.0145H59.93l.1653-.8564h.9088a.6659.6659,0,0,0,.652-.5306l2.7106-13.0616a.5617.5617,0,0,0-.55-.6759H62.78l.29-.9289h4.8915L64.854,48.79a.6616.6616,0,0,0,.6467.801h.98Zm6.909,0H66.845l.1653-.8564h.9029a.6659.6659,0,0,0,.652-.5306l2.7106-13.0616a.5617.5617,0,0,0-.55-.6759h-1.037l.29-.9289h4.8915L71.7631,48.79a.6616.6616,0,0,0,.6467.801h.98Zm6.253-.8419h.98l-.16.8419H73.8885l.1684-.8564h.93a.6659.6659,0,0,0,.652-.5306l1.5735-7.904a.5618.5618,0,0,0-.55-.6759h-.9281l.15-.9289h4.9229l-1.97,9.2529A.6616.6616,0,0,0,79.4834,49.5912Zm1.7358-13.4184a1.6348,1.6348,0,1,1-1.1169-2.1694A1.731,1.731,0,0,1,81.2192,36.1728Zm12.253,14.26H89.1554l.3052-1.5478a4.4987,4.4987,0,0,1-4.5438,1.6176c-2.438-.6959-3.3838-2.8712-2.2516-6.861a5.5722,5.5722,0,0,1,5.5011-4.2256,2.8113,2.8113,0,0,1,2.8161,1.7506l.3213-1.63h2.8573L92.19,48.79a.6616.6616,0,0,0,.6467.801H93.64Zm13.5159-.029h-4.9894s1.016-4.0061,1.3644-5.37,1.0451-3.919-.6822-3.919-2.5442.94-3.0446,3.29h0L98.7025,48.79c-.0889.4121.39.801.8113.801h.5492l-.1668.8419H93.915l.1674-.8564h.9349a.6659.6659,0,0,0,.652-.5306l1.5735-7.904a.5618.5618,0,0,0-.55-.6759h-.9281l.15-.9289h4.7583l-.4138,1.9429a4.8357,4.8357,0,0,1,4.1485-1.9332c3.89,0,2.5261,3.28,2.0616,5.4866-.29,1.3771-.6025,2.8108-.7964,3.6939a.7113.7113,0,0,0,.6949.8638h.8255Zm11.1995-7.3058h-1.3091c.1394-1.455-.1286-2.531-1.2223-2.8117-1.5751-.4042-2.6571,1.5733-3.3324,4.1865s-.9368,5.2553.887,5.2768c1.7211.02,2.2879-.9447,2.7679-2.5875h2.0368c-.8811,2.5121-2.2032,3.4818-4.8179,3.4818-4.048,0-4.8221-2.4174-4.2609-5.66.6929-4.0031,3-5.658,5.69-5.66a16.8022,16.8022,0,0,1,4.3157.7935Zm12.3245,1.9584H123.106c-.0354.1617-.071.3235-.1009.4807h0l-.0027.0155c-.0216.1144-.04.2263-.0582.3378l-.0094.0552c-.01.0629-.0183.1245-.027.1863-.28,1.9221-.0975,3.5657,1.6281,3.6235,2.0494.0687,2.688-.9143,3.1862-2.574H130.03c-1.0719,2.8121-3.85,3.9021-6.7352,3.3866-3.2491-.58-4.2168-2.5931-3.2685-6.6186.7361-3.1248,3.1546-4.5286,6.193-4.5286C130.1734,39.4212,130.86,42.2392,130.5121,45.0566Z" fill="#fff"/><path d="M89.0992,40.44c-1.5571-.4-2.6042,1.4678-3.2438,3.9432s-.8484,4.7116.9274,5.021c1.5721.2739,2.471-1.489,3.1107-3.9644S90.727,40.8581,89.0992,40.44Z" fill="#fff"/><path d="M77.2835,68.2508c-.5429,0-1.1648.7623-1.4152,1.9522s-.25,2.357.5086,2.357c.5429,0,1.1648-.7623,1.4152-1.9522S77.9986,68.2508,77.2835,68.2508Z" fill="#fff"/><path d="M97.8324,68.4541c-.5418-.0051-1.1553.7169-1.3939,1.8509s-.2273,2.2485.53,2.2557c.5418.0051,1.1553-.7169,1.3939-1.8509S98.546,68.4608,97.8324,68.4541Z" fill="#fff"/><path d="M31.9758,60.8254,26.557,78.9979h91.4279a9.7381,9.7381,0,0,0,9.3444-6.9972l3.2779-11.1753Zm29.2731,9.0382h-.3463a.371.371,0,0,0-.3638.298l-.1883.9406h.0017l-.2872,1.4334a7.9614,7.9614,0,0,1-3.304.589c-2.8062,0-3.3156-2.7371-2.7094-4.8678a4.1266,4.1266,0,0,1,4.4706-2.99,7.7338,7.7338,0,0,1,2.455.4917l-.4192,2.092h-.7856c.205-1.1044.0877-1.974-1.2792-1.974-1.3868,0-2.339,1.0835-2.7113,2.8934-.4916,2.39-.0465,3.7544,1.25,3.7544a1.6865,1.6865,0,0,0,1.5645-.7148L58.9,70.2947a.36.36,0,0,0-.3532-.4311h-.7126l.0855-.4258h3.415Zm9.1258-.9911c-.0922.52-.4784.8864-.8625.8183a.7791.7791,0,0,1-.545-.8106c-.5012-.7184-1.2145.8736-1.3727,1.6613l-.3227,1.6066a.3237.3237,0,0,0,.3174.3875h.5458L68.05,72.96H64.8825l.0852-.4262h.3806a.4729.4729,0,0,0,.4636-.38l.6922-3.4463a.36.36,0,0,0-.3532-.4311h-.4006l.0855-.4258H68.135l-.1919.9552a1.6721,1.6721,0,0,1,1.9-.9987h.0032l.0049.0016c.0452.01.0726.0184.0726.0184l-.0031.0039A.8931.8931,0,0,1,70.3747,68.8724Zm8.952,2.012A2.7641,2.7641,0,0,1,76.25,73.0761c-1.9735-.2125-2.1758-1.7114-1.8579-3.2223a2.7355,2.7355,0,0,1,3.1207-2.09C79.3726,67.9641,79.6446,69.3735,79.3267,70.8844Zm9.8605,1.6511h.3142l-.0853.4246h-2.168l.1655-.8241a2.38,2.38,0,0,1-1.94.96c-1.7164,0-1.0683-2.14-1.0167-2.3963h0l.4-1.9915a.36.36,0,0,0-.3532-.4311h-.4005l.0855-.4258h2.2989l-.5594,2.7849,0,.0013-.0737.3671c-.0227.1148-.0464.2372-.0647.3364-.0492.2677-.1995.9289.3716.9289,1.13,0,1.44-1.095,1.6183-1.9554l.3227-1.6064a.36.36,0,0,0-.3532-.4311h-.4006l.0855-.4258H89.733L88.87,72.148A.3237.3237,0,0,0,89.1872,72.5355Zm10.8085-1.6511a2.7307,2.7307,0,0,1-2.7454,2.277,1.3051,1.3051,0,0,1-1.2828-.9324l-.5153,2.5682a.4216.4216,0,0,0,.4133.5045H96.13l-.0777.3871H93.1092l.0777-.3871h.3551a.4993.4993,0,0,0,.4893-.4l1.2531-6.1888a.3639.3639,0,0,0-.3567-.4362h-.38l.0872-.4258H96.846l-.167.8324a2.2954,2.2954,0,0,1,1.9669-.9392C100.1409,67.8675,100.3136,69.3735,99.9958,70.8844Z" fill="#fff"/></svg>