<svg id="Layer_1" data-name="Layer 1" xmlns="http://www.w3.org/2000/svg" viewBox="0 0 220 100"><title>client</title><path d="M160.67,40.48h5.23v1.24q0,12,0,23.94c0,0.36,0,.72.06,1a57.06,57.06,0,0,0,8.78,0c0-.25.05-0.54,0.05-0.82q0-15.88,0-31.76c0-.28,0-0.56-0.07-0.87a6.07,6.07,0,0,0-.68-0.08c-3.48,0-7,0-10.43,0a3,3,0,0,0-1.4.43,3.25,3.25,0,0,0-1.66,2.88c0,1.11,0,2.21,0,3.32A4.1,4.1,0,0,0,160.67,40.48Z" style="fill:#fff"/><path d="M204.57,46.5c1.32,3.72.73,7.05-2,9.77s-6.1,3.17-9.72,1.94l-0.65.62C191,60,189.81,61.2,188.63,62.4a2.88,2.88,0,0,1-2.48,1c-0.51-.06-1-0.21-1.64-0.34a2.71,2.71,0,0,0,.24.27A18.29,18.29,0,0,0,189.17,66a17.78,17.78,0,0,0,10.19,1.22,18,18,0,0,0,5.71-2,17.34,17.34,0,0,0,8-9.29,16.76,16.76,0,0,0,.91-8.22,17,17,0,0,0-2.53-6.91,9.13,9.13,0,0,0-.56-0.72C208.77,42.29,206.64,44.35,204.57,46.5Z" style="fill:#fff"/><path d="M127.25,66.84c0.32,0,.55.06,0.78,0.06h17.62a6.12,6.12,0,0,0,.72-0.08,48.62,48.62,0,0,0,0-7.47c-0.3,0-.63-0.07-1-0.07h-8.3c-0.3,0-.61,0-0.89-0.07a26,26,0,0,1,0-5.43H145c0.3,0,.61,0,0.94-0.08A5.57,5.57,0,0,0,146,53q0-3,0-6.08a5.51,5.51,0,0,0-.13-0.81H141c-1.6,0-3.2,0-4.77,0a24.24,24.24,0,0,1,0-5.42h9.2c0.31,0,.61,0,0.89-0.06a38.88,38.88,0,0,0,0-7.43c-0.23,0-.49,0-0.74,0H130.48a3.23,3.23,0,0,0-3.25,2.58,5.34,5.34,0,0,0-.07,1.1q0,10.35,0,20.7,0,4.15,0,8.3C127.16,66.15,127.21,66.47,127.25,66.84Z" style="fill:#fff"/><path d="M181.46,59.66a4.48,4.48,0,0,0,.47.51c0.17-.13.28-0.21,0.37-0.3l5.53-5.53a4.6,4.6,0,0,0,.41-0.55c-1.5-3.79-1-7.26,1.81-10.12s6.41-3.24,10.18-1.78c0.23-.21.45-0.4,0.65-0.6,1.18-1.17,2.34-2.35,3.53-3.52a3,3,0,0,1,3.35-.72l0.63,0.23a2.1,2.1,0,0,0-.25-0.37c-0.45-.37-0.88-0.75-1.36-1.08a17.73,17.73,0,0,0-13-3.14A17.33,17.33,0,0,0,182.45,39a17.08,17.08,0,0,0-3.86,12.89A16.39,16.39,0,0,0,181.46,59.66Z" style="fill:#fff"/><path d="M57.51,66.81a4.5,4.5,0,0,0,.57.09h7.66a4.17,4.17,0,0,0,.66-0.12v-23q0-4.78,0-9.56c0-.33,0-0.66-0.07-1a2.69,2.69,0,0,0-.4-0.08c-1.82,0-3.63,0-5.45,0a3.1,3.1,0,0,0-1.47.5,3.45,3.45,0,0,0-1.56,3.17q0,14.53,0,29.07C57.45,66.19,57.49,66.47,57.51,66.81Z" style="fill:#fff"/><path d="M70,40.67h7.08v1.15q0,11,0,22c0,0.76,0,1.53,0,2.29a5,5,0,0,0,.15.79H86c0-.42.08-0.8,0.08-1.19q0-11.93,0-23.85c0-.36,0-0.71.07-1.15h2.36c0.79,0,1.58,0,2.37,0a9.61,9.61,0,0,0,2.24-.09,44.19,44.19,0,0,0-.05-7.4c-0.26,0-.54,0-0.83,0h-19a3.21,3.21,0,0,0-3.38,3.37c0,1.08,0,2.16,0,3.24C69.93,40,70,40.31,70,40.67Z" style="fill:#fff"/><path d="M96.81,61.49c0,1.47,0,2.95,0,4.42a8.72,8.72,0,0,0,.09.88,57.93,57.93,0,0,0,8.84-.1c0-4.1,0-8.24,0-12.58l8.18,12.79h0.95l9.87,0a0.11,0.11,0,0,0,.06-0.05,1.35,1.35,0,0,0,.07-0.15l-3.41-4.47c-1.14-1.48-2.29-3-3.41-4.45s-2.34-2.95-3.46-4.58l1-.32A8.35,8.35,0,0,0,121,47.74a11.91,11.91,0,0,0,.21-8,8.36,8.36,0,0,0-3.85-4.83,11.72,11.72,0,0,0-5.85-1.69c-3.84-.08-7.69,0-11.53,0a2.85,2.85,0,0,0-1.57.48,3.37,3.37,0,0,0-1.58,3.07Q96.82,49.09,96.81,61.49Zm9-21.43a8.9,8.9,0,0,1,4.77.67c1.57,0.8,2.11,2.3,1.83,4.16-0.32,2.06-1.89,2.83-3.51,3.09-0.7.11-1.41,0.12-2.11,0.18-0.31,0-.62.08-1,0.13V40.06Z" style="fill:#fff"/><path d="M15.46,66.77l9.32-19.93a2.23,2.23,0,0,1,.12.87q0,9,0,18c0,0.36.05,0.71,0.08,1.11h8.51l9.89-20.16a19.62,19.62,0,0,1,0,2.4q0,8.46,0,16.91a5.7,5.7,0,0,0,.11.79,59.49,59.49,0,0,0,8.72-.08c0-.31.05-0.64,0.05-1q0-4.9,0-9.8,0-10.79,0-21.57c0-.38,0-0.76-0.08-1.22h-1c-2.9,0-5.8,0-8.69,0a4,4,0,0,0-3.88,2.48C37.41,38.3,36.23,41,35,43.74l-2,4.39-0.16,0q0-.43,0-0.86,0-6.48,0-13c0-.36-0.05-0.71-0.09-1.11-0.35,0-.61,0-0.86,0H23.67a4,4,0,0,0-3.89,2.48c-1.26,2.69-2.46,5.42-3.68,8.13L9.94,57.43q-1.88,4.18-3.76,8.36C6,66.09,6,66.41,5.83,66.73A77.56,77.56,0,0,0,15.46,66.77Z" style="fill:#fff"/></svg>