<svg id="Layer_1" data-name="Layer 1" xmlns="http://www.w3.org/2000/svg" viewBox="0 0 280 100"><title>client-</title><g id="RzTr9W"><path d="M89.4766,71.9765l1.9889-2.5523-4.75-3.8728c1.4436-.3919,1.4476-1.8766,2.2973-2.8805,1.0562.52,2.1364,1.0284,3.1862,1.5931a.8616.8616,0,0,1,.2889.66c.0007,1.3887-.0376,2.7774-.07,4.166a.8214.8214,0,0,1-.0891.3756,13.5355,13.5355,0,0,1-2.78,3.4047l-1.4071-1.0872c-.0516.3558-.1092.5962-.1177.8382a3.3524,3.3524,0,0,1-1.2877,2.6658c-.6593.5166-1.342,1.0042-1.9894,1.535-.5768.4729-1.0111.41-1.3809-.2413a4.0565,4.0565,0,0,0-.48-.5475c-.3244.66-.6287,1.2333-.892,1.8244-.8063,1.81-2.46,2.4893-4.1549,3.0843-.19.0666-.5512-.1866-.7536-.3762a3.1316,3.1316,0,0,1-.4221-.8223c-.2631.3828-.4938.6755-.6787.9947-1.1344,1.9587-3.0855,2.3737-5.0842,2.645-.2116.0287-.5392-.3667-.7125-.6312-.1244-.19-.0814-.49-.1388-.9449a7.2923,7.2923,0,0,0-.756.73,4.9005,4.9005,0,0,1-3.9572,1.9079c-.0262.0013-.0524.0038-.0786.0039A4.0012,4.0012,0,0,1,63.56,84.396c-.3145-.164-.331-.8993-.5044-1.4555a7.1461,7.1461,0,0,0-1.0874.6651c-1.1875,1.0391-2.5495.9071-3.9426.6678-.5652-.0971-1.26-.009-1.6576-.3152-.271-.209-.1279-.955-.1806-1.5889-.6687.2429-1.3565.4519-2.0085.7415a2.0978,2.0978,0,0,1-1.7369.0264c-.7276-.2929-1.4741-.5386-2.2091-.8136-.8508-.3183-.92-.5056-.5185-1.3266.0988-.2022.1883-.4089.3453-.7516-.8782.1237-1.6158.28-2.3591.3139a3.3158,3.3158,0,0,1-1.4858-.2273c-.733-.336-1.3918-.831-2.0928-1.24-.6067-.3543-.7606-.7515-.2091-1.2907a6.951,6.951,0,0,0,.5175-.67,15.9484,15.9484,0,0,0-2.17-.2007,2.1691,2.1691,0,0,1-1.7463-.7144c-.5118-.5246-1.0048-1.0677-1.5227-1.5861-.4714-.4718-.4927-.89.087-1.2792q.3246-.2178.6493-.4354l-.1261-.2425a9.2261,9.2261,0,0,0-1.174-.2729,3.2891,3.2891,0,0,1-2.6392-1.8671c-.2276-.4125-.4645-.8212-.6646-1.247-.4994-1.0631-.4916-1.066.5743-1.6529.1113-.0613.2161-.1343.4194-.2617-1.2088-.9739-3.16-1.1434-3.104-3.3084-1.5168.7335-2.8783,1.39-4.2383,2.05-1.4368.6968-2.8744,1.3919-4.3076,2.0961a2.7624,2.7624,0,0,1-3.574-1.3705c-.0378-.0909-.0836-.1786-.1629-.3469a1.72,1.72,0,0,1-2.293-.0677A3.1489,3.1489,0,0,1,17.0066,64.46a5.1657,5.1657,0,0,0-.275-.8706c-1.8177.2861-1.8557.304-2.667-1.4166a12.5914,12.5914,0,0,1-.5755-2.104c-.1008-.3737-.2163-.7435-.3414-1.1706-.6889.2413-.9279-.1573-1.2145-.6542a5.2176,5.2176,0,0,1-.5568-3.7147,5.9573,5.9573,0,0,0,.0544-.6571c-.0986-.059-.1427-.1085-.1865-.1083-1.2632.0068-1.2436.1383-1.2246-1.2384a7.1775,7.1775,0,0,1,.397-3.3954.6485.6485,0,0,0-.0022-.52c-.5849-1.11-.3259-2.3081-.4081-3.472-.0485-.6861.1764-.9894.8788-.8854a3.0931,3.0931,0,0,0,.5267-.035c-.0457-.7272-.0526-1.4445-.1442-2.1508a4.1159,4.1159,0,0,1,.8236-2.7984c.09-.1416.2972-.3543.388-.327.8388.2518.8016-.4109.9506-.8739a27.1133,27.1133,0,0,1,1.0163-3.1033c.5214-1.1279.6273-1.094,1.74-.6188.1371.0586.2866.0881.5306.161.244-.9856.3552-1.9848,1.28-2.6126.819-.5562,1.5488-1.2516,2.5048-.4666a7.785,7.785,0,0,1,1.2238-1.37,2.8593,2.8593,0,0,1,3.2529-.1295c3.49,1.854,7.0672,3.544,10.6107,5.2975.16.0793.3257.1482.5858.2658.5714-1.8771,2.501-1.7751,3.786-2.6436-.0391-.1-.0469-.19-.0961-.2352-1.1513-1.0567-1.1311-1.0409-.2107-2.3395,1.1043-1.5581,2.4053-2.7672,4.4537-2.8323a4.7569,4.7569,0,0,0,.808-.1778,3.478,3.478,0,0,0-.2417-.4052c-.8-.9493-.8014-.9489.1086-1.762.1954-.1746.4093-.33.5927-.5164a5.1674,5.1674,0,0,1,4.174-1.6082,5.0422,5.0422,0,0,0,.9218-.1133c-.556-1.63-.4975-1.5341,1.0123-2.4519a5.5552,5.5552,0,0,1,4.8828-.7808.7644.7644,0,0,0,.31.02.825.825,0,0,0,.2156-.0881.7456.7456,0,0,0,.0279-.2352c-.296-1.3123-.301-1.3222.9609-1.7913.76-.2824,1.5248-.5578,2.305-.7731a1.7034,1.7034,0,0,1,.9587.0431c.8072.2827,1.5909.6326,2.4416.9794a3.7032,3.7032,0,0,0,.0864-.4523c.0634-1.4608.0624-1.4568,1.5-1.57a5.7619,5.7619,0,0,0,1.01-.1443,3.1028,3.1028,0,0,1,3.0921.81,11.6576,11.6576,0,0,0,1.236.8733c.1583-.5525.2546-1.0032.4243-1.4243.0682-.1694.3013-.3929.4531-.3883.9414.0288,1.8834.0923,2.82.19a2.7322,2.7322,0,0,1,2.0559,1.2924c.2429.3646.5371.6949.823,1.06.1-.1084.1713-.155.1977-.22.5329-1.314.357-1.4856,2.3113-1.0534a4.1752,4.1752,0,0,1,3.4,2.892,3.9308,3.9308,0,0,0,.3088.5993c.1041-.036.1709-.0376.1913-.0692.9119-1.4145.582-1.5538,2.4821-.6122,1.4378.7125,2.5276,1.6856,2.5778,3.4433a2.7645,2.7645,0,0,0,.1364.6116c.011.0414.0665.071.1459.1505a2.4876,2.4876,0,0,0,.3437-.2489c.888-.8948.8913-.8969,1.8183-.0844.0789.0691.149.149.2317.2127a4.0555,4.0555,0,0,1,1.8534,4.11,2.3769,2.3769,0,0,0,.0154.5488,1.5041,1.5041,0,0,0,.0971.2644c.3069-.1976.6112-.3613.8775-.5728.3514-.2791.6534-.3211.9113.0932.5947.9553,1.2121,1.8989,1.7518,2.8847a1.77,1.77,0,0,1,.0365.9911c-.11.8245-.2621,1.6434-.432,2.674a13.5215,13.5215,0,0,0,1.3558-.59c.4868-.28.8186-.2681,1.038.3079.3129.8216.6481,1.6347,1.0414,2.6209-1.43-.172-.9971-1.5864-1.8551-2.0913l-11.1775,5.34.6016,1.6174,3.3745-1.258c-.53,1.0255-.968,1.9082-1.4423,2.7712a2.0557,2.0557,0,0,1-.57.6375c-.6435.4757-1.1919.33-1.4363-.431a22.5582,22.5582,0,0,0-3.4532-7.0122c-3.3933-4.3947-7.7053-7.1636-13.3975-7.6856a22.8647,22.8647,0,0,0-14.5567,3.7135,23.4856,23.4856,0,0,0-6.9541,6.6355A24.2846,24.2846,0,0,0,44.6983,51.454a17.5751,17.5751,0,0,0,1.6506,8.9222A17.8917,17.8917,0,0,0,60.7735,71.03c5.6509.8109,10.6389-.92,15.4185-3.649a2.4625,2.4625,0,0,0,.8054-.6174c.8451-1.1891,2.01-1.3013,3.365-1.346A4.5524,4.5524,0,0,1,84.1555,66.9C85.8127,68.6452,87.6338,70.2347,89.4766,71.9765ZM42.7481,49.21c0-.4477.0048-.71-.0007-.9719a12.2488,12.2488,0,0,0-3.38-8.5479,4.33,4.33,0,0,0-6.2718-.33A8.9926,8.9926,0,0,0,30.02,44.3579a17.9217,17.9217,0,0,0-.39,7.6195,12.2512,12.2512,0,0,0,2.8826,6.4109,4.6429,4.6429,0,0,0,7.15-.2023A13.2749,13.2749,0,0,0,42.7481,49.21ZM77.79,80.154l2.7816-1.4609L75.3884,68.6408c-.4141.2157-.7487.4107-1.1.5685a.81.81,0,0,0-.4509,1.2583c.2559.5415.4421,1.1155.6692,1.6711C75.5817,74.7684,76.66,77.3965,77.79,80.154ZM66.41,71.7925c-.4959,0-.8614.0251-1.2222-.0058-.5624-.0482-.7242.2414-.7475.7421-.1618,3.4772-.3359,6.9538-.5033,10.4308-.0119.2473-.0016.4957-.0016.8252l3-.36ZM84.5377,19.8889,77.8022,30.4254l1.6228.97,7.616-10.0914ZM66.81,28.2193c.214-3.8541.4285-7.6138.6124-11.3751.008-.164-.2725-.4949-.4056-.4882-.8525.0429-1.7014.1585-2.6372.2594l.5435,11.6039Zm4.1692,54.41c.7556-.2239,1.3683-.4616,2.0033-.5791.7618-.141.8911-.5.7038-1.21-.8259-3.1348-1.6292-6.276-2.3883-9.4274-.1542-.64-.4007-.78-.9656-.5512a2.22,2.22,0,0,1-.4578.1062c-.5967.1029-.8017.36-.6683,1.0289.3476,1.7428.59,3.5066.8787,5.2612C70.373,79.0066,70.6669,80.7548,70.9792,82.6291ZM96.0487,31.1307,94.4364,28.64l-10.09,7.594,1.023,1.42ZM77.5848,67.1361l6.5712,9.1749,2.4664-2.062-7.504-8.414ZM50.1442,36.3712,41.8323,29.064l-2.0088,2.4211c.22.18.3694.3184.5342.4357q3.679,2.6192,7.3619,5.2327c1.4908,1.057,1.5731,1.0335,2.41-.6131A.8061.8061,0,0,0,50.1442,36.3712Zm6.7645,47.0463c.9224.112,1.7635.2384,2.6092.2908.1274.0079.3671-.3141.4016-.51q.9459-5.3976,1.8412-10.804a.7383.7383,0,0,0-.1161-.568,1.339,1.339,0,0,0-1.8139.57c-.4778,1.7894-.9429,3.5821-1.4171,5.3724C57.9264,79.6068,57.4345,81.4443,56.9087,83.4175Zm3.5235-53.8988c.3141-.0879.5121-.139.7074-.1987,1.1656-.3565,1.1766-.3591.968-1.5641-.3915-2.2617-.7987-4.5208-1.1966-6.7814-.1968-1.1178-.3873-2.2368-.5951-3.4389-.8513.2836-1.5816.554-2.3285.7659-.4737.1343-.5358.3593-.405.8046.3673,1.2508.6842,2.5163,1.0278,3.7741C59.2067,25.0646,59.8085,27.2476,60.4321,29.5186ZM57.3574,71.0119c-1.4552-.814-1.5482-.7919-2.22.5712q-2.2547,4.5758-4.4965,9.1579c-.12.2448-.207.5057-.3282.8059.812.2685,1.519.544,2.25.7159a.7909.7909,0,0,0,.6714-.3671C54.6255,78.2874,55.9813,74.6655,57.3574,71.0119ZM47.3862,24.0647,44.91,25.9955l7.3335,8.3627c.4114-.2793.7455-.5315,1.1037-.7429.4621-.2727.5411-.5513.1739-.989-.3853-.4593-.7028-.9753-1.0529-1.4644C50.7961,28.825,49.1225,26.4889,47.3862,24.0647ZM69.55,28.0572c1.6637.3309,1.7148.3113,2.1124-1.14.4622-1.6875.9008-3.3814,1.3506-5.0723.4615-1.7349.9242-3.47,1.414-5.3079a16.8712,16.8712,0,0,1-2.0947-.25c-.7783-.1914-.9133.16-1.013.8164-.3648,2.4015-.7918,4.7936-1.1852,7.1908C69.9285,25.549,69.7437,26.8071,69.55,28.0572Zm4.2753.6366,1.7731.671L80.9734,18.21c-.7513-.2557-1.4-.4441-2.0223-.699-.4548-.1864-.6636-.0484-.8259.3781-.4454,1.1709-.9138,2.333-1.378,3.4967C75.791,23.7823,74.8316,26.178,73.8256,28.6938ZM50.85,21.68l5.3885,9.8834c1.7966-.7814,1.8063-.8055,1.1059-2.4252-.0934-.216-.1842-.4331-.275-.65-1.0483-2.51-2.0875-5.0233-3.16-7.5227-.0936-.2181-.4826-.53-.6024-.4806C52.4958,20.8217,51.72,21.244,50.85,21.68ZM48.7169,65.4948l-9.1644,8.4624,1.8291,2.0122,8.6447-9.2319Zm-1.487-2.07c-.2009-.3544-.3561-.6239-.5072-.8958a.5486.5486,0,0,0-.8925-.2408c-3.24,2.0171-6.4894,4.02-9.7245,6.0449-.1437.09-.3.4267-.2418.5288.3934.687.8434,1.3417,1.3,2.0452ZM81.5,32.9093c.2092.2336.3257.3729.4517.5029.7628.7867.7634.7858,1.58.0348q2.8042-2.5783,5.6085-5.1565c.9593-.8823,1.9173-1.7659,2.7842-2.5646l-1.81-1.9384Zm-37.1209,45.57c.6268.3589,1.2.6649,1.75,1.0088.4826.3019.7595.1968,1.06-.2923,1.3154-2.1393,2.6724-4.253,4.0115-6.3778.7224-1.1462,1.4392-2.296,2.1683-3.46-.1666-.1476-.2731-.26-.3968-.3488-.9437-.6762-.9463-.676-1.6447.2517q-1.6532,2.1956-3.303,4.3938C46.8292,75.2407,45.63,76.824,44.3793,78.4793ZM26.9315,50.4239c-.2123,0-.4386-.0073-.6642.0012-1.6744.0624-3.3486.1314-5.023.1918-3.2976.1188-6.5957.2261-9.8924.3669-.2065.0088-.55.2434-.5756.4118a11.1247,11.1247,0,0,0-.0277,1.6175c1.3789-.1114,2.649-.2037,3.9172-.3183,3.8045-.344,7.6074-.705,11.4127-1.0405C27.0836,51.5655,27.0863,51.5967,26.9315,50.4239ZM10.7946,46.8967l16,.6817c.2842-1.1788.1852-1.3076-.8632-1.3607-.68-.0344-1.3579-.1009-2.0364-.1577q-4.2665-.3567-8.5329-.7155c-1.5043-.1248-3.0093-.241-4.5676-.3654ZM34.1265,64.97c.3816-.1653.67-.2817.9514-.4135q4.7239-2.2128,9.4416-4.4388c.2782-.1321.7145-.4129.6985-.59a5.1741,5.1741,0,0,0-.4691-1.3957c-.0221-.0546-.2005-.0984-.2786-.07a10.7072,10.7072,0,0,0-2.9631,1.1518,33.8786,33.8786,0,0,1-6.2687,3.7054c-.53.2542-1.0414.5484-1.5714.83Zm-4.59-7.2614c-.2278-.7551-.5457-1.0426-1.3321-.756-2.8459,1.0373-5.7165,2.0065-8.5742,3.0118-1.6166.5687-3.2261,1.1575-4.9365,1.7724l.799,1.4285ZM27.6176,53.47l-15.4593,3.3c.4442,1.43.4424,1.4223,1.7156,1.1181q3.8852-.9286,7.7738-1.843c2.0789-.4919,4.1581-.9824,6.31-1.4907ZM14.6849,36.1443c.0834.1086.1065.1722.1467.1861,4.5971,1.5927,9.1936,3.1876,13.8021,4.7469.1662.0562.452-.2411.682-.3737-.1192-.206-.1912-.532-.3646-.6q-6.536-2.5767-13.0983-5.0858a.7738.7738,0,0,0-.67.2183A4.4042,4.4042,0,0,0,14.6849,36.1443ZM27.8786,43.63a.7307.7307,0,0,0-.1892-.1158q-7.293-1.8528-14.5917-3.6829a.6814.6814,0,0,0-.5529.2547,5.6819,5.6819,0,0,0-.4619.9443,3.7706,3.7706,0,0,0,.5382.2154c4.7178,1.0465,9.4384,2.08,14.1539,3.1373C27.4569,44.5357,27.8405,44.3809,27.8786,43.63Zm9.4819-8.57c-.5171.61-.4744.95.2264,1.2281a10.6,10.6,0,0,1,4.92,3.9888,1.1619,1.1619,0,0,0,.4555.407c.981.4258,1.9671.8424,2.9689,1.2153a.6906.6906,0,0,0,.6327-.1618,16.1287,16.1287,0,0,0,.8135-1.54ZM18.4681,32.7874c.2421.12.4238.2205.6131.3032,3.8841,1.6957,7.7737,3.3789,11.65,5.0931.702.31,1.0484-.07,1.486-.5443-.3064-.1511-.558-.2846-.817-.4017Q25.8562,34.7325,20.3113,32.23C19.3095,31.7768,19.2454,31.788,18.4681,32.7874Zm.092,32.4655c.7739,1.0383.8091,1.0526,1.7873.6074q3.8224-1.7394,7.6414-3.4861c1.302-.5949,2.6022-1.1935,3.932-1.8037a1.1427,1.1427,0,0,0-1.6872-.5182c-1.8869.9026-3.8225,1.7032-5.7356,2.5516C22.5429,63.4711,20.5913,64.3464,18.56,65.2529Zm4.4145-34.974-.0013.253c.0517.0546.0932.13.1564.1607q5.7562,2.7969,11.5214,5.5751a2.443,2.443,0,0,0,.8239.076c-.05-.2374-.114-.3213-.1987-.3638-3.7917-1.9026-7.5818-3.8085-11.3864-5.685C23.6425,30.1727,23.2823,30.2789,22.9746,30.2789Zm-.2884,37.37c.6006,0,1.0548.1331,1.3691-.02,3.7077-1.8094,7.3943-3.6621,11.0878-5.5008a2.6,2.6,0,0,1,.3479-.1171C34.6121,61.7716,24.1805,66.4948,22.6861,67.6489Z" fill="#fff"/><path d="M71.4068,54.4056H65l1.0816-6.132H81.4383c-.0709.4549-.1127.8029-.1806,1.1458a22.6,22.6,0,0,1-4.6169,10.5279A17.1174,17.1174,0,0,1,64.91,66.2388a15.8777,15.8777,0,0,1-9.095-1.4718,11.0494,11.0494,0,0,1-6.2455-9.7858c-.3389-6.78,1.8583-12.6367,7.0891-17.1317a17.9492,17.9492,0,0,1,9.9948-4.1723,16.4393,16.4393,0,0,1,7.3655.6717c3.7131,1.31,5.87,4.0289,6.9138,7.8322L73.0968,45.298c-.06-.193-.1039-.31-.1341-.4311-1.0669-4.2713-4.903-5.29-8.3251-3.9875a10.4785,10.4785,0,0,0-5.58,5.4972,12.1831,12.1831,0,0,0-1.1864,8.2342,6.1527,6.1527,0,0,0,5.2942,5.19,7.3286,7.3286,0,0,0,7.4274-3.5235C70.8853,55.7449,71.0825,55.16,71.4068,54.4056Z" fill="#fff"/><path d="M200.8191,31.7224l-6.6441,3.2643c-.0909-.1661-.1591-.2659-.2035-.3753a4.2262,4.2262,0,0,0-5.3376-2.7868c-3.83.8866-5.9762,3.56-7.2759,7.0536a9.162,9.162,0,0,0-.5053,4.4,4.5154,4.5154,0,0,0,4.8342,4.2647,7.0422,7.0422,0,0,0,6.61-4.1413c.1192-.2536.1955-.5273.356-.9683l-5.4144.6148c.0459-.35.0748-.67.1316-.9853.1948-1.08.462-2.1517.5766-3.24.0673-.6393.4072-.7695.9024-.8292q4.754-.5734,9.5085-1.1433c.9543-.1145,1.9089-.2263,3.1467-.3729-.6018,1.9379-1.0085,3.7482-1.7143,5.4332a17.638,17.638,0,0,1-17.9572,10.8871c-5.9691-.5084-8.5192-4.8418-8.0592-10.01a18.5345,18.5345,0,0,1,14.75-16.2494,15.1266,15.1266,0,0,1,7.0017-.0714A7.28,7.28,0,0,1,200.8191,31.7224Z" fill="#fff"/><path d="M202.9532,50.0911c.2276-1.2906.44-2.5461.6714-3.7982q1.8714-10.142,3.7688-20.2792c.047-.2495.3578-.6346.5564-.6414,1.8592-.0633,3.7207-.0589,5.5816-.0688a2.5587,2.5587,0,0,1,.4472.1093l-1.6846,9.3795a7.53,7.53,0,0,0,.8157.0884c2.7261-.0173,5.4522-.0572,8.1782-.0548.5395,0,.6439-.2644.7218-.6992.5116-2.8562,1.0408-5.7092,1.5656-8.563.018-.0981.0507-.1934.0848-.3208h6.4752c-.2335,1.3235-.4494,2.599-.6843,3.8711-1.239,6.71-2.4916,13.4167-3.7095,20.13-.105.5787-.2836.8-.8894.7884-1.8567-.0348-3.7145-.0126-5.7565-.0126l1.8484-10.113c-.3654-.0252-.6213-.0579-.8772-.0583q-3.6975-.0059-7.395-.001c-1.3568.0029-1.3462.0116-1.5826,1.315-.5365,2.9574-1.0846,5.9126-1.6389,8.9283Z" fill="#fff"/><path d="M263.0233,46.6884l5.6657,12.0255c-.5788-.1418-.9974-.24-1.4136-.347-1.8723-.4832-3.7407-.9821-5.618-1.4453a1.187,1.187,0,0,1-.92-.8274c-1.1465-3.09-2.3156-6.1708-3.4793-9.254a2.4466,2.4466,0,0,0-.5765-.9518l-1.8012,9.28-6.183-1.6246,4.5694-24.8323c.9979.2557,1.9269.4869,2.8521.7322,2.576.683,5.1831,1.27,7.7167,2.0856,2.8414.9144,4.9938,2.6836,5.6906,5.75a8.33,8.33,0,0,1-1.3925,7.0866,5.2119,5.2119,0,0,1-3.9974,2.1983C263.824,46.5848,263.5141,46.633,263.0233,46.6884Zm-4.4072-11.6268c-.3973,2.1522-.7655,4.0957-1.0957,6.0455-.023.1355.2114.4255.3682.4617a11.9314,11.9314,0,0,0,2.3861.4208,2.5268,2.5268,0,0,0,2.48-1.3558,3.1115,3.1115,0,0,0-1.2184-4.3475A27.7661,27.7661,0,0,0,258.6161,35.0616Z" fill="#fff"/><path d="M171.8674,53.7691c-1.2136.2594-2.4331.5241-3.6545.78-.9211.1929-1.8512.3478-2.7646.5713-.5363.1312-.8106.0718-.9253-.5505-.1978-1.0736-.4929-2.1293-.7683-3.28-1.57.3131-3.0747.6086-4.5776.9144-1.46.297-2.923.5807-4.3714.9262a1.4363,1.4363,0,0,0-.8125.6023c-.7238,1.2142-1.3734,2.4724-2.0858,3.6939a1.2268,1.2268,0,0,1-.67.5649c-2.0414.4512-4.0929.8567-6.1429,1.268a2.6485,2.6485,0,0,1-.54-.0214c.833-1.5391,1.6239-3.0085,2.422-4.4739Q152.8581,43.9653,158.73,33.162a1.595,1.595,0,0,1,1.249-.8944c1.9029-.3509,3.8045-.7192,5.6883-1.1591.73-.17.9341.0342,1.0947.7259,1.674,7.208,3.3849,14.4074,5.0837,21.61A2.5227,2.5227,0,0,1,171.8674,53.7691ZM161.5433,39.6055l-.24-.08L157.01,47.9611l5.8279-1.2007Z" fill="#fff"/><path d="M79.7856,63.6374c.12-.2422.2212-.4743.3464-.6923q6.6521-11.5814,13.2972-23.1668a1.2723,1.2723,0,0,1,1.283-.7646c1.7548.0316,3.5121.0113,5.2662-.0507.7261-.0257,1.05.1692,1.2.9355,1.3607,6.949,2.7655,13.8894,4.1577,20.8322.19.9457.3815,1.891.5858,2.9033H98.991c-.2256-1.1443-.47-2.288-.67-3.44-.0937-.5414-.28-.7916-.9028-.782-2.5686.04-5.1383.03-7.7073.0051a.9824.9824,0,0,0-.9908.5717c-.6123,1.0973-1.2464,2.1836-1.9121,3.2491a1.0607,1.0607,0,0,1-.69.4981c-2.0177.0351-4.0363.0146-6.0546.006A1.0855,1.0855,0,0,1,79.7856,63.6374Zm11.9786-9.0888h5.5635l-1.2109-7.7267L95.87,46.78Z" fill="#fff"/><path d="M246.7748,37.3931l-.98,5.3634c-1.1464-.18-2.2689-.3495-3.3892-.5329-1.0572-.1731-2.1142-.3493-3.167-.5466-.5-.0937-.7068.0845-.7826.5839-.1528,1.0067-.3254,2.0133-.5573,3.0041-.1378.589.0407.7887.6127.8728,2.0685.3039,4.1315.6453,6.1956.979a6.741,6.741,0,0,1,.67.1849l-.976,5.3124c-1.654-.2573-3.2735-.5-4.89-.7628-2.7861-.4529-5.5679-.9334-8.3572-1.3659-.564-.0875-.6562-.2651-.5535-.8187q2.1807-11.756,4.3141-23.5208c.036-.1966.1038-.3873.1647-.61L248.8759,27.78c-.0711.546-.12,1.076-.2122,1.5983-.1866,1.0554-.4226,2.1026-.5859,3.1612-.0779.5049-.23.64-.7665.5443-2.2641-.402-4.5386-.7455-6.9523-1.1334l-.804,4.2362Z" fill="#fff"/><path d="M108.7231,63.52c.815-4.4308,1.6131-8.77,2.411-13.1084.6616-3.5975,1.3348-7.1929,1.9734-10.7944.1093-.6165.2887-.9707,1.0012-1.0025,1.8742-.0836,3.7452-.2377,5.7515-.3727l-3.543,19.4044,7.9675-.5157c-.2148,1.2358-.4006,2.356-.6071,3.4724-.1135.6134-.0729,1.4232-.4481,1.7724-.3638.3386-1.1691.2246-1.7835.2688q-5.208.3749-10.4174.7289C110.28,63.4245,109.5312,63.4684,108.7231,63.52Z" fill="#fff"/><path d="M134.3289,55.692l8.0829-1.0785c-.2171,1.2571-.4,2.4536-.6344,3.64-.3527,1.7817-.373,1.7429-2.2245,1.99-3.99.5329-7.9753,1.1073-11.9629,1.661-.2538.0352-.5118.0394-.906.0681l4.5622-24.7892,6.6563-.8932Z" fill="#fff"/><path d="M269.1974,62.1431l-1.096,2.2324-1.138-2.3547-.1875.02v1.9268l-.3454.003a22.1412,22.1412,0,0,1-.05-2.9927c1.3928.2551,1.0377,1.6995,1.7845,2.2574.7015-.59.5108-1.9127,1.8318-2.2258,0,1.0168.0122,1.8976-.0141,2.7773-.0036.1217-.1976.2378-.3034.3565-.097-.1469-.2672-.2888-.2777-.4416-.0352-.5114-.0134-1.0268-.0134-1.5407Z" fill="#fff"/><path d="M265.6246,61.2572l-.8825.13c0,.7146.0154,1.4141-.0114,2.1121-.0063.1637-.1549.3219-.238.4827-.1027-.168-.2857-.3321-.2941-.5047-.034-.697-.0141-1.3966-.0141-2.0873l-1.0553-.33h2.49Z" fill="#fff"/><path d="M41.6681,49.1047a14.0968,14.0968,0,0,1-1.47,6.2967,4.7791,4.7791,0,0,1-2.765,2.6331,3.469,3.469,0,0,1-3.69-.8644,9.9725,9.9725,0,0,1-2.5262-5.3059,13.5573,13.5573,0,0,1,1.0084-8.8012,7.2338,7.2338,0,0,1,.9177-1.4574,3.9314,3.9314,0,0,1,6.4014.0622,10.792,10.792,0,0,1,1.8794,5.0187C41.5535,47.4849,41.59,48.2982,41.6681,49.1047Zm-3.54,4.3124c2.3064-1.7734,2.4733-6.696.076-8.5939A14.5061,14.5061,0,0,1,38.1281,53.4172Z" fill="#fff"/></g></svg>