<svg id="Layer_1" data-name="Layer 1" xmlns="http://www.w3.org/2000/svg" viewBox="0 0 245.6635 100"><title>client-</title><path d="M156.317,27.7953H136.3757v2.843h7.915V43.0475a2.9084,2.9084,0,0,0,2.9084,2.9084h1.2029V30.6383h7.9151Z" fill="#fff"/><path d="M108.1888,30.6383v-2.843H90.2024V39.42a6.5363,6.5363,0,0,0,6.5363,6.5363h11.45v-2.843H98.4858a4.1721,4.1721,0,0,1-4.1721-4.1721v-.6436h13.8752V35.454H94.3137V30.6383Z" fill="#fff"/><path d="M163.1508,63.8472V61.9886H151.3924v7.5992a4.273,4.273,0,0,0,4.273,4.273h7.4854V72.0022h-6.3433a2.7275,2.7275,0,0,1-2.7275-2.7275V68.854h9.0707V66.9954H154.08V63.8472Z" fill="#fff"/><path d="M64.8336,27.7953V42.5474a3.4084,3.4084,0,0,0,3.4084,3.4084h11.83a4.8709,4.8709,0,0,0,4.8709-4.8709v-.583a3.6447,3.6447,0,0,0-3.85-3.6263h0c1.3635,0,3.85-1.7986,3.85-3.85v-.7225a4.5082,4.5082,0,0,0-4.5082-4.5082Zm4.1113,2.843h9.4388a2.4078,2.4078,0,0,1,2.4078,2.4078h0a2.4078,2.4078,0,0,1-2.4078,2.4078H68.9449Zm0,12.4744V38.2971h9.4388a2.4078,2.4078,0,0,1,2.4078,2.4078h0a2.4078,2.4078,0,0,1-2.4078,2.4078Z" fill="#fff"/><path d="M228.72,27.7953V41.6l-9.3631-13.12a1.6364,1.6364,0,0,0-1.3325-.6858l-1.2328,0h-4.04V45.9581h4.1114V31.3272L226.8732,45.351a1.4419,1.4419,0,0,0,1.1725.6042l.6747.0005h4.1113V27.7953Z" fill="#fff"/><path d="M48.1585,27.3312c-6.399,0-11.5864,1.6653-11.5864,9.4863,0,6.71,5.1874,9.4864,11.5864,9.4864s11.5864-1.9828,11.5864-9.4864C59.7448,29.2347,54.5575,27.3312,48.1585,27.3312Zm0,16.4182c-3.9433,0-7.14-2.0291-7.14-6.9319,0-5.715,3.1966-6.9319,7.14-6.9319s7.14,1.3909,7.14,6.9319C55.2982,42.3005,52.1017,43.7494,48.1585,43.7494Z" fill="#fff"/><path d="M195.805,27.3312c-6.399,0-11.5864,1.6653-11.5864,9.4863,0,6.71,5.1874,9.4864,11.5864,9.4864s11.5864-1.9828,11.5864-9.4864C207.3914,29.2347,202.204,27.3312,195.805,27.3312Zm0,16.4182c-3.9433,0-7.14-2.0291-7.14-6.9319,0-5.715,3.1966-6.9319,7.14-6.9319s7.14,1.3909,7.14,6.9319C202.9448,42.3005,199.7483,43.7494,195.805,43.7494Z" fill="#fff"/><path d="M184.1268,61.9889v9.0235l-6.12-8.5755a1.07,1.07,0,0,0-.871-.4483l-.8058,0h-2.64V73.8608h2.6873V64.2975l6.5426,9.1665a.9425.9425,0,0,0,.7664.3949l.441,0h2.6873v-11.87Z" fill="#fff"/><path d="M90.3907,61.6855c-4.1826,0-7.5733,1.0885-7.5733,6.2006,0,4.3856,3.3907,6.2007,7.5733,6.2007s7.5733-1.2961,7.5733-6.2007C97.964,62.93,94.5734,61.6855,90.3907,61.6855Zm0,10.7316c-2.5775,0-4.6669-1.3263-4.6669-4.5309,0-3.7356,2.0894-4.5309,4.6669-4.5309s4.6668.9092,4.6668,4.5309C95.0576,71.47,92.9682,72.4171,90.3907,72.4171Z" fill="#fff"/><path d="M33.6176,45.9558l-5.5609-7.675a5.2466,5.2466,0,0,0,4.922-5.5107,5.3889,5.3889,0,0,0-5.4509-4.9748H12.8318V42.7975A3.1583,3.1583,0,0,0,15.99,45.9558h.953V38.2971h6.4911l5.5491,7.6587ZM16.943,30.6383h9.5236a2.4078,2.4078,0,0,1,0,4.8157H16.943Z" fill="#fff"/><path d="M134.6281,45.9558l-5.5609-7.675a5.2466,5.2466,0,0,0,4.922-5.5107,5.3889,5.3889,0,0,0-5.4509-4.9748H113.8422V42.7975A3.1583,3.1583,0,0,0,117,45.9558h.953V38.2971h6.4911l5.5491,7.6587ZM117.9535,30.6383h9.5236a2.4078,2.4078,0,0,1,0,4.8157h-9.5236Z" fill="#fff"/><path d="M175.39,35.454h-9.8416a2.4078,2.4078,0,1,1,0-4.8157h14.36v-2.843H164.28a5.2509,5.2509,0,0,0,0,10.5018h9.8416a2.4078,2.4078,0,1,1,0,4.8157H159.74v2.843h15.65a5.2509,5.2509,0,0,0,0-10.5018Z" fill="#fff"/><rect x="12.8318" y="52.6862" width="220" height="1.6246" fill="#fff"/><path d="M69.9761,61.9916v4.9653H63.0637V61.9916H60.376v9.4489a2.4232,2.4232,0,0,0,2.4232,2.4232h.2644V68.8154h6.9123v5.0483h2.6878V61.9916Z" fill="#fff"/><path d="M129.7761,61.9887h-2.6877V73.8608h9.0548a4.7438,4.7438,0,0,0,4.7438-4.7438V66.7325a4.7438,4.7438,0,0,0-4.7438-4.7438Zm0,10.0136v-8.155H134.78a3.42,3.42,0,0,1,3.42,3.42v1.3155a3.42,3.42,0,0,1-3.42,3.42Z" fill="#fff"/><path d="M110.8766,69.5573V61.9887h-2.6878v8.1726a3.7,3.7,0,0,0,3.7,3.7h6.0887V72.0022h-4.6556A2.4449,2.4449,0,0,1,110.8766,69.5573Z" fill="#fff"/><circle cx="36.9264" cy="67.1726" r="3.1129" fill="#fff"/><circle cx="209.6395" cy="67.1726" r="3.1129" fill="#fff"/></svg>