<svg id="Layer_1" data-name="Layer 1" xmlns="http://www.w3.org/2000/svg" viewBox="0 0 24 24"><defs><style>.cls-1{fill:#e9261a;}</style></defs><title>contact-icon</title><path class="cls-1" d="M0.1943,10.5929L3.5835,14.048a0.0381,0.0381,0,0,1,.0109.0267v9.4362a0.375,0.375,0,0,0,.658.2464l4.2091-4.8432a0.038,0.038,0,0,1,.0555-0.002l4.9183,4.8906a0.6773,0.6773,0,0,0,1.1033-.2208L23.9461,0.9408A0.678,0.678,0,0,0,23.06.054L0.4174,9.4913A0.6787,0.6787,0,0,0,.1943,10.5929Zm3.1078-.0078,14.4088-6.01a0.0381,0.0381,0,0,1,.0359.0668L5.537,12.8531a0.038,0.038,0,0,1-.0481-0.0047L3.29,10.6472A0.0381,0.0381,0,0,1,3.3021,10.5851Zm2.3812,9.794V13.9752A0.0381,0.0381,0,0,1,5.7,13.9436L19.1194,4.8285a0.0381,0.0381,0,0,1,.05.0565L5.75,20.4041A0.038,0.038,0,0,1,5.6833,20.3791ZM13.42,20.7883L9.9513,17.3156a0.0381,0.0381,0,0,1-.002-0.0517L19.52,6.08a0.0381,0.0381,0,0,1,.064.0394L13.4825,20.7761A0.038,0.038,0,0,1,13.42,20.7883Z"/></svg>