<?xml version="1.0" encoding="utf-8"?>
<!-- Generator: Adobe Illustrator 19.2.1, SVG Export Plug-In . SVG Version: 6.00 Build 0)  -->
<!DOCTYPE svg PUBLIC "-//W3C//DTD SVG 1.1//EN" "http://www.w3.org/Graphics/SVG/1.1/DTD/svg11.dtd">
<svg version="1.1" id="Layer_1" xmlns="http://www.w3.org/2000/svg" xmlns:xlink="http://www.w3.org/1999/xlink" x="0px" y="0px"
	 viewBox="0 0 14.1 24" style="enable-background:new 0 0 14.1 24;" xml:space="preserve">
<style type="text/css">
	.st0{fill:#E9261A;}
</style>
<title>contact-icon</title>
<g>
	<rect x="3.1" y="7.8" class="st0" width="8" height="1"/>
	<rect x="3.1" y="10.7" class="st0" width="8" height="1"/>
	<rect x="3.1" y="13.6" class="st0" width="8" height="1"/>
	<path class="st0" d="M13.4,0.8C12.9,0.3,12.2,0,11.4,0H2.7C2,0,1.3,0.3,0.8,0.8C0.3,1.3,0,2,0,2.8v18.5c0,0.7,0.3,1.4,0.8,1.9
		C1.3,23.7,2,24,2.7,24h8.7c0.7,0,1.4-0.3,1.9-0.8c0.5-0.5,0.8-1.2,0.8-1.9V2.8C14.2,2,13.9,1.3,13.4,0.8z M7.8,22.8
		c-0.4,0.4-1,0.4-1.4,0c-0.4-0.4-0.4-1,0-1.4c0.4-0.4,1-0.4,1.4,0C7.9,21.6,8,21.8,8,22.1C8,22.3,7.9,22.6,7.8,22.8L7.8,22.8z
		 M12.4,20.1H1.7V2.3h10.7V20.1L12.4,20.1z"/>
</g>
</svg>
