<svg id="Layer_1" data-name="Layer 1" xmlns="http://www.w3.org/2000/svg" viewBox="0 0 24 24"><defs><style>.cls-1{fill:#e9261a;}</style></defs><title>contact-icon</title><path class="cls-1" d="M23,3H19V1a1,1,0,0,0-1-1H6A1,1,0,0,0,5,1V3H1A1,1,0,0,0,0,4V17a1,1,0,0,0,1,1H5v5a1,1,0,0,0,1,1H18a1,1,0,0,0,1-1V18h4a1,1,0,0,0,1-1V4A1,1,0,0,0,23,3ZM6,1H18V3H6V1ZM18,23H6V12H18V23Zm4-7H19V12h1V10H4v2H5v4H2V5H22V16Z"/><circle class="cls-1" cx="4" cy="7" r="1"/><circle class="cls-1" cx="7" cy="7" r="1"/><rect class="cls-1" x="8" y="14" width="8" height="1"/><rect class="cls-1" x="8" y="17" width="8" height="1"/><rect class="cls-1" x="8" y="20" width="8" height="1"/></svg>