<svg id="Layer_1" data-name="Layer 1" xmlns="http://www.w3.org/2000/svg" viewBox="0 0 24 24"><defs><style>.cls-1{fill:#e9261a;}</style></defs><title>contact-icon</title><path class="cls-1" d="M24,10V6A5.3179,5.3179,0,0,0,20.25.9385,33.9543,33.9543,0,0,0,12.3721,0,36.6247,36.6247,0,0,0,4.1875.9385S0,1.9941,0,6v4a1,1,0,0,0,1,1H2.8643A9.9646,9.9646,0,0,0,0,18v5a1,1,0,0,0,1,1H23a1,1,0,0,0,1-1V18a9.9645,9.9645,0,0,0-2.8643-7H23A1,1,0,0,0,24,10Zm-2,8v4H2V18a7.9946,7.9946,0,0,1,4.1309-7H7a1,1,0,0,0,1-1V8.2559C10,8.0938,10.6436,8,12,8a28.9356,28.9356,0,0,1,4,.2559V10a1,1,0,0,0,1,1h0.8691A7.9945,7.9945,0,0,1,22,18Zm0-9H18V6.5293A27.5959,27.5959,0,0,0,12,6a35.1494,35.1494,0,0,0-6,.5293V9H2V6C2,3.584,5.25,2.7754,5.25,2.7754A33.8181,33.8181,0,0,1,12.3721,2a30.9832,30.9832,0,0,1,6.8154.7754S22,3.584,22,6V9Z"/><path class="cls-1" d="M12,10a5,5,0,1,0,5,5A5,5,0,0,0,12,10Zm0,9a4,4,0,1,1,4-4A4,4,0,0,1,12,19Z"/><circle class="cls-1" cx="11.5709" cy="12.7836" r="1"/><circle class="cls-1" cx="12.4291" cy="17.2873" r="1"/><circle class="cls-1" cx="14.2873" cy="14.5709" r="1"/><circle class="cls-1" cx="9.7127" cy="15.4291" r="1"/></svg>