<svg id="Layer_1" data-name="Layer 1" xmlns="http://www.w3.org/2000/svg" viewBox="0 0 69.43 62"><title>cred-logo</title><polygon points="24.5 38.61 18.38 48.43 24.5 48.43 24.5 38.61" style="fill:#002c45"/><path d="M68.94,59.21L36.71,13.75A5.73,5.73,0,0,0,35,12.12a2.72,2.72,0,0,0-1.43-.42,2.86,2.86,0,0,0-1.43.43,5.07,5.07,0,0,0-1.58,1.58L0.73,58.79A3.88,3.88,0,0,0,0,60.48a0.76,0.76,0,0,0,0,.13,1,1,0,0,0,.2.61A1.84,1.84,0,0,0,1.66,62L67.9,62a1.58,1.58,0,0,0,1.47-1,1.81,1.81,0,0,0,.06-0.45A2,2,0,0,0,69,59.24Zm-36.2,1.52h-8V54.78H14.54L10.7,60.73H1.31L32.74,12.9V60.73Zm25.88,0-5-7.46-4.72,7.46L42.49,49.63l0,11.07H34.43V44.9l0-32.13,5.87,9,8.5,19,2.32-4.41,17.14,24.3H58.62Z" style="fill:#002c45"/><path d="M31.36,3.85a3.31,3.31,0,0,1,.29-1.67A2.91,2.91,0,0,1,32.72,1,3.53,3.53,0,0,1,34.3.49,2.77,2.77,0,0,1,35.53.7,3.16,3.16,0,0,1,37.07,2a2.54,2.54,0,0,1,.08,2.62,8.19,8.19,0,0,1-2.23,1.81,2.53,2.53,0,0,0-1.56,1.95c0,0.12,0,.18,0,0.18H33l-0.22,3a3,3,0,0,1,.82-0.11,2.35,2.35,0,0,1,.76.11l-0.14-3H34s0-.07,0-0.17c0-.67.85-1.24,1.79-1.8A6.17,6.17,0,0,0,37.63,5a3,3,0,0,0,.22-2.75A3.28,3.28,0,0,0,36,.35,3.93,3.93,0,0,0,33.07.23a3.67,3.67,0,0,0-1.9,1.69,3.17,3.17,0,0,0-.35,1.94h0.54Z" style="fill:#002c45"/></svg>