<svg id="Layer_1" data-name="Layer 1" xmlns="http://www.w3.org/2000/svg" viewBox="0 0 59.68 62"><title>cred-logo</title><path d="M57.21,0H2.47A2.48,2.48,0,0,0,0,2.48v57A2.48,2.48,0,0,0,2.47,62H31.92a7,7,0,0,0,3.91-1.46V38.24H58.25a7,7,0,0,0,1.43-3.85V2.48A2.48,2.48,0,0,0,57.21,0ZM34,60.06H2.08V2H14.22v46.1H34v12Zm23.81-23.8h-12V24l-8.61,10L28.33,23.83V46.1h-12V2h12l8.78,10L45.78,2h12V36.26Z" style="fill:#002c45"/><polygon points="38.29 58.51 56.13 40.67 38.29 40.67 38.29 58.51" style="fill:#002c45"/></svg>