<svg id="Layer_1" data-name="Layer 1" xmlns="http://www.w3.org/2000/svg" viewBox="0 0 68.01 62"><title>cred-logo</title><path d="M49,41.91h0l0,0,0,0Z" style="fill:#002c45"/><path d="M56.51,36.67L43.15,1.81A3,3,0,0,0,42.09.06c-4,0-8.21-.17-12.35.05A8.34,8.34,0,0,0,22,5.62Q17.17,17.8,12.41,30,7.83,41.69,3.28,53.39C2.2,56.16,1.13,58.93,0,61.84H16.29l4-10.55c-5.13-4.83-7-9.56-6.52-15.72a15.74,15.74,0,0,1,3.09-8.28c0.55-.75,1.19-1.54,2.55-1.11A20.66,20.66,0,0,1,22,31.4c-0.23.63-.4,1.11-0.58,1.58a12.25,12.25,0,0,0-.53,7.3c2.58,11.13,15,12.86,21.4,7.7A3.53,3.53,0,0,1,44,46.86a5.67,5.67,0,0,1,1.31,2.27q1.82,3.73,3.6,7.48c1.64,3.48,4.6,5,8.21,5.27s7.13,0,10.85,0a32.91,32.91,0,0,1-5.56-9.78C60.4,47,58.49,41.83,56.51,36.67ZM59,60.84c-4.1.33-7.4-1.12-9-4.67-1.47-3.24-3.25-6.34-4.83-9.53A6.45,6.45,0,0,0,42,43.2,1.39,1.39,0,0,1,41,42c0.19-.94,1-1,1.81-1.07,2.1-.06,4.2-0.12,6.12,1l0,0h0a18.32,18.32,0,0,1-3.47-4.61c0-1.61,0-3,0-4.38,0.29-7.21-5.93-13.42-13.81-13.14A13.19,13.19,0,0,0,23.47,23c-0.87.73-1.57,1.74-2.68,2a1.23,1.23,0,0,1-1.18-1,1.87,1.87,0,0,1,.12-0.57c1.77-3.25,4.69-5.17,8-6.48C39.14,12.35,50,20,52.36,30a15.16,15.16,0,0,1-1.75,11.76,1.75,1.75,0,0,1-1.66.2L49,42l0,0a23.7,23.7,0,0,1,3.17,5.14c1.18,2.5,2.46,5,3.64,7.45a7.64,7.64,0,0,0,3.62,3.93,1.67,1.67,0,0,1,1,1.12A1.24,1.24,0,0,1,59,60.84Z" style="fill:#002c45"/></svg>