<svg id="Layer_1" data-name="Layer 1" xmlns="http://www.w3.org/2000/svg" viewBox="0 0 99.58 69.69"><title>footer-logo-colour</title><path d="M66.52,28.88A16.79,16.79,0,0,1,83.86,10.36C94.52,10.64,101.78,21.42,99,31.46a16.7,16.7,0,0,1-4.37,7.34,16.15,16.15,0,0,1-3.26,2.48c-0.35.2-3.47,1.91-3.74,1.55,0,0,2.29-1.18,2.55-1.34a15.1,15.1,0,0,0,2.9-2.29,15.47,15.47,0,0,0-20.6-23A15.2,15.2,0,0,0,68,21.83a16,16,0,0,0-1.13,3.57c-0.07.38-.35,3.48-0.37,3.47C66.24,26.32,66.65,28.88,66.52,28.88Z" style="fill:#06a3d9"/><path d="M0.07,42.28a2.58,2.58,0,1,1,0,1.19A0.68,0.68,0,0,0,0,43.3V42.52A1.17,1.17,0,0,0,.07,42.28Z" style="fill:#c1d72f"/><path d="M0.07,42.28a0.22,0.22,0,0,1-.07.24V42.29H0.07Z" style="fill:#002c44"/><path d="M0,43.3a0.13,0.13,0,0,1,.07.16H0V43.3Z" style="fill:#002c44"/><path d="M94.45,21.89a13.36,13.36,0,0,1,1.42,6.5A13.61,13.61,0,1,1,76.7,15.53c0.09,0,.19-0.16.27-0.07s0,0.18-.08.27a18.2,18.2,0,0,0-1.47,4.69,13.11,13.11,0,0,0,.15,4.06c0.09,0.6.22,1.2,0.35,1.79,0.05,0.25,0,.35-0.26.3a5.77,5.77,0,0,1-4.17-2.63l-0.16-.27a0.12,0.12,0,0,0-.11-0.09c-0.07,0,0,.08-0.05.12A9,9,0,0,0,71,25.36a11.77,11.77,0,0,0,6.43,11.13A12,12,0,0,0,95,25a13.06,13.06,0,0,0-.63-3.11A0.06,0.06,0,0,1,94.45,21.89Z" style="fill:#c1d72f"/><path d="M8.29,54.94c0-2.24,0-4.49,0-6.73,0-.32.06-0.45,0.42-0.44,1.08,0,2.15,0,3.23,0,0.29,0,.39.08,0.37,0.37s0,0.7,0,1.05a0.37,0.37,0,0,0,0,.21c0.11,0,.14-0.08.19-0.14A4.72,4.72,0,0,1,15,47.55a6,6,0,0,1,5.41,1,4.25,4.25,0,0,1,1.54,3A12.9,12.9,0,0,1,22,53.1c0,2.85,0,5.71,0,8.56,0,0.31-.06.42-0.39,0.41-1.09,0-2.18,0-3.27,0C18.09,62.08,18,62,18,61.71c0-2.56,0-5.11,0-7.67a5.37,5.37,0,0,0-.26-1.88,2,2,0,0,0-1.46-1.32,4.18,4.18,0,0,0-1.78,0,2.71,2.71,0,0,0-2.14,2.55,9.56,9.56,0,0,0-.09,1.4c0,2.31,0,4.62,0,6.93,0,0.34-.11.4-0.42,0.39-1.05,0-2.1,0-3.15,0-0.34,0-.46-0.07-0.46-0.44C8.3,59.4,8.29,57.17,8.29,54.94Z" style="fill:#c1d72f"/><path d="M31,47.26a7.39,7.39,0,0,1,4.32,1.29c0.26,0.17.29,0.28,0.07,0.52-0.53.59-1,1.2-1.53,1.81a0.3,0.3,0,0,1-.51.06,3.58,3.58,0,0,0-1.88-.76,1.72,1.72,0,0,0-1.4.43,1,1,0,0,0,.15,1.58,12.11,12.11,0,0,0,2.22.92A10.76,10.76,0,0,1,35,54.35,3.36,3.36,0,0,1,36.36,57a5,5,0,0,1-3.89,5.2,7.36,7.36,0,0,1-7.3-1.83,0.3,0.3,0,0,1,0-.52c0.59-.66,1.16-1.33,1.72-2,0.14-.17.21-0.16,0.36,0A5.83,5.83,0,0,0,29,59.07a3.1,3.1,0,0,0,2.12.18,1.52,1.52,0,0,0,1.08-1.84,1.25,1.25,0,0,0-.72-0.77,14,14,0,0,0-1.79-.74,16.83,16.83,0,0,1-2.12-1A3.18,3.18,0,0,1,25.85,52a4.52,4.52,0,0,1,3.92-4.7A7.29,7.29,0,0,1,31,47.26Z" style="fill:#06a3d9"/><path d="M43.53,56.68c0,1.67,0,3.35,0,5,0,0.29-.06.38-0.36,0.37q-1.63,0-3.27,0a0.33,0.33,0,0,1-.41-0.4c0-3.31,0-6.61,0-9.92,0-.49,0-0.49-0.51-0.5a1.62,1.62,0,0,1-1-.06,1.49,1.49,0,0,1-.08-1c0-.69,0-1.38,0-2.06a0.3,0.3,0,0,1,.38-0.37c0.28,0,.57,0,0.86,0s0.35-.09.35-0.36c0-1.36,0-2.72,0-4.09,0-.31.06-0.43,0.4-0.42,1.08,0,2.15,0,3.23,0,0.37,0,.42.12,0.41,0.44,0,1.3,0,2.59,0,3.89,0,0.6-.08.52,0.55,0.53s1.32,0,2,0a0.28,0.28,0,0,1,.33.34q0,1.42,0,2.84a0.27,0.27,0,0,1-.34.33c-0.69,0-1.37,0-2.06,0-0.53,0-.47-0.05-0.47.49Q43.53,54.21,43.53,56.68Z" style="fill:#06a3d9"/><path d="M79.82,17.92c5.91-2.73,12.87,1.65,13.26,8A9.44,9.44,0,0,1,75,30.26a3.79,3.79,0,0,1,1.31.5,11.3,11.3,0,0,0,1.69.49,9.45,9.45,0,0,0,3.47-.05A3.16,3.16,0,0,1,82.64,31a1.55,1.55,0,0,1-.18,1.11,4.77,4.77,0,0,1-1.8,2.14c0.29,0.34,1.49.2,1.89,0.18a8.11,8.11,0,0,0,2.09-.35A8.63,8.63,0,0,0,88,32a8.32,8.32,0,0,0,2.49-6.69,8.42,8.42,0,0,0-3.22-5.89A8.3,8.3,0,0,0,84.2,18,8.41,8.41,0,0,0,82,17.73c-0.27,0-2.14.27-2.14,0.19C81.44,17.17,79.81,18.07,79.82,17.92Z" style="fill:#06a3d9"/><path d="M4.59,54.9c0,2.26,0,4.52,0,6.77,0,0.34-.1.4-0.41,0.4-1.09,0-2.18,0-3.27,0C0.66,62.08.57,62,.57,61.73q0-6.79,0-13.59c0-.32.1-0.38,0.39-0.38q1.63,0,3.27,0c0.28,0,.37.07,0.36,0.37C4.59,50.39,4.59,52.65,4.59,54.9Z" style="fill:#c1d72f"/><path d="M92.64,52.34c-0.31.07-.42-0.07-0.45-0.39-0.08-.72-0.21-1.43-0.33-2.14a0.21,0.21,0,0,0-.09-0.22,0.49,0.49,0,0,0-.12.18L90.5,52.28a0.49,0.49,0,0,1-.13.23c-0.12,0-.12-0.14-0.16-0.23l-1.12-2.52A0.19,0.19,0,0,0,89,49.58a0.5,0.5,0,0,0-.06.2c-0.14.76-.28,1.53-0.42,2.29a0.46,0.46,0,0,1-.66.27c-0.26-.07-0.12-0.27-0.09-0.41q0.44-2.28.89-4.57c0-.07,0-0.18.08-0.19s0.09,0.11.12,0.17l1.37,3.09c0.05,0.11.06,0.31,0.19,0.31a0.43,0.43,0,0,0,.18-0.32L92,47.34a1.39,1.39,0,0,1,.13-0.19,1,1,0,0,1,.09.21C92.45,48.9,92.7,50.45,93,52,93.06,52.34,92.94,52.39,92.64,52.34Z" style="fill:#06a3d9"/><path d="M85.29,50.23c0-.57,0-1.14,0-1.71,0-.32-0.1-0.42-0.4-0.38-0.1,0-.21,0-0.31,0-0.37.07-.43-0.12-0.41-0.44a0.24,0.24,0,0,1,.29-0.28c0.82,0,1.64,0,2.45,0,0.27,0,.29.13,0.28,0.34s0.05,0.42-.27.38h0c-0.83,0-.83,0-0.83.84,0,1,0,2,0,3,0,0.3-.13.34-0.37,0.33s-0.43,0-.41-0.33C85.31,51.43,85.29,50.83,85.29,50.23Z" style="fill:#06a3d9"/><path d="M94.45,21.89H94.36a0.16,0.16,0,0,1-.06-0.15,0.08,0.08,0,0,1,0-.12A0.46,0.46,0,0,1,94.45,21.89Z" style="fill:#c1d72f"/><path d="M94.31,21.62l0,0.12a0.25,0.25,0,0,1-.07-0.25h0C94.3,21.5,94.31,21.56,94.31,21.62Z" style="fill:#c1d72f"/><path d="M94.14,21.35c0.09,0,.08.08,0.08,0.15h0c-0.09,0-.08-0.09-0.07-0.15h0Z" style="fill:#c1d72f"/><path d="M94.15,21.34l-0.06-.08,0,0,0,0.1h0Z" style="fill:#c1d72f"/><path d="M80.2,51a6.7,6.7,0,0,0-7.5-3.6,5.17,5.17,0,0,0-3,1.8c-0.07.08-.12,0.26-0.24,0.2a0.37,0.37,0,0,1,0-.32,7.36,7.36,0,0,1,0-.93c0-.38-0.12-0.45-0.46-0.45-1,0-2.08,0-3.11,0a0.37,0.37,0,0,0-.46.45c0,3.5,0,7,0,10.51s0,7,0,10.55a0.34,0.34,0,0,0,.42.42c1.06,0,2.13,0,3.19,0,0.35,0,.43-0.11.43-0.44,0-2.87,0-5.74,0-8.6a0.65,0.65,0,0,1,0-.29,0.29,0.29,0,0,1,.25.19,5.93,5.93,0,0,0,2.44,1.68,6.61,6.61,0,0,0,7.4-2.42A8.07,8.07,0,0,0,80.2,51ZM73,58.89a4,4,0,0,1,0-8A4,4,0,1,1,73,58.89Z" style="fill:#06a3d9"/><path d="M52.08,55.58H62c0.3,0,.41-0.07.4-0.39a11.75,11.75,0,0,0-.24-2.43,6.53,6.53,0,0,0-3.4-4.63,8.24,8.24,0,0,0-5.23-.69,6.56,6.56,0,0,0-5.41,4.31,9,9,0,0,0-.42,4.7,6.61,6.61,0,0,0,3.58,5.15,8.75,8.75,0,0,0,5.9.72,6.64,6.64,0,0,0,4.95-4c0.1-.21.15-0.32-0.18-0.36-1-.13-1.95-0.27-2.91-0.47a0.68,0.68,0,0,0-.8.32,3.72,3.72,0,0,1-4,1.42,2.74,2.74,0,0,1-1.23-.55,3.8,3.8,0,0,1-1.3-2.8C51.73,55.63,51.82,55.58,52.08,55.58Zm-0.14-2.9a3.41,3.41,0,0,1,6.54-.05c0.1,0.3.08,0.41-.28,0.4-1,0-2,0-3,0s-2,0-3,0C51.9,53,51.88,52.93,51.94,52.68Z" style="fill:#06a3d9"/></svg>