<svg id="Layer_1" data-name="Layer 1" xmlns="http://www.w3.org/2000/svg" viewBox="0 0 125 70"><title>footer-logo</title><path d="M36.42,54.19a2.65,2.65,0,0,0-.49-2,1.26,1.26,0,0,0-1-.37c-1.06,0-1.58.76-1.58,2.32v0.13h3V54.19Zm-2.06-.77c0.13-.66.43-0.66,0.63-0.66a0.38,0.38,0,0,1,.31.1,1,1,0,0,1,.2.56H34.36Z" style="fill:#002c44"/><path d="M16.38,46.17a3.11,3.11,0,0,0-3.11-3.11,3.16,3.16,0,0,0-3.2,3.11,3.1,3.1,0,0,0,1.46,2.63l-0.45,0-0.7.07v8.52H5.85V44.33H0V62.49H16.07V48.38l-0.71.07A3.07,3.07,0,0,0,16.38,46.17ZM10.26,59.71L9.82,61.6H0.89V45.23H5V58.32h5.3v1.4ZM11,46.17A2.26,2.26,0,0,1,13.27,44a2.19,2.19,0,0,1,2.21,2.21,2.25,2.25,0,0,1-2.28,2.21A2.23,2.23,0,0,1,11,46.17ZM15.18,61.6h-3.9V49.72l3.9-.36V61.6Z" style="fill:#002c44"/><path d="M29,62.49V58.9c1,2.49,3.19,3.9,6.31,3.9A8.45,8.45,0,0,0,40.68,61v1.51h5.69V53.6A1.41,1.41,0,0,1,47,53.29h0.2a2.34,2.34,0,0,1,0,.56v8.64H52.9v-10c0-3.43-2.3-4.15-4.23-4.15a6.54,6.54,0,0,0-3,.7,1.45,1.45,0,0,0,0-.15l-0.21-.62-0.65.11L40.94,49l-0.81.14L40.32,50a13.24,13.24,0,0,1,.31,2.2A5.75,5.75,0,0,0,39.3,50a6,6,0,0,0-4.46-1.61A5.85,5.85,0,0,0,29,52.27c-0.1-3.24-2.34-3.93-4.22-3.93a6.55,6.55,0,0,0-3,.7l0-.15-0.21-.62-0.65.11L17.07,49l-0.81.14L16.45,50a17.08,17.08,0,0,1,.36,3.95v8.59H22.5V53.6a1.43,1.43,0,0,1,.59-0.31H23.3a2.38,2.38,0,0,1,0,.56v8.64H29ZM44.8,49.27a4.81,4.81,0,0,1,.2,1l0,0.23,0.18-.14a5.69,5.69,0,0,1,3.48-1.15c3,0,3.33,1.86,3.33,3.26v9.1h-3.9V53.85c0-1.36-.43-1.46-1.15-1.46a2.51,2.51,0,0,0-1.44.75l0,0V61.6h-3.9V53.9a18.54,18.54,0,0,0-.35-4Zm-4.12,8.38v1.73l-1.16-1.73h1.16Zm-5.84-8.42a5.18,5.18,0,0,1,3.82,1.35c1.08,1.08,1.62,2.86,1.61,5.27v0.9H33.41v0.13a2.12,2.12,0,0,0,2.11,2.36,5.34,5.34,0,0,0,3.21-1.18l1.46,2.17a7.51,7.51,0,0,1-4.84,1.67c-3.8,0-6-2.28-6-6.27S31.41,49.23,34.85,49.23Zm2.9,8.42a4.21,4.21,0,0,1-2.24.7,1,1,0,0,1-1.1-.7h3.34ZM23.09,52.39a2.51,2.51,0,0,0-1.44.75l0,0V61.6h-3.9V53.9a18.62,18.62,0,0,0-.36-4l3.58-.6a4.85,4.85,0,0,1,.2,1v0.23l0.19-.14a5.6,5.6,0,0,1,3.48-1.15c3,0,3.33,1.86,3.33,3.26v9.1h-3.9V53.85C24.24,52.49,23.81,52.39,23.09,52.39Z" style="fill:#002c44"/><path d="M123,49.7a1,1,0,1,0,2,0A1,1,0,0,0,123,49.7Zm1.56,0.54a0.77,0.77,0,0,1-.55.23,0.76,0.76,0,0,1-.55-0.22,0.78,0.78,0,0,1-.22-0.55,0.79,0.79,0,0,1,.22-0.55,0.78,0.78,0,0,1,1.1,0,0.77,0.77,0,0,1,.23.55A0.76,0.76,0,0,1,124.53,50.24Z" style="fill:#002c44"/><path d="M124.16,49.75a0.26,0.26,0,0,0,.21-0.29c0-.17-0.1-0.29-0.4-0.29h-0.36v1h0.26V49.79c0.06,0,.08,0,0.12.12l0.11,0.29h0.3l-0.15-.34A0.23,0.23,0,0,0,124.16,49.75ZM124,49.6h-0.08V49.39H124c0.08,0,.12,0,0.12.1A0.1,0.1,0,0,1,124,49.6Z" style="fill:#002c44"/><path d="M21.72,43.53H37.54a3.78,3.78,0,0,0,2.1-.78v-12h12a3.76,3.76,0,0,0,.77-2.07V11.55a1.34,1.34,0,0,0-1.33-1.33H21.72a1.33,1.33,0,0,0-1.33,1.33V42.2A1.33,1.33,0,0,0,21.72,43.53Zm7.42-32.22h6.47l4.72,5.39L45,11.31h6.44V29.7H45V23.11l-4.63,5.35L35.62,23V35H29.14V11.31Zm-7.63,0H28V36.06H38.64v6.43H21.51V11.29Z" style="fill:#002c44"/><polygon points="50.48 32.14 41.04 32.14 41.04 41.59 50.48 32.14" style="fill:#002c44"/><path d="M120.36,48.26a3.34,3.34,0,0,0-2,.67v0l-0.19-.67-0.68.12-3.82.64-0.82.14,0.2,0.81a11.91,11.91,0,0,1,.3,2.17A5.75,5.75,0,0,0,112,49.92a6,6,0,0,0-4.46-1.61,5.83,5.83,0,0,0-5.45,3.12l0.57-2.81h-2.44a25.3,25.3,0,0,1,.12-2.82l0.11-1-1,.15-4.13.62-0.56.08-0.08.56a18.8,18.8,0,0,0-.15,2.4h-1v0.77a10.06,10.06,0,0,0-4.62-1.08c-3.48,0-5.82,2-5.82,5a3.9,3.9,0,0,0,1.33,3.13l-0.1-.06-1.22,2.51a2.78,2.78,0,0,1-.23-1.39l0-4.24a6.64,6.64,0,0,0-.22-2.14c-0.55-1.77-2.43-2.79-5.17-2.79a11.76,11.76,0,0,0-5.93,1.85l-0.44.27c-0.59-1.41-1.83-2.12-3.71-2.12A5.79,5.79,0,0,0,64,49.37a4,4,0,0,0-2.84-1.06,5.07,5.07,0,0,0-2.45.67h0l0-.08-0.19-.67-0.68.12L54,49l-0.81.13,0.19,0.8a17.06,17.06,0,0,1,.36,3.95v8.59h5.57V53.19A1.76,1.76,0,0,1,59.85,53h0c0,0.27,0,.74,0,1v8.4h5.42V53.29a2.52,2.52,0,0,1,.58-0.18H66a7.63,7.63,0,0,1,0,1v8.38h5.52V60.28c0.73,1.59,2.31,2.49,4.53,2.49A5.7,5.7,0,0,0,79,62a4.06,4.06,0,0,0,1.44.91l0.44,0.14,0.33-.32,1.64-1.6a12.13,12.13,0,0,0,5.67,1.62c2.93,0,5.14-1.18,6-3.09,0.37,3.11,3.52,3.11,4.6,3.11a8,8,0,0,0,3.45-.79l0.55-.26L103,61.15,103,60.86a6.75,6.75,0,0,0,5.06,1.9,8.46,8.46,0,0,0,5.34-1.82v1.51H119v-9a0.79,0.79,0,0,1,.69-0.34,1.48,1.48,0,0,1,.84.24l0.85,0.47,1.41-4.93-0.63-.27A4.38,4.38,0,0,0,120.36,48.26ZM70.65,61.56H66.89v-7.5c0-1.59-.14-1.85-1-1.85a3.56,3.56,0,0,0-1.4.49l-0.05,0v8.82H60.79V54c0-1.57,0-1.9-.95-1.9a2.7,2.7,0,0,0-1.4.5l0,0v8.88h-3.8V53.85a18.59,18.59,0,0,0-.35-4l3.59-.61A4.41,4.41,0,0,1,58,50.28v0.23l0.18-.16a4.49,4.49,0,0,1,2.91-1.19,3.21,3.21,0,0,1,2.68,1.29l0.07,0.09L64,50.48a4.86,4.86,0,0,1,3.45-1.31c1.5,0,3.22.4,3.22,3.54v8.85Zm0.77-10.19,1.41,2.41,0.3,0.52A4.51,4.51,0,0,0,71.54,56v-3.3A7.21,7.21,0,0,0,71.41,51.36ZM80.63,62a3.17,3.17,0,0,1-1.4-1.14l-0.07-.13-0.11.09a4.6,4.6,0,0,1-3,1c-3.58,0-4.11-2.44-4.11-3.89,0-2.36,2.1-3.89,5.35-3.89a6.53,6.53,0,0,1,.67,0l0.14,0v-0.9A1,1,0,0,0,77,52a5.63,5.63,0,0,0-3.47,1.24l-1.38-2.37a10.82,10.82,0,0,1,5.38-1.67c2.32,0,3.9.79,4.33,2.16A5.82,5.82,0,0,1,82,53.2l0,4.25a2.67,2.67,0,0,0,.89,2.42Zm-6.2-8.37A4.5,4.5,0,0,1,77,52.87h0.21a2.15,2.15,0,0,1,0,.33A8.63,8.63,0,0,0,74.44,53.67Zm14.07,8.2a11.19,11.19,0,0,1-5.19-1.49l1.35-2.79a10,10,0,0,0,4,1.52,1.29,1.29,0,0,0,1.4-1c0-.78-0.55-1-1.71-1.23l-1.6-.33a3.08,3.08,0,0,1-2.8-3.25c0-2.48,1.94-4.08,4.94-4.08a9.26,9.26,0,0,1,4.35,1l0.36,0.16-1.19,2.37a6.64,6.64,0,0,0-3-.86,1,1,0,0,0-1.19.8c0,0.55.43,0.89,1.38,1.09l1.53,0.33c2.05,0.45,3,1.53,3,3.49C94.12,60.19,91.92,61.87,88.51,61.87Zm-3-4.82a5.68,5.68,0,0,0,1.1.34l1.6,0.33a3.57,3.57,0,0,1,1,.3v0a0.67,0.67,0,0,1-.52.2A8.57,8.57,0,0,1,85.47,57Zm6-3.75-0.15,0-1.53-.33a2.83,2.83,0,0,1-.5-0.14h0.12A5.18,5.18,0,0,1,91.51,53.3Zm3,2.08a3.67,3.67,0,0,0-1.63-1.58l0.27-.54,0.36-.72v0.33h1v2.5Zm4.63,6.52c-2.66,0-3.75-.83-3.75-2.87V52h-1V49.48h1V49.36a23.79,23.79,0,0,1,.13-3l3.9-.58a29.71,29.71,0,0,0-.11,3.1v0.55h2.24L101.06,52H99.32V57c0,1.66.2,2.21,1.4,2.21a2.55,2.55,0,0,0,1-.19l0.45,2.16A7.07,7.07,0,0,1,99.15,61.89Zm2.34-3.69-0.08,0a1.61,1.61,0,0,1-.68.14,1,1,0,0,1-.39,0,3.16,3.16,0,0,1-.13-1.29V52.87h1.29a10.13,10.13,0,0,0-.35,2.74A9.42,9.42,0,0,0,101.49,58.2ZM108,61.87c-3.81,0-6-2.29-6-6.28s2.05-6.42,5.49-6.42a5.2,5.2,0,0,1,3.84,1.35c1.08,1.09,1.62,2.86,1.61,5.28v0.91H106.1v0.11a2.11,2.11,0,0,0,2.09,2.36A5.34,5.34,0,0,0,111.4,58l1.47,2.19A7.54,7.54,0,0,1,108,61.87Zm2.41-4.25a4.22,4.22,0,0,1-2.24.7,1,1,0,0,1-1.1-.7h3.34Zm2.93,1.73-1.16-1.73h1.16v1.73Zm7.51-6.81a2.27,2.27,0,0,0-1.15-.28,1.71,1.71,0,0,0-1.55.94v8.36h-3.92V54.18a19.27,19.27,0,0,0-.36-4.37l3.6-.61a5.29,5.29,0,0,1,.23,1.33v0.34l0.2-.27a3,3,0,0,1,2.44-1.48,3.37,3.37,0,0,1,1.41.31Z" style="fill:#002c44"/><path d="M109.09,54.14a2.62,2.62,0,0,0-.48-1.95,1.25,1.25,0,0,0-.94-0.36c-1.06,0-1.57.75-1.57,2.31v0.11h3V54.14Zm-2-.75c0.13-.66.43-0.66,0.63-0.66a0.36,0.36,0,0,1,.31.09,1,1,0,0,1,.21.56H107Z" style="fill:#002c44"/><path d="M75.75,57.92A1.2,1.2,0,0,0,77,59.23a1.58,1.58,0,0,0,1.07-.45l0,0V56.46H78C76.52,56.41,75.75,56.91,75.75,57.92Zm1.47,0.4a0.71,0.71,0,0,1-.21,0c-0.19,0-.38,0-0.38-0.43,0-.17,0-0.44.58-0.55v0.93Z" style="fill:#002c44"/></svg>