<svg id="Layer_1" data-name="Layer 1" xmlns="http://www.w3.org/2000/svg" viewBox="0 0 146.29 70"><title>footer-logo</title><path d="M144.13,50.35a1.08,1.08,0,1,0,2.16,0A1.08,1.08,0,0,0,144.13,50.35Zm1.65,0.58a0.82,0.82,0,0,1-1.16,0,0.82,0.82,0,0,1-.24-0.58,0.81,0.81,0,0,1,.82-0.82,0.83,0.83,0,0,1,.58.24,0.81,0.81,0,0,1,.24.58A0.8,0.8,0,0,1,145.78,50.92Z" style="fill:#002c44"/><path d="M17.17,44.1l45.36,0a1.08,1.08,0,0,0,1-.71,1.25,1.25,0,0,0,0-.31,1.35,1.35,0,0,0-.31-0.86l0,0L41.17,11.08A3.92,3.92,0,0,0,40,10a1.86,1.86,0,0,0-1-.29,1.92,1.92,0,0,0-1,.29A3.46,3.46,0,0,0,37,11.06L16.54,41.92a2.68,2.68,0,0,0-.5,1.16,0.6,0.6,0,0,0,0,.09,0.71,0.71,0,0,0,.14.42A1.26,1.26,0,0,0,17.17,44.1ZM39.61,32.41v-22l4,6.19,5.82,13,1.59-3L62.8,43.25H56.18l-3.45-5.11-3.23,5.11-4.36-7.6,0,7.58H39.61V32.41ZM38.46,10.5V43.25H33V39.18H26l-2.63,4.07H16.94Z" style="fill:#002c44"/><polygon points="32.81 28.1 28.62 34.83 32.81 34.83 32.81 28.1" style="fill:#002c44"/><path d="M37.71,3.16a2,2,0,0,1,.74-0.82A2.4,2.4,0,0,1,39.52,2a1.87,1.87,0,0,1,.84.15A2.19,2.19,0,0,1,41.42,3a1.74,1.74,0,0,1,.05,1.79A5.61,5.61,0,0,1,39.95,6a1.73,1.73,0,0,0-1.07,1.33c0,0.08,0,.12,0,0.12H38.66l-0.15,2a2.15,2.15,0,0,1,.56-0.07,1.69,1.69,0,0,1,.52.07l-0.1-2H39.3s0,0,0-.12a2,2,0,0,1,1.22-1.23A4.22,4.22,0,0,0,41.8,5.07,2,2,0,0,0,42,3.19,2.25,2.25,0,0,0,40.68,1.9a2.69,2.69,0,0,0-2-.08A2.51,2.51,0,0,0,37.38,3a2.19,2.19,0,0,0-.24,1.33h0.37A2.26,2.26,0,0,1,37.71,3.16Z" style="fill:#002c44"/><path d="M8.07,50.65a14.92,14.92,0,0,1-.43,2.51L7,55.73H9L8.36,52.86A13.65,13.65,0,0,1,8.07,50.65ZM8,55L8,54.68,8.1,55H8Z" style="fill:#002c44"/><path d="M20.84,53a1.37,1.37,0,0,0-1.22.59v5.22a0.76,0.76,0,0,0,.75.32c0.93,0,1.65-.2,1.65-3.28C22,54,21.88,53,20.84,53Zm-0.47,5.38h0V53.85a0.73,0.73,0,0,1,.48-0.15c0.18,0,.43,0,0.43,2.11C21.27,58.33,20.85,58.33,20.36,58.33Z" style="fill:#002c44"/><path d="M32.77,53a1.37,1.37,0,0,0-1.22.59v5.22a0.76,0.76,0,0,0,.75.32c0.93,0,1.65-.2,1.65-3.28C33.95,54,33.81,53,32.77,53ZM32.3,58.33h0V53.85a0.73,0.73,0,0,1,.48-0.15c0.18,0,.43,0,0.43,2.11C33.2,58.33,32.78,58.33,32.3,58.33Z" style="fill:#002c44"/><path d="M42.67,58.33a1,1,0,0,0,1.09,1.13,1.4,1.4,0,0,0,.93-0.38V57C43,57,42.67,57.65,42.67,58.33ZM43.5,58a1,1,0,0,1,.43-0.17v0.84a0.67,0.67,0,0,1-.18,0c-0.18,0-.34,0-0.34-0.39A0.39,0.39,0,0,1,43.5,58Z" style="fill:#002c44"/><path d="M69.51,60.74c0.4,1.22,1.39,2.18,3.86,2.18a8.54,8.54,0,0,0,2.72-.39v0.09h5.31V53.84a1.62,1.62,0,0,1,.52-0.15h0c0,0.26,0,.69,0,1v8h5.17V53.94a2.88,2.88,0,0,1,.53-0.18h0a6.53,6.53,0,0,1,0,.9v7.95H93V53.38c0-2.79-1.31-4.2-3.91-4.2a5.49,5.49,0,0,0-3.27,1,3.81,3.81,0,0,0-2.69-1,4.77,4.77,0,0,0-2.31.64l-0.2-.72L80,49.21l-4.4.74,0.18,0.77a16.21,16.21,0,0,1,.34,3.74v5.1L76,59.19l-0.28-.63-0.84.14H74.78a8.41,8.41,0,0,1-.12-1.85V48.18a20.42,20.42,0,0,0-.19-3l-0.12-.74-0.74.12L69,45.32l0.13,0.74a28.23,28.23,0,0,1,.13,3.61v4.61a6.32,6.32,0,0,0-1.62-3.56,5.73,5.73,0,0,0-4.24-1.53,5.59,5.59,0,0,0-4.69,2.2l0.45-1.59-0.61-.25a4.12,4.12,0,0,0-1.75-.4,3.16,3.16,0,0,0-1.92.64l-0.19-.67L54,49.21,49.62,50l0.2,0.78a17.09,17.09,0,0,1,.34,4v4.93l-0.28-.18c-0.43-.28-0.56-0.65-0.56-1.66l0-4a6.36,6.36,0,0,0-.21-2c-0.52-1.69-2.32-2.65-4.91-2.65a11.15,11.15,0,0,0-5.63,1.76L38,51.32l2.08,3.57A4.52,4.52,0,0,0,38.87,56c0-.18,0-0.35,0-0.54,0-5.19-2.9-6.28-5.33-6.28a4.46,4.46,0,0,0-2,.5L31.41,49l-0.66.19-4.4.74,0.18,0.77a15.27,15.27,0,0,1,.34,3.34c-0.48-4-3-4.88-5.24-4.88a4.45,4.45,0,0,0-2,.5L19.48,49l-0.66.19-4.4.74,0.18,0.77a16.15,16.15,0,0,1,.34,3.74V59L10.83,45.39H5.54L0,62.62H5.83l0.86-3h2.6l0.81,3h4.84V68l5.42-1.46v-3c0-.3,0-0.51,0-0.75a5.15,5.15,0,0,0,.94.1c1.94,0,5.09-.83,5.61-5.93V68l5.42-1.46v-3c0-.3,0-0.51,0-0.75a5.17,5.17,0,0,0,.94.1,5.1,5.1,0,0,0,5-3.38c0.43,2.14,2.08,3.38,4.62,3.38a5.35,5.35,0,0,0,2.78-.73,3.82,3.82,0,0,0,1.35.87l0.42,0.13,2.74-2.66v2.09h5.42V54.17a0.78,0.78,0,0,1,.64-0.36A1.37,1.37,0,0,1,57,54l0.5,0.28a10.21,10.21,0,0,0-.16,1.81c0,4.26,2.44,6.8,6.53,6.8a8.06,8.06,0,0,0,5.2-1.83ZM80.09,49.95a4.78,4.78,0,0,1,.23,1.13,4.34,4.34,0,0,1,2.83-1.15,3.15,3.15,0,0,1,2.62,1.26,4.74,4.74,0,0,1,3.34-1.26c1.63,0,3.16.54,3.16,3.46v8.49H88.49V54.67c0-1.56-.16-1.65-0.84-1.65a3.31,3.31,0,0,0-1.26.45v8.4H82.71V54.65c0-1.54,0-1.7-.79-1.7a2.46,2.46,0,0,0-1.26.45v8.47H76.83V54.47a16.8,16.8,0,0,0-.36-3.91ZM10.67,61.88l-0.81-3H6.13l-0.86,3H1L6.08,46.13h4.2l4.66,15.38v0.37H10.67Zm10.6,0.3a4.59,4.59,0,0,1-1.83-.39,5.79,5.79,0,0,1,.18,1.79V66L15.68,67V54.47a16.72,16.72,0,0,0-.36-3.91l3.62-.61a5.07,5.07,0,0,1,.25,1,3.07,3.07,0,0,1,2.44-1.06c4.09,0,4.59,3.37,4.59,5.54C26.21,60,24.41,62.17,21.27,62.17Zm11.93,0a4.6,4.6,0,0,1-1.83-.39,5.77,5.77,0,0,1,.18,1.79V66L27.62,67V54.47a16.76,16.76,0,0,0-.36-3.91l3.62-.61a5.23,5.23,0,0,1,.25,1,3.06,3.06,0,0,1,2.44-1.06c4.09,0,4.59,3.37,4.59,5.54C38.15,60,36.34,62.17,33.2,62.17Zm14,0.18a3.06,3.06,0,0,1-1.44-1.15,4.49,4.49,0,0,1-2.92,1c-2.89,0-4-1.72-4-3.8s1.92-3.79,5.18-3.79a6,6,0,0,1,.65,0V53.88c0-.68-0.09-1.08-1-1.08A5.31,5.31,0,0,0,40.41,54L39,51.57a10.42,10.42,0,0,1,5.24-1.65c2.22,0,3.77.75,4.2,2.12a5.67,5.67,0,0,1,.18,1.81l0,4a2.35,2.35,0,0,0,.9,2.28Zm-5.8-8.11a4.24,4.24,0,0,1,2.32-.71l0.18,0c0,0.08,0,.24,0,0.29A8.23,8.23,0,0,0,41.41,54.24Zm16-.86a2.11,2.11,0,0,0-1.15-.32,1.52,1.52,0,0,0-1.38.84v8H50.89V54.78a18,18,0,0,0-.36-4.23l3.61-.61a5.21,5.21,0,0,1,.25,1.38,2.94,2.94,0,0,1,2.4-1.45,3.38,3.38,0,0,1,1.47.34Zm16.38-8.11a19.68,19.68,0,0,1,.18,2.91v8.65c0,2.06.07,2.6,0.95,2.6a1.26,1.26,0,0,0,.41-0.07l0.63,2.44a7.55,7.55,0,0,1-2.53.36c-3.32,0-3.39-1.72-3.39-4v-8a33.15,33.15,0,0,0-.14-4.25Zm-4.32,15.1L67.85,58h1.39v0.09A10.24,10.24,0,0,0,69.41,60.37Zm-5.55,1.8c-3.73,0-5.78-2.28-5.78-6.05s2-6.19,5.31-6.19c3.75,0,5.29,2.39,5.26,6.39v1H62.15A1.87,1.87,0,0,0,64,59.42a5,5,0,0,0,3.07-1.18l1.51,2.26A7.31,7.31,0,0,1,63.86,62.17ZM66,58a4,4,0,0,1-2,.64A1,1,0,0,1,63,58h3Z" style="fill:#002c44"/><path d="M63.52,52.66c-0.83,0-1.38.52-1.38,2.08h2.62C64.81,53.45,64.47,52.66,63.52,52.66ZM63,54c0.12-.59.39-0.59,0.57-0.59a0.34,0.34,0,0,1,.28.08A1,1,0,0,1,64,54H63Z" style="fill:#002c44"/><path d="M97.62,58.33a1,1,0,0,0,1.08,1.13,1.4,1.4,0,0,0,.93-0.38V57C98,57,97.62,57.65,97.62,58.33ZM98.46,58a1,1,0,0,1,.43-0.17v0.84a0.64,0.64,0,0,1-.18,0c-0.17,0-.34,0-0.34-0.39A0.39,0.39,0,0,1,98.46,58Z" style="fill:#002c44"/><path d="M129.06,52.66c-0.84,0-1.38.52-1.38,2.08h2.62C130.35,53.45,130,52.66,129.06,52.66ZM128.48,54c0.12-.59.39-0.59,0.57-0.59a0.35,0.35,0,0,1,.28.08,1,1,0,0,1,.18.51h-1Z" style="fill:#002c44"/><path d="M141.44,49.14a3.16,3.16,0,0,0-1.92.64l-0.18-.67-0.66.11-4.41.74,0.19,0.78a16.07,16.07,0,0,1,.34,3.64,6.37,6.37,0,0,0-1.64-3.66,5.73,5.73,0,0,0-4.24-1.53c-3.73,0-6.05,2.66-6.05,6.93a9.24,9.24,0,0,0,.23,2.11l-0.7.38a1.55,1.55,0,0,1-.65.14,1.59,1.59,0,0,1-.35,0,2.69,2.69,0,0,1-.13-1.22v-4h1.49l0.82-4.06h-2.31v-0.1a23,23,0,0,1,.11-2.56l0.1-1-1,.14-4.45.67-0.08.54a17.93,17.93,0,0,0-.13,2.26h-1v0.9l-0.3-.14a9.62,9.62,0,0,0-4.47-1.06c-3.31,0-5.53,1.9-5.53,4.72A3.64,3.64,0,0,0,106.12,57l-0.33-.2-1.22,2.52a2.16,2.16,0,0,1-.3-1.44l0-4a6.47,6.47,0,0,0-.21-2c-0.53-1.68-2.32-2.65-4.91-2.65a11.17,11.17,0,0,0-5.63,1.76l-0.62.38L95,54.89a4.06,4.06,0,0,0-2,3.49c0,2.84,1.77,4.54,4.74,4.54a5.36,5.36,0,0,0,2.78-.73,3.79,3.79,0,0,0,1.35.87l0.42,0.14,1.93-1.88,0.08,0a11.51,11.51,0,0,0,5.41,1.55c3.3,0,5.63-1.58,6.08-4v0.48c0,3.57,3.32,3.57,4.41,3.57a7.55,7.55,0,0,0,3.28-.75l0.53-.25-0.48-2.29c1,2.09,3,3.27,5.8,3.27a8.07,8.07,0,0,0,5.2-1.83l0.21-.16v1.69h5.41V54.17a0.78,0.78,0,0,1,.64-0.36,1.38,1.38,0,0,1,.79.23l0.82,0.45,1.34-4.7-0.61-.25A4.13,4.13,0,0,0,141.44,49.14ZM102.16,62.35a3.06,3.06,0,0,1-1.44-1.15,4.49,4.49,0,0,1-2.92,1c-2.89,0-4-1.72-4-3.8s1.92-3.79,5.17-3.79a6,6,0,0,1,.66,0V53.88c0-.68-0.09-1.08-0.95-1.08A5.31,5.31,0,0,0,95.36,54l-1.42-2.44a10.43,10.43,0,0,1,5.24-1.65c2.22,0,3.77.75,4.2,2.12a5.65,5.65,0,0,1,.18,1.81l0,4a2.5,2.5,0,0,0,.71,2.13l-0.31.64Zm-5.8-8.11a4.24,4.24,0,0,1,2.33-.71l0.18,0c0,0.08,0,.24,0,0.29A8.23,8.23,0,0,0,96.36,54.24Zm13.42,7.93a10.71,10.71,0,0,1-4.92-1.4l-0.14-.07,0.46-.94,0.92-1.91a9.69,9.69,0,0,0,3.82,1.49,1.12,1.12,0,0,0,1.22-.88c0-.63-0.38-0.81-1.54-1.06l-1.51-.32a3,3,0,0,1-2.73-3.19c0-2.39,1.88-4,4.79-4a9.67,9.67,0,0,1,4.61,1.19l-1.22,2.44a6.29,6.29,0,0,0-2.87-.86,0.85,0.85,0,0,0-1,.66c0,0.41.27,0.72,1.22,0.93l1.45,0.32c2.06,0.45,2.89,1.58,2.89,3.41C115.2,60.55,113,62.17,109.78,62.17Zm-2.93-4.74a5.15,5.15,0,0,0,1.08.38l1.51,0.31a3.65,3.65,0,0,1,1,.28,0.58,0.58,0,0,1-.49.2A8.26,8.26,0,0,1,106.85,57.43Zm5.43-3.6L111,53.56a2.67,2.67,0,0,1-.38-0.11h0A4.74,4.74,0,0,1,112.29,53.84Zm1.66,0.56,1-1.94v1.08h0.95v3.52A3.52,3.52,0,0,0,113.94,54.4Zm6.32,7.8c-2.19,0-3.66-.57-3.66-2.83V52.79h-0.95V50.22h0.95a21.32,21.32,0,0,1,.14-2.89l3.91-.59a30.82,30.82,0,0,0-.11,3.48h2.14l-0.52,2.57h-1.63v4.7c0,1.63.23,2,1.22,2a2.25,2.25,0,0,0,1-.23l0.48,2.26A6.8,6.8,0,0,1,120.27,62.2Zm9.13,0c-3.73,0-5.78-2.28-5.78-6.05s2-6.19,5.31-6.19c3.75,0,5.29,2.39,5.26,6.39v1h-6.51a1.88,1.88,0,0,0,1.88,2.12,5,5,0,0,0,3.07-1.18l1.51,2.26A7.31,7.31,0,0,1,129.39,62.17ZM131.52,58a4,4,0,0,1-2,.64,1,1,0,0,1-1-.64h3Zm1.86,0h1.42v2.12ZM142,53.38a2.12,2.12,0,0,0-1.15-.32,1.52,1.52,0,0,0-1.38.84v8h-3.93V54.78a18,18,0,0,0-.36-4.23l3.62-.61a5.45,5.45,0,0,1,.25,1.38,2.94,2.94,0,0,1,2.4-1.45,3.39,3.39,0,0,1,1.47.34Z" style="fill:#002c44"/><path d="M145.39,50.4a0.28,0.28,0,0,0,.23-0.3c0-.18-0.1-0.31-0.42-0.31h-0.38v1.09h0.28V50.44c0.06,0,.09,0,0.13.13l0.11,0.3h0.32l-0.16-.36A0.23,0.23,0,0,0,145.39,50.4Zm-0.21-.16H145.1V50h0.08c0.09,0,.13,0,0.13.1A0.11,0.11,0,0,1,145.18,50.24Z" style="fill:#002c44"/></svg>