<svg id="Layer_1" data-name="Layer 1" xmlns="http://www.w3.org/2000/svg" viewBox="0 0 146.29 70"><title>footer-logo-colour</title><path d="M144.13,50.35a1.08,1.08,0,0,1,2.16,0,1.08,1.08,0,1,1-2.16,0m0.26,0a0.82,0.82,0,0,0,.24.58,0.82,0.82,0,0,0,1.16-1.16,0.83,0.83,0,0,0-.58-0.24,0.81,0.81,0,0,0-.82.82"/><path d="M38.08,10A3.46,3.46,0,0,0,37,11.06L16.54,41.92a2.68,2.68,0,0,0-.5,1.16,0.59,0.59,0,0,0,0,.09,0.71,0.71,0,0,0,.14.42,1.26,1.26,0,0,0,1,.51l45.36,0a1.08,1.08,0,0,0,1-.71,1.25,1.25,0,0,0,0-.31,1.35,1.35,0,0,0-.31-0.86l0,0L41.17,11.08A3.92,3.92,0,0,0,40,10a1.86,1.86,0,0,0-1-.29,1.92,1.92,0,0,0-1,.29" style="fill:#231f20"/><polygon points="39.62 43.23 39.62 32.41 39.63 10.41 43.65 16.59 49.47 29.63 51.06 26.61 62.8 43.25 56.18 43.25 52.73 38.14 49.49 43.25 45.13 35.65 45.15 43.23 39.62 43.23" style="fill:#e15f25"/><path d="M28.62,34.83h4.19V28.1ZM16.94,43.25L38.46,10.5V43.25H33V39.18H26l-2.63,4.07H16.94Z" style="fill:#ecde21"/><path d="M37.51,4.3H37.14A2.19,2.19,0,0,1,37.38,3a2.51,2.51,0,0,1,1.3-1.15,2.7,2.7,0,0,1,2,.08A2.25,2.25,0,0,1,42,3.19a2,2,0,0,1-.15,1.88,4.22,4.22,0,0,1-1.29,1.08,2,2,0,0,0-1.22,1.23c0,0.07,0,.12,0,0.12h0.2l0.1,2a1.69,1.69,0,0,0-.52-0.07,2.15,2.15,0,0,0-.56.07l0.15-2h0.22s0,0,0-.12A1.73,1.73,0,0,1,39.95,6,5.61,5.61,0,0,0,41.47,4.8,1.74,1.74,0,0,0,41.42,3a2.19,2.19,0,0,0-1.06-.86A1.87,1.87,0,0,0,39.52,2a2.4,2.4,0,0,0-1.08.34,2,2,0,0,0-.74.82,2.26,2.26,0,0,0-.2,1.14"/><path d="M10.28,45.39H5.54L0,62.62H5.83l0.86-3h2.6l0.81,3h6L10.83,45.39H10.28ZM8,54.68L8.1,55H8L8,54.68"/><path d="M10.67,61.88l-0.81-3H6.13l-0.86,3H1L6.08,46.13h4.2l4.77,15.75H10.67Zm-2.31-9a13.66,13.66,0,0,1-.29-2.21,14.93,14.93,0,0,1-.43,2.51L7,55.73H9Z" style="fill:#ecde21"/><path d="M18.82,49.21l-4.4.74,0.18,0.77a16.15,16.15,0,0,1,.34,3.74V68l5.42-1.46v-3c0-.3,0-0.51,0-0.75a5.14,5.14,0,0,0,.94.1c2.13,0,5.69-1,5.69-7.45,0-5.19-2.9-6.28-5.33-6.28a4.45,4.45,0,0,0-2,.5L19.48,49Zm2,4.48c0.18,0,.43,0,0.43,2.11,0,2.54-.42,2.54-0.91,2.54h0V53.85a0.73,0.73,0,0,1,.48-0.15"/><path d="M21.63,49.93c4.09,0,4.59,3.37,4.59,5.54,0,4.54-1.81,6.71-4.95,6.71a4.6,4.6,0,0,1-1.83-.39,5.79,5.79,0,0,1,.18,1.79V66L15.68,67V54.47a16.72,16.72,0,0,0-.36-3.91l3.62-.61a5.07,5.07,0,0,1,.25,1,3.07,3.07,0,0,1,2.44-1.06m-2,3.61v5.22a0.76,0.76,0,0,0,.75.32c0.93,0,1.65-.2,1.65-3.28C22,54,21.88,53,20.84,53a1.37,1.37,0,0,0-1.22.59" style="fill:#ecde21"/><path d="M30.75,49.21l-4.4.74,0.18,0.77a16.38,16.38,0,0,1,.34,3.74V68l5.42-1.46v-3c0-.3,0-0.51,0-0.75a5.17,5.17,0,0,0,.94.1c2.13,0,5.69-1,5.69-7.45,0-5.19-2.9-6.28-5.33-6.28a4.46,4.46,0,0,0-2,.5L31.41,49Zm2,4.48c0.18,0,.43,0,0.43,2.11,0,2.54-.42,2.54-0.91,2.54h0V53.85a0.73,0.73,0,0,1,.48-0.15"/><path d="M33.56,49.93c4.09,0,4.59,3.37,4.59,5.54,0,4.54-1.81,6.71-4.95,6.71a4.6,4.6,0,0,1-1.83-.39,5.76,5.76,0,0,1,.18,1.79V66L27.62,67V54.47a16.76,16.76,0,0,0-.36-3.91l3.62-.61a5.23,5.23,0,0,1,.25,1,3.06,3.06,0,0,1,2.44-1.06m-2,3.61v5.22a0.76,0.76,0,0,0,.75.32c0.93,0,1.65-.2,1.65-3.28,0-1.83-.13-2.85-1.18-2.85a1.37,1.37,0,0,0-1.22.59" style="fill:#ecde21"/><path d="M38.6,50.94L38,51.32l2.08,3.57a4.05,4.05,0,0,0-2,3.48c0,2.84,1.77,4.54,4.74,4.54a5.36,5.36,0,0,0,2.78-.73,3.82,3.82,0,0,0,1.35.87l0.42,0.13L50.66,60l-0.79-.5c-0.43-.28-0.56-0.65-0.56-1.66l0-4a6.36,6.36,0,0,0-.21-2c-0.52-1.69-2.32-2.65-4.91-2.65a11.15,11.15,0,0,0-5.63,1.76m5.13,2.6,0.18,0c0,0.08,0,.24,0,0.29a8.23,8.23,0,0,0-2.53.4,4.24,4.24,0,0,1,2.32-.71m-0.32,4.79A0.39,0.39,0,0,1,43.5,58a1,1,0,0,1,.43-0.17v0.84a0.67,0.67,0,0,1-.18,0c-0.18,0-.34,0-0.34-0.39"/><path d="M45.76,61.2a4.49,4.49,0,0,1-2.92,1c-2.89,0-4-1.72-4-3.8s1.92-3.79,5.18-3.79a6,6,0,0,1,.65,0V53.88c0-.68-0.09-1.08-1-1.08A5.31,5.31,0,0,0,40.41,54L39,51.57a10.42,10.42,0,0,1,5.24-1.65c2.22,0,3.77.75,4.2,2.12a5.67,5.67,0,0,1,.18,1.81l0,4a2.35,2.35,0,0,0,.9,2.28l-2.26,2.19a3.06,3.06,0,0,1-1.44-1.15m-3.1-2.87a1,1,0,0,0,1.09,1.13,1.4,1.4,0,0,0,.93-0.38V57c-1.65,0-2,.61-2,1.29" style="fill:#ecde21"/><path d="M54,49.21L49.62,50l0.2,0.78a17.09,17.09,0,0,1,.34,4v7.84h5.42V54.17a0.78,0.78,0,0,1,.64-0.36A1.37,1.37,0,0,1,57,54l0.82,0.45,1.34-4.7-0.61-.25a4.12,4.12,0,0,0-1.75-.4,3.16,3.16,0,0,0-1.92.64l-0.19-.67Z"/><path d="M57.36,53.38a2.11,2.11,0,0,0-1.15-.32,1.52,1.52,0,0,0-1.38.84v8H50.89V54.78a18,18,0,0,0-.36-4.23l3.61-.61a5.21,5.21,0,0,1,.25,1.38,2.94,2.94,0,0,1,2.4-1.45,3.38,3.38,0,0,1,1.47.34Z" style="fill:#ecde21"/><path d="M57.34,56.12c0,4.26,2.44,6.8,6.53,6.8a8.06,8.06,0,0,0,5.2-1.83l0.55-.42L67.85,58h1.54v-1.8c0-2.48-.59-4.33-1.77-5.51a5.73,5.73,0,0,0-4.24-1.53c-3.73,0-6.05,2.66-6.05,6.93m6.19-2.72a0.34,0.34,0,0,1,.28.08A1,1,0,0,1,64,54H63c0.12-.59.39-0.59,0.57-0.59M66,58a4,4,0,0,1-2,.64A1,1,0,0,1,63,58h3Z"/><path d="M64,59.42a5,5,0,0,0,3.07-1.18l1.51,2.26a7.31,7.31,0,0,1-4.75,1.67c-3.73,0-5.78-2.28-5.78-6.05s2-6.19,5.31-6.19c3.75,0,5.29,2.39,5.26,6.39v1H62.15A1.87,1.87,0,0,0,64,59.42m-0.5-6.76c-0.83,0-1.38.52-1.38,2.08h2.62c0-1.29-.29-2.08-1.24-2.08" style="fill:#ecde21"/><path d="M73.61,44.54L69,45.32l0.13,0.74a28.22,28.22,0,0,1,.13,3.61v8.47c0,2.13,0,4.79,4.13,4.79a8.36,8.36,0,0,0,2.8-.41l0.61-.24L76,59.19l-0.28-.63-0.84.14H74.78a8.41,8.41,0,0,1-.12-1.85V48.18a20.42,20.42,0,0,0-.19-3l-0.12-.74Z"/><path d="M73.37,62.17c-3.32,0-3.39-1.72-3.39-4v-8a33.14,33.14,0,0,0-.14-4.25l3.89-.65a19.67,19.67,0,0,1,.18,2.91v8.65c0,2.06.07,2.6,0.95,2.6a1.26,1.26,0,0,0,.41-0.07l0.63,2.44a7.55,7.55,0,0,1-2.53.36" style="fill:#ecde21"/><path d="M80,49.21l-4.4.74,0.18,0.77a16.21,16.21,0,0,1,.34,3.74v8.15h5.31V53.84a1.62,1.62,0,0,1,.52-0.15h0c0,0.26,0,.69,0,1v8h5.17V53.94a2.88,2.88,0,0,1,.53-0.18h0a6.53,6.53,0,0,1,0,.9v7.95H93V53.38c0-2.79-1.31-4.2-3.91-4.2a5.49,5.49,0,0,0-3.27,1,3.81,3.81,0,0,0-2.69-1,4.77,4.77,0,0,0-2.31.64l-0.2-.72Z"/><path d="M88.49,61.88V54.67c0-1.56-.16-1.65-0.84-1.65a3.31,3.31,0,0,0-1.26.45v8.4H82.71V54.65c0-1.54,0-1.7-.79-1.7a2.46,2.46,0,0,0-1.26.45v8.47H76.83V54.47a16.8,16.8,0,0,0-.36-3.91l3.62-.61a4.78,4.78,0,0,1,.23,1.13,4.34,4.34,0,0,1,2.83-1.15,3.15,3.15,0,0,1,2.62,1.26,4.74,4.74,0,0,1,3.34-1.26c1.63,0,3.16.54,3.16,3.46v8.49H88.49Z" style="fill:#e15f25"/><path d="M93.55,50.94l-0.62.38L95,54.89a4.06,4.06,0,0,0-2,3.49c0,2.84,1.77,4.54,4.74,4.54a5.36,5.36,0,0,0,2.78-.73,3.79,3.79,0,0,0,1.35.87l0.43,0.14L105.61,60l-0.79-.5c-0.43-.28-0.56-0.65-0.56-1.66l0-4a6.47,6.47,0,0,0-.21-2c-0.53-1.68-2.32-2.65-4.91-2.65a11.17,11.17,0,0,0-5.63,1.76m5.13,2.6,0.18,0c0,0.08,0,.24,0,0.29a8.23,8.23,0,0,0-2.53.4,4.24,4.24,0,0,1,2.33-.71m-0.32,4.79a0.39,0.39,0,0,1,.1-0.32,1,1,0,0,1,.43-0.17v0.84a0.64,0.64,0,0,1-.18,0c-0.17,0-.34,0-0.34-0.39"/><path d="M100.72,61.2a4.49,4.49,0,0,1-2.92,1c-2.89,0-4-1.72-4-3.8s1.92-3.79,5.17-3.79a6,6,0,0,1,.66,0V53.88c0-.68-0.09-1.08-0.95-1.08A5.31,5.31,0,0,0,95.36,54l-1.42-2.44a10.43,10.43,0,0,1,5.24-1.65c2.22,0,3.77.75,4.2,2.12a5.65,5.65,0,0,1,.18,1.81l0,4a2.35,2.35,0,0,0,.9,2.28l-2.26,2.19a3.06,3.06,0,0,1-1.44-1.15m-3.1-2.87a1,1,0,0,0,1.08,1.13,1.4,1.4,0,0,0,.93-0.38V57c-1.65,0-2,.61-2,1.29" style="fill:#e15f25"/><path d="M104.61,53.9A3.64,3.64,0,0,0,106.12,57l-0.33-.2-2,4.24,0.64,0.33a11.51,11.51,0,0,0,5.41,1.55c3.69,0,6.17-2,6.17-4.9a3.72,3.72,0,0,0-2-3.61l1.47-2.95,0.34-.69-1.14-.52a9.62,9.62,0,0,0-4.47-1.06c-3.31,0-5.53,1.9-5.53,4.72m2.24,3.53a5.15,5.15,0,0,0,1.08.38l1.51,0.31a3.64,3.64,0,0,1,1,.28,0.58,0.58,0,0,1-.49.2,8.26,8.26,0,0,1-3.06-1.17m3.81-4a4.74,4.74,0,0,1,1.62.39L111,53.56a2.67,2.67,0,0,1-.38-0.11h0"/><path d="M109.78,62.17a10.86,10.86,0,0,1-5.06-1.47l1.38-2.85a9.7,9.7,0,0,0,3.82,1.49,1.12,1.12,0,0,0,1.22-.88c0-.63-0.38-0.81-1.54-1.06l-1.51-.32a3,3,0,0,1-2.73-3.19c0-2.39,1.88-4,4.79-4a9.67,9.67,0,0,1,4.61,1.19l-1.22,2.44a6.29,6.29,0,0,0-2.87-.86,0.85,0.85,0,0,0-1,.66c0,0.41.27,0.72,1.22,0.93l1.45,0.32c2.06,0.45,2.89,1.58,2.89,3.41,0,2.53-2.17,4.16-5.42,4.16" style="fill:#e15f25"/><path d="M120.54,46l-4.45.67-0.08.54a17.92,17.92,0,0,0-.13,2.26h-1v4.06h0.95v5.84c0,3.57,3.32,3.57,4.41,3.57a7.55,7.55,0,0,0,3.28-.75l0.53-.25-0.8-3.8-0.87.47a1.55,1.55,0,0,1-.65.14,1.6,1.6,0,0,1-.35,0,2.69,2.69,0,0,1-.13-1.22v-4h1.49l0.82-4.06h-2.31v-0.1a23,23,0,0,1,.11-2.56l0.1-1Z"/><path d="M120.54,50.22h2.14l-0.52,2.57h-1.63v4.7c0,1.63.23,2,1.22,2a2.25,2.25,0,0,0,1-.23l0.47,2.26a6.8,6.8,0,0,1-3,.68c-2.19,0-3.66-.57-3.66-2.83V52.79h-0.95V50.22h0.95a21.32,21.32,0,0,1,.14-2.89l3.91-.59a30.82,30.82,0,0,0-.11,3.48" style="fill:#e15f25"/><path d="M122.87,56.12c0,4.26,2.44,6.8,6.53,6.8a8.07,8.07,0,0,0,5.2-1.83l0.55-.42L133.38,58h1.55s0-1.78,0-1.8c0-2.48-.6-4.33-1.77-5.52a5.73,5.73,0,0,0-4.24-1.53c-3.73,0-6.05,2.66-6.05,6.93m6.19-2.72a0.35,0.35,0,0,1,.28.08,1,1,0,0,1,.18.51h-1c0.12-.59.39-0.59,0.57-0.59M131.52,58a4,4,0,0,1-2,.64,1,1,0,0,1-1-.64h3Z"/><path d="M129.56,59.42a5,5,0,0,0,3.07-1.18l1.51,2.26a7.31,7.31,0,0,1-4.75,1.67c-3.73,0-5.78-2.28-5.78-6.05s2-6.19,5.31-6.19c3.75,0,5.29,2.39,5.26,6.39v1h-6.51a1.88,1.88,0,0,0,1.88,2.12m-0.5-6.76c-0.84,0-1.38.52-1.38,2.08h2.62c0-1.29-.29-2.08-1.24-2.08" style="fill:#e15f25"/><path d="M138.67,49.21l-4.41.74,0.19,0.78a17.48,17.48,0,0,1,.34,4v7.84h5.41V54.17a0.78,0.78,0,0,1,.64-0.36,1.38,1.38,0,0,1,.79.23l0.82,0.45,1.34-4.7-0.61-.25a4.13,4.13,0,0,0-1.76-.4,3.16,3.16,0,0,0-1.92.64l-0.18-.67Z"/><path d="M142,53.38a2.12,2.12,0,0,0-1.15-.32,1.52,1.52,0,0,0-1.38.84v8h-3.93V54.78a18,18,0,0,0-.36-4.23l3.62-.61a5.45,5.45,0,0,1,.25,1.38,2.94,2.94,0,0,1,2.4-1.45,3.39,3.39,0,0,1,1.47.34Z" style="fill:#e15f25"/><path d="M145.34,50.88l-0.11-.3c0-.11-0.07-0.13-0.13-0.13v0.43h-0.28V49.79h0.38c0.32,0,.42.13,0.42,0.31a0.28,0.28,0,0,1-.23.3,0.23,0.23,0,0,1,.11.12l0.16,0.36h-0.32ZM145.1,50v0.22h0.08a0.11,0.11,0,0,0,.13-0.12c0-.08,0-0.1-0.13-0.1H145.1Z"/></svg>