<svg id="Layer_1" data-name="Layer 1" xmlns="http://www.w3.org/2000/svg" viewBox="0 0 125 70"><title>footer-logo-colour</title><path d="M39.52,57.65h1.16v1.73Zm-1.77,0a4.21,4.21,0,0,1-2.24.7,1,1,0,0,1-1.1-.7h3.34Zm10.93-9.31a6.54,6.54,0,0,0-3,.7,1.45,1.45,0,0,0,0-.15l-0.21-.62-0.65.11L40.94,49l-0.81.14L40.32,50a13.23,13.23,0,0,1,.31,2.2A5.75,5.75,0,0,0,39.3,50a6,6,0,0,0-4.46-1.61A5.85,5.85,0,0,0,29,52.27c-0.1-3.24-2.34-3.93-4.22-3.93a6.55,6.55,0,0,0-3,.7l0-.15-0.21-.62-0.65.11L17.07,49l-0.81.14L16.45,50a17.08,17.08,0,0,1,.36,3.95v8.59H22.5V53.6a1.43,1.43,0,0,1,.59-0.31H23.3a2.38,2.38,0,0,1,0,.56v8.64H29V58.9c1,2.49,3.19,3.9,6.31,3.9A8.45,8.45,0,0,0,40.68,61v1.51h5.69V53.6A1.41,1.41,0,0,1,47,53.29h0.2a2.33,2.33,0,0,1,0,.56v8.64H52.9v-10c0-3.43-2.3-4.15-4.23-4.15M34.36,53.42c0.13-.66.43-0.66,0.63-0.66a0.38,0.38,0,0,1,.31.1,1,1,0,0,1,.2.56H34.36Zm-18-7.24a3.11,3.11,0,0,0-3.11-3.11,3.16,3.16,0,0,0-3.2,3.11,3.1,3.1,0,0,0,1.46,2.63l-0.45,0-0.7.07v8.52H5.85V44.33H0V62.49H16.07V48.38l-0.71.07a3.07,3.07,0,0,0,1-2.28" style="fill:#231f20"/><path d="M124,49.6h-0.08V49.39H124c0.08,0,.12,0,0.12.1a0.1,0.1,0,0,1-.12.11m0.2,0.15a0.26,0.26,0,0,0,.21-0.29c0-.17-0.1-0.29-0.4-0.29h-0.36v1h0.26V49.79c0.06,0,.08,0,0.12.12l0.11,0.29h0.3l-0.15-.34a0.23,0.23,0,0,0-.1-0.11m0.37,0.49a0.77,0.77,0,0,1-.55.23,0.76,0.76,0,0,1-.55-0.22,0.78,0.78,0,0,1-.22-0.55,0.79,0.79,0,0,1,.22-0.55,0.78,0.78,0,0,1,1.1,0,0.77,0.77,0,0,1,.23.55,0.76,0.76,0,0,1-.23.54M123,49.7a1,1,0,1,0,2,0,1,1,0,0,0-2,0" style="fill:#231f20"/><path d="M41,41.59l9.45-9.45H41v9.45Zm11.42-30V28.69a3.76,3.76,0,0,1-.77,2.07h-12v12a3.78,3.78,0,0,1-2.1.78H21.72a1.33,1.33,0,0,1-1.33-1.33V11.55a1.33,1.33,0,0,1,1.33-1.33h29.4a1.34,1.34,0,0,1,1.33,1.33" style="fill:#231f20"/><polygon points="51.43 11.31 51.43 29.7 44.96 29.7 44.96 23.11 40.33 28.46 35.62 23.02 35.62 34.99 29.14 34.99 29.14 11.31 35.62 11.31 35.62 11.31 40.33 16.7 44.99 11.31 51.43 11.31" style="fill:#f05c22"/><polygon points="28.03 11.29 21.51 11.29 21.51 42.49 38.64 42.49 38.64 36.06 28.03 36.06 28.03 11.29" style="fill:#fff"/><path d="M13.27,44A2.26,2.26,0,0,0,11,46.17a2.23,2.23,0,0,0,2.24,2.21,2.25,2.25,0,0,0,2.28-2.21A2.19,2.19,0,0,0,13.27,44M36.42,54.31h-3V54.19c0-1.56.52-2.32,1.58-2.32a1.26,1.26,0,0,1,1,.37,2.65,2.65,0,0,1,.49,2v0.12ZM0.89,61.6H9.82l0.43-1.88v-1.4H5V45.23H0.89V61.6Zm10.38,0h3.9V49.36l-3.9.36V61.6Zm13,0h3.9v-9.1c0-1.4-.35-3.26-3.33-3.26a5.6,5.6,0,0,0-3.48,1.15l-0.19.14V50.28a4.85,4.85,0,0,0-.2-1l-3.58.6a18.62,18.62,0,0,1,.36,4v7.7h3.9V53.18l0,0a2.51,2.51,0,0,1,1.44-.75c0.72,0,1.15.1,1.15,1.46V61.6Zm23.87,0H52v-9.1c0-1.4-.35-3.26-3.33-3.26a5.69,5.69,0,0,0-3.48,1.15L45,50.51l0-.23a4.82,4.82,0,0,0-.2-1l-3.58.6a18.54,18.54,0,0,1,.35,4v7.7h3.9V53.18l0,0A2.51,2.51,0,0,1,47,52.39c0.72,0,1.15.1,1.15,1.46V61.6ZM34.85,49.23c-3.43,0-5.48,2.4-5.48,6.41s2.18,6.27,6,6.27a7.51,7.51,0,0,0,4.84-1.67l-1.46-2.17a5.34,5.34,0,0,1-3.21,1.18,2.12,2.12,0,0,1-2.11-2.36V56.76h6.87v-0.9c0-2.42-.53-4.19-1.61-5.27a5.18,5.18,0,0,0-3.82-1.35" style="fill:#fff"/><path d="M112.2,57.62h1.16v1.73Zm-4,.7a1,1,0,0,1-1.1-.7h3.34a4.22,4.22,0,0,1-2.24.7m-0.52-5.59a0.36,0.36,0,0,1,.31.09,1,1,0,0,1,.21.56H107c0.13-.66.43-0.66,0.63-0.66m-6.26,5.52a1.61,1.61,0,0,1-.68.14,1,1,0,0,1-.39,0,3.16,3.16,0,0,1-.13-1.29V52.87h1.29a10.14,10.14,0,0,0-.35,2.74,9.42,9.42,0,0,0,.34,2.6ZM92.89,53.8l0.27-.54,0.36-.72v0.33h1v2.5a3.67,3.67,0,0,0-1.63-1.58m-1.54-.54-1.53-.33a2.83,2.83,0,0,1-.5-0.14h0.12a5.18,5.18,0,0,1,2.06.52l-0.15,0m-2.69,5A8.57,8.57,0,0,1,85.47,57a5.68,5.68,0,0,0,1.1.34l1.6,0.33a3.57,3.57,0,0,1,1,.3v0a0.67,0.67,0,0,1-.52.2M74.44,53.67A4.5,4.5,0,0,1,77,52.87h0.21a2.15,2.15,0,0,1,0,.33,8.63,8.63,0,0,0-2.79.45m2.79,4.66a0.71,0.71,0,0,1-.21,0c-0.19,0-.38,0-0.38-0.43,0-.17,0-0.44.58-0.55v0.93ZM71.54,56v-3.3a7.21,7.21,0,0,0-.12-1.36l1.41,2.41,0.3,0.52A4.51,4.51,0,0,0,71.54,56m50.67-7.35a4.38,4.38,0,0,0-1.85-.41,3.34,3.34,0,0,0-2,.67v0l-0.19-.67-0.68.12-3.82.64-0.82.14,0.2,0.81a11.91,11.91,0,0,1,.3,2.17A5.75,5.75,0,0,0,112,49.92a6,6,0,0,0-4.46-1.61,5.83,5.83,0,0,0-5.45,3.12l0.57-2.81h-2.44a25.31,25.31,0,0,1,.12-2.82l0.11-1-1,.15-4.13.62-0.56.08-0.08.56a18.79,18.79,0,0,0-.15,2.4h-1v0.77a10.06,10.06,0,0,0-4.62-1.08c-3.48,0-5.82,2-5.82,5a3.9,3.9,0,0,0,1.33,3.13l-0.1-.06-1.22,2.51a2.78,2.78,0,0,1-.23-1.39l0-4.24a6.64,6.64,0,0,0-.22-2.14c-0.55-1.77-2.43-2.79-5.17-2.79a11.76,11.76,0,0,0-5.93,1.85l-0.44.27c-0.59-1.41-1.83-2.12-3.71-2.12A5.79,5.79,0,0,0,64,49.37a4,4,0,0,0-2.84-1.06,5.07,5.07,0,0,0-2.45.67h0l0-.08-0.19-.67-0.68.12L54,49l-0.81.13,0.19,0.8a17.05,17.05,0,0,1,.36,3.95v8.59h5.57V53.19A1.76,1.76,0,0,1,59.85,53h0c0,0.27,0,.74,0,1v8.4h5.42V53.29a2.52,2.52,0,0,1,.58-0.18H66a7.65,7.65,0,0,1,0,1v8.38h5.52V60.28c0.73,1.59,2.31,2.49,4.53,2.49A5.7,5.7,0,0,0,79,62a4.06,4.06,0,0,0,1.44.91l0.44,0.14,0.33-.32,1.64-1.6a12.13,12.13,0,0,0,5.67,1.62c2.93,0,5.14-1.18,6-3.09,0.37,3.11,3.52,3.11,4.6,3.11a8,8,0,0,0,3.45-.79l0.55-.26L103,61.15,103,60.86a6.75,6.75,0,0,0,5.06,1.9,8.46,8.46,0,0,0,5.34-1.82v1.51H119v-9a0.79,0.79,0,0,1,.69-0.34,1.48,1.48,0,0,1,.84.24l0.85,0.47,1.41-4.93Z" style="fill:#231f20"/><path d="M120.35,49.12a3,3,0,0,0-2.44,1.48l-0.2.27V50.53a5.29,5.29,0,0,0-.23-1.33l-3.6.61a19.27,19.27,0,0,1,.36,4.37v7.38h3.92V53.19a1.71,1.71,0,0,1,1.55-.94,2.27,2.27,0,0,1,1.15.28l0.89-3.11a3.37,3.37,0,0,0-1.41-.31M108.6,52.19a1.25,1.25,0,0,0-.94-0.36c-1.06,0-1.57.75-1.57,2.31v0.11h3V54.14a2.62,2.62,0,0,0-.48-1.95m2.75-1.67c1.08,1.09,1.62,2.86,1.61,5.29v0.91H106.1v0.11a2.11,2.11,0,0,0,2.09,2.36A5.34,5.34,0,0,0,111.41,58l1.47,2.19A7.54,7.54,0,0,1,108,61.87c-3.81,0-6-2.29-6-6.28s2.05-6.42,5.49-6.42a5.2,5.2,0,0,1,3.84,1.35m-10.63,8.74c-1.2,0-1.4-.55-1.4-2.21V52h1.74l0.5-2.49H99.32V48.93a29.7,29.7,0,0,1,.11-3.1l-3.9.58a23.79,23.79,0,0,0-.13,3v0.11h-1V52h1V59c0,2,1.09,2.87,3.75,2.87a7.07,7.07,0,0,0,3-.67l-0.45-2.16a2.55,2.55,0,0,1-1,.19M91.16,54.1l-1.53-.33c-1-.2-1.38-0.54-1.38-1.09a1,1,0,0,1,1.19-.8,6.64,6.64,0,0,1,3,.86l1.19-2.37-0.36-.16a9.26,9.26,0,0,0-4.35-1c-3,0-4.94,1.6-4.94,4.08a3.08,3.08,0,0,0,2.8,3.25l1.6,0.33c1.16,0.25,1.71.46,1.71,1.23a1.29,1.29,0,0,1-1.4,1,10,10,0,0,1-4-1.52l-1.35,2.79a11.19,11.19,0,0,0,5.19,1.49c3.41,0,5.61-1.68,5.61-4.28,0-2-.91-3-3-3.49m-15.4,3.82A1.2,1.2,0,0,0,77,59.23a1.58,1.58,0,0,0,1.07-.45l0,0V56.46H78c-1.48,0-2.24.45-2.24,1.47m7.11,1.95L80.63,62a3.17,3.17,0,0,1-1.4-1.14l-0.07-.13-0.11.09a4.6,4.6,0,0,1-3,1C72.48,61.87,72,59.43,72,58c0-2.36,2.1-3.89,5.35-3.89a6.52,6.52,0,0,1,.67,0l0.14,0v-0.9A1,1,0,0,0,77,52a5.63,5.63,0,0,0-3.47,1.24l-1.38-2.37a10.82,10.82,0,0,1,5.38-1.67c2.32,0,3.9.79,4.33,2.16A5.82,5.82,0,0,1,82,53.2l0,4.25a2.67,2.67,0,0,0,.89,2.42M70.65,52.7v8.85H66.89v-7.5c0-1.59-.14-1.85-1-1.85a3.56,3.56,0,0,0-1.4.49l-0.05,0v8.82H60.79V54c0-1.57,0-1.9-.95-1.9a2.7,2.7,0,0,0-1.4.5l0,0v8.88h-3.8V53.85a18.59,18.59,0,0,0-.35-4l3.59-.61A4.41,4.41,0,0,1,58,50.28v0.23l0.17-.16a4.49,4.49,0,0,1,2.91-1.19,3.21,3.21,0,0,1,2.68,1.29l0.07,0.09L64,50.48a4.86,4.86,0,0,1,3.45-1.31c1.5,0,3.22.4,3.22,3.54" style="fill:#f05c22"/></svg>