<svg id="Layer_1" data-name="Layer 1" xmlns="http://www.w3.org/2000/svg" viewBox="0 0 128 70"><title>footer-logo-colour</title><path d="M115.57,62.07h-0.81q-4,0-8,0h-1a105.79,105.79,0,0,0,4.74-12.2,58.8,58.8,0,0,0,2.72-16.06,47.76,47.76,0,0,0-1.09-11.29,1,1,0,0,1,.3-1,15.86,15.86,0,0,0,1.9-2.21,3,3,0,0,0,.4-1.24,1.47,1.47,0,0,0-.25-0.63,4.2,4.2,0,0,0-.59.37,1,1,0,0,0-.16.37,5.32,5.32,0,0,1-5.28,3.54c-0.72,0-1.44,0-2.16-.05a6,6,0,0,0-4.72,2.05,13.41,13.41,0,0,1-1,1,1,1,0,0,1-.71.29,8.61,8.61,0,0,0-2.7-.32,0.81,0.81,0,0,1-.86-0.58,3.47,3.47,0,0,1,1.74-.09,2.28,2.28,0,0,0,1.89-.67,5.24,5.24,0,0,1,3.23-1.52,6.77,6.77,0,0,0,4.26-2.36,3.21,3.21,0,0,0,.86-1.93,8.1,8.1,0,0,1,.17-0.89,8.52,8.52,0,0,0,1,.48,0.51,0.51,0,0,0,.4-0.18,0.5,0.5,0,0,0-.11-0.35,0.49,0.49,0,0,0-.27-0.19,1.44,1.44,0,0,1-1.11-1.29,1.19,1.19,0,0,0-.39-0.34c0,0.25,0,.38,0,0.51a5.56,5.56,0,0,1-4.38,5.77c-0.35.1-.71,0.21-1.07,0.28a7.86,7.86,0,0,0-2.83,1.17,7.77,7.77,0,0,1-1.83.82,1.4,1.4,0,0,1-1.64-.48,2.51,2.51,0,0,0-.71-0.55c-0.67-.39-0.77-0.68-0.28-1.31a3,3,0,0,0,.61-1.85c0-.54.09-1.08,0.12-1.62a3.93,3.93,0,0,1,1.7-2.95c0.63-.44,1.28-0.86,1.92-1.28a3.58,3.58,0,0,0,1.71-3.05c0-.17,0-0.33,0-0.5A2.55,2.55,0,0,1,103,7.49a12.28,12.28,0,0,0,1.49-.73,1.1,1.1,0,0,0,.55-1.27L104.8,4.1a4.09,4.09,0,0,1-1,.11,1.31,1.31,0,0,1-.9-0.38,1,1,0,0,1,.24-0.93,6.19,6.19,0,0,1,1.65-1,1.12,1.12,0,0,1,1.38.22A1.07,1.07,0,0,1,106,3.4a0.54,0.54,0,0,0,0,.17l1.52,2.53a7.75,7.75,0,0,0,.77-3,0.86,0.86,0,0,0-.25-0.4,0.71,0.71,0,0,1,.3-1.25,2.59,2.59,0,0,1,2.39.16c0.9,0.49.91,1,0,1.56-0.11.07-.21,0.15-0.3,0.21,0.23,0.62.46,1.19,0.65,1.76s0.37,1.18.57,1.82c0.33-.13.55-0.21,0.77-0.32A15.18,15.18,0,0,1,117,5.36a5.47,5.47,0,0,1,3.37.37,1,1,0,0,1,.46.77,1.3,1.3,0,0,1-.62.53,0.71,0.71,0,0,1-.4.07,1.84,1.84,0,0,0-1.59.74,2.64,2.64,0,0,1-1.81.89c-0.34,0-.72.07-0.82-0.33a1.51,1.51,0,0,1,.53-0.48,0.91,0.91,0,0,0,.15-0.07,0.89,0.89,0,0,0,.27-0.45,0.64,0.64,0,0,0-.4-0.35,1.27,1.27,0,0,0-1.51.86,3.66,3.66,0,0,0-.11,1.62,12.12,12.12,0,0,0,1.73,3.89,3.73,3.73,0,0,1,.45,1.41c0.15,1.26.27,2.53,0.31,3.8s1,1.67,1.66,2.36a1.68,1.68,0,0,0,1.58.16,3.64,3.64,0,0,1,.44,0l0.21,0.75a1.54,1.54,0,0,0-1.39,1.59,7.41,7.41,0,0,1-.3,1.22,2.11,2.11,0,0,0,.19,1.72c0.34,0.63.73,1.25,1,1.91a1.56,1.56,0,0,0,1.56,1c0.38,0,.76,0,1.32,0a9.45,9.45,0,0,1-.34,1c-0.36.75-.81,1.46-1.11,2.22a3.07,3.07,0,0,0-.24,1.52,4.56,4.56,0,0,0,1.65,3.24A7.77,7.77,0,0,1,124,38a2.93,2.93,0,0,1,.43,3.39q-0.83,1.34-1.68,2.67a2.58,2.58,0,0,0-.29,2.48c0.26,0.66.45,1.34,0.66,2a6.53,6.53,0,0,0,1.81,3.11,1,1,0,0,1,.36.62c0,1.51,0,3,0,4.59a1,1,0,0,1-.26-0.21,5.61,5.61,0,0,0-4.4-2.58c-0.22,0-.43-0.1-0.64-0.15-0.9-.21-1.1-0.12-1.45.75q-1.43,3.45-2.83,6.9A2.19,2.19,0,0,0,115.57,62.07ZM110.72,9.28a0.13,0.13,0,0,0,0-.05,0.12,0.12,0,0,0-.06,0l-0.19-.11,0-.35,0.27-.93-0.35.25A0.16,0.16,0,0,1,110.09,8l0-.28-0.61.78a0.15,0.15,0,0,1-.25-0.15l0.71-1.49a0.39,0.39,0,0,0-.26.2A1.84,1.84,0,0,1,108,8.15a2.47,2.47,0,0,0-2.22,2.39l-0.64,2.11a2.35,2.35,0,0,0,.58,0,8.3,8.3,0,0,1,1.11-.28,6.52,6.52,0,0,1,3.84.71c0.25,0.15.54,0.29,0.73,0a1.41,1.41,0,0,0,.1-0.74,5.19,5.19,0,0,1-.1-0.79,2.92,2.92,0,0,0-.43-2.13l0,0,0,0ZM121,45.43a1,1,0,0,0-1-.78c-0.47,0-.92,0-1.36,0a0.79,0.79,0,0,0-.92,1c0.25,1.69.48,3.39,0.8,5.08a2.66,2.66,0,0,0,.71,1.36,11.49,11.49,0,0,0,1.83,1.27,0.89,0.89,0,0,0,1.15,0,1,1,0,0,0,.3-1.12c-0.23-.8-0.4-1.61-0.58-2.42C121.67,48.34,121.36,46.92,121,45.43Zm0.53-1.75a1.5,1.5,0,0,0,1.37-1c0.3-.62.69-1.19,1-1.8,0.56-1,.53-1.24-0.33-2s-1.43-1.21-2.15-1.81a0.82,0.82,0,0,0-1.27.23c-0.78,1.33-1.7,2.6-1.32,4.34S119,43.49,121.57,43.67ZM118.7,31.28h-0.07a12,12,0,0,0,.28,1.61,1.54,1.54,0,0,0,1.53.91,1,1,0,0,0,.76-1.13c0.1-.46.19-0.91,0.31-1.36,0.29-1.06.26-1.14-.76-1.64-0.15-.07-0.3-0.15-0.45-0.21a1,1,0,0,0-1.55.9C118.71,30.67,118.72,31,118.7,31.28Zm-21.81-10h0.25a6.29,6.29,0,0,1,.16-0.67,6.91,6.91,0,0,1,.54-1.37A0.78,0.78,0,0,1,99.1,19l-1,.51a0.1,0.1,0,0,0,0,.18L99.6,20a1.09,1.09,0,0,0,.15-1.33,1.06,1.06,0,0,0-1.28-.34,2.32,2.32,0,0,0-1.09.8,6.89,6.89,0,0,0-.58,1.71A1,1,0,0,0,96.89,21.24Z" style="fill:#ffd722"/><path d="M115.41,62.07c0.11-.24.18-0.34,0.25-0.51q1.41-3.46,2.83-6.9c0.36-.87.55-1,1.45-0.75,0.22,0.05.43,0.12,0.64,0.15a5.61,5.61,0,0,1,4.4,2.58,1,1,0,0,0,.26.21c0-1.57,0-3.08,0-4.59a1,1,0,0,0-.36-0.62,6.53,6.53,0,0,1-1.81-3.11c-0.21-.68-0.4-1.36-0.66-2A2.58,2.58,0,0,1,122.7,44q0.85-1.33,1.68-2.67A2.93,2.93,0,0,0,124,38a7.77,7.77,0,0,0-.72-0.68,4.56,4.56,0,0,1-1.65-3.24,3.07,3.07,0,0,1,.24-1.52c0.31-.77.75-1.48,1.11-2.22a9.45,9.45,0,0,0,.34-1c-0.56,0-.94,0-1.32,0a1.56,1.56,0,0,1-1.56-1c-0.27-.66-0.67-1.27-1-1.91a2.11,2.11,0,0,1-.19-1.72,7.41,7.41,0,0,0,.3-1.22,1.54,1.54,0,0,1,1.39-1.59l-0.21-.75a3.64,3.64,0,0,0-.44,0,1.68,1.68,0,0,1-1.58-.16C118,20.29,117,19.81,117,18.62s-0.16-2.54-.31-3.8a3.73,3.73,0,0,0-.45-1.41,12.12,12.12,0,0,1-1.73-3.89,3.66,3.66,0,0,1,.11-1.62A1.27,1.27,0,0,1,116.13,7a0.64,0.64,0,0,1,.4.35,0.89,0.89,0,0,1-.27.45,0.91,0.91,0,0,1-.15.07,1.51,1.51,0,0,0-.53.48c0.1,0.4.48,0.37,0.82,0.33a2.64,2.64,0,0,0,1.81-.89,1.84,1.84,0,0,1,1.59-.74,0.71,0.71,0,0,0,.4-0.07,1.3,1.3,0,0,0,.62-0.53,1,1,0,0,0-.46-0.77A5.47,5.47,0,0,0,117,5.36a15.18,15.18,0,0,0-4.54,1.32c-0.23.11-.45,0.19-0.77,0.32-0.2-.63-0.37-1.23-0.57-1.82S110.7,4,110.47,3.43c0.09-.06.19-0.14,0.3-0.21,0.87-.52.87-1.07,0-1.56a2.59,2.59,0,0,0-2.39-.16,0.71,0.71,0,0,0-.3,1.25,0.86,0.86,0,0,1,.25.4,7.75,7.75,0,0,1-.77,3L106,3.57a0.54,0.54,0,0,1,0-.17,1.07,1.07,0,0,0,.14-1.3,1.12,1.12,0,0,0-1.38-.22,6.19,6.19,0,0,0-1.65,1,1,1,0,0,0-.24.93,1.31,1.31,0,0,0,.9.38,4.09,4.09,0,0,0,1-.11l0.27,1.39a1.1,1.1,0,0,1-.55,1.27,12.28,12.28,0,0,1-1.49.73,2.55,2.55,0,0,0-1.73,2.32c0,0.17,0,.33,0,0.5a3.58,3.58,0,0,1-1.71,3.05c-0.64.43-1.29,0.85-1.92,1.28a3.93,3.93,0,0,0-1.7,2.95c0,0.54-.11,1.08-0.12,1.62a3,3,0,0,1-.61,1.85c-0.49.63-.39,0.91,0.28,1.31a2.51,2.51,0,0,1,.71.55,1.4,1.4,0,0,0,1.64.48,7.77,7.77,0,0,0,1.83-.82,7.86,7.86,0,0,1,2.83-1.17c0.36-.07.71-0.18,1.07-0.28a5.56,5.56,0,0,0,4.38-5.77c0-.13,0-0.26,0-0.51a1.19,1.19,0,0,1,.39.34,1.44,1.44,0,0,0,1.11,1.29,0.49,0.49,0,0,1,.27.19,0.5,0.5,0,0,1,.11.35,0.51,0.51,0,0,1-.4.18,8.52,8.52,0,0,1-1-.48,8.1,8.1,0,0,0-.17.89,3.21,3.21,0,0,1-.86,1.93,6.77,6.77,0,0,1-4.26,2.36A5.24,5.24,0,0,0,100,23.43a2.28,2.28,0,0,1-1.89.67,3.47,3.47,0,0,0-1.74.09,0.81,0.81,0,0,0,.86.58,8.61,8.61,0,0,1,2.7.32,1,1,0,0,0,.71-0.29,13.41,13.41,0,0,0,1-1,6,6,0,0,1,4.72-2.05c0.72,0,1.44.05,2.16,0.05a5.32,5.32,0,0,0,5.28-3.54,1,1,0,0,1,.16-0.37,4.2,4.2,0,0,1,.59-0.37,1.47,1.47,0,0,1,.25.63,3,3,0,0,1-.4,1.24,15.86,15.86,0,0,1-1.9,2.21,1,1,0,0,0-.3,1,47.76,47.76,0,0,1,1.09,11.29,58.8,58.8,0,0,1-2.72,16.06,105.79,105.79,0,0,1-4.74,12.2h-2.41c0.14-.31.25-0.57,0.38-0.84A99.71,99.71,0,0,0,110,44.49a54.6,54.6,0,0,0,2.06-16.15,32.77,32.77,0,0,0-.88-6c-1.84.62-3.7,0.24-5.53,0.42a4.55,4.55,0,0,0-3.57,2,2.41,2.41,0,0,1-1.61,1.07,7.3,7.3,0,0,1-4-.24c-1.21-.43-1.49-1-1.19-2.29l-0.82-.47A1,1,0,0,1,94,21.37a1.07,1.07,0,0,1,.17-0.28A3.83,3.83,0,0,0,95.1,18a4.2,4.2,0,0,1,2-4,15.81,15.81,0,0,0,2.15-1.69,4.42,4.42,0,0,0,.89-1.36,0.88,0.88,0,0,0-.22-1.05,1.32,1.32,0,0,1-.25-1l0.49,0.53,0.26-1.15c-0.56,0-1.1,0-1.63,0A0.78,0.78,0,0,1,98,7.08a2.36,2.36,0,0,1,1.44-1.3c0.9-.32,1.83-0.54,2.76-0.81a0.08,0.08,0,0,0,0-.07A1.38,1.38,0,0,1,102,2.46,5.84,5.84,0,0,1,105.91,1a5,5,0,0,1,1.26.36c1.17-1.22,2.63-1.08,4.1-.38s1.65,1.76.55,3l0.52,1.67c1.22-.32,2.35-0.67,3.5-0.91a8.39,8.39,0,0,1,4.35.09,6.16,6.16,0,0,1,1.61.82,1.28,1.28,0,0,1,.54,1.46,1.18,1.18,0,0,1-1.26.75,4.85,4.85,0,0,1-.58,0,1.5,1.5,0,0,0-1.7.85,4.56,4.56,0,0,1-1,1c0.48,0.79.95,1.66,1.5,2.47a31.3,31.3,0,0,1,3.22,5.56c0.83,2,1.65,4,2.28,6.13a70.05,70.05,0,0,1,2.24,11.8c1.07,8.65.94,26.42,0.94,26.42h-2.92c0.08-.6.19-1.2,0.22-1.8a3.13,3.13,0,0,0-.76-2.42A7.85,7.85,0,0,1,123.8,57a3.92,3.92,0,0,0-2.73-1.76c-1-.17-1.39-0.12-1.85.79-1,2-1.93,4.06-2.88,6.08h-0.92ZM125,50.16s0.12,0,.12,0c-0.1-.91,0-7-0.3-7.64h-0.09a3.16,3.16,0,0,1-1.18,1.64,2.12,2.12,0,0,0-.31,2.19c0.39,1,.77,2,1.2,3A5.42,5.42,0,0,0,125,50.16ZM123,28.31l-1.63-5.56a2.67,2.67,0,0,0-1.34,3,12,12,0,0,0,1.16,2.18C121.59,28.56,122,28.61,123,28.31Zm0.78,3.11c-2.08,1.61-1.36,5.16.65,5.52Zm-6-15.61a0.14,0.14,0,0,0-.26.08c0.09,0.88.13,1.76,0.27,2.62a2,2,0,0,0,2.47,1.76ZM99.09,7.43c1.17,0.56,2.44.36,2.64-.31l-0.34-.5a2.18,2.18,0,0,1,1.5-.09,2.25,2.25,0,0,0,1-.27,0.47,0.47,0,0,0,0-.36A2,2,0,0,0,103,5.63a6.71,6.71,0,0,0-3.4,1.14A3,3,0,0,0,99.09,7.43Zm17.23,4.76c0.86-.33,1.31-0.74,1.29-1.21C116.51,11.37,116.27,11.6,116.32,12.18Zm1.09,1.53,0,0.27a1.1,1.1,0,0,0,.58,0c0.29-.27.87-0.42,0.59-1.16Zm4.23,3.86a1.69,1.69,0,0,0-1.57.76A2.09,2.09,0,0,0,121.64,17.57Zm-1,1.56a1.6,1.6,0,0,0,1.42-.68A1.59,1.59,0,0,0,120.67,19.13ZM118,12a1.81,1.81,0,0,0-1.25,1A1.51,1.51,0,0,0,118,12Zm-0.81-1.49a1.39,1.39,0,0,0-1.35.61L116,11.29Zm4,6.55-0.11-.29a2.32,2.32,0,0,0-1.3.67l0.09,0.19A0.72,0.72,0,0,0,121.21,17Zm-1.68-.54,0.08,0.24,1.19-.43A0.87,0.87,0,0,0,119.54,16.5Zm-3-6.43-0.08-.28a0.84,0.84,0,0,0-1,.44l0.08,0.2A0.54,0.54,0,0,0,116.57,10.06Zm1.55,4.12,0.76,1.39L120,14.9l-0.81-1.33A0.62,0.62,0,0,0,118.12,14.19ZM104,5.11V5L103.7,5a0.09,0.09,0,0,0,0,0Z" style="fill:#2e2c2c"/><path d="M116.34,62.07c1-2,1.87-4.09,2.88-6.08,0.46-.91.82-1,1.85-0.79A3.92,3.92,0,0,1,123.8,57a7.85,7.85,0,0,0,.74.88,3.13,3.13,0,0,1,.76,2.42c0,0.6-.15,1.2-0.22,1.8C122.16,62.05,119.25,62.09,116.34,62.07Z" style="fill:#f8aa41"/><path d="M35.61,60.28c-0.23.36-.46,0.72-0.67,1.09-0.1.16-.14,0.36-0.23,0.53-0.39.67-.77,0.7-1.28,0.11a3.14,3.14,0,0,1-.23-0.35c-0.53.27-.83,1-1.57,0.77a1.58,1.58,0,0,1-1.3-1.07,4.89,4.89,0,0,1-1.89,1c-1.25.1-1.77-.22-1.91-1.47a8.94,8.94,0,0,1,.94-4.82c0.25-.54.61-1,1-1.73a3.31,3.31,0,0,1,.47.91A5.55,5.55,0,0,1,29,57c-0.3,1.26-.69,2.49-1.08,3.73-0.21.66-.12,0.84,0.56,0.75s1.13-.23,1.72-0.36a6.4,6.4,0,0,1,1.31-3.48c0.24-.35.46-0.71,1-0.42,0.75,0.41,1.09.9,0.79,1.42a13.7,13.7,0,0,1-1.48,2.08,1.07,1.07,0,0,0-.33,1.12,2.83,2.83,0,0,0,2-1.41,17,17,0,0,1,1.19-2.13c1-1.44.82-1.47,2.1-1l-0.15.49c0.52,0,.61.33,0.58,0.75s-0.08,1-.13,1.49c-0.07.75-.14,1.5-0.21,2.26-0.76-.1-1-0.54-1.1-1.89A0.09,0.09,0,0,0,35.61,60.28Zm-3.83-.87,0.65-.95,0-.22-0.09,0L31.8,59.43v0Zm2.93,1.11,0.14,0.08,1.41-2.44-0.2-.11A5.42,5.42,0,0,0,34.71,60.53Z" style="fill:#2e2c2c"/><path d="M50.27,64.95l0.9,0.64c2.12-1.15,2.16-3.27,2.51-5.24l-1.2,2c-0.45,0-.77,0-1.09.08a1.4,1.4,0,0,1-1.43-1,5.37,5.37,0,0,1-.08-1.47A6.9,6.9,0,0,1,50,59a0.12,0.12,0,0,0-.22-0.06l-1.39,3.48a0.75,0.75,0,0,1-.89-0.83,6.72,6.72,0,0,1,.14-1.64c0.18-.84.44-1.65,0.65-2.48A0.49,0.49,0,0,1,48.92,57a0.45,0.45,0,0,1,.4.6,1.72,1.72,0,0,0,0,.79c0.14-.21.28-0.41,0.41-0.62a0.8,0.8,0,0,1,.95-0.47,0.74,0.74,0,0,1,.57.88,14.37,14.37,0,0,1-.17,1.72c-0.07.49-.21,1-0.29,1.46,0,0.25,0,.55.31,0.53a0.61,0.61,0,0,0,.26-0.47c0-1.74,1-3.06,2-4.37A0.68,0.68,0,0,1,54,56.93a1.49,1.49,0,0,1,1.29,1.73c-0.14,1.29-.28,2.58-0.52,3.86a4.79,4.79,0,0,1-2,3.13A1.53,1.53,0,0,1,50.27,64.95Zm2.06-3.61a9.62,9.62,0,0,0,2-3.52A8.82,8.82,0,0,0,52.33,61.34Z" style="fill:#2e2c2c"/><path d="M21.05,49.55L20.84,32.71h6.94v3.15L24.27,36v4.09h3V43.2H24.36v3.27h3.51v3.08H21.05Z" style="fill:#d63e31"/><path d="M96,50.09C95,46.18,94.1,42.3,92.91,38.48a4,4,0,0,0-.23,2.05c0,0.75,0,1.49,0,2.24s0,1.44.06,2.16,0.05,1.49.06,2.24,0,1.43,0,2.21H91.06V33h2c1,3.93,1.94,7.95,3.18,11.9a11.69,11.69,0,0,0,.12-3.06c0-1.08-.05-2.16-0.09-3.24s-0.1-2.1-.12-3.15,0-2.08,0-3.16h1.7L98.05,50Z" style="fill:#d63e31"/><path d="M16.34,43.88v5.85H13.06L12.85,32.51h7v3.2H16.28v4.92h3.24v3.24H16.34Z" style="fill:#d63e31"/><path d="M52.17,32.38l1.92-.21c0.14,1.06.28,2.06,0.39,3.06a45.57,45.57,0,0,1,.08,10.6A11,11,0,0,1,54,48.17a2.61,2.61,0,0,1-2.55,1.89,2.69,2.69,0,0,1-2.66-1.76A10.83,10.83,0,0,1,48,44.68a55.89,55.89,0,0,1,.29-11.27c0-.13.06-0.27,0.11-0.49,0.3,0,.59,0,0.88.07s0.54,0.09.91,0.15L50,35a48.18,48.18,0,0,0,.08,11.18,4.15,4.15,0,0,0,.45,1.41,1.34,1.34,0,0,0,.83.58,0.79,0.79,0,0,0,.86-0.64,14.63,14.63,0,0,0,.5-2.51,56.85,56.85,0,0,0-.41-11.35C52.27,33.3,52.23,32.89,52.17,32.38Z" style="fill:#d63e31"/><path d="M7,49.76H0V32.63H3.23L3.34,46.72H7v3Z" style="fill:#d63e31"/><path d="M39.94,49.76c0-.45,0-0.86,0-1.27q0-7.5,0-15c0-.89,0-0.89.91-1,2.77-.3,4.5.81,5.34,3.47a9.39,9.39,0,0,1,.37,1.53,22.58,22.58,0,0,1-.2,8.56C45.54,49.24,43.26,50.56,39.94,49.76Zm1.84-15.51c0,4.72,0,9.38.18,14a1.67,1.67,0,0,0,1.89-.93,6,6,0,0,0,.58-1.63,24.09,24.09,0,0,0,0-8.82,6.53,6.53,0,0,0-.81-2A1.51,1.51,0,0,0,41.78,34.25Z" style="fill:#d63e31"/><path d="M89.75,41c-0.21,1.93-.35,3.75-0.62,5.55a7.08,7.08,0,0,1-.8,2.16,2.83,2.83,0,0,1-4.64.15,7.31,7.31,0,0,1-1-2.52,29.23,29.23,0,0,1,0-10.16,8.3,8.3,0,0,1,1-2.68,2.67,2.67,0,0,1,4.47,0,6.83,6.83,0,0,1,.94,2.28C89.43,37.54,89.56,39.34,89.75,41Zm-2.12.43c-0.07-1.57-.09-2.87-0.21-4.17A14.15,14.15,0,0,0,87,34.95a1.12,1.12,0,0,0-1-1,1.14,1.14,0,0,0-1,1,7.32,7.32,0,0,0-.39,1.52,42.14,42.14,0,0,0,0,9.69,5.24,5.24,0,0,0,.56,1.8,0.88,0.88,0,0,0,1.64,0,4.79,4.79,0,0,0,.5-1.65C87.44,44.57,87.53,42.88,87.63,41.46Z" style="fill:#d63e31"/><path d="M62.57,39.12h-1.9c0-.51,0-1,0-1.43-0.06-.83-0.15-1.65-0.25-2.47a1.44,1.44,0,0,0-.24-0.7A1.28,1.28,0,0,0,59.46,34a1.41,1.41,0,0,0-.84.53,2.1,2.1,0,0,0-.34.85,6.83,6.83,0,0,0-.2,1.09,51.24,51.24,0,0,0,0,9.4,9.88,9.88,0,0,0,.5,2,0.93,0.93,0,0,0,.94.68,0.91,0.91,0,0,0,.89-0.74,13.14,13.14,0,0,0,.38-2.2c0.06-.93,0-1.87,0-2.88l2-.09c0,2.11.11,4.15-.83,6.06a2.6,2.6,0,0,1-2.49,1.5A2.5,2.5,0,0,1,57,48.69a10.67,10.67,0,0,1-.86-2.84,33.9,33.9,0,0,1,0-9.27A10.63,10.63,0,0,1,57,33.68a2.72,2.72,0,0,1,5,.39A12.48,12.48,0,0,1,62.57,39.12Z" style="fill:#d63e31"/><path d="M65.78,32.46h2.69L71.06,50h-2l-0.52-4H65.72l-0.44,3.32H63.44Zm1.49,2.8a0.14,0.14,0,0,0-.28,0l-1.13,9h2.55Z" style="fill:#d63e31"/><rect x="7.98" y="32.5" width="3.3" height="17.28" style="fill:#d63e31"/><path d="M35,40.69h3.2v1.71H35.11V48h3.66v1.85l-5.55-.18L33,32.6h5.51v1.71l-2.6,0c-1,0-1,0-1,1q0,2.24,0,4.48C35,40.1,35,40.34,35,40.69Z" style="fill:#d63e31"/><polygon points="77.35 34.32 75.07 34.32 75.07 49.78 73.16 49.78 73.16 34.37 70.77 34.37 70.77 32.56 77.35 32.56 77.35 34.32" style="fill:#d63e31"/><path d="M80.67,49.74H78.73V32.65H80.5Z" style="fill:#d63e31"/><path d="M71,61.14c0.39-.81.77-1.62,1.17-2.42a2.05,2.05,0,0,1,.15-0.25c0.31-.45.59-1.1,1.23-0.85a0.82,0.82,0,0,1,.69.9c-0.08.57-.19,1.14-0.25,1.72s-0.09,1.24-.13,1.92h0.75a1,1,0,0,1-.26.3,1.24,1.24,0,0,1-1.44-.83A5.72,5.72,0,0,1,72.75,60c0-.38.12-0.75,0.13-1.16-1.06.94-1.26,2.34-1.83,3.53-0.83.06-.9-0.59-1.17-1.22a4.44,4.44,0,0,0-.44.62,1,1,0,0,1-1.5.58,2.33,2.33,0,0,1-1.37-2,5.12,5.12,0,0,1,0-1.24,1.54,1.54,0,0,0-.47-1.59,1.16,1.16,0,0,0,1-.85,17.4,17.4,0,0,1,1-1.72c0.55,0.74.57,0.83,0.48,2.33l0.87,0.11,0.81,0.12,1.55-4.18c0.92,0.2,1.11.42,0.9,1.2-0.41,1.54-.88,3.07-1.34,4.61-0.19.66-.41,1.31-0.61,2Zm-0.69-3.36c-0.61.18-1.19,0.35-1.75,0.54a0.57,0.57,0,0,0-.34.31c-0.2.8-.4,1.6-0.53,2.41a0.71,0.71,0,0,0,.34.57,2,2,0,0,0,1.91-1.11C70,59.62,70.15,58.73,70.28,57.78Z" style="fill:#2e2c2c"/><path d="M78.41,54.54c0.77,1.37.26,2.66,0.23,4l1-.06c0.29-.94.56-1.83,0.85-2.72a3.72,3.72,0,0,1,.31-0.67c0.14-.24.22-0.67,0.61-0.45a1.06,1.06,0,0,1,.5.75c0,0.82-.12,1.65-0.19,2.47,0,0.16,0,.33-0.06.54l0.68,0.29a1.75,1.75,0,0,0-1.18,1.64c-0.14.7-.33,1.39-0.52,2.15a1.31,1.31,0,0,1-1-1.21c0-.52,0-1,0-1.6l-0.58,0c-0.89,0-.94,0-1.1.87-0.11.6-.17,1.21-0.27,1.92A0.63,0.63,0,0,1,77,61.94a3.43,3.43,0,0,1-.17-1.05A16.67,16.67,0,0,1,78,55.08,3.1,3.1,0,0,1,78.41,54.54Z" style="fill:#2e2c2c"/><path d="M46.43,62l0.79-.17c-0.15.83-.59,0.86-1.51,0.12a1.26,1.26,0,0,1-2.18-.79,5.48,5.48,0,0,1,0-1.47c0-.3.08-0.59,0.13-0.89l-0.18-.07-1.48,3.66a0.74,0.74,0,0,1-.88-0.83,10.43,10.43,0,0,1,.22-2c0.14-.72.4-1.41,0.57-2.13A0.57,0.57,0,0,1,42.58,57C43,57.07,43,57.36,43,57.7s0,0.38,0,.78c0.27-.38.45-0.6,0.6-0.84a0.72,0.72,0,0,1,.86-0.32,0.6,0.6,0,0,1,.53.64,20.33,20.33,0,0,1-.17,2c-0.08.6-.22,1.2-0.33,1.8a0.14,0.14,0,0,0,.19.16l0.87-.29a5.23,5.23,0,0,1,1.09-4.48,1,1,0,0,1,.58,1.28c-0.2.83-.41,1.66-0.59,2.5C46.49,61.29,46.48,61.61,46.43,62Z" style="fill:#2e2c2c"/><path d="M59.21,59.79c0.31-.68.62-1.35,0.91-2a0.54,0.54,0,0,1,.72-0.35,0.84,0.84,0,0,1,.29.66c0,0.86-.07,1.71-0.09,2.57a6.9,6.9,0,0,0,.08.87l0.22,0.07a3.94,3.94,0,0,0,.62-1c0.24-.9.4-1.82,0.55-2.74,0.06-.35-0.07-0.82.4-0.87a0.84,0.84,0,0,1,.85.75,4.27,4.27,0,0,1-.42,3.21,7.59,7.59,0,0,1-.67.95,1.1,1.1,0,0,1-1.15.65,1.7,1.7,0,0,1-1.32-1.25,10.6,10.6,0,0,0-.33-1.65l-1.09,2.84A1,1,0,0,1,58,61.5a11.73,11.73,0,0,1,.64-4.72c0.54,0.43.54,0.43,0.32,2.7l-0.1.8,0.11,0Z" style="fill:#2e2c2c"/><path d="M97.61,57.28c0.38-1,.69-1.81,1.07-2.64C99,54,99.14,54,99.91,54.23a8,8,0,0,1-1,4.28,3.45,3.45,0,0,0-.29,2.56c0.24,1.08.54,1.18,1.43,0.49l0.52-.43a1.68,1.68,0,0,1-1.39,1.2c-0.92.09-1-.77-1.54-1.32-0.14.27-.25,0.52-0.37,0.75-0.37.7-.62,0.84-1.23,0.69a1.24,1.24,0,0,1-1-1.19,2.91,2.91,0,0,1,.16-1.06c0.27-.69.59-1.36,0.93-2A1.23,1.23,0,0,1,97.61,57.28Zm-0.2,1.34c-1,.78-1.62,2.61-1.19,3.26A4.3,4.3,0,0,0,97.41,58.62ZM99,56.36a0.26,0.26,0,0,0,.06-0.09,1.05,1.05,0,0,0,0-.15Z" style="fill:#2e2c2c"/><path d="M85.48,62.37a1.69,1.69,0,0,1-1.37-1.95,0.09,0.09,0,0,0-.17-0.06c-0.21.29-.43,0.57-0.62,0.87s-0.15.41-.26,0.6a0.74,0.74,0,0,1-.81.56,0.89,0.89,0,0,1-.68-0.94,3.39,3.39,0,0,1,.33-1.27,24.7,24.7,0,0,1,1.49-2.48c0.61-.89.65-0.86,1.73-0.45L85,57.7l0.14-.06a1.93,1.93,0,0,1,.38.7A9.57,9.57,0,0,1,85.39,60,3.45,3.45,0,0,0,85.48,62.37Zm-2.29-1.89a6.41,6.41,0,0,0,1.24-2.37,3.46,3.46,0,0,0-1.23,2.39H83.06v0.05Z" style="fill:#2e2c2c"/><path d="M89.27,60.68a6.44,6.44,0,0,1,1.68-3.51c0.26-.29.71-0.53,0.8,0.21a1.32,1.32,0,0,1,.81.85,3.09,3.09,0,0,1-.84,3.88,1.45,1.45,0,0,1-1.69.28A1.56,1.56,0,0,1,89.27,60.68Zm2.08-2.78a10.19,10.19,0,0,0-1.07,3.92C91.44,61.34,92,59.32,91.35,57.9Z" style="fill:#2e2c2c"/><path d="M95.26,53.52a1,1,0,0,1,.49,1.34c-0.27,1.41-.58,2.81-0.89,4.22-0.15.67-.35,1.34-0.46,2a8.64,8.64,0,0,0,0,1.34,0.87,0.87,0,0,1-.7-0.79,10.35,10.35,0,0,1-.22-2.29,16.05,16.05,0,0,1,1.61-5.62A1,1,0,0,1,95.26,53.52Z" style="fill:#2e2c2c"/><path d="M38.07,57.12a1.09,1.09,0,0,1,1.18.88,1.61,1.61,0,0,1,2.31-.41,0.68,0.68,0,0,1-.46,1.24l-0.15,0L40.85,58c-1.13.44-2.15,2.43-2.25,4.31-0.7.19-1,0-1.1-.71a6,6,0,0,1,.09-1.32C37.74,59.23,37.91,58.17,38.07,57.12Z" style="fill:#2e2c2c"/><path d="M86.92,62.39c-0.77.07-1.07-.15-1.1-0.87a7.91,7.91,0,0,1,.12-1.4c0.14-1,.31-2,0.47-3.07a1.15,1.15,0,0,1,1.13,1,1.65,1.65,0,0,1,2.39-.46L89.33,59l-0.21-1.14A6.19,6.19,0,0,0,86.92,62.39Z" style="fill:#2e2c2c"/><path d="M65.12,62l0.8-.13c-0.13.61-.27,0.72-0.75,0.58a1.39,1.39,0,0,1-1-1.18,4.77,4.77,0,0,1,1.1-4,1,1,0,0,1,.62,1.22c-0.18.75-.38,1.5-0.55,2.25C65.23,61.09,65.19,61.5,65.12,62Z" style="fill:#2e2c2c"/><path d="M66.52,56c-0.48.7-.74,0.78-1.4,0.47C65.37,55.54,65.7,55.42,66.52,56Z" style="fill:#2e2c2c"/><path d="M47.9,56.09a3.1,3.1,0,0,1-.71.45,2,2,0,0,1-.69,0,1.36,1.36,0,0,1,.23-0.68,1.57,1.57,0,0,1,.84-0.07A1.1,1.1,0,0,1,47.9,56.09Z" style="fill:#2e2c2c"/><path d="M110.93,9.45a2.92,2.92,0,0,1,.43,2.13,5.19,5.19,0,0,0,.1.79,1.41,1.41,0,0,1-.1.74c-0.19.29-.47,0.16-0.73,0a6.52,6.52,0,0,0-3.84-.71,8.3,8.3,0,0,0-1.11.28,1.36,1.36,0,0,1-.43,0,0.13,0.13,0,0,1-.11-0.16l0.6-2A2.47,2.47,0,0,1,108,8.15a1.84,1.84,0,0,0,1.68-1.09,0.39,0.39,0,0,1,.26-0.2l-0.7,1.47a4.87,4.87,0,0,1-.89.3,2.1,2.1,0,0,0-1.84,2.48,0.9,0.9,0,0,0,.28.4,0.2,0.2,0,0,0,.31,0,1.34,1.34,0,0,0,.19-0.36c0.1-.34.1-0.71,0.22-1s0.43-.78.82-0.57a1.51,1.51,0,0,1,.52-0.45c0.54,0,1.09,0,1.63.07l0.19,0.11,0.09,0,0.2,0.16h0ZM108.53,11l0.39-.63c-0.68-.43-0.68-0.43-1.1.27Zm0.62-1.64L109,9.44l0.37,1a1.26,1.26,0,0,1,.25-0.32c0.11,0,.34,0,0.34-0.08a5.37,5.37,0,0,0-.06-0.77l-0.34.58Zm-1.33,1.79-0.05.3,0.74,0.09,0-.21Zm2.65-.08a0.87,0.87,0,0,0-.31-0.2,1,1,0,0,0-.25.26,0.54,0.54,0,0,0,.22.18A1.17,1.17,0,0,0,110.47,11.07ZM110.24,10l0.17,0.06,0.11-.42-0.12,0Z" style="fill:#2e2c2c"/><path d="M120.2,44.64a0.84,0.84,0,0,1,.81.66c0.34,1.54.66,3,1,4.47,0.18,0.81.36,1.62,0.58,2.42a1,1,0,0,1-.3,1.12,0.89,0.89,0,0,1-1.15,0,11.49,11.49,0,0,1-1.83-1.27,2.66,2.66,0,0,1-.71-1.36c-0.32-1.68-.55-3.38-0.8-5.08a0.79,0.79,0,0,1,.92-1C119.19,44.63,119.68,44.64,120.2,44.64Zm-1.55.81c0.17,1.16.3,2.25,0.5,3.32a14.63,14.63,0,0,0,.61,2.39,2.31,2.31,0,0,0,1.77,1.35,0.58,0.58,0,0,0,.11-0.15c-0.48-2.2-1-4.41-1.48-6.6a0.74,0.74,0,0,0-.52-0.4A4.13,4.13,0,0,0,118.65,45.45Z" style="fill:#2e2c2c"/><path d="M121.57,43.67c-2.58-.18-2.27-0.15-2.68-2s0.55-3,1.32-4.34a0.82,0.82,0,0,1,1.27-.23c0.72,0.6,1.44,1.2,2.15,1.81s0.89,1,.33,2c-0.34.6-.73,1.18-1,1.8A1.5,1.5,0,0,1,121.57,43.67Zm-0.71-1a1.42,1.42,0,0,0,1.39-.53c0.35-.57.69-1.13,1-1.71a0.67,0.67,0,0,0-.18-1c-0.47-.39-0.91-0.81-1.38-1.19a0.76,0.76,0,0,0-1.11.14c-0.66.9-1.2,1.83-.69,3a1.6,1.6,0,0,1,.12.5A0.67,0.67,0,0,0,120.85,42.65Z" style="fill:#2e2c2c"/><path d="M118.76,30.37a1,1,0,0,1,1.55-.9c0.15,0.06.3,0.14,0.45,0.21,1,0.51,1.05.58,0.76,1.64-0.12.45-.21,0.91-0.31,1.36a1,1,0,0,1-.76,1.13,1.54,1.54,0,0,1-1.53-.91,6.23,6.23,0,0,1-.28-1.61A8.42,8.42,0,0,1,118.76,30.37Zm0.57,1.43a4.83,4.83,0,0,0,.42,1,0.39,0.39,0,0,0,.74-0.13,14.05,14.05,0,0,0,.36-1.77,0.68,0.68,0,0,0-.71-0.74c-0.41-.09-0.52.22-0.59,0.52S119.41,31.35,119.32,31.8Z" style="fill:#2e2c2c"/><path d="M96.89,21.24a1,1,0,0,1-.09-0.43,6.89,6.89,0,0,1,.58-1.71,2.32,2.32,0,0,1,1.09-.8,1.06,1.06,0,0,1,1.28.34A1.09,1.09,0,0,1,99.6,20l-1.43-.3a0.1,0.1,0,0,1,0-.18l1-.51a0.78,0.78,0,0,0-1.26.23,6.91,6.91,0,0,0-.54,1.37,6.29,6.29,0,0,0-.16.67H96.89Z" style="fill:#2e2c2c"/><path d="M110.42,8.78c-0.22.08-.39,0.1-0.27-0.22s0.16-.33.24-0.49l0.3-.22Z" style="fill:#2e2c2c"/><path d="M110.11,8.15c-0.19.19-.16,0.8-0.69,0.37l0.62-.8Z" style="fill:#2e2c2c"/><polygon points="110.93 9.45 110.92 9.45 110.97 9.42 110.93 9.45" style="fill:#002c44"/><path d="M125,50.17a5.5,5.5,0,0,1-.57-0.86c-0.42-1-.81-2-1.2-3a2.2,2.2,0,0,1,.62-2.53,4.75,4.75,0,0,0,.85-1.26,0.14,0.14,0,0,1,.26.05l0.27,7.52A0.13,0.13,0,0,1,125,50.17Z" style="fill:#f8aa41"/><path d="M123,28.31c-1,.3-1.37.25-1.8-0.41A12,12,0,0,1,120,25.72a2.67,2.67,0,0,1,1.34-3Z" style="fill:#f8aa41"/><path d="M123.74,31.42l0.65,5.52C122.39,36.58,121.66,33,123.74,31.42Z" style="fill:#f8aa41"/><path d="M117.76,15.81l2.48,4.47a2,2,0,0,1-2.47-1.76c-0.14-.87-0.19-1.75-0.27-2.62A0.14,0.14,0,0,1,117.76,15.81Z" style="fill:#f8aa41"/><path d="M99.09,7.43a3,3,0,0,1,.54-0.66A6.71,6.71,0,0,1,103,5.63a2,2,0,0,1,.82.27,0.47,0.47,0,0,1,0,.36,2.25,2.25,0,0,1-1,.27,2.18,2.18,0,0,0-1.5.09l0.34,0.5C101.53,7.78,100.26,8,99.09,7.43Z" style="fill:#f8aa41"/><path d="M116.32,12.18c-0.05-.58.19-0.81,1.29-1.21C117.63,11.44,117.18,11.86,116.32,12.18Z" style="fill:#fff"/><path d="M117.41,13.71l1.2-.88c0.27,0.74-.3.89-0.59,1.16a1.1,1.1,0,0,1-.58,0Z" style="fill:#fff"/><path d="M121.64,17.57a2.09,2.09,0,0,1-1.57.76A1.69,1.69,0,0,1,121.64,17.57Z" style="fill:#fff"/><path d="M120.67,19.13a1.59,1.59,0,0,1,1.42-.68A1.6,1.6,0,0,1,120.67,19.13Z" style="fill:#fff"/><path d="M118,12a1.51,1.51,0,0,1-1.25,1A1.81,1.81,0,0,1,118,12Z" style="fill:#fff"/><path d="M117.19,10.49l-1.23.8-0.12-.19A1.39,1.39,0,0,1,117.19,10.49Z" style="fill:#fff"/><path d="M121.21,17a0.72,0.72,0,0,1-1.33.56l-0.09-.19a2.32,2.32,0,0,1,1.3-.67Z" style="fill:#fff"/><path d="M119.54,16.5a0.87,0.87,0,0,1,1.28-.19l-1.19.43Z" style="fill:#fff"/><path d="M116.57,10.06a0.54,0.54,0,0,1-1,.36l-0.08-.2a0.84,0.84,0,0,1,1-.44Z" style="fill:#fff"/><path d="M118.12,14.19a0.62,0.62,0,0,1,1.07-.62L120,14.9l-1.13.68Z" style="fill:#fff"/><path d="M118.65,45.45a4.13,4.13,0,0,1,1-.09,0.74,0.74,0,0,1,.52.4c0.51,2.2,1,4.4,1.48,6.6a0.58,0.58,0,0,1-.11.15,2.31,2.31,0,0,1-1.77-1.35,14.63,14.63,0,0,1-.61-2.39C118.95,47.7,118.82,46.61,118.65,45.45Z" style="fill:#f8aa41"/><path d="M120.85,42.65a0.67,0.67,0,0,1-.83-0.72,1.6,1.6,0,0,0-.12-0.5c-0.51-1.18,0-2.11.69-3a0.76,0.76,0,0,1,1.11-.14c0.47,0.38.92,0.8,1.38,1.19a0.67,0.67,0,0,1,.18,1c-0.34.57-.68,1.14-1,1.71A1.42,1.42,0,0,1,120.85,42.65Z" style="fill:#f8aa41"/><path d="M119.37,31.93a0.56,0.56,0,0,1,0-.28c0.07-.37.12-0.65,0.19-0.93s0.17-.61.59-0.52a0.68,0.68,0,0,1,.71.74,14.05,14.05,0,0,1-.36,1.77,0.39,0.39,0,0,1-.74.13A3.66,3.66,0,0,1,119.37,31.93Z" style="fill:#f8aa41"/></svg>