<svg id="Layer_1" data-name="Layer 1" xmlns="http://www.w3.org/2000/svg" viewBox="0 0 150 70"><title>footer-logo-colour</title><path d="M23.31,52.92h0v0h0Z" style="fill:#002c44"/><path d="M26.91,50.42l-6.36-16.6A1.42,1.42,0,0,0,20,33c-1.93,0-3.91-.08-5.88,0a4,4,0,0,0-3.68,2.62q-2.3,5.8-4.57,11.61Q3.73,52.82,1.56,58.39L0,62.41H7.76l1.92-5a8.62,8.62,0,0,1-3.1-7.48A7.5,7.5,0,0,1,8,46a1,1,0,0,1,1.21-.53,9.84,9.84,0,0,1,1.2,2.48c-0.11.3-.19,0.53-0.28,0.75a5.83,5.83,0,0,0-.25,3.48,6.41,6.41,0,0,0,10.19,3.67A1.68,1.68,0,0,1,21,55.28a2.7,2.7,0,0,1,.63,1.08q0.87,1.78,1.71,3.56a4.32,4.32,0,0,0,3.91,2.51c1.69,0.11,3.39,0,5.16,0a15.67,15.67,0,0,1-2.65-4.65C28.76,55.35,27.85,52.88,26.91,50.42Zm1.2,11.51a4,4,0,0,1-4.29-2.22c-0.7-1.54-1.55-3-2.3-4.54A3.07,3.07,0,0,0,20,53.53,0.66,0.66,0,0,1,19.54,53a0.73,0.73,0,0,1,.86-0.51,5.36,5.36,0,0,1,2.92.46v0h0a8.72,8.72,0,0,1-1.65-2.19c0-.77,0-1.43,0-2.08a6.2,6.2,0,0,0-6.58-6.26,6.28,6.28,0,0,0-3.9,1.51,3.56,3.56,0,0,1-1.28,1,0.58,0.58,0,0,1-.56-0.49A0.89,0.89,0,0,1,9.4,44.1,7,7,0,0,1,13.2,41a8.75,8.75,0,0,1,11.74,6.22,7.22,7.22,0,0,1-.83,5.6,0.83,0.83,0,0,1-.79.09l0,0h0a11.29,11.29,0,0,1,1.51,2.45c0.56,1.19,1.17,2.36,1.74,3.55a3.64,3.64,0,0,0,1.72,1.87,0.8,0.8,0,0,1,.49.53A0.59,0.59,0,0,1,28.11,61.93Z" style="fill:#6b8f42"/><path d="M149.34,32.94L24.77,33a0.15,0.15,0,0,0-.09.05,0.54,0.54,0,0,0-.05.12c0.09,0.26.19,0.56,0.3,0.85q3.94,10.3,7.89,20.6a41.9,41.9,0,0,0,2.41,5.64,9.42,9.42,0,0,0,1.52,2.18H150V33.06A1,1,0,0,0,149.34,32.94ZM124,41.68h1.39v1.67H124V41.68ZM51.3,53.94c-0.6-1.17-.88-2.47-1.43-3.66h-5l-1.37,3.59a2.8,2.8,0,0,1-1.86-.08l4.79-12.3a7.34,7.34,0,0,1,2,0c1.63,4.1,3.24,8.21,4.82,12.36A4.54,4.54,0,0,1,51.3,53.94Zm9-.68a3.52,3.52,0,0,1-1.48.72A6.55,6.55,0,0,1,56,54a2.93,2.93,0,0,1-2.59-2.9A1.63,1.63,0,0,1,54.9,51a1.24,1.24,0,0,1,.3.64,1.4,1.4,0,0,0,.71.73,3.26,3.26,0,0,0,3.29-.2,1.47,1.47,0,0,0,.09-1.24,3.32,3.32,0,0,0-1.82-.83,15.48,15.48,0,0,1-2.3-.63A2.47,2.47,0,0,1,53.72,48a2.36,2.36,0,0,1,1.24-3A5,5,0,0,1,59.29,45a2.45,2.45,0,0,1,1.46,2.45,3.34,3.34,0,0,1-1.46.09,1.93,1.93,0,0,0-1.6-1.42,2.33,2.33,0,0,0-2.11.48,1.09,1.09,0,0,0,0,1.05l0.16,0.12a5.49,5.49,0,0,0,2.15.71,10.71,10.71,0,0,1,1.79.52A2.47,2.47,0,0,1,60.3,53.26Zm9.86,0.53a1.84,1.84,0,0,1-1.37.07,1.54,1.54,0,0,1-.27-0.77,0.33,0.33,0,0,0-.16,0,3.59,3.59,0,0,1-3.55.93,2.53,2.53,0,0,1-2.12-2.36c0-.41,0-0.83,0-1.25q0-2.24,0-4.48a2.2,2.2,0,0,1,.11-1.06,2.13,2.13,0,0,1,1.32,0,1.12,1.12,0,0,1,.18.85c0,1.39,0,2.78,0,4.16,0,0.24,0,.49,0,0.73,0,1.18.41,1.79,1.27,2a2.46,2.46,0,0,0,2.61-1.07,3.06,3.06,0,0,0,.39-1.6c0-1.32,0-2.64,0-4,0-.34,0-0.68,0-1.1a3.14,3.14,0,0,1,1.55,0A72.7,72.7,0,0,1,70.16,53.79Zm6.91-7.62a3.18,3.18,0,0,1-1.12.31,2.26,2.26,0,0,0-1.87,1.74,5.48,5.48,0,0,0-.25,1.64c0,1,0,1.94,0,2.91,0,0.34,0,.69,0,1a2.12,2.12,0,0,1-1.42.14,0.63,0.63,0,0,1-.28-0.59q0-4.06,0-8.12a1.72,1.72,0,0,1,.1-0.37,3.84,3.84,0,0,1,1.29-.06,0.73,0.73,0,0,1,.25.65c0,0.21,0,.41,0,0.78,0.89-1.08,1.82-1.81,3.22-1.59A3,3,0,0,1,77.07,46.17Zm8.52,3.7c-2.19,0-4.32,0-6.44,0a2.15,2.15,0,0,0,1.64,2.63A2.35,2.35,0,0,0,83.89,51,2.27,2.27,0,0,1,85.47,51a3.3,3.3,0,0,1-1.92,2.76,4.29,4.29,0,0,1-6.16-2.81,5.39,5.39,0,0,1,.7-4.57A4,4,0,0,1,82,44.58,3.7,3.7,0,0,1,85.11,47,5,5,0,0,1,85.59,49.87Zm13.59,4A3.76,3.76,0,0,1,98.29,55l-1.86-1.41a7.51,7.51,0,0,1-3.21.65,5.43,5.43,0,0,1-5.14-3.44,7.41,7.41,0,0,1,.49-7.17,5.48,5.48,0,0,1,5.36-2.54,5.41,5.41,0,0,1,4.94,3.58,7.46,7.46,0,0,1-.85,7.5l-0.26.38C98.16,53.09,98.76,53.31,99.18,53.84Zm9.42-.06a1.64,1.64,0,0,1-1.36.06,4.22,4.22,0,0,1-.2-1,3.59,3.59,0,0,1-3.46,1.24,2.74,2.74,0,0,1-2.49-2.75c0-.31,0-0.62,0-0.94,0-1.49,0-3,0-4.48a1.88,1.88,0,0,1,.15-1.09,3.4,3.4,0,0,1,1.35,0,1,1,0,0,1,.21.89c0,1.63,0,3.26,0,4.89,0,1.24.28,1.7,1.14,2a2.44,2.44,0,0,0,2.64-1,2.73,2.73,0,0,0,.38-1.49c0-1.35,0-2.71,0-4.06a1.93,1.93,0,0,1,.18-1.17,2.45,2.45,0,0,1,1.34,0A67.87,67.87,0,0,1,108.59,53.78Zm10.13,0c-1.25.63-1.79,0.48-2.49-.77A4.5,4.5,0,0,1,114,54.1a4,4,0,0,1-2.24-.25,2.23,2.23,0,0,1-1.49-2.07,2.44,2.44,0,0,1,1.25-2.54,8.83,8.83,0,0,1,2.7-.72l1.23-.22a0.92,0.92,0,0,0,.83-0.8,1.29,1.29,0,0,0-.69-1.19,2.92,2.92,0,0,0-1.84-.16,2,2,0,0,0-1.22.6l-0.38.95a3.61,3.61,0,0,1-1.5,0,2.49,2.49,0,0,1,1.31-2.51,5.17,5.17,0,0,1,4.62-.24A2,2,0,0,1,117.86,47c0,1.46,0,2.92,0,4.38a2,2,0,0,0,.25,1.28,1,1,0,0,1,.66.21A1.24,1.24,0,0,1,118.72,53.8Zm2.92,0A0.85,0.85,0,0,1,121,54c-0.24,0-.48,0-0.67,0l-0.12-.11a0.17,0.17,0,0,1-.06-0.08c-0.13-3.78,0-7.56-.06-11.33a1.83,1.83,0,0,1,.13-0.92,3,3,0,0,1,1.42,0C121.81,42.27,121.84,52.82,121.65,53.83Zm3.79,0a2.27,2.27,0,0,1-1.41,0,1.26,1.26,0,0,1-.15-0.39q0-4,0-8a0.93,0.93,0,0,1,.2-0.64,2.61,2.61,0,0,1,1.34,0A67.33,67.33,0,0,1,125.43,53.87ZM130,52.14c0.39,0.54,1.05.15,1.58,0.45a3.82,3.82,0,0,1,.05,1.23,3.87,3.87,0,0,1-2.64-.13,1.06,1.06,0,0,1-.59-0.69,3.38,3.38,0,0,1-.18-1.22q0-2.18,0-4.37a2.57,2.57,0,0,0-.1-1.07l-1.22-.08a2.27,2.27,0,0,1-.16-1.26c0.45-.4.95-0.1,1.45-0.35V42.27a2.45,2.45,0,0,1,1.65-.13,24.22,24.22,0,0,1,.13,2.49c0.46,0.32,1,0,1.56.26a1.9,1.9,0,0,1,.06,1.25c-0.49.32-1,0-1.52,0.22A35.55,35.55,0,0,0,130,52.14Zm10.42-6.46q-1.81,4.71-3.61,9.42a5.16,5.16,0,0,1-.84,1.55,2.22,2.22,0,0,1-2.92.55,2.7,2.7,0,0,1,0-1.25,0.89,0.89,0,0,1,.76.1c1.43-.28,1.37-1.46,1.84-2.25L132.13,45a3.21,3.21,0,0,1,1.84-.11l2.53,7,2.43-7a3.73,3.73,0,0,1,1.62,0A1.16,1.16,0,0,1,140.4,45.68Z" style="fill:#244876"/><path d="M93.57,42.7a3.84,3.84,0,0,0-3.88,2.69,6.51,6.51,0,0,0,0,4.48,3.83,3.83,0,0,0,3.73,2.78A4,4,0,0,0,97.3,49.8a8.12,8.12,0,0,0,0-4.3A3.91,3.91,0,0,0,93.57,42.7Z" style="fill:#244876"/><path d="M45.44,48.55c1.3,0,2.48.05,3.8,0l-1.87-5.24Z" style="fill:#244876"/><path d="M114,49.87a3.34,3.34,0,0,0-1.38.42A1.2,1.2,0,0,0,112,51.5a1.11,1.11,0,0,0,.87,1,2.49,2.49,0,0,0,3.38-2.34c0-.2,0-0.41,0-0.74A12.09,12.09,0,0,1,114,49.87Z" style="fill:#244876"/><path d="M81.46,46.1a2.27,2.27,0,0,0-2.4,2.15,18.42,18.42,0,0,0,4.68-.06A2.25,2.25,0,0,0,81.46,46.1Z" style="fill:#244876"/></svg>