<svg xmlns="http://www.w3.org/2000/svg" viewBox="0 0 120 120"><defs><style>.a{fill:#fff;}.b{fill:#ec261a;}.c{fill:#00b0b8;}</style></defs><title>guarantee-icon</title><circle class="a" cx="60" cy="60" r="58.6026"/><path class="b" d="M60,120a60,60,0,1,1,60-60A60.0677,60.0677,0,0,1,60,120ZM60,2.7949A57.2051,57.2051,0,1,0,117.2049,60,57.2694,57.2694,0,0,0,60,2.7949Z"/><path class="c" d="M60,43.2884A16.2931,16.2931,0,1,0,76.2931,59.5815,16.291,16.291,0,0,0,60,43.2884Zm0,27.9311A11.6379,11.6379,0,1,1,71.6379,59.5815,11.6371,11.6371,0,0,1,60,71.2194Z"/><path class="c" d="M41.3793,61c0-.4524.0208-1.0417,0.0565-1.4632A0.4965,0.4965,0,0,0,40.9376,59H33.0263a0.5135,0.5135,0,0,0-.4466.263C31.302,61.63,32.6136,63,34.3965,63h6.5411a0.4965,0.4965,0,0,0,.4981-0.5368C41.4,62.0417,41.3793,61.4524,41.3793,61Z"/><path class="c" d="M44.9053,47.778a0.4985,0.4985,0,0,0,.7416-0.0426,16.27,16.27,0,0,1,2.5087-2.5067,0.4986,0.4986,0,0,0,.0417-0.7412L43.5409,39.831a2.3274,2.3274,0,0,0-3.2914,3.2914Z"/><path class="c" d="M63,40.52V32.6091a0.5136,0.5136,0,0,0-.2625-0.4464C60.3705,30.8811,59,32.198,59,33.978v6.54a0.4965,0.4965,0,0,0,.5365.4982c0.4215-.0355,1.0109-0.0556,1.4635-0.0556s1.0407,0.02,1.4621.057A0.4965,0.4965,0,0,0,63,40.52Z"/><path class="c" d="M75.1161,47.7545L80.4,42.47a0.524,0.524,0,0,0,.153-0.3546c0.05-2.93-2.6908-3.6833-4.0967-2.2846L71.803,44.4871a0.4988,0.4988,0,0,0,.0428.7415,17.2843,17.2843,0,0,1,1.32,1.1853c0.3484,0.347.8808,0.9156,1.2182,1.3127A0.4971,0.4971,0,0,0,75.1161,47.7545Z"/><path class="c" d="M85.6035,57.2539l-6.5894.0021a0.4953,0.4953,0,0,0-.4975.5373c0.0642,0.75.1041,1.7068,0.1041,2.3336,0,0.54-.03,1.67-0.079,2.3406A0.4967,0.4967,0,0,0,79.04,63h6.5633c1.2864,0,2.3276-1.5819,2.3276-2.8731C87.9311,58.8449,86.8878,57.2562,85.6035,57.2539Z"/><path class="c" d="M75.0921,71.3843a0.4987,0.4987,0,0,0-.7413.0422,17.2987,17.2987,0,0,1-1.1852,1.3226c-0.3471.35-.9147,0.881-1.3112,1.2178a0.4971,0.4971,0,0,0-.028.7323l4.63,4.6328A2.3282,2.3282,0,0,0,79.75,76.0406Z"/><path class="c" d="M59,78.6439v7.899a0.514,0.514,0,0,0,.2586.4444c2.3568,1.3046,3.7414-.02,3.7414-1.8V78.6444a0.4965,0.4965,0,0,0-.5379-0.498c-0.4214.0367-1.01,0.0582-1.4621,0.0582-0.4542,0-1.0417-.0222-1.4622-0.0587A0.4965,0.4965,0,0,0,59,78.6439Z"/><path class="c" d="M44.8822,71.408l-5.2594,5.2592a0.5259,0.5259,0,0,0-.1529.3446c-0.1145,2.9552,2.6675,3.7286,4.0687,2.32l4.6351-4.631a0.497,0.497,0,0,0-.0281-0.7327c-0.3984-.3378-0.9681-0.8715-1.3156-1.2191s-0.8786-.9163-1.2153-1.3129A0.4971,0.4971,0,0,0,44.8822,71.408Z"/><path class="c" d="M60,50.7891V52.12a0.5012,0.5012,0,0,0,.4818.4934c4.1676,0.2582,6.3313,3.8713,6.4914,7.9019A0.4965,0.4965,0,0,0,67.4663,61h1.33a0.51,0.51,0,0,0,.5066-0.5192c-0.1775-6.2839-3.5929-9.9686-8.782-10.1983A0.5071,0.5071,0,0,0,60,50.7891Z"/></svg>