<svg xmlns="http://www.w3.org/2000/svg" viewBox="0 0 120 120"><defs><style>.a{fill:#fff;}.b{fill:#ec261a;}.c{fill:#00b0b8;}</style></defs><title>guarantee-icon</title><circle class="a" cx="59.9998" cy="59.9999" r="58.6026"/><path class="b" d="M60,120a60,60,0,1,1,60-60A60.0677,60.0677,0,0,1,60,120ZM60,2.7949A57.2051,57.2051,0,1,0,117.2049,60,57.2694,57.2694,0,0,0,60,2.7949Z"/><path class="c" d="M45.8983,53.4607C36.6565,60.392,32.0356,65.4438,32.0356,73.1a13.8627,13.8627,0,1,0,27.7254,0C59.761,65.4438,52.83,60.392,45.8983,53.4607Zm0,28.8806A9.2422,9.2422,0,0,1,36.6565,73.1c0-5.1038,2.31-6.9314,9.2418-13.8627C52.83,66.1682,55.14,67.9957,55.14,73.1A9.2422,9.2422,0,0,1,45.8983,82.3413Z"/><path class="c" d="M47.8118,79.9688c2.4663-.4954,4.774-3.8731,5-7.1721a0.501,0.501,0,0,0-.5055-0.5227H50.9939a0.5065,0.5065,0,0,0-.4972.4744,6.7353,6.7353,0,0,1-2.9881,4.8994,0.4906,0.4906,0,0,0-.309.4564v1.37A0.5086,0.5086,0,0,0,47.8118,79.9688Z"/><path class="c" d="M73.6237,32.6666C64.3819,39.598,59.761,44.65,59.761,52.3054a13.8627,13.8627,0,1,0,27.7254,0C87.4864,44.65,80.555,39.598,73.6237,32.6666Zm0,28.8806a9.2422,9.2422,0,0,1-9.2418-9.2418c0-5.1038,2.31-6.9314,9.2418-13.8627,6.9314,6.9314,9.2418,8.7589,9.2418,13.8627A9.2422,9.2422,0,0,1,73.6237,61.5473Z"/><path class="c" d="M75.7534,59.1838c2.47-.4329,4.5135-3.436,4.7737-5.9487a0.4925,0.4925,0,0,0-.5-0.5267H78.6865a0.5026,0.5026,0,0,0-.4913.4136c-0.2281,1.1475-1.231,3.4269-2.6826,3.7627a0.4825,0.4825,0,0,0-.3621.4762v1.3275A0.5091,0.5091,0,0,0,75.7534,59.1838Z"/></svg>