<svg xmlns="http://www.w3.org/2000/svg" viewBox="0 0 120 120"><defs><style>.a{fill:#fff;}.b{fill:#ec261a;}.c{fill:#00b0b8;}</style></defs><title>guarantee-icon</title><circle class="a" cx="59.6875" cy="60" r="58.6026"/><path class="b" d="M60,120a60,60,0,1,1,60-60A60.0675,60.0675,0,0,1,60,120ZM60,2.795A57.205,57.205,0,1,0,117.2049,60,57.2694,57.2694,0,0,0,60,2.795Z"/><path class="c" d="M58.2959,79H32.5a0.5015,0.5015,0,0,0-.5.5v4a0.5,0.5,0,0,0,.5.5h56a0.5,0.5,0,0,0,.5-0.5v-4a0.5,0.5,0,0,0-.5-0.5H58.2959Z"/><path class="c" d="M63.7239,73H80.6922a0.4027,0.4027,0,0,0,.3277-0.6367L72.19,60H76.082a0.4027,0.4027,0,0,0,.3356-0.6252L67.5475,46h3.86a0.4027,0.4027,0,0,0,.3277-0.6367L60.9522,30.2672a0.4525,0.4525,0,0,0-.7365,0L49.4328,45.3633A0.4027,0.4027,0,0,0,49.76,46h3.86L44.75,59.3748A0.4027,0.4027,0,0,0,45.0859,60H48.978l-8.83,12.3633A0.4027,0.4027,0,0,0,40.4757,73H57.1278a0.2387,0.2387,0,0,0,.2367-0.2077L57.564,71.27A0.2387,0.2387,0,0,0,57.3273,71H45.4114a0.1992,0.1992,0,0,1-.164-0.3124l7.928-11.4833A0.13,0.13,0,0,0,53.0683,59H49.0453a0.1992,0.1992,0,0,1-.166-0.3093l8.9454-13.4884A0.13,0.13,0,0,0,57.7162,45H53.489l6.7227-9.4119a0.4575,0.4575,0,0,1,.7445,0L67.6789,45H63.4517a0.13,0.13,0,0,0-.1086.2023l8.9454,13.4884a0.1992,0.1992,0,0,1-.166.3093H68.1a0.13,0.13,0,0,0-.1072.2043L75.92,70.6876a0.1992,0.1992,0,0,1-.164.3124H63.5576a0.2387,0.2387,0,0,0-.2373.2647l0.1662,1.5225A0.2387,0.2387,0,0,0,63.7239,73Z"/><path class="c" d="M60.0787,47.6592L57.9645,76.0079a0.5,0.5,0,0,0,.4986.5372h3.9724a0.5,0.5,0,0,0,.4989-0.5327L61.0762,47.6637A0.5,0.5,0,0,0,60.0787,47.6592Z"/></svg>