<svg xmlns="http://www.w3.org/2000/svg" viewBox="0 0 120 120"><defs><style>.a{fill:#fff;}.b{fill:#ec261a;}.c{fill:#00b0b8;}</style></defs><title>guarantee-icon</title><circle class="a" cx="60" cy="59.9999" r="58.6026"/><path class="b" d="M60,120a60,60,0,1,1,60-60A60.0677,60.0677,0,0,1,60,120ZM60,2.7949A57.2051,57.2051,0,1,0,117.2049,60,57.2694,57.2694,0,0,0,60,2.7949Z"/><path class="c" d="M60,32.7908c-10.2035,2.2674-21.5406,20.98-21.5406,32.8778a21.5406,21.5406,0,1,0,43.0812,0C81.5406,53.7711,70.2035,35.0582,60,32.7908Zm0,49.8835A17.0044,17.0044,0,0,1,42.9942,65.6686c0-9.3931,9.07-23.8081,17.0058-28.3429,7.936,4.5349,17.0058,18.95,17.0058,28.3429A17.0044,17.0044,0,0,1,60,82.6743Z"/><path class="c" d="M68.6626,60.7773L60.55,68.6V60.4251L65.731,55.58a1.1427,1.1427,0,0,0,.146-1.6053,1.4158,1.4158,0,0,0-1.8223,0L60.55,57.2632V45.2617c0-.6267.1608-1.1337-0.4658-1.1337s-0.4658.507-.4658,1.1337V57.2632l-3.6619-3.286a1.3759,1.3759,0,0,0-1.7933,0,1.1723,1.1723,0,0,0,.2819,1.6031l5.1733,4.8448V68.6L51.4213,60.78a1.3759,1.3759,0,0,0-1.7933,0,1.1723,1.1723,0,0,0,.2819,1.6031l9.7082,9.3443v5.2788c0,0.6267-.1609,1.1337.4658,1.1337s0.4658-.507.4658-1.1337V71.7269l9.716-9.3443A1.1344,1.1344,0,0,0,68.6626,60.7773Z"/></svg>