<svg id="Layer_1" data-name="Layer 1" xmlns="http://www.w3.org/2000/svg" viewBox="0 0 150 150"><defs><style>.cls-1{fill:#86888b;}.cls-2{fill:#c5c6c7;}.cls-3{fill:#002c44;}.cls-4{fill:#e9261a;}.cls-5{fill:#00a6ad;}</style></defs><title>home_workplace_icon</title><rect class="cls-1" x="62.45" y="83.81" width="25.57" height="3.72"/><rect class="cls-1" x="70.7" y="72.58" width="9.07" height="3.72"/><path class="cls-2" d="M36.5,131c6.45,4.56,19.24,11.37,38.09,11.37,20.14,0,34-7.66,40.3-12.08l2.16,5.94c-5.13,3.36-21.22,12.67-41.89,12.67-18.92,0-34.15-8.2-40.58-12.3Z" transform="translate(0 -0.0001)"/><path class="cls-3" d="M114.7,136.16l-12.21-39.8c-0.72-2.73-3-8.24-5.68-8.24H88a1.47,1.47,0,0,1-1.46-1.47V77.13H79.63a1.46,1.46,0,0,1-1.46-1.46v-17a1.47,1.47,0,0,1,1.45-1.46C85.79,57.14,91.19,57,91.9,57c1-.12,8.42-0.66,13.18,7.65H106c-1.18-3.33-4.83-10.25-14.83-10.25-14.24,0-28.83-1.62-29-1.64a32.16,32.16,0,0,1-8.13-2.42l-0.15-.08v0.19a6.26,6.26,0,0,0,.84,3.7l0.11,0.17c0,0.07,1.42,2.22,5.72,2.69,0.87,0.1,3.4.22,10.24,0.21h0a1.46,1.46,0,0,1,1.46,1.46v17a1.46,1.46,0,0,1-1.46,1.46H63.91v9.52a1.47,1.47,0,0,1-1.46,1.47H54.33c-2.64,0-5,5.52-5.66,8.19L36.44,136.16l-2.8-.86L45.85,95.5c0.26-1,2.87-10.31,8.48-10.31H61V75.67a1.46,1.46,0,0,1,1.46-1.46h6.92v-14c-4.85,0-7.83-.08-9.1-0.22-5.35-.59-7.48-3.42-7.88-4A9.06,9.06,0,0,1,51,50.34a3,3,0,0,1,1.69-2.79,2.7,2.7,0,0,1,2.84.26,30,30,0,0,0,7.08,2.07c0.09,0,14.52,1.61,28.59,1.61,8,0,12.55,3.91,14.94,7.19a19.44,19.44,0,0,1,3.27,7.19A1.46,1.46,0,0,1,108,67.61h-3.74a1.46,1.46,0,0,1-1.3-.79c-4-7.7-10.43-6.91-10.7-6.87-0.06,0-9.11.17-11.11,0.17V74.2H88a1.46,1.46,0,0,1,1.46,1.46v9.52h7.32c5.61,0,8.22,9.31,8.5,10.37L117.5,135.3Z" transform="translate(0 -0.0001)"/><path class="cls-4" d="M75,150a75,75,0,1,1,75-75A75,75,0,0,1,75,150ZM75,2.93A72.07,72.07,0,1,0,147.07,75,72.07,72.07,0,0,0,75,2.93Z" transform="translate(0 -0.0001)"/><path class="cls-3" d="M88,88.2H62.45a0.67,0.67,0,0,1-.67-0.67V76.64A0.67,0.67,0,0,1,62.45,76H88a0.67,0.67,0,0,1,.67.67V87.53A0.67,0.67,0,0,1,88,88.2ZM63.1,86.86H87.35V77.31H63.12v9.55H63.1Z" transform="translate(0 -0.0001)"/><path class="cls-3" d="M79.63,77.24h-8.8a0.67,0.67,0,0,1-.67-0.67V57.72a0.67,0.67,0,0,1,.67-0.67h8.8a0.67,0.67,0,0,1,.67.67V76.58A0.67,0.67,0,0,1,79.63,77.24ZM71.5,75.91H79V58.38H71.5V75.91Z" transform="translate(0 -0.0001)"/><rect class="cls-5" x="70.52" y="106.51" width="9.93" height="25.23"/><rect class="cls-5" x="62.87" y="114.16" width="25.23" height="9.93"/></svg>