<svg id="Layer_1" data-name="Layer 1" xmlns="http://www.w3.org/2000/svg" viewBox="0 0 150 150"><defs><style>.cls-1{fill:#c5c6c7;}.cls-2{fill:#00a6ad;}.cls-3{fill:#86888b;}.cls-4{fill:#fff;}.cls-5{fill:#002c44;}.cls-6{fill:#e9261a;}</style></defs><title>home_linen_icon_red</title><path class="cls-1" d="M32.9,159.1324v-7.57s10,12.17,19.53,17.68l2,5.75-3.87-.15S36.56,165.4724,32.9,159.1324Z" transform="translate(-15 -38.2924)"/><path class="cls-1" d="M52.43,169.2924c6.45,4.56,19.24,11.37,38.09,11.37a74.32,74.32,0,0,0,21.82-3.2l0.19,6.48a74.19,74.19,0,0,1-21.44,3.26c-18.92,0-34.15-8.2-40.58-12.3Z" transform="translate(-15 -38.2924)"/><rect class="cls-2" x="43.78" y="104.8901" width="78.45" height="6.51"/><rect class="cls-2" x="43.78" y="92.8401" width="78.78" height="6.51"/><polygon class="cls-3" points="43.45 70.38 18.88 70.87 18.39 77.54 43.45 77.54 43.45 70.38"/><path class="cls-3" d="M38.92,98.2924s7.81-7.16,15.3.33C54.22,98.5824,38.92,97.9324,38.92,98.2924Z" transform="translate(-15 -38.2924)"/><path class="cls-4" d="M137.23,108.6724h26s0.33-6.19-1.63-10.09h-28" transform="translate(-15 -38.2924)"/><path class="cls-5" d="M163.28,109.2924h-26v-1.29h25.39c0-1.58-.07-5.78-1.4-8.75H133.65v-1.34h28a0.67,0.67,0,0,1,.6.37c2,4,1.71,10.17,1.7,10.43A0.67,0.67,0,0,1,163.28,109.2924Z" transform="translate(-15 -38.2924)"/><path class="cls-5" d="M33.73,160.2924H32.39v-43.48c0-.51-0.12-12.84,6-19a11.31,11.31,0,0,1,8.34-3.52h78.78a10.6,10.6,0,0,1,8.17,3.45c5.61,6.15,4.59,18.25,4.54,18.76v41.28a0.67,0.67,0,0,1-.67.67H58.78a0.67,0.67,0,0,1-.67-0.67v-41.3c0-.18,1-12.09-4.19-17.8a9.31,9.31,0,0,0-7.18-3,10,10,0,0,0-7.4,3c-5.72,5.8-5.61,18-5.61,18.1v43.51Zm25.72-3.11h77.4v-40.68c0-.18,1-12.09-4.19-17.8a9.32,9.32,0,0,0-7.18-3H52.25a10.48,10.48,0,0,1,2.66,2.12c5.61,6.15,4.59,18.25,4.54,18.76v40.6Z" transform="translate(-15 -38.2924)"/><rect class="cls-5" x="96.17" y="119.8601" width="1.34" height="25.39"/><path class="cls-4" d="M17.11,108.6724H58.45s-0.33-8.14-4.23-10.09H18.41" transform="translate(-15 -38.2924)"/><path class="cls-5" d="M58.45,109.2924H17.11v-1.29H57.73c-0.18-1.91-.91-7.22-3.68-8.75H18.41v-1.34H54.22a0.67,0.67,0,0,1,.3.07c4.21,2.11,4.59,10.31,4.6,10.66A0.67,0.67,0,0,1,58.45,109.2924Z" transform="translate(-15 -38.2924)"/><path class="cls-5" d="M161.65,99.2324h-28a1.47,1.47,0,0,1-1.13-.53,10,10,0,0,0-7-3.38H48c-6.05,0-7.75,3-7.82,3.12a1.5,1.5,0,0,1-1.3.79H18.41v-2.94H38.15c1.07-1.34,3.85-3.9,9.85-3.9h77.48a13,13,0,0,1,8.8,3.91h27.34v2.93h0.03Z" transform="translate(-15 -38.2924)"/><path class="cls-5" d="M34.36,161.0824l-2.93-1.42v-43.83a29.65,29.65,0,0,1,.45-5.21H17.11v-2.93H33.88a1.46,1.46,0,0,1,1.29,2.17c-0.55,1-.8,4.1-0.8,6v45.25Z" transform="translate(-15 -38.2924)"/><path class="cls-1" d="M23.54,99.2324a16.73,16.73,0,0,0-1.22,8.5H16.79s-1-4.8,1-8.55h5.75v0.05Z" transform="translate(-15 -38.2924)"/><path class="cls-1" d="M156.68,99.2324a16.73,16.73,0,0,1,1.22,8.5h5.53s1-4.8-1-8.55h-5.78Z" transform="translate(-15 -38.2924)"/><path class="cls-5" d="M113.79,182.8924h-2.93v-23.76a1.47,1.47,0,0,1,1.46-1.46h24.25v-49a1.46,1.46,0,0,1,1.43-1.47h25.23v2.93H139.51v48.87a1.47,1.47,0,0,1-1.11,1.42l-0.49.12a1.44,1.44,0,0,1-.36,0H113.79v22.35Z" transform="translate(-15 -38.2924)"/><path class="cls-6" d="M90,188.2924a75,75,0,1,1,75-75A75,75,0,0,1,90,188.2924Zm0-147.07a72.07,72.07,0,1,0,72.07,72.07A72.07,72.07,0,0,0,90,41.2224h0Z" transform="translate(-15 -38.2924)"/></svg>