<svg id="Layer_1" data-name="Layer 1" xmlns="http://www.w3.org/2000/svg" viewBox="0 0 150 150"><defs><style>.cls-1{fill:#c5c6c7;}.cls-2{fill:#002c44;}.cls-3{fill:#86888b;}.cls-4{fill:#fff;}.cls-5{fill:#00a6ad;}.cls-6{fill:#e9261a;}</style></defs><title>home_workwear_icon_red</title><path class="cls-1" d="M1.89,83.13s1.33,15.44,9.41,28.74l3.38-3.24S7.39,95.18,6.58,79.45Z" transform="translate(0 -0.0001)"/><path class="cls-1" d="M148,83.13s-1.33,15.44-9.41,28.74l-3.38-3.24s7.3-13.46,8.11-29.18Z" transform="translate(0 -0.0001)"/><path class="cls-2" d="M2.3,83.59l-0.82-.91L26,60.74a16.25,16.25,0,0,1,11-5.68l12-1,0.1,1.22-12,1A15.26,15.26,0,0,0,27,61.53l-0.08.08Z" transform="translate(0 -0.0001)"/><path class="cls-2" d="M147.35,83.59l-24.58-22-0.08-.08a15.27,15.27,0,0,0-10.1-5.26l-12-1,0.1-1.22,12,1a16.25,16.25,0,0,1,10.93,5.68l24.54,21.94Z" transform="translate(0 -0.0001)"/><path class="cls-3" d="M60.23,82.1c6.8,5.77,12.16,5.42,12.16,5.42L64.83,76.75Z" transform="translate(0 -0.0001)"/><path class="cls-3" d="M88.93,82.1c-6.8,5.77-12.16,5.42-12.16,5.42l7.56-10.78Z" transform="translate(0 -0.0001)"/><path class="cls-1" d="M31.63,126.71S46.22,142,74.43,142s44-15.08,44-15.08v7.78s-18.32,13.8-43.45,13.8S31.29,134,31.29,134Z" transform="translate(0 -0.0001)"/><path class="cls-2" d="M73.93,148.23H72.7V94.05a17.65,17.65,0,0,0-.85-6.22l-7.08-10L57.45,86a0.56,0.56,0,0,1-.47.2,0.61,0.61,0,0,1-.45-0.2,36.75,36.75,0,0,1-9.09-21.68,27.54,27.54,0,0,1,1-9.81,0.61,0.61,0,0,1,.24-0.31l12-7.83,0.67,1L49.55,55.1a27.77,27.77,0,0,0-.88,9.21A35.39,35.39,0,0,0,57,84.67l7.36-8.26a0.6,0.6,0,0,1,.49-0.2,0.61,0.61,0,0,1,.47.26l7.56,10.71,0.06,0.1a18.2545,18.2545,0,0,1,1,6.78v54.18Z" transform="translate(0 -0.0001)"/><rect class="cls-2" x="75.28" y="94.05" width="1.23" height="54.18"/><path class="cls-2" d="M76.51,94.05H75.28a20.09,20.09,0,0,1,.83-6.4,0.61,0.61,0,0,1,.1-0.47l7.56-10.71a0.61,0.61,0,0,1,.47-0.26,0.6,0.6,0,0,1,.49.2l7.36,8.26c11.53-14.11,7.63-28.19,7.07-30L88.43,47.8l0.66-1,10.91,7a0.61,0.61,0,0,1,.25.31c0.06,0.16,5.64,16.17-7.67,31.92a0.61,0.61,0,0,1-.46.22,0.58,0.58,0,0,1-.47-0.2L84.33,77.8l-6.91,9.78a0.62,0.62,0,0,1-.05.2A17,17,0,0,0,76.51,94.05Z" transform="translate(0 -0.0001)"/><rect class="cls-4" x="72.13" y="90.45" width="4.84" height="6.18"/><path class="cls-2" d="M77,97.24H72.13a0.61,0.61,0,0,1-.61-0.61h0V90.45a0.61,0.61,0,0,1,.61-0.61H77a0.61,0.61,0,0,1,.61.61h0v6.18a0.61,0.61,0,0,1-.61.61h0ZM72.74,96h3.61V91H72.74v5Z" transform="translate(0 -0.0001)"/><rect class="cls-2" x="73.31" y="98.49" width="2.68" height="1.23"/><rect class="cls-2" x="73.31" y="102.39" width="2.68" height="1.23"/><rect class="cls-2" x="73.31" y="106.3" width="2.68" height="1.23"/><rect class="cls-2" x="73.31" y="110.2" width="2.68" height="1.23"/><rect class="cls-2" x="73.31" y="114.11" width="2.68" height="1.23"/><rect class="cls-2" x="73.31" y="118.01" width="2.68" height="1.23"/><rect class="cls-2" x="73.31" y="121.92" width="2.68" height="1.23"/><rect class="cls-2" x="73.31" y="125.83" width="2.68" height="1.23"/><rect class="cls-2" x="73.31" y="129.73" width="2.68" height="1.23"/><rect class="cls-2" x="73.31" y="133.64" width="2.68" height="1.23"/><rect class="cls-2" x="73.31" y="137.54" width="2.68" height="1.23"/><rect class="cls-2" x="73.31" y="141.45" width="2.68" height="1.23"/><rect class="cls-2" x="73.31" y="145.35" width="2.68" height="1.23"/><path class="cls-2" d="M57.18,57.53l-1-.7c0.15-.23,3.81-5.51,18.51-5.54h0.13c14.7,0,18.36,5.31,18.51,5.54l-1,.7s-3.55-5-17.53-5S57.21,57.48,57.18,57.53Z" transform="translate(0 -0.0001)"/><path class="cls-2" d="M32.75,134H29.83V106.4c0.07-2-.41-5-1.67-5.55a3,3,0,0,0-2.75.4L12.28,113l-1.94-2.18L23.52,99a6,6,0,0,1,5.75-.88c3.64,1.49,3.51,7.62,3.48,8.31V134Z" transform="translate(0 -0.0001)"/><path class="cls-2" d="M119.69,134h-2.92V106.4c0-.64-0.16-6.76,3.48-8.25a6,6,0,0,1,5.68.82l13.25,11.8L137.24,113,124.1,101.3a3,3,0,0,0-2.75-.4c-1.26.52-1.74,3.58-1.67,5.49V134h0.01Z" transform="translate(0 -0.0001)"/><polygon class="cls-5" points="107.42 123.66 97.32 127.44 86.35 123.66 86.35 107.45 107.42 107.45 107.42 123.66"/><path class="cls-2" d="M146.83,84.11L122.21,62.25a20.46,20.46,0,0,0-9.74-5.13l-12-1a1.46,1.46,0,0,1-.66-0.22l-11.8-7.38a29.24,29.24,0,0,0-11.67-2.7,72.78,72.78,0,0,0-13.46,1.56l-13.1,8.51a1.45,1.45,0,0,1-.68.23l-11.93,1c-0.73.16-7.05,1.6-10.36,5.74L26.69,63l-23,20.75-2-2.17L24.65,60.94c4.2-5.15,11.76-6.64,12.08-6.7h0.16l11.65-.93,13-8.45a1.45,1.45,0,0,1,.47-0.2,75,75,0,0,1,14.35-1.68,31.68,31.68,0,0,1,13,3l0.11,0.06,11.55,7.23,11.67,0.93h0.1a23.09,23.09,0,0,1,11.32,5.87L148.7,81.9Z" transform="translate(0 -0.0001)"/><path class="cls-6" d="M75,150a75,75,0,1,1,75-75A75,75,0,0,1,75,150ZM75,2.92A72.08,72.08,0,1,0,147.08,75h0A72.16,72.16,0,0,0,75,2.92Z" transform="translate(0 -0.0001)"/><rect class="cls-5" x="86.35" y="101.2" width="21.07" height="6.82"/><path class="cls-2" d="M84.69,77.33l-0.4-1.16s5-1.94,7.1-12.38c1.39-7.08.95-11.54-1.45-14.45S83.11,45,76.39,45H72.93c-6.72,0-11.16,1.41-13.55,4.32s-2.84,7.37-1.45,14.45C60,74.31,65,76.15,65,76.17l-0.4,1.16c-0.23-.08-5.69-2.1-7.9-13.3-1-5-1.69-11.34,1.7-15.46,2.64-3.21,7.38-4.77,14.5-4.77h3.45c7.11,0,11.86,1.56,14.5,4.77C94.28,52.69,93.58,59,92.59,64,90.38,75.23,84.92,77.25,84.69,77.33Z" transform="translate(0 -0.0001)"/></svg>