<svg id="Layer_1" data-name="Layer 1" xmlns="http://www.w3.org/2000/svg" viewBox="0 0 150 150"><title>homepage_icons</title><circle cx="78.15" cy="100.39" r="4.51" transform="translate(-47.46 120.56) rotate(-61.22)" style="fill:#00a6ad"/><polygon points="30.34 132.68 34 127.92 39.74 131.46 39.2 134.58 34.62 136.72 30.34 132.68" style="fill:#c5c6c7"/><path d="M39.43,134.6l-0.47,0c0-.16.42-4.06,3.46-10.65,3.25-7.06,17.37-10.38,20.7-10.83,2.26-.3,7,0.09,10.6.48l-0.05.47c-3.56-.38-8.27-0.78-10.49-0.48-4.4.59-17.4,4.18-20.33,10.56S39.44,134.56,39.43,134.6Zm46.15-30.73-0.41-.24,30.6-52.42a125.4,125.4,0,0,0,4.51-12.54c-2.88,2.16-17.05,13.43-36.63,39.65L83.27,78c21.94-29.38,37.13-40,37.28-40.15a0.24,0.24,0,0,1,.27,0,0.24,0.24,0,0,1,.09.25,119.56,119.56,0,0,1-4.71,13.28Z" style="fill:#002c44"/><polygon points="82.46 77.38 84.78 102.4 88.2 97.64 86.49 74.69 82.46 77.38" style="fill:#86888b"/><polygon points="73.55 112.9 70.01 106.8 69.89 98.01 66.59 103.01 66.96 107.77 69.16 113.14 73.55 112.9" style="fill:#86888b"/><polygon points="84.05 147.45 83.32 140.61 88.81 139.03 89.67 146.59 84.05 147.45" style="fill:#c5c6c7"/><path d="M88.45,147.15c0-.11-0.19-11.12-2.14-14.22-0.39-.61-0.81-1.26-1.25-1.93-2.54-3.88-4.18-6.53-3.86-8.1a20.56,20.56,0,0,1,2.12-4.46,20.06,20.06,0,0,0,1.53-3,21.42,21.42,0,0,1,.65-2.15l-1-5.12a0.68,0.68,0,0,1,0-.1c-0.31-6.85-1.11-14.82-1.89-22.53C82.31,82.73,82,80,81.8,77.44,79.58,53.73,76.88,32.75,76,26c-4.22,9.89-4.88,24.23-4.88,24.39l-0.43,56.21,1.86,3.26c0.12,0.19,3.34,5.27,4.05,7.76a0.67,0.67,0,0,1,0,.31c0,0.19-.94,4.74-3.56,6.14-0.47.46-3.32,3.33-3.91,5.68l-1.3-.32c0.73-2.93,4.2-6.25,4.35-6.39a0.68,0.68,0,0,1,.16-0.11c1.67-.83,2.63-3.82,2.91-5.09-0.75-2.37-3.83-7.24-3.86-7.29l-2-3.44a0.67,0.67,0,0,1-.09-0.34l0.43-56.42c0-.71.77-16.93,6-27a0.67,0.67,0,0,1,1.26.22c0,0.25,3.43,25,6.12,53.72,0.24,2.57.51,5.29,0.79,8.06,0.78,7.71,1.58,15.69,1.89,22.56l1,5.26a0.67,0.67,0,0,1,0,.38,18.81,18.81,0,0,0-.67,2.17,18.82,18.82,0,0,1-1.66,3.35,21.08,21.08,0,0,0-2,4.07c-0.23,1.14,2,4.59,3.67,7.1,0.44,0.68.87,1.33,1.26,2,2.15,3.42,2.34,14.45,2.35,14.91Z" style="fill:#002c44"/><polygon points="14.22 115.22 19.96 111.44 22.89 116.2 16.91 120.35 13.61 115.47 14.22 115.22" style="fill:#c5c6c7"/><polygon points="66.72 147.58 67.08 141.22 71.72 141.51 71.96 148.43 66.72 147.58" style="fill:#c5c6c7"/><path d="M85.39,148.73l-2.93-.12,0-.46c0.23-8.64-2.23-16.51-3.33-17.53-1.11-.41-2.61-0.71-3.69,0a3.49,3.49,0,0,0-1.3,2.89,1.34,1.34,0,0,1,0,.14l-1.41,14.78-2.92-.28,1.4-14.71a6.34,6.34,0,0,1,2.56-5.22c1.19-.82,3.28-1.55,6.49-0.33,3,1.15,5.35,12.13,5.13,20.31Zm-6.28-18.15h0ZM68.26,148.67l-2.92-.26L67,129.49a1.48,1.48,0,0,1,0-.23c0.78-3.1,4.19-6.41,4.58-6.77a1.47,1.47,0,0,1,.35-0.25c1.19-.59,2.07-2.82,2.43-4.32a14.56,14.56,0,0,0-1.66-2.76,51.33,51.33,0,0,0-9.43-.4c-4.05.54-16.69,4-19.37,9.85-2.89,6.28-3.3,10.07-3.31,10.11a1.47,1.47,0,0,1-.75,1.14,50.39,50.39,0,0,1-4.73,2.21l-1.12-2.71c1.72-.71,3.07-1.36,3.8-1.74a43.25,43.25,0,0,1,3.44-10.24c3.48-7.57,18.19-11.07,21.65-11.53,1.9-.26,5.52-0.1,10.77.46a1.46,1.46,0,0,1,1,.58,15.92,15.92,0,0,1,2.62,4.53,1.46,1.46,0,0,1,0,.68c-0.1.52-1,5-3.86,6.64-0.95.93-3.08,3.3-3.59,5.13Zm19.39-1.52c0-.08-0.08-8.54-2.15-14.06-0.56-1.5-1.24-3-1.9-4.46-1.53-3.37-2.38-5.35-2.08-6.86a22.6,22.6,0,0,1,1.55-4.09,21.47,21.47,0,0,0,1-2.46c0.23-.92.46-1.63,0.61-2l-0.11-.66a1.31,1.31,0,0,1,0-.17c-0.13-2.79-.29-5.73-0.49-8.75a1.47,1.47,0,0,1,.2-0.83l30.41-52.1c0.26-.62,1.89-4.54,3.25-8.52-5.72,4.84-17.84,16.21-33.38,37a1.46,1.46,0,0,1-2.63-.73c-2.14-20.79-4.9-40.4-6.22-49.41-3.23,9.46-3.77,21.24-3.77,21.37L70.58,98.81a1.46,1.46,0,0,1-.24.76c-0.78,1.2-1.57,2.41-2.36,3.65a1.47,1.47,0,0,1-.4.42l-0.64.44a1.48,1.48,0,0,1-.33.17c-15.71,5.7-22.77,10.24-22.84,10.29a6.45,6.45,0,0,1-6.57,0,37.61,37.61,0,0,0-12-2.9,17.47,17.47,0,0,0-10,5l-2.07-2.07a20.37,20.37,0,0,1,11.78-5.84H25.1a39.2,39.2,0,0,1,13.31,3.16L38.62,112a3.56,3.56,0,0,0,3.54.06c0.3-.19,7.36-4.74,23.26-10.52l0.24-.17,2-3.08,1.32-48c0-.71.78-17.11,6.07-27.33a1.47,1.47,0,0,1,2.75.45c0,0.25,3.75,24.17,6.62,51C105.3,47.1,119.24,37.3,119.85,36.88a1.46,1.46,0,0,1,2.25,1.57,118.22,118.22,0,0,1-4.77,13.45l-0.08.17L87,103.86c0.19,2.85.34,5.63,0.46,8.27l0.16,1a1.47,1.47,0,0,1-.08.78,18.12,18.12,0,0,0-.63,2.07,21.19,21.19,0,0,1-1.17,2.94,21.89,21.89,0,0,0-1.35,3.47c-0.11.69,1,3.23,1.87,5.07,0.65,1.43,1.38,3,2,4.64,2.25,6,2.34,14.7,2.34,15.07ZM30.76,134.27L28.89,132a14.5,14.5,0,0,0,1.72-1.7c2.43-2.82,3.62-5.39,3.44-7.43A3.49,3.49,0,0,0,33,120.53a1.68,1.68,0,0,1-.27-0.28c-1.63-2.18-3.55-3.43-5.58-3.6-2.21-.19-4.59.87-6.88,3.06-0.72.69-1.38,1.37-2,2l-2.19-1.95c0.64-.72,1.36-1.46,2.14-2.2,2.92-2.78,6.08-4.11,9.15-3.85a10.76,10.76,0,0,1,7.58,4.64,6.42,6.42,0,0,1,2,4.13c0.31,2.93-1.08,6.2-4.13,9.74A17.41,17.41,0,0,1,30.76,134.27Z" style="fill:#002c44"/><path d="M75,150a74.92,74.92,0,1,1,14.81-1.46A75.09,75.09,0,0,1,75,150ZM75,2.93A72.08,72.08,0,1,0,147.07,75,72.15,72.15,0,0,0,75,2.93Z" style="fill:#00afb6"/></svg>