<?xml version="1.0" encoding="utf-8"?>
<!-- Generator: Adobe Illustrator 19.2.1, SVG Export Plug-In . SVG Version: 6.00 Build 0)  -->
<!DOCTYPE svg PUBLIC "-//W3C//DTD SVG 1.1//EN" "http://www.w3.org/Graphics/SVG/1.1/DTD/svg11.dtd">
<svg version="1.1" id="Layer_1" xmlns="http://www.w3.org/2000/svg" xmlns:xlink="http://www.w3.org/1999/xlink" x="0px" y="0px"
	 viewBox="0 0 150 150" style="enable-background:new 0 0 150 150;" xml:space="preserve">
<style type="text/css">
	.st0{fill:#C5C6C7;}
	.st1{fill:#00A6AD;}
	.st2{fill:#86888B;}
	.st3{fill:#FFFFFF;}
	.st4{fill:#002C44;}
</style>
<title>homepage_icons</title>
<path class="st0" d="M17.9,120.8v-7.6c0,0,10,12.2,19.5,17.7l2,5.8l-3.9-0.1C35.6,136.6,21.6,127.2,17.9,120.8z"/>
<path class="st0" d="M37.4,131c6.5,4.6,19.2,11.4,38.1,11.4c7.4,0,14.7-1.1,21.8-3.2l0.2,6.5c-6.9,2.1-14.2,3.2-21.4,3.3
	c-18.9,0-34.2-8.2-40.6-12.3L37.4,131z"/>
<rect x="43.8" y="104.9" class="st1" width="78.4" height="6.5"/>
<rect x="43.8" y="92.8" class="st1" width="78.8" height="6.5"/>
<polygon class="st2" points="43.5,70.4 18.9,70.9 18.4,77.5 43.5,77.5 "/>
<path class="st2" d="M23.9,60c0,0,7.8-7.2,15.3,0.3C39.2,60.3,23.9,59.6,23.9,60z"/>
<path class="st3" d="M122.2,70.4h26c0,0,0.3-6.2-1.6-10.1h-28"/>
<path class="st4" d="M148.3,71h-26v-1.3h25.4c0-1.6-0.1-5.8-1.4-8.8h-27.6v-1.3h28c0.3,0,0.5,0.1,0.6,0.4c2,4,1.7,10.2,1.7,10.4
	C148.9,70.8,148.6,71,148.3,71z"/>
<path class="st4" d="M18.7,122h-1.3V78.5c0-0.5-0.1-12.8,6-19c2.2-2.3,5.2-3.6,8.3-3.5h78.8c3.1-0.1,6.1,1.2,8.2,3.5
	c5.6,6.2,4.6,18.2,4.5,18.8v41.3c0,0.4-0.3,0.7-0.7,0.7H43.8c-0.4,0-0.7-0.3-0.7-0.7V78.2c0-0.2,1-12.1-4.2-17.8
	c-1.8-2-4.5-3.1-7.2-3c-2.8-0.1-5.5,1-7.4,3c-5.7,5.8-5.6,18-5.6,18.1C18.7,78.5,18.7,122,18.7,122z M44.4,118.9h77.4V78.2
	c0-0.2,1-12.1-4.2-17.8c-1.8-2-4.5-3.1-7.2-3H37.2c1,0.6,1.9,1.3,2.7,2.1c5.6,6.2,4.6,18.3,4.5,18.8L44.4,118.9L44.4,118.9z"/>
<rect x="96.2" y="119.9" class="st4" width="1.3" height="25.4"/>
<path class="st3" d="M2.1,70.4h41.3c0,0-0.3-8.1-4.2-10.1H3.4"/>
<path class="st4" d="M43.5,71H2.1v-1.3h40.6c-0.2-1.9-0.9-7.2-3.7-8.8H3.4v-1.3h35.8c0.1,0,0.2,0,0.3,0.1c4.2,2.1,4.6,10.3,4.6,10.7
	C44.1,70.7,43.8,71,43.5,71z"/>
<path class="st4" d="M146.6,60.9h-28c-0.4,0-0.9-0.2-1.1-0.5c-1.8-2-4.3-3.2-7-3.4H33c-6,0-7.8,3-7.8,3.1c-0.3,0.5-0.8,0.8-1.3,0.8
	H3.4V58h19.7c1.1-1.3,3.9-3.9,9.9-3.9h77.5c3.3,0.1,6.5,1.5,8.8,3.9h27.3L146.6,60.9L146.6,60.9z"/>
<path class="st4" d="M19.4,122.8l-2.9-1.4V77.5c0-1.7,0.1-3.5,0.5-5.2H2.1v-2.9h16.8c0.8,0,1.5,0.6,1.5,1.4c0,0.3-0.1,0.5-0.2,0.7
	c-0.5,1-0.8,4.1-0.8,6L19.4,122.8L19.4,122.8z"/>
<path class="st0" d="M8.5,60.9c-1.1,2.7-1.6,5.6-1.2,8.5H1.8c0,0-1-4.8,1-8.6L8.5,60.9L8.5,60.9z"/>
<path class="st0" d="M141.7,60.9c1.1,2.7,1.6,5.6,1.2,8.5h5.5c0,0,1-4.8-1-8.6L141.7,60.9L141.7,60.9z"/>
<path class="st4" d="M98.8,144.6h-2.9v-23.8c0-0.8,0.7-1.5,1.5-1.5h24.2v-49c0-0.8,0.6-1.5,1.4-1.5h25.2v2.9h-23.7v48.9
	c0,0.7-0.5,1.3-1.1,1.4l-0.5,0.1c-0.1,0-0.2,0-0.4,0H98.8V144.6L98.8,144.6z"/>
<path class="st1" d="M75,150c-41.4,0-75-33.6-75-75S33.6,0,75,0s75,33.6,75,75C150,116.4,116.4,150,75,150z M75,2.9
	C35.2,2.9,2.9,35.2,2.9,75s32.3,72.1,72.1,72.1s72.1-32.3,72.1-72.1C147,35.2,114.8,3,75,2.9z"/>
</svg>
