<?xml version="1.0" encoding="utf-8"?>
<!-- Generator: Adobe Illustrator 22.1.0, SVG Export Plug-In . SVG Version: 6.00 Build 0)  -->
<!DOCTYPE svg PUBLIC "-//W3C//DTD SVG 1.1//EN" "http://www.w3.org/Graphics/SVG/1.1/DTD/svg11.dtd">
<svg version="1.1" id="Layer_1" xmlns="http://www.w3.org/2000/svg" xmlns:xlink="http://www.w3.org/1999/xlink" x="0px" y="0px"
	 viewBox="0 0 120 120" style="enable-background:new 0 0 120 120;" xml:space="preserve">
<style type="text/css">
	.st0{fill:#EC261A;}
	.st1{fill:none;stroke:#00B0B8;stroke-width:4;stroke-linecap:round;stroke-linejoin:round;stroke-miterlimit:10;}
</style>
<title>guarantee-icon</title>
<path class="st0" d="M60,120C26.9,120,0,93.1,0,60S26.9,0,60,0s60,26.9,60,60C120,93.1,93.1,120,60,120z M60,2.8
	C28.4,2.8,2.8,28.4,2.8,60c0,31.6,25.6,57.2,57.2,57.2s57.2-25.6,57.2-57.2c0,0,0,0,0,0C117.2,28.4,91.6,2.8,60,2.8z"/>
<g>
	<path class="st1" d="M52.3,50L52.3,50c3.3,0,5.9-2.6,5.9-5.9V31.2c0-3.6,2.9-6.4,6.4-6.4h0c2.1,0,3.7,1.7,3.7,3.7V34
		c0,4,1.7,7.8,4.6,10.5l8.5,7.8c2.3,2.1,3.7,5.2,3.7,8.3v11c0,7-5.7,12.7-12.7,12.7H46.1"/>
	<path class="st1" d="M38.9,58.6c-2.4,0-4.3-1.9-4.3-4.3v0c0-2.4,1.9-4.3,4.3-4.3h14.8c2.4,0,4.3,1.9,4.3,4.3v0
		c0,2.4-1.9,4.3-4.3,4.3"/>
	<path class="st1" d="M38.9,67.2c-2.4,0-4.3-1.9-4.3-4.3v0c0-2.4,1.9-4.3,4.3-4.3"/>
	<path class="st1" d="M53.7,58.6c2.4,0,4.3,1.9,4.3,4.3v0c0,2.4-1.9,4.3-4.3,4.3"/>
	<path class="st1" d="M53.7,67.2c2.4,0,4.3,1.9,4.3,4.3v0c0,2.4-1.9,4.3-4.3,4.3"/>
	<path class="st1" d="M38.9,75.8c-2.4,0-4.3-1.9-4.3-4.3v0c0-2.4,1.9-4.3,4.3-4.3"/>
	<path class="st1" d="M52.5,75.8c2.2,0,4,1.8,4,4v0.6c0,2.2-1.8,4-4,4H40.1c-2.2,0-4-1.8-4-4v-0.6c0-2.2,1.8-4,4-4"/>
	<path class="st1" d="M58.2,32.9l0.1,13.5c0,6.5,3,12.7,8.3,16.3c0.9,0.6,1.8,1.1,2.8,1.6l0,0"/>
	<path class="st1" d="M53.7,58.6H38.9"/>
	<path class="st1" d="M38.9,67.2h14.8"/>
	<path class="st1" d="M53.7,75.8H38.9"/>
</g>
</svg>
