<?xml version="1.0" encoding="utf-8"?>
<!-- Generator: Adobe Illustrator 22.1.0, SVG Export Plug-In . SVG Version: 6.00 Build 0)  -->
<!DOCTYPE svg PUBLIC "-//W3C//DTD SVG 1.1//EN" "http://www.w3.org/Graphics/SVG/1.1/DTD/svg11.dtd">
<svg version="1.1" id="Layer_1" xmlns="http://www.w3.org/2000/svg" xmlns:xlink="http://www.w3.org/1999/xlink" x="0px" y="0px"
	 viewBox="0 0 120 120" style="enable-background:new 0 0 120 120;" xml:space="preserve">
<style type="text/css">
	.st0{fill:#EC261A;}
	.st1{fill:none;stroke:#00B0B8;stroke-width:4;stroke-linecap:round;stroke-linejoin:round;stroke-miterlimit:10;}
	.st2{fill:none;stroke:#00B0B8;stroke-width:4.3482;stroke-linecap:round;stroke-linejoin:round;stroke-miterlimit:10;}
	.st3{fill:#00B0B8;}
</style>
<title>guarantee-icon</title>
<path class="st0" d="M60,120C26.9,120,0,93.1,0,60S26.9,0,60,0s60,26.9,60,60C120,93.1,93.1,120,60,120z M60,2.8
	C28.4,2.8,2.8,28.4,2.8,60c0,31.6,25.6,57.2,57.2,57.2s57.2-25.6,57.2-57.2c0,0,0,0,0,0C117.2,28.4,91.6,2.8,60,2.8z"/>
<path class="st1" d="M91,60"/>
<path class="st2" d="M74,86.1C59.6,93.8,41.7,88.4,33.9,74S31.6,41.7,46,33.9"/>
<line class="st1" x1="72.6" y1="49.9" x2="57.1" y2="65.5"/>
<line class="st1" x1="50.5" y1="57.3" x2="56.7" y2="65.2"/>
<g>
	<path class="st3" d="M85.2,76.1c-1.2-0.7-1.6-2.2-0.9-3.4l0,0c0.7-1.2,2.2-1.6,3.4-0.9l0,0c1.2,0.7,1.6,2.2,0.9,3.4l0,0
		c-0.5,0.8-1.3,1.3-2.2,1.3l0,0C86,76.4,85.6,76.3,85.2,76.1z M90.3,61.8c-1.4,0-2.5-1.1-2.5-2.5l0,0c0-1.4,1.1-2.5,2.5-2.5l0,0
		c1.4,0,2.5,1.1,2.5,2.5l0,0C92.8,60.7,91.7,61.8,90.3,61.8L90.3,61.8L90.3,61.8z M92.8,59.3L92.8,59.3L92.8,59.3L92.8,59.3
		L92.8,59.3L92.8,59.3z M84.3,45.9L84.3,45.9c-0.7-1.2-0.2-2.7,1-3.4l0,0c1.2-0.7,2.7-0.3,3.4,0.9l0,0l0,0l0,0
		c0.7,1.2,0.3,2.7-0.9,3.4l0,0c-0.4,0.2-0.8,0.3-1.2,0.3l0,0C85.6,47.2,84.7,46.8,84.3,45.9z M74.6,36c-1.2-0.7-1.6-2.2-0.9-3.4l0,0
		c0.7-1.2,2.2-1.6,3.4-0.9l0,0c1.2,0.7,1.6,2.2,0.9,3.4l0,0c-0.5,0.8-1.3,1.2-2.1,1.2l0,0C75.5,36.4,75,36.3,74.6,36z M58.9,29.6
		c0-1.4,1.2-2.5,2.6-2.4l0,0l0,0l0,0c1.4,0,2.5,1.2,2.4,2.6l0,0c0,1.4-1.2,2.5-2.5,2.4v0C60,32.2,58.9,31,58.9,29.6z"/>
</g>
</svg>
