<?xml version="1.0" encoding="utf-8"?>
<!-- Generator: Adobe Illustrator 22.1.0, SVG Export Plug-In . SVG Version: 6.00 Build 0)  -->
<!DOCTYPE svg PUBLIC "-//W3C//DTD SVG 1.1//EN" "http://www.w3.org/Graphics/SVG/1.1/DTD/svg11.dtd">
<svg version="1.1" id="Layer_1" xmlns="http://www.w3.org/2000/svg" xmlns:xlink="http://www.w3.org/1999/xlink" x="0px" y="0px"
	 viewBox="0 0 120 120" style="enable-background:new 0 0 120 120;" xml:space="preserve">
<style type="text/css">
	.st0{fill:#EC261A;}
	.st1{fill:#00B0B8;}
	.st2{fill:none;stroke:#00B0B8;stroke-width:4;stroke-linecap:round;stroke-linejoin:round;stroke-miterlimit:10;}
</style>
<title>guarantee-icon</title>
<path class="st0" d="M60,120C26.9,120,0,93.1,0,60S26.9,0,60,0s60,26.9,60,60S93.1,120,60,120z M60,2.8C28.4,2.8,2.8,28.4,2.8,60
	s25.6,57.2,57.2,57.2s57.2-25.6,57.2-57.2l0,0C117.2,28.4,91.6,2.8,60,2.8z"/>
<g>
	<g>
		<path class="st1" d="M137.1-82.7l-9.8,21.6l17.5,0.1l-31.6,30.7l10.5-23.2h-16.6L137.1-82.7 M144.8-61L144.8-61 M135.5-87.4
			l-32.7,31.8l-2.6,2.5c-1.2,1.2-0.3,3.1,1.5,3.1h3.7h12.7l-9.4,20.7l-3.4,7.5c-0.9,1.9,1.8,3.5,3.3,2l6-5.9l34.5-33.6l2.6-2.5
			c1.2-1.2,0.3-3.1-1.5-3.1h-3.7l0,0h-13.7l8.6-19l3.4-7.5c0.9-1.9-1.8-3.5-3.3-2L135.5-87.4z M137.1-79.6L137.1-79.6L137.1-79.6
			L137.1-79.6z"/>
	</g>
</g>
<g>
	<polygon class="st2" points="42.5,88.2 55,61.6 41.8,61.6 59,31.8 78.2,31.8 62,53.4 75.8,53.6 	"/>
</g>
<polyline class="st2" points="281.1,-41.4 269.2,-25.6 286.3,-25.2 251.3,9 "/>
</svg>
