<?xml version="1.0" encoding="utf-8"?>
<!-- Generator: Adobe Illustrator 22.1.0, SVG Export Plug-In . SVG Version: 6.00 Build 0)  -->
<!DOCTYPE svg PUBLIC "-//W3C//DTD SVG 1.1//EN" "http://www.w3.org/Graphics/SVG/1.1/DTD/svg11.dtd">
<svg version="1.1" id="Layer_1" xmlns="http://www.w3.org/2000/svg" xmlns:xlink="http://www.w3.org/1999/xlink" x="0px" y="0px"
	 viewBox="0 0 120 120" style="enable-background:new 0 0 120 120;" xml:space="preserve">
<style type="text/css">
	.st0{fill:#EC261A;}
	.st1{fill:none;}
	.st2{fill:#00B0B8;}
	.st3{fill:none;stroke:#00B0B8;stroke-width:4;stroke-linecap:round;stroke-linejoin:round;stroke-miterlimit:10;}
</style>
<title>guarantee-icon</title>
<path class="st0" d="M60,120C26.9,120,0,93.1,0,60S26.9,0,60,0s60,26.9,60,60C120,93.1,93.1,120,60,120z M60,2.8
	C28.4,2.8,2.8,28.4,2.8,60c0,31.6,25.6,57.2,57.2,57.2s57.2-25.6,57.2-57.2c0,0,0,0,0,0C117.2,28.4,91.6,2.8,60,2.8z"/>
<line class="st1" x1="-31" y1="16.6" x2="-31" y2="16.5"/>
<g>
	<path class="st2" d="M60,28.4c-10.2,2.3-21.5,21-21.5,32.9c0,11.9,9.6,21.5,21.5,21.5s21.5-9.6,21.5-21.5
		C81.5,49.4,70.2,30.7,60,28.4z M60,78.3c-9.4,0-17-7.6-17-17c0,0,0,0,0,0c0-9.4,9.1-23.8,17-28.3c7.9,4.5,17,19,17,28.3
		C77,70.7,69.4,78.3,60,78.3C60,78.3,60,78.3,60,78.3z"/>
	<line class="st3" x1="60.1" y1="41.2" x2="60.1" y2="91.6"/>
	<line class="st3" x1="54.2" y1="50.7" x2="60.1" y2="56.2"/>
	<line class="st3" x1="50.4" y1="61.7" x2="60.1" y2="70.7"/>
	<line class="st3" x1="66" y1="50.7" x2="60.1" y2="56.2"/>
	<line class="st3" x1="69.8" y1="61.7" x2="60.1" y2="70.7"/>
</g>
<path class="st3" d="M218.9,12.1c0,0,14.1,14.2,14.1,29.7c0,21.6-19.7,26.5-19.7,26.5v4.1"/>
</svg>
