<?xml version="1.0" encoding="utf-8"?>
<!-- Generator: Adobe Illustrator 19.2.1, SVG Export Plug-In . SVG Version: 6.00 Build 0)  -->
<!DOCTYPE svg PUBLIC "-//W3C//DTD SVG 1.1//EN" "http://www.w3.org/Graphics/SVG/1.1/DTD/svg11.dtd">
<svg version="1.1" id="Layer_1" xmlns="http://www.w3.org/2000/svg" xmlns:xlink="http://www.w3.org/1999/xlink" x="0px" y="0px"
	 viewBox="0 0 200 120" style="enable-background:new 0 0 200 120;" xml:space="preserve">
<style type="text/css">
	.st0{fill:#FFFFFF;}
</style>
<title>logo-asurequality-instep-white</title>
<path class="st0" d="M133.6,37.8C131.4,17.1,148,0,168.4,0.6c21.4,0.6,36,22.2,30.3,42.4c-1.6,5.6-4.6,10.7-8.8,14.7
	c-2,1.9-4.2,3.6-6.5,5c-0.7,0.4-7,3.8-7.5,3.1c0.1,0.1,4.6-2.4,5.1-2.7c2.1-1.3,4.1-2.8,5.8-4.6c10.1-10.2,12-26,4.4-38.2
	c-9.2-14.6-28.5-19-43.2-9.8c-0.9,0.6-1.7,1.2-2.6,1.8c-3.8,3-6.9,6.9-8.9,11.3c-1,2.3-1.8,4.7-2.3,7.2
	C134.2,31.5,133.6,37.8,133.6,37.8C133,32.6,133.9,37.8,133.6,37.8z"/>
<path class="st0" d="M0.1,64.7c0.7-2.8,3.5-4.5,6.2-3.8s4.5,3.5,3.8,6.2c-0.7,2.8-3.5,4.5-6.2,3.8c-1.9-0.5-3.4-1.9-3.8-3.8
	c0-0.1-0.1-0.2-0.1-0.3v-1.6C0.1,65,0.1,64.8,0.1,64.7z"/>
<path class="st0" d="M0.1,64.7c0.1,0.2,0,0.4-0.1,0.5v-0.5C0,64.7,0.1,64.7,0.1,64.7z"/>
<path class="st0" d="M0,66.7c0.1,0.1,0.2,0.2,0.1,0.3c0,0-0.1,0-0.1,0V66.7z"/>
<path class="st0" d="M189.7,23.7c2,4,3,8.5,2.9,13c-0.5,15.1-13.1,26.9-28.2,26.4S137.4,50.1,137.9,35c0.3-10.4,6.6-19.8,16.1-24.1
	c0.2-0.1,0.4-0.3,0.6-0.1c0.1,0.2-0.1,0.4-0.2,0.5c-1.4,3-2.4,6.2-3,9.4c-0.3,2.7-0.2,5.5,0.3,8.2c0.2,1.2,0.4,2.4,0.7,3.6
	c0.1,0.5,0.1,0.7-0.5,0.6c-3.4-0.4-6.5-2.4-8.4-5.3c-0.1-0.2-0.2-0.4-0.3-0.5c0-0.1-0.1-0.2-0.2-0.2c-0.1,0-0.1,0.2-0.1,0.3
	c-0.2,1.1-0.3,2.2-0.4,3.3c-0.1,10,4.2,17.5,12.9,22.3c11.8,6.2,26.4,1.6,32.6-10.2c2.1-4,3-8.4,2.7-12.9c-0.2-2.1-0.6-4.2-1.3-6.3
	C189.5,23.7,189.6,23.7,189.7,23.7C189.7,23.7,189.7,23.7,189.7,23.7z"/>
<path class="st0" d="M16.6,90.1c0-4.5,0-9,0-13.5c0-0.6,0.1-0.9,0.8-0.9c2.2,0,4.3,0,6.5,0c0.6,0,0.8,0.2,0.7,0.7
	c-0.1,0.7,0,1.4,0,2.1c0,0.1,0,0.3,0.1,0.4c0.2,0.1,0.3-0.2,0.4-0.3c1.3-1.7,3-2.9,5-3.4c3.9-0.9,7.6-0.6,10.9,2
	c1.8,1.5,2.9,3.6,3.1,5.9c0.1,1.1,0.2,2.1,0.2,3.2c0,5.7,0,11.5,0,17.2c0,0.6-0.1,0.8-0.8,0.8c-2.2,0-4.4,0-6.6,0
	c-0.6,0-0.7-0.2-0.7-0.7c0-5.1,0-10.3,0-15.4c0-1.3-0.1-2.6-0.5-3.8c-0.4-1.3-1.5-2.4-2.9-2.7c-1.2-0.3-2.4-0.3-3.6-0.1
	c-2.4,0.5-3.9,2.3-4.3,5.1c-0.1,0.9-0.2,1.9-0.2,2.8c0,4.6,0,9.3,0,13.9c0,0.7-0.2,0.8-0.8,0.8c-2.1,0-4.2,0-6.3,0
	c-0.7,0-0.9-0.1-0.9-0.9C16.7,99.1,16.6,94.6,16.6,90.1z"/>
<path class="st0" d="M62.3,74.7c3.1-0.1,6.1,0.8,8.7,2.6c0.5,0.3,0.6,0.6,0.1,1.1C70.1,79.5,69,80.7,68,82c-0.1,0.3-0.5,0.4-0.8,0.3
	c-0.1,0-0.1-0.1-0.2-0.2c-1.1-0.9-2.4-1.4-3.8-1.5c-1-0.1-2.1,0.2-2.8,0.9c-0.8,0.7-1,1.9-0.3,2.7c0.2,0.2,0.4,0.4,0.6,0.5
	c1.4,0.8,2.9,1.4,4.5,1.8c1.8,0.6,3.5,1.4,5,2.5c1.7,1.2,2.8,3.2,2.8,5.4c0.4,4.9-3,9.4-7.8,10.4c-5.2,1.6-10.8,0.1-14.7-3.7
	c-0.3-0.2-0.4-0.5-0.3-0.8c0-0.1,0.1-0.2,0.2-0.2c1.2-1.3,2.3-2.7,3.5-4c0.3-0.3,0.4-0.3,0.7,0c1,1,2.2,1.8,3.5,2.4
	c1.3,0.6,2.8,0.8,4.3,0.4c1.6-0.4,2.6-2.1,2.2-3.7c-0.2-0.7-0.8-1.3-1.4-1.5c-1.2-0.6-2.4-1.1-3.6-1.5c-1.5-0.5-2.9-1.2-4.3-1.9
	c-2.1-1.1-3.5-3.4-3.4-5.8c-0.2-5.2,3.5-8.6,7.9-9.4C60.6,74.7,61.5,74.7,62.3,74.7z"/>
<path class="st0" d="M87.4,93.6c0,3.4,0,6.7,0,10.1c0,0.6-0.1,0.8-0.7,0.7c-2.2,0-4.4,0-6.6,0c-0.3,0.1-0.7-0.1-0.8-0.4
	c0-0.1,0-0.3,0-0.4c0-6.6,0-13.3,0-19.9c0-1,0-1-1-1c-0.7,0-1.5,0.3-2-0.1c-0.5-0.4-0.1-1.3-0.2-2c0-1.4,0-2.8,0-4.1
	c-0.1-0.3,0.1-0.7,0.4-0.7c0.1,0,0.3,0,0.4,0c0.6,0,1.1,0,1.7,0c0.6,0,0.7-0.2,0.7-0.7c0-2.7,0-5.5,0-8.2c0-0.6,0.1-0.9,0.8-0.8
	c2.2,0,4.3,0.1,6.5,0c0.7,0,0.8,0.2,0.8,0.9c0,2.6,0,5.2,0,7.8c0,1.2-0.2,1,1.1,1.1c1.3,0,2.7,0,4,0c0.3-0.1,0.6,0.1,0.7,0.4
	c0,0.1,0,0.2,0,0.3c0,1.9,0,3.8,0,5.7c0.1,0.3-0.1,0.6-0.4,0.7c-0.1,0-0.2,0-0.3,0c-1.4,0-2.8,0-4.1,0c-1.1,0-0.9-0.1-0.9,1
	C87.4,87,87.4,90.3,87.4,93.6z"/>
<path class="st0" d="M160.3,15.8c11.9-5.5,25.8,3.3,26.6,16.2c0.7,10.4-7.2,19.5-17.6,20.2c-8.1,0.5-15.6-4.1-18.8-11.6
	c0.7-0.1,2,0.8,2.6,1c1.1,0.4,2.2,0.7,3.4,1c2.3,0.4,4.7,0.4,7-0.1c0.4-0.1,2.1-0.7,2.4-0.4c0.4,0.3-0.2,1.9-0.4,2.2
	c-0.7,1.8-2,3.3-3.6,4.3c0.6,0.7,3,0.4,3.8,0.4c1.4,0,2.8-0.3,4.2-0.7c2.5-0.8,4.9-2.2,6.8-4.1c3.6-3.5,5.4-8.4,5-13.4
	c-0.4-4.7-2.8-8.9-6.5-11.8c-1.8-1.4-4-2.4-6.2-3c-1.5-0.4-3-0.5-4.5-0.5C164.1,15.4,160.3,15.9,160.3,15.8
	C163.6,14.2,160.3,16.1,160.3,15.8z"/>
<path class="st0" d="M9.2,90c0,4.5,0,9.1,0,13.6c0,0.7-0.2,0.8-0.8,0.8c-2.2,0-4.4,0-6.6,0c-0.5,0-0.7-0.1-0.7-0.7
	c0-9.1,0-18.2,0-27.3c0-0.7,0.2-0.8,0.8-0.8c2.2,0,4.4,0,6.6,0c0.6,0,0.7,0.1,0.7,0.7C9.2,81,9.2,85.5,9.2,90z"/>
<path class="st0" d="M186.1,84.9c-0.6,0.1-0.8-0.1-0.9-0.8c-0.2-1.4-0.4-2.9-0.7-4.3c0-0.2,0-0.3-0.2-0.4c-0.1,0.1-0.2,0.2-0.2,0.4
	c-0.8,1.7-1.5,3.4-2.3,5c0,0.2-0.1,0.3-0.3,0.5c-0.2,0-0.2-0.3-0.3-0.5c-0.8-1.7-1.5-3.4-2.2-5.1c0-0.2-0.1-0.3-0.3-0.3
	c-0.1,0.1-0.1,0.3-0.1,0.4c-0.3,1.5-0.6,3.1-0.9,4.6c-0.1,0.5-0.6,0.8-1.1,0.6c-0.1,0-0.1,0-0.2-0.1c-0.5-0.1-0.2-0.5-0.2-0.8
	c0.6-3.1,1.2-6.1,1.8-9.2c0-0.1,0-0.4,0.2-0.4c0.2,0,0.2,0.2,0.2,0.3c0.9,2.1,1.8,4.1,2.8,6.2c0.1,0.2,0.1,0.6,0.4,0.6
	c0.2-0.1,0.3-0.4,0.4-0.6c0.9-2.1,1.9-4.1,2.8-6.2c0.1-0.1,0.2-0.3,0.3-0.4c0.1,0.1,0.1,0.3,0.2,0.4c0.5,3.1,1,6.2,1.6,9.3
	C186.9,84.9,186.7,85,186.1,84.9z"/>
<path class="st0" d="M171.3,80.6c0-1.1,0-2.3,0-3.4c0-0.6-0.2-0.8-0.8-0.8c-0.2,0-0.4,0-0.6,0c-0.8,0.1-0.9-0.2-0.8-0.9
	c-0.1-0.3,0.1-0.5,0.4-0.6c0.1,0,0.2,0,0.2,0c1.6,0,3.3,0,4.9,0c0.5,0,0.6,0.3,0.6,0.7c0,0.4,0.1,0.8-0.5,0.8c0,0-0.1,0-0.1,0
	c-1.7,0.1-1.7,0.1-1.7,1.7c0,2,0,4.1,0,6.1c0,0.6-0.3,0.7-0.7,0.7c-0.5,0-0.9,0.1-0.8-0.7C171.3,83,171.3,81.8,171.3,80.6z"/>
<path class="st0" d="M189.7,23.7l-0.2,0c-0.1-0.1-0.1-0.2-0.1-0.3c-0.1-0.1-0.1-0.2,0-0.2c0,0,0,0,0,0
	C189.6,23.3,189.7,23.5,189.7,23.7z"/>
<path class="st0" d="M189.4,23.2l0,0.2c-0.1-0.1-0.2-0.3-0.1-0.5l0,0C189.4,22.9,189.4,23.1,189.4,23.2z"/>
<path class="st0" d="M189.1,22.6c0.2,0,0.2,0.2,0.2,0.3l0,0C189.1,22.9,189.1,22.8,189.1,22.6L189.1,22.6z"/>
<path class="st0" d="M189.1,22.6l-0.1-0.2l0.1,0L189.1,22.6L189.1,22.6z"/>
<path class="st0" d="M161.1,82.3c-2.9-5.7-8.6-8.4-15.1-7.2c-2.3,0.5-4.5,1.8-6,3.6c-0.1,0.2-0.2,0.5-0.5,0.4
	c-0.1-0.2-0.1-0.4-0.1-0.6c0-0.6,0-1.3,0-1.9c0.1-0.8-0.2-0.9-0.9-0.9c-2.1,0-4.2,0-6.3,0c-0.4-0.1-0.8,0.1-0.9,0.5
	c0,0.1,0,0.3,0,0.4c0,7,0,14.1,0,21.1c0,7.1,0,14.1,0,21.2c-0.1,0.4,0.1,0.7,0.5,0.8c0.1,0,0.3,0,0.4,0c2.1,0,4.3,0,6.4,0
	c0.7,0,0.9-0.2,0.9-0.9c0-5.8,0-11.5,0-17.3c0-0.2,0-0.4,0.1-0.6c0.2,0,0.4,0.2,0.5,0.4c1.3,1.5,3,2.7,4.9,3.4
	c5.5,1.8,11.5-0.2,14.9-4.9C163.7,94.3,164.1,88.3,161.1,82.3z M146.6,98c-4.4,0-8-3.6-8-8c0-4.4,3.6-7.9,8-8c4.4,0,8,3.5,8,8
	C154.7,94.4,151.1,98,146.6,98C146.7,98,146.6,98,146.6,98z"/>
<path class="st0" d="M104.6,91.4c3.3,0,6.7,0,10,0c3.3,0,6.7,0,10,0c0.6,0,0.8-0.1,0.8-0.8c0-1.6-0.2-3.3-0.5-4.9
	c-0.7-4-3.2-7.4-6.8-9.3c-3.3-1.6-6.9-2.1-10.5-1.4c-5,0.6-9.2,3.9-10.9,8.7c-1.1,3-1.4,6.3-0.9,9.4c0.5,4.4,3.2,8.3,7.2,10.3
	c3.7,1.9,7.9,2.4,11.8,1.5c4.5-0.8,8.2-3.8,9.9-8c0.2-0.4,0.3-0.6-0.4-0.7c-2-0.3-3.9-0.6-5.8-0.9c-0.6-0.2-1.3,0.1-1.6,0.6
	c-2,2.8-4.8,3.4-8,2.9c-0.9-0.2-1.8-0.5-2.5-1.1c-1.6-1.4-2.6-3.5-2.6-5.6C103.9,91.5,104.1,91.4,104.6,91.4z M104.3,85.6
	c1.1-3.6,4.9-5.7,8.5-4.7c2.2,0.6,4,2.4,4.6,4.6c0.2,0.6,0.2,0.8-0.6,0.8c-2,0-4,0-6,0c-2,0-4,0-6,0
	C104.2,86.3,104.2,86.1,104.3,85.6L104.3,85.6z"/>
</svg>
