<?xml version="1.0" encoding="utf-8"?>
<!-- Generator: Adobe Illustrator 19.2.1, SVG Export Plug-In . SVG Version: 6.00 Build 0)  -->
<svg version="1.1" id="Layer_1" xmlns="http://www.w3.org/2000/svg" xmlns:xlink="http://www.w3.org/1999/xlink" x="0px" y="0px"
	 viewBox="0 0 178.2 40" style="enable-background:new 0 0 178.2 40;" xml:space="preserve">
<style type="text/css">
	.st0{fill:#002C44;}
</style>
<path class="st0" d="M20,0C9,0,0,9,0,20c0,11,9,20,20,20c11,0,20-9,20-20C40,9,31,0,20,0z M18.1,29.5c0,0.4-0.3,0.7-0.7,0.7h-3.1
	c-0.4,0-0.7-0.3-0.7-0.7V10.6c0-0.4,0.3-0.7,0.7-0.7h3.1c0.4,0,0.7,0.3,0.7,0.7V29.5z M26.4,28.9c-0.8,0.9-1.9,1.4-3.1,1.4h-2.1
	c-0.3,0-0.5-0.4-0.3-0.6c0.7-0.8,1.9-2.5,1.9-4.5c0-1.8-0.8-3.3-2.1-4.3c-0.2-0.2-0.3-0.5-0.3-0.7v0c0-0.3,0.1-0.6,0.3-0.7
	c1.3-1,2.1-2.6,2.1-4.3c0-2.1-1.1-3.7-1.8-4.5c-0.2-0.2,0-0.6,0.3-0.6h1.8c1.2,0,2.3,0.5,3.1,1.3c0.9,1,1.4,2.3,1.4,3.8
	c0,2.3-1.1,4.2-3,5.1c1.9,0.9,3.3,2.8,3.3,5.1C27.8,26.6,27.3,27.9,26.4,28.9z"/>
<g>
	<path class="st0" d="M163.9,12.2h-2.4c-0.3,0-0.5,0.2-0.5,0.5v5.8c0,0.3,0.2,0.5,0.5,0.5h1c0.3,0,0.6-0.2,0.7-0.4l1.2-2.8
		c0.1-0.2,0.1-0.3,0.1-0.5v-2.5C164.4,12.5,164.2,12.2,163.9,12.2z"/>
	<path class="st0" d="M159.7,24.4h-5.2V12.7c0-0.3-0.2-0.5-0.5-0.5h-2.6c-0.3,0-0.5,0.2-0.5,0.5v14.6c0,0.3,0.2,0.5,0.5,0.5h8.3
		c0.3,0,0.5-0.2,0.5-0.5v-2.4C160.2,24.6,159.9,24.4,159.7,24.4z"/>
	<path class="st0" d="M173.8,18.3c-1.7-0.7-2.4-1.3-2.4-2.1c0-0.6,0.6-1.1,1.3-1.1c1.1,0,2.5,0.9,3,1.2c0.1,0.1,0.1,0.1,0.2,0.1
		c0.1,0,0.1,0.1,0.2,0.1c0.2,0,0.5-0.2,0.6-0.4l1.1-1.7c0.1-0.2,0.1-0.6-0.1-0.8c-0.8-0.6-2.6-1.7-4.8-1.7c-3.5,0-5.2,2.3-5.2,4.4
		c0,1.5,0.7,3.5,4.3,4.9c1.5,0.6,2.2,1.3,2.2,2.2c0,0.7-0.6,1.3-1.5,1.3c-0.6,0-1.6-0.2-3-1.2c0,0-0.1-0.1-0.1-0.1
		c-0.1-0.1-0.2-0.1-0.4-0.1c-0.2,0-0.4,0.1-0.5,0.2l-1,1.8c-0.2,0.3-0.1,0.5,0.1,0.7c1.6,1.6,4.5,1.7,5,1.7c3.3,0,5.3-2.4,5.3-4.6
		C178.2,20.4,175.7,19.1,173.8,18.3z"/>
	<path class="st0" d="M63.9,19.9c1.2-0.7,2.5-1.9,2.5-3.5c0-2.3-2.1-4.2-4.8-4.2h-5.1c-0.3,0-0.5,0.2-0.5,0.5v14.6
		c0,0.3,0.2,0.5,0.5,0.5h5.5c2.7,0,4.9-1.9,4.9-4.3C66.8,21.4,65.1,20.3,63.9,19.9z M59.6,15.5h1.7c0.8,0,1.5,0.6,1.5,1.4
		c0,0.8-0.7,1.5-1.5,1.5h-1.7V15.5z M61.5,24.5h-2v-3h1.7c0.8,0,1.8,0.6,1.8,1.5C63,23.8,62.4,24.5,61.5,24.5z"/>
	<path class="st0" d="M83,12.2h-2.7c-0.3,0-0.5,0.2-0.5,0.5v8.9c0,1.6-1.2,2.7-2.7,2.7c-1.5,0-2.7-1.2-2.7-2.7v-8.9
		c0-0.3-0.2-0.5-0.5-0.5h-2.7c-0.3,0-0.5,0.2-0.5,0.5v9.1c0,3.4,2.8,6.2,6.3,6.2c3.5,0,6.4-2.8,6.4-6.2v-9.1
		C83.4,12.4,83.2,12.2,83,12.2z"/>
	<path class="st0" d="M100.2,17c0-2.7-2.2-4.8-4.9-4.8h-6.6c-0.3,0-0.5,0.2-0.5,0.5v14.6c0,0.3,0.2,0.5,0.5,0.5h2.6
		c0.3,0,0.5-0.2,0.5-0.5v-5.6h1.4l2.9,5.8c0.1,0.1,0.2,0.2,0.4,0.2h2.9c0.2,0,0.3-0.1,0.4-0.2c0.1-0.1,0.1-0.3,0-0.5l-3-5.5
		C98.9,20.7,100.2,19,100.2,17z M95,18.8h-3.2v-3.3H95c0.9,0,1.6,0.7,1.6,1.6C96.6,18,95.9,18.8,95,18.8z"/>
	<path class="st0" d="M116.9,17c0-2.7-2.2-4.8-4.9-4.8h-6.6c-0.3,0-0.5,0.2-0.5,0.5v14.6c0,0.3,0.2,0.5,0.5,0.5h2.6
		c0.3,0,0.5-0.2,0.5-0.5v-5.6h1.4l2.9,5.8c0.1,0.1,0.2,0.2,0.4,0.2h2.9c0.2,0,0.3-0.1,0.4-0.2c0.1-0.1,0.1-0.3,0-0.5l-3-5.5
		C115.7,20.7,116.9,19,116.9,17z M111.8,18.8h-3.2v-3.3h3.2c0.9,0,1.6,0.7,1.6,1.6C113.4,18,112.7,18.8,111.8,18.8z"/>
	<path class="st0" d="M131.4,12.2h-9.1c-0.3,0-0.5,0.2-0.5,0.5v14.6c0,0.3,0.2,0.5,0.5,0.5h9.1c0.3,0,0.5-0.2,0.5-0.5v-2.4
		c0-0.3-0.2-0.5-0.5-0.5h-6.1v-2.9h5c0.3,0,0.5-0.2,0.5-0.5v-2.4c0-0.3-0.2-0.5-0.5-0.5h-5v-2.6h6.1c0.3,0,0.5-0.2,0.5-0.5v-2.4
		C131.9,12.4,131.7,12.2,131.4,12.2z"/>
	<path class="st0" d="M145.9,24.4h-5.2V12.7c0-0.3-0.2-0.5-0.5-0.5h-2.6c-0.3,0-0.5,0.2-0.5,0.5v14.6c0,0.3,0.2,0.5,0.5,0.5h8.3
		c0.3,0,0.5-0.2,0.5-0.5v-2.4C146.4,24.6,146.1,24.4,145.9,24.4z"/>
</g>
</svg>
