<svg id="Layer_1" data-name="Layer 1" xmlns="http://www.w3.org/2000/svg" viewBox="0 0 178.25 40"><title>logo-hover</title><path d="M20,0A20,20,0,1,0,40,20,20,20,0,0,0,20,0ZM18.07,29.51a0.71,0.71,0,0,1-.71.71H14.23a0.71,0.71,0,0,1-.71-0.71V10.57a0.71,0.71,0,0,1,.71-0.71h3.13a0.71,0.71,0,0,1,.71.71V29.51Zm8.31-.65a4.18,4.18,0,0,1-3.13,1.36H21.12a0.36,0.36,0,0,1-.27-0.59,7.18,7.18,0,0,0,1.86-4.49,5.58,5.58,0,0,0-2.07-4.34A1,1,0,0,1,20.29,20h0a1,1,0,0,1,.35-0.75A5.58,5.58,0,0,0,22.71,15a7.09,7.09,0,0,0-1.85-4.51,0.36,0.36,0,0,1,.27-0.59h1.81a4.2,4.2,0,0,1,3.12,1.34A5.58,5.58,0,0,1,27.51,15a5.36,5.36,0,0,1-3,5.1A5.6,5.6,0,0,1,26.38,28.86Z" style="fill:#194157"/><path d="M163.86,12.22h-2.42a0.54,0.54,0,0,0-.54.54v5.75a0.54,0.54,0,0,0,.54.54h1a0.73,0.73,0,0,0,.67-0.44l1.22-2.8a1.28,1.28,0,0,0,.11-0.52V12.76A0.54,0.54,0,0,0,163.86,12.22Z" style="fill:#194157"/><path d="M159.68,24.42h-5.2V12.7a0.49,0.49,0,0,0-.48-0.48h-2.63a0.48,0.48,0,0,0-.48.48V27.3a0.48,0.48,0,0,0,.48.48h8.3a0.48,0.48,0,0,0,.48-0.48V24.9A0.48,0.48,0,0,0,159.68,24.42Z" style="fill:#194157"/><path d="M173.76,18.29c-1.68-.68-2.37-1.29-2.37-2.09a1.23,1.23,0,0,1,1.33-1.07,6.34,6.34,0,0,1,3,1.21l0.15,0.1a0.33,0.33,0,0,0,.21.07,0.83,0.83,0,0,0,.62-0.37l1.13-1.7a0.61,0.61,0,0,0-.15-0.78A8.29,8.29,0,0,0,172.9,12c-3.54,0-5.15,2.31-5.15,4.45,0,1.47.75,3.52,4.32,4.93,1.53,0.61,2.24,1.3,2.24,2.18a1.33,1.33,0,0,1-1.47,1.27,5.67,5.67,0,0,1-3-1.15l-0.08-.05a0.65,0.65,0,0,0-.35-0.1,0.55,0.55,0,0,0-.48.25l-1,1.83a0.45,0.45,0,0,0,.12.69c1.63,1.63,4.46,1.72,5,1.72,3.29,0,5.26-2.35,5.26-4.62C178.25,20.42,175.68,19.06,173.76,18.29Z" style="fill:#194157"/><path d="M63.93,19.86a4.35,4.35,0,0,0,2.49-3.48c0-2.33-2.11-4.16-4.8-4.16H56.48a0.48,0.48,0,0,0-.48.48V27.3a0.48,0.48,0,0,0,.48.48h5.47c2.73,0,4.87-1.9,4.87-4.32C66.81,21.44,65.06,20.35,63.93,19.86Zm-4.38-4.35h1.66A1.43,1.43,0,0,1,62.71,17a1.51,1.51,0,0,1-1.49,1.53H59.55v-3Zm2,9h-2v-3h1.73A1.71,1.71,0,0,1,63,23,1.55,1.55,0,0,1,61.51,24.51Z" style="fill:#194157"/><path d="M83,12.22H80.25a0.48,0.48,0,0,0-.48.48v8.94a2.68,2.68,0,1,1-5.36,0V12.7a0.48,0.48,0,0,0-.48-0.48H71.23a0.49,0.49,0,0,0-.48.48v9.11a6.35,6.35,0,0,0,12.69,0V12.7A0.49,0.49,0,0,0,83,12.22Z" style="fill:#194157"/><path d="M100.16,17a4.85,4.85,0,0,0-4.87-4.82h-6.6a0.48,0.48,0,0,0-.48.48V27.3a0.48,0.48,0,0,0,.48.48h2.63a0.49,0.49,0,0,0,.48-0.48V21.73h1.43l2.92,5.82a0.46,0.46,0,0,0,.4.23h2.93a0.48,0.48,0,0,0,.43-0.22,0.51,0.51,0,0,0,0-.5l-3-5.55A4.9,4.9,0,0,0,100.16,17ZM95,18.82H91.79V15.49H95a1.64,1.64,0,0,1,1.62,1.62A1.71,1.71,0,0,1,95,18.82Z" style="fill:#194157"/><path d="M116.95,17a4.85,4.85,0,0,0-4.87-4.82h-6.6a0.48,0.48,0,0,0-.48.48V27.3a0.48,0.48,0,0,0,.48.48h2.63a0.49,0.49,0,0,0,.48-0.48V21.73H110l2.92,5.82a0.46,0.46,0,0,0,.4.23h2.93a0.48,0.48,0,0,0,.43-0.22,0.51,0.51,0,0,0,0-.5l-3-5.55A4.9,4.9,0,0,0,116.95,17Zm-5.15,1.78h-3.21V15.49h3.21a1.64,1.64,0,0,1,1.62,1.62A1.71,1.71,0,0,1,111.79,18.82Z" style="fill:#194157"/><path d="M131.43,12.22H122.3a0.48,0.48,0,0,0-.48.48V27.3a0.48,0.48,0,0,0,.48.48h9.14a0.48,0.48,0,0,0,.48-0.48V24.9a0.48,0.48,0,0,0-.48-0.48h-6.06V21.56h5a0.48,0.48,0,0,0,.48-0.48V18.68a0.49,0.49,0,0,0-.48-0.48h-5V15.58h6.06a0.48,0.48,0,0,0,.48-0.48V12.7A0.48,0.48,0,0,0,131.43,12.22Z" style="fill:#194157"/><path d="M145.88,24.42h-5.2V12.7a0.49,0.49,0,0,0-.48-0.48h-2.63a0.48,0.48,0,0,0-.48.48V27.3a0.48,0.48,0,0,0,.48.48h8.3a0.48,0.48,0,0,0,.48-0.48V24.9A0.48,0.48,0,0,0,145.88,24.42Z" style="fill:#194157"/></svg>