<svg xmlns="http://www.w3.org/2000/svg" viewBox="0 0 400 120"><defs><style>.a{fill:#fff;}</style></defs><title>logo-asurequality-instep-white</title><path class="a" d="M62.1565,94l-0.0154-.0041c0.0133,0.0159.0255,0.0324,0.0387,0.0483,0.013,0.0074.0262,0.0134,0.0391,0.0209C62.1979,94.044,62.1776,94.0219,62.1565,94Z"/><path class="a" d="M71.7566,87.3432Q63.2773,65.2094,54.7889,43.079a3.7736,3.7736,0,0,0-1.3507-2.2137c-5.1343,0-10.4208-.2207-15.6794.0667a10.5835,10.5835,0,0,0-9.8241,6.9894q-6.1384,15.4606-12.18,30.9595Q9.94,93.7245,4.1635,108.5826c-1.37,3.5142-2.73,7.0323-4.1635,10.7243H20.6821L25.8086,105.91c-6.5093-6.1315-8.8427-12.1428-8.2794-19.9545A19.99,19.99,0,0,1,21.45,75.4475c0.7-.9577,1.5127-1.9544,3.2354-1.4071,1.519,1.8975,2.2773,4.3579,3.2049,6.6186-0.294.8-.5074,1.41-0.74,2.0112a15.56,15.56,0,0,0-.67,9.2714c3.2822,14.1287,19.0647,16.3349,27.1729,9.7734a4.4786,4.4786,0,0,1,2.2759-1.4255c0.9565,0.7672,1.1885,1.9011,1.6675,2.88q2.3167,4.7352,4.57,9.5014c2.0812,4.4155,5.8439,6.4031,10.424,6.693,4.51,0.2854,9.0514.0623,13.7707,0.0623a41.7837,41.7837,0,0,1-7.0549-12.4123C76.695,100.495,74.2692,93.9018,71.7566,87.3432Zm3.2119,30.697c-5.2027.4216-9.3967-1.4263-11.4422-5.9238-1.8707-4.1131-4.1308-8.0476-6.1377-12.1012-0.928-1.8744-2.0031-3.5147-4.0176-4.3745A1.7653,1.7653,0,0,1,52.1,94.1742c0.2432-1.1937,1.2582-1.3265,2.3045-1.3557,2.6666-.0744,5.3389-0.1557,7.7751,1.2262-0.0132-.0159-0.0255-0.0324-0.0387-0.0483L62.1565,94a23.2593,23.2593,0,0,1-4.4121-5.85c0-2.0506-.06-3.8065.01-5.5571,0.3684-9.16-7.5262-17.041-17.539-16.683A16.7493,16.7493,0,0,0,29.8061,69.933c-1.105.9316-1.9975,2.2078-3.4064,2.56a1.5569,1.5569,0,0,1-1.494-1.2948,2.3783,2.3783,0,0,1,.1512-0.726c2.2438-4.1325,5.958-6.56,10.1331-8.2253,14.5024-5.786,28.3048,3.9341,31.2959,16.5746A19.2507,19.2507,0,0,1,64.26,93.7522,2.222,2.222,0,0,1,62.1565,94c0.021,0.0216.0414,0.0436,0.0625,0.0651-0.013-.0074-0.0262-0.0135-0.0391-0.0209a30.0938,30.0938,0,0,1,4.0251,6.5234c1.4941,3.1768,3.1278,6.288,4.6274,9.4623a9.7054,9.7054,0,0,0,4.5907,4.9869,2.1215,2.1215,0,0,1,1.3154,1.4163C76.7478,117.5694,75.9923,117.9572,74.9685,118.04Z"/><path class="a" d="M398.2483,40.7213Q232.1494,40.7577,66.05,40.813a0.389,0.389,0,0,0-.2308.1462,1.43,1.43,0,0,0-.1427.3257c0.2516,0.7029.5156,1.4863,0.8107,2.2578q10.5066,27.47,21.0269,54.9346c1.9545,5.0914,3.7275,10.2649,6.4173,15.0437a25.1135,25.1135,0,0,0,4.0486,5.81H400V41.0348A2.6606,2.6606,0,0,0,398.2483,40.7213ZM330.7077,64.0336H334.42v4.4488h-3.7125V64.0336ZM136.7868,96.7277c-1.6015-3.1152-2.3407-6.575-3.8244-9.7712H119.5033l-3.652,9.5673a7.4649,7.4649,0,0,1-4.9679-.2091l12.7614-32.7967a19.5642,19.5642,0,0,1,5.3869-.0966c4.3419,10.929,8.6443,21.89,12.8659,32.9733C140.0706,97.09,138.5236,96.7693,136.7868,96.7277Zm24.0212-1.8186a9.3834,9.3834,0,0,1-3.9548,1.9215,17.4559,17.4559,0,0,1-7.42.1108c-4.2474-.8867-6.4772-3.2818-6.8964-7.723,1.5206-.7856,1.5206-0.7856,3.8768-0.4458,0.5954,0.3969.5392,1.1325,0.8118,1.7a3.7391,3.7391,0,0,0,1.8885,1.9488c3.08,1.3068,6.071,1.32,8.7615-.5308a3.913,3.913,0,0,0,.2532-3.3106c-1.3739-1.506-3.1594-1.7633-4.8411-2.21a41.2767,41.2767,0,0,1-6.137-1.6734,6.5938,6.5938,0,0,1-3.8883-3.7261,6.2928,6.2928,0,0,1,3.3086-7.9334,13.2047,13.2047,0,0,1,11.542-.1609c2.6059,1.1491,3.6326,3.0281,3.8822,6.5455-1.2093.5814-2.4921,0.2267-3.8961,0.2429-0.75-1.9962-2.03-3.5357-4.2791-3.7772-2.0261-.2176-4.0921-0.3238-5.6186,1.2821a2.9133,2.9133,0,0,0-.0215,2.8045c-0.0161-.0117.208,0.1525,0.4332,0.3152,1.7134,1.2382,3.7764,1.4681,5.7465,1.9025a28.5568,28.5568,0,0,1,4.781,1.3888A6.59,6.59,0,0,1,160.8081,94.9091Zm26.2976,1.4188c-1.6773.558-1.6773,0.558-3.6557,0.1862-0.7-.5312-0.3783-1.3984-0.7076-2.0655a0.8858,0.8858,0,0,0-.4361.0535,9.5634,9.5634,0,0,1-9.46,2.4807A6.734,6.734,0,0,1,167.181,90.69c-0.1107-1.1019-.1059-2.218-0.1093-3.3277q-0.0182-5.9693.0035-11.9386a5.8577,5.8577,0,0,1,.3039-2.8315,5.6878,5.6878,0,0,1,3.528-.13,2.99,2.99,0,0,1,.4739,2.2756c0.0192,3.7018.0083,7.4038,0.0081,11.1057,0,0.6478-.01,1.2959.0027,1.9435,0.0638,3.1563,1.0852,4.7758,3.377,5.37a6.57,6.57,0,0,0,6.9667-2.8576,8.1627,8.1627,0,0,0,1.0408-4.2538c-0.0184-3.5167-.0017-7.0335,0-10.55,0.0006-.9125,0-1.825,0-2.9382a8.3856,8.3856,0,0,1,4.1385-.0652C187.4308,74.5636,187.5568,93.0232,187.1056,96.328ZM205.52,76.0169a8.4763,8.4763,0,0,1-2.9944.8185,6.0174,6.0174,0,0,0-4.9734,4.6369,14.6014,14.6014,0,0,0-.6544,4.3708c0.0624,2.5894.0159,5.1815,0.0152,7.7725,0,0.9145,0,1.829,0,2.69a5.64,5.64,0,0,1-3.7995.3729,1.67,1.67,0,0,1-.7563-1.56q0.0026-10.826.0241-21.6521a4.5772,4.5772,0,0,1,.273-0.98,10.2415,10.2415,0,0,1,3.4449-.17,1.9473,1.9473,0,0,1,.6717,1.7384c0.0079,0.5509.0017,1.1019,0.0017,2.0877,2.3807-2.8709,4.8625-4.8294,8.592-4.2357A8.12,8.12,0,0,1,205.52,76.0169Zm22.7183,9.8544c-5.8375.0553-11.5307,0-17.1824,0.0331-0.5636,3.5816.9988,5.9906,4.3814,7.0083,3.7818,1.1378,6.4151-.1142,8.2807-3.9954,1.2564-.6767,2.5886-0.4669,4.193-0.1573a8.8,8.8,0,0,1-5.1326,7.3634c-5.81,2.79-14.4105.8892-16.4133-7.4859-1.03-4.3069-.7731-8.4448,1.8551-12.1819a10.7414,10.7414,0,0,1,10.3244-4.6842c4.0691,0.3524,6.7794,2.7189,8.4213,6.333A13.4014,13.4014,0,0,1,228.2382,85.8713Zm36.2367,10.58a10.0345,10.0345,0,0,1-2.3549,3.0668l-4.9594-3.76a20.0142,20.0142,0,0,1-8.5638,1.739c-6.4586-.2812-11.2237-3.2876-13.7011-9.1807-2.7212-6.4729-2.5718-13.04,1.3088-19.1269,3.3042-5.1826,8.3739-7.2323,14.2978-6.7859,6.21,0.468,10.8508,3.6133,13.1821,9.5348,2.7641,7.0207,2.2122,13.76-2.2731,20.0048-0.2115.2945-.4143,0.5952-0.6975,1.0031C261.7726,94.47,263.3683,95.0376,264.4749,96.4515Zm25.11-.16c-1.6621.6-1.6621,0.6-3.6273,0.1633-0.6807-.7432-0.0527-1.76-0.54-2.6138-2.4576,2.8842-5.5409,3.7907-9.2142,3.2961-3.5994-.4847-6.1952-2.7241-6.63-7.3265-0.0781-.827-0.0569-1.6648-0.058-2.4976-0.0053-3.98-.0173-7.961.0089-11.9413a5.0032,5.0032,0,0,1,.3969-2.9116,9.07,9.07,0,0,1,3.6066-.0384c0.8122,0.6907.5626,1.5791,0.5667,2.38,0.0225,4.3507.0019,8.7015,0.0155,13.0522,0.01,3.3028.7353,4.5274,3.0294,5.2155a6.4984,6.4984,0,0,0,7.0524-2.5946,7.2815,7.2815,0,0,0,1.0247-3.9715c0.0083-3.61.0066-7.22,0.0409-10.83a5.1464,5.1464,0,0,1,.4728-3.115,6.5245,6.5245,0,0,1,3.5858-.1181C289.8735,74.5047,290.0471,92.0346,289.5849,96.2918Zm27.0036,0.068c-3.33,1.691-4.7708,1.2712-6.6371-2.0567a12.0055,12.0055,0,0,1-6.061,2.86,10.691,10.691,0,0,1-5.9814-.6592,5.9584,5.9584,0,0,1-3.9723-5.5183c-0.1808-2.9229.6362-5.3106,3.3371-6.7806,2.2408-1.22,4.7485-1.4765,7.1981-1.9329,1.0889-.2028,2.1864-0.36,3.2725-0.5761a2.4469,2.4469,0,0,0,2.2244-2.1437,3.4294,3.4294,0,0,0-1.8365-3.1817,7.79,7.79,0,0,0-4.9005-.4351,5.253,5.253,0,0,0-3.2551,1.6133l-1.0141,2.5241a9.6173,9.6173,0,0,1-3.9948.0044,6.6326,6.6326,0,0,1,3.5035-6.6941,13.7949,13.7949,0,0,1,12.3142-.6524,5.3617,5.3617,0,0,1,3.507,5.4726c-0.0346,3.8915-.0171,7.7837.0018,11.6755a5.447,5.447,0,0,0,.6742,3.4034c0.1853,0.3167,1.2357-.3168,1.76.568A3.2939,3.2939,0,0,1,316.5885,96.36Zm7.7983,0.0637a2.2729,2.2729,0,0,1-1.8273.3883c-0.6364.0012-1.273-.0781-1.79-0.1139-0.1812-.1624-0.2562-0.2187-0.3173-0.2874a0.4619,0.4619,0,0,1-.1489-0.2195c-0.3557-10.0735-.0693-20.15-0.1573-30.2255a4.8767,4.8767,0,0,1,.3356-2.4616,8.0323,8.0323,0,0,1,3.7908-.008C324.8275,65.609,324.9068,93.7374,324.3869,96.4235Zm10.1019,0.1121a6.0472,6.0472,0,0,1-3.7525.0316,3.35,3.35,0,0,1-.3874-1.0337q-0.0549-10.6594-.0592-21.3191a2.4765,2.4765,0,0,1,.5224-1.7132,6.9652,6.9652,0,0,1,3.56-.0911C334.9277,74.5515,335.0112,93.6927,334.4887,96.5356Zm12.1151-4.61c1.0394,1.4392,2.8114.3912,4.216,1.188a10.1735,10.1735,0,0,1,.1363,3.2783,10.308,10.308,0,0,1-7.0525-.3432,2.84,2.84,0,0,1-1.5776-1.8366,9.0257,9.0257,0,0,1-.4875-3.266q0.0231-5.8229-.0038-11.6458a6.8416,6.8416,0,0,0-.2563-2.8459l-3.24-.2128c-0.8056-1.16-.294-2.3445-0.4339-3.3514,1.1921-1.0582,2.5309-.2625,3.8776-0.9435V65.6125c1.547-.8289,2.88-0.5573,4.4088-0.3527,0.5375,2.2085.0279,4.4369,0.3365,6.6394,1.236,0.8409,2.7386-.0133,4.16.6976a5.0705,5.0705,0,0,1,.1713,3.3281c-1.3051.8484-2.7776,0.1063-4.0653,0.584C346.354,78.504,346.2359,88.0342,346.6038,91.9251Zm27.8-17.2393q-4.8189,12.5578-9.6378,25.1157a13.7731,13.7731,0,0,1-2.2487,4.1224c-2.1,2.4546-4.5545,2.95-7.7948,1.4735a7.2,7.2,0,0,1,.0973-3.3242c0.99-.6181,1.713.3782,2.0176,0.2565,3.8086-.76,3.6464-3.8809,4.8969-5.9945L352.3495,72.76c1.6866-.7976,3.1992-0.463,4.8975-0.301l6.759,18.7951,6.4728-18.7027a9.9527,9.9527,0,0,1,4.3243-.1254A3.0929,3.0929,0,0,1,374.4038,74.6859Z"/><path class="a" d="M249.5073,66.7466a10.2369,10.2369,0,0,0-10.3559,7.1809,17.3552,17.3552,0,0,0-.0711,11.9387c1.6414,4.6749,5.2969,7.4736,9.9436,7.4109a10.6388,10.6388,0,0,0,10.4386-7.6061,17.83,17.83,0,0,0,.7508-5.7416,17.9558,17.9558,0,0,0-.798-5.7356A10.4228,10.4228,0,0,0,249.5073,66.7466Z"/><path class="a" d="M121.17,82.3385c3.4632,0.04,6.6267.1406,10.1289-.087l-4.9734-13.9827Z"/><path class="a" d="M304.0006,85.8811a8.9185,8.9185,0,0,0-3.6727,1.11,3.2065,3.2065,0,0,0-1.6714,3.2321,2.9535,2.9535,0,0,0,2.3144,2.7426,6.6309,6.6309,0,0,0,9.0117-6.2373c0.0109-.5436.0015-1.0875,0.0015-1.9777A32.2469,32.2469,0,0,1,304.0006,85.8811Z"/><path class="a" d="M217.2163,75.8044c-3.4666-.0667-5.64,1.8357-6.4,5.7426,3.6209,0.4878,10.593.3807,12.48-.1593C222.6588,77.826,220.5268,75.8681,217.2163,75.8044Z"/></svg>