<svg id="Layer_1" data-name="Layer 1" xmlns="http://www.w3.org/2000/svg" viewBox="0 0 33 48"><title>marker</title><path d="M4.8171,4.9014A15.7717,15.7717,0,0,1,16.5,0,15.7717,15.7717,0,0,1,28.1829,4.9014,16.3324,16.3324,0,0,1,33,16.7887a22.8625,22.8625,0,0,1-1.7164,8,49.6229,49.6229,0,0,1-4.1527,8.4507q-2.4362,3.9454-4.8171,7.38-2.3809,3.4384-4.0419,5.4648L16.5,48q-0.6644-.787-1.7718-2.0845-1.1074-1.294-3.9866-5.1831A86.8509,86.8509,0,0,1,5.703,33.1831a55.1339,55.1339,0,0,1-3.9312-8.2817A23.1306,23.1306,0,0,1,0,16.7887,16.3324,16.3324,0,0,1,4.8171,4.9014Zm7.53,16.1127A5.6037,5.6037,0,0,0,16.5,22.7606a5.6037,5.6037,0,0,0,4.1527-1.7465,5.805,5.805,0,0,0,1.7164-4.2254,5.8107,5.8107,0,0,0-1.7164-4.2254A5.61,5.61,0,0,0,16.5,10.8169a5.61,5.61,0,0,0-4.1527,1.7465,5.8107,5.8107,0,0,0-1.7164,4.2254A5.805,5.805,0,0,0,12.3473,21.0141Z" fill="#e9261a"/></svg>