<svg id="Layer_1" data-name="Layer 1" xmlns="http://www.w3.org/2000/svg" viewBox="0 0 16 16"><title>mobile-nav</title><path d="M16,6.6667V4A3.5453,3.5453,0,0,0,13.5.6257,22.6362,22.6362,0,0,0,8.248,0,24.4165,24.4165,0,0,0,2.7917.6257S0,1.3294,0,4V6.6667a0.6663,0.6663,0,0,0,.6667.6667H1.91A6.6431,6.6431,0,0,0,0,12v3.3333A0.6663,0.6663,0,0,0,.6667,16H15.3333A0.6663,0.6663,0,0,0,16,15.3333V12a6.643,6.643,0,0,0-1.91-4.6667h1.2429A0.6663,0.6663,0,0,0,16,6.6667ZM14.6667,12v2.6667H1.3333V12A5.33,5.33,0,0,1,4.0873,7.3333H4.6667a0.6663,0.6663,0,0,0,.6667-0.6667V5.5039C6.6667,5.3959,7.0957,5.3333,8,5.3333a19.29,19.29,0,0,1,2.6667.1706V6.6667a0.6663,0.6663,0,0,0,.6667.6667h0.5794A5.33,5.33,0,0,1,14.6667,12Zm0-6H12V4.3529A18.3973,18.3973,0,0,0,8,4a23.4329,23.4329,0,0,0-4,.3529V6H1.3333V4C1.3333,2.3893,3.5,1.85,3.5,1.85a22.5454,22.5454,0,0,1,4.748-.5169,20.6554,20.6554,0,0,1,4.5436.5169s1.875,0.5391,1.875,2.15V6Z" fill="#002c44"/><path d="M8,6.6667A3.3333,3.3333,0,1,0,11.3333,10,3.3331,3.3331,0,0,0,8,6.6667Zm0,6A2.6667,2.6667,0,1,1,10.6667,10,2.6668,2.6668,0,0,1,8,12.6667Z" fill="#002c44"/><circle cx="7.6667" cy="8.3333" r="0.5" fill="#002c44"/><circle cx="8.3333" cy="11.6667" r="0.5" fill="#002c44"/><circle cx="9.6667" cy="9.6667" r="0.5" fill="#002c44"/><circle cx="6.3333" cy="10.3333" r="0.5" fill="#002c44"/></svg>