<svg id="Layer_1" data-name="Layer 1" xmlns="http://www.w3.org/2000/svg" viewBox="0 0 115.8609 26"><title>mobile-burrells-logo</title><path d="M13-.0125a13,13,0,1,0,13,13A13,13,0,0,0,13-.0125Zm-1.2554,19.18a0.4642,0.4642,0,0,1-.4642.4642H9.247a0.4642,0.4642,0,0,1-.4643-0.4642V6.86A0.4642,0.4642,0,0,1,9.247,6.3956H11.28a0.4642,0.4642,0,0,1,.4642.4642V19.1672Zm5.402-.42a2.7184,2.7184,0,0,1-2.0372.884H13.73a0.2312,0.2312,0,0,1-.178-0.3806,4.67,4.67,0,0,0,1.2109-2.92,3.6273,3.6273,0,0,0-1.3484-2.8242,0.6251,0.6251,0,0,1-.2258-0.4869V13.0167a0.6255,0.6255,0,0,1,.2258-0.487,3.627,3.627,0,0,0,1.3484-2.8242A4.6065,4.6065,0,0,0,13.56,6.7747a0.231,0.231,0,0,1,.1768-0.3818h1.1761a2.7271,2.7271,0,0,1,2.0278.8736,3.6242,3.6242,0,0,1,.9389,2.439A3.483,3.483,0,0,1,15.934,13.018,3.639,3.639,0,0,1,17.1466,18.7474Z" transform="translate(0 0.0125)" fill="#002c44"/><path d="M106.5063,7.9311h-1.5716a0.35,0.35,0,0,0-.35.35V12.02a0.35,0.35,0,0,0,.35.35h0.6222a0.4758,0.4758,0,0,0,.4362-0.2858l0.7935-1.8213a0.8344,0.8344,0,0,0,.07-0.3349V8.2811A0.35,0.35,0,0,0,106.5063,7.9311Z" transform="translate(0 0.0125)" fill="#002c44"/><path d="M103.7906,15.8625h-3.377V8.24a0.3172,0.3172,0,0,0-.3091-0.3091H98.3977a0.31,0.31,0,0,0-.3091.3091v9.4949a0.31,0.31,0,0,0,.3091.3091h5.3929a0.31,0.31,0,0,0,.309-0.3091V16.1716A0.31,0.31,0,0,0,103.7906,15.8625Z" transform="translate(0 0.0125)" fill="#002c44"/><path d="M112.9408,11.8781c-1.0942-.4432-1.5405-0.8365-1.5405-1.3574a0.7964,0.7964,0,0,1,.8671-0.695,4.1242,4.1242,0,0,1,1.9307.79c0.05,0.033.0847,0.0563,0.0978,0.0631a0.2165,0.2165,0,0,0,.1364.0431,0.5371,0.5371,0,0,0,.4043-0.2382l0.7328-1.1065A0.3966,0.3966,0,0,0,115.473,8.87a5.39,5.39,0,0,0-3.091-1.0829c-2.3015,0-3.35,1.4986-3.35,2.8908,0,0.9555.4867,2.287,2.8056,3.2038,0.9922,0.3939,1.4542.8434,1.4542,1.4147a0.8659,0.8659,0,0,1-.9532.8238,3.684,3.684,0,0,1-1.9641-.7489l-0.05-.0326a0.42,0.42,0,0,0-.2288-0.0623,0.3546,0.3546,0,0,0-.3138.16l-0.674,1.1905a0.2927,0.2927,0,0,0,.0777.4455,4.9955,4.9955,0,0,0,3.2529,1.1151,3.1919,3.1919,0,0,0,3.4215-3.0056C115.8609,13.2607,114.1942,12.3762,112.9408,11.8781Z" transform="translate(0 0.0125)" fill="#002c44"/><path d="M41.555,12.8974a2.8275,2.8275,0,0,0,1.6163-2.2621,2.9031,2.9031,0,0,0-3.12-2.7042H36.7091A0.31,0.31,0,0,0,36.4,8.24v9.4949a0.31,0.31,0,0,0,.3091.3091h3.557a2.9682,2.9682,0,0,0,3.1633-2.8048A2.7167,2.7167,0,0,0,41.555,12.8974Zm-2.8442-2.8279h1.0822a0.9325,0.9325,0,0,1,.9674.9387,0.9832,0.9832,0,0,1-.9674.9962H38.7107V10.0695Zm1.2685,5.85H38.7107V13.942h1.1252a1.111,1.111,0,0,1,1.1395.9676A1.0044,1.0044,0,0,1,39.9792,15.92Z" transform="translate(0 0.0125)" fill="#002c44"/><path d="M53.9274,7.9311H52.1632a0.31,0.31,0,0,0-.3091.3091v5.8087a1.7422,1.7422,0,1,1-3.4839,0V8.24a0.3094,0.3094,0,0,0-.309-0.3091H46.2969a0.3172,0.3172,0,0,0-.3091.3091v5.9235a4.1255,4.1255,0,0,0,8.2485,0V8.24A0.3171,0.3171,0,0,0,53.9274,7.9311Z" transform="translate(0 0.0125)" fill="#002c44"/><path d="M65.1008,11.0655a3.1525,3.1525,0,0,0-3.1632-3.1345H57.649A0.31,0.31,0,0,0,57.34,8.24v9.4949a0.31,0.31,0,0,0,.3091.3091h1.7068a0.3172,0.3172,0,0,0,.3091-0.3091V14.1141h0.9305l1.8974,3.7808a0.3017,0.3017,0,0,0,.2622.1492h1.9076a0.31,0.31,0,0,0,.2763-0.1452,0.3311,0.3311,0,0,0,0-.3248L62.993,13.9671A3.182,3.182,0,0,0,65.1008,11.0655Zm-3.35,1.154H59.6649V10.0551h2.0861a1.0676,1.0676,0,0,1,1.0535,1.0535A1.1118,1.1118,0,0,1,61.7511,12.22Z" transform="translate(0 0.0125)" fill="#002c44"/><path d="M76.016,11.0655a3.1526,3.1526,0,0,0-3.1633-3.1345H68.5642a0.31,0.31,0,0,0-.3091.3091v9.4949a0.31,0.31,0,0,0,.3091.3091H70.271a0.3172,0.3172,0,0,0,.3091-0.3091V14.1141h0.93l1.8975,3.7808a0.3015,0.3015,0,0,0,.2621.1492h1.9077a0.31,0.31,0,0,0,.2763-0.1452,0.3311,0.3311,0,0,0,0-.3248l-1.9457-3.6071A3.182,3.182,0,0,0,76.016,11.0655Zm-3.35,1.154H70.58V10.0551h2.0861A1.0676,1.0676,0,0,1,73.72,11.1086,1.1118,1.1118,0,0,1,72.6662,12.22Z" transform="translate(0 0.0125)" fill="#002c44"/><path d="M85.4316,7.9311H79.4937a0.31,0.31,0,0,0-.3091.3091v9.4949a0.31,0.31,0,0,0,.3091.3091h5.9378a0.31,0.31,0,0,0,.3091-0.3091V16.1716a0.31,0.31,0,0,0-.3091-0.3091H81.4952V14h3.2336a0.31,0.31,0,0,0,.3091-0.3091V12.1271a0.3172,0.3172,0,0,0-.3091-0.3091H81.4952V10.1126h3.9364a0.31,0.31,0,0,0,.3091-0.3091V8.24A0.31,0.31,0,0,0,85.4316,7.9311Z" transform="translate(0 0.0125)" fill="#002c44"/><path d="M94.8248,15.8625H91.4477V8.24a0.3172,0.3172,0,0,0-.3091-0.3091H89.4318a0.31,0.31,0,0,0-.3091.3091v9.4949a0.31,0.31,0,0,0,.3091.3091h5.393a0.31,0.31,0,0,0,.3091-0.3091V16.1716A0.31,0.31,0,0,0,94.8248,15.8625Z" transform="translate(0 0.0125)" fill="#002c44"/></svg>