<svg id="Layer_1" data-name="Layer 1" xmlns="http://www.w3.org/2000/svg" viewBox="0 0 100 100"><title>number-blue</title><path d="M50,0a50,50,0,1,0,50,50A50,50,0,0,0,50,0ZM34,36.69c0.4-6,4.62-10.08,10.68-11.91a1.52,1.52,0,0,1,2,1.46V35a1.63,1.63,0,0,1-.4,1,4.72,4.72,0,0,0-1,1.94,1.49,1.49,0,0,1-1.44,1.19H35.5A1.52,1.52,0,0,1,34,37.6C34,37.18,34,36.81,34,36.69Zm12.53,37a1.53,1.53,0,0,1-2,1.46,17.48,17.48,0,0,1-12.26-14c0-.2,0-0.56-0.07-0.94a1.52,1.52,0,0,1,1.51-1.58h8.56a1.5,1.5,0,0,1,1.47,1.17A6.19,6.19,0,0,0,46,63.46a1.58,1.58,0,0,1,.57,1.27v8.95Zm8.78,1.64a1.52,1.52,0,0,1-1.9-1.47v-9a1.47,1.47,0,0,1,.61-1.2,4.89,4.89,0,0,0,2-4.23c0-1.42-.5-6.07-6.92-6.07H46.51A1.52,1.52,0,0,1,45,51.82V45.19a1.52,1.52,0,0,1,1.52-1.52h2.27c5.27,0,6.48-2.39,6.48-4.48a3.29,3.29,0,0,0-1.42-2.9,1.07,1.07,0,0,1-.31-0.84V26.17a1.52,1.52,0,0,1,1.93-1.47c6.21,1.82,10.45,6.86,10.45,13.14a12.62,12.62,0,0,1-4.38,10,0.28,0.28,0,0,0,0,.49c3.75,2,6.2,6.52,6.2,11.65C67.76,67.31,62.59,73.36,55.32,75.31Z" style="fill:#002c44"/></svg>