<?xml version="1.0" encoding="utf-8"?>
<!-- Generator: Adobe Illustrator 22.1.0, SVG Export Plug-In . SVG Version: 6.00 Build 0)  -->
<!DOCTYPE svg PUBLIC "-//W3C//DTD SVG 1.1//EN" "http://www.w3.org/Graphics/SVG/1.1/DTD/svg11.dtd">
<svg version="1.1" id="Layer_1" xmlns="http://www.w3.org/2000/svg" xmlns:xlink="http://www.w3.org/1999/xlink" x="0px" y="0px"
	 viewBox="0 0 37 52" style="enable-background:new 0 0 37 52;" xml:space="preserve">
<style type="text/css">
	.st0{fill:#00A6AD;}
</style>
<title>why-number</title>
<path class="st0" d="M12.1,25.6c0,0.9-0.7,1.6-1.6,1.6l0,0H1.6c-0.9,0-1.6-0.7-1.6-1.6l0,0v-3.7c0-0.5,0.2-0.9,0.5-1.2l8.9-7.8
	c0.7-0.6,1.7-0.5,2.3,0.2c0.2,0.3,0.4,0.6,0.4,1C12.1,14.1,12.1,25.6,12.1,25.6z M30,50.4c0,0.9-0.7,1.6-1.6,1.6h-9.5
	c-0.9,0-1.6-0.7-1.6-1.6V9.5c0-1,0.5-1.9,1.3-2.5l8.9-6.7c0.7-0.5,1.7-0.3,2.2,0.4C29.9,1,30,1.3,30,1.6V50.4z"/>
</svg>
