<?xml version="1.0" encoding="utf-8"?>
<!-- Generator: Adobe Illustrator 22.1.0, SVG Export Plug-In . SVG Version: 6.00 Build 0)  -->
<!DOCTYPE svg PUBLIC "-//W3C//DTD SVG 1.1//EN" "http://www.w3.org/Graphics/SVG/1.1/DTD/svg11.dtd">
<svg version="1.1" id="Layer_1" xmlns="http://www.w3.org/2000/svg" xmlns:xlink="http://www.w3.org/1999/xlink" x="0px" y="0px"
	 viewBox="0 0 37 52" style="enable-background:new 0 0 37 52;" xml:space="preserve">
<style type="text/css">
	.st0{fill:#00A6AD;}
</style>
<g>
	<g>
		<g>
			<path class="st0" d="M14,40.1c-1.8-1-3.2-2-3.3-2C10,37.7,9,37.8,8.4,38.4L4,43.8l0,0c-1.1,1.1-0.8,1.9,0.1,3
				c0.4,0.5,3.3,3.8,8.8,5.3c1.1,0.3,2.2-0.5,2.2-1.7v-8.1C15.3,41.3,14.8,40.5,14,40.1z"/>
			<path class="st0" d="M13.3,0.1c-7,2.2-12,8.3-12,15.6c0,8.3,5,14.5,12.6,16c0.7,0.1,1.3-0.4,1.3-1.1c0-2.1,0-6.2,0-8.4
				c0-0.8-0.4-1.5-1-2.1c-1.2-1.1-1.8-2.7-1.8-4.5c0-1.9,0.7-3.3,1.9-4.3c0.5-0.4,0.8-1,0.8-1.6V1.5C15.3,0.5,14.3-0.2,13.3,0.1z"/>
			<path class="st0" d="M35.6,14.5C35,6.9,30.1,1.5,23,0c-0.7-0.1-1.3,0.4-1.3,1.1c0,2.1,0,6.2,0,8.4c0,0.8,0.4,1.5,1,2.1
				c1.2,1.1,1.8,2.7,1.8,4.5c0,1.9-0.7,3.3-1.9,4.3c-0.5,0.4-0.8,1-0.8,1.6v8.3c0,1,1,1.8,2,1.4l0,0c0.3-0.1,0.7,0.1,0.7,0.5l0.1,3
				v1.1c0,1.9-0.7,3.3-1.9,4.3c-0.5,0.4-0.8,1-0.8,1.6v8.3c0,1,1,1.8,1.9,1.5c7-2.2,12-8.3,12-15.6V15.2
				C35.6,14.9,35.6,14.7,35.6,14.5z"/>
		</g>
	</g>
</g>
</svg>
