<?xml version="1.0" encoding="utf-8"?>
<!-- Generator: Adobe Illustrator 22.1.0, SVG Export Plug-In . SVG Version: 6.00 Build 0)  -->
<!DOCTYPE svg PUBLIC "-//W3C//DTD SVG 1.1//EN" "http://www.w3.org/Graphics/SVG/1.1/DTD/svg11.dtd">
<svg version="1.1" id="Layer_1" xmlns="http://www.w3.org/2000/svg" xmlns:xlink="http://www.w3.org/1999/xlink" x="0px" y="0px"
	 viewBox="0 0 37 52" style="enable-background:new 0 0 37 52;" xml:space="preserve">
<style type="text/css">
	.st0{fill:#00A6AD;}
</style>
<title>why-number</title>
<g>
	<g>
		<path class="st0" d="M18.2,26.1c0,0.3-0.1,0.6-0.2,0.8l-2.4,3.9h1.1c0.8,0,1.5,0.7,1.5,1.5l0,0V40c0,0.8-0.7,1.5-1.5,1.5l0,0H2.3
			c-0.8,0-1.5-0.7-1.5-1.5l0,0v-5.3c0-0.3,0.1-0.5,0.2-0.8L15.5,10c0.4-0.7,1.4-0.9,2.1-0.5c0.4,0.3,0.7,0.8,0.7,1.3v15.3H18.2z
			 M36.2,50.1c0,0.8-0.7,1.5-1.5,1.5l0,0h-8.4c-0.8,0-1.5-0.7-1.5-1.5l0,0V1.9c0-0.8,0.7-1.5,1.5-1.5l0,0h8.4c0.8,0,1.5,0.7,1.5,1.5
			l0,0V50.1L36.2,50.1z"/>
	</g>
</g>
</svg>
