<svg id="Layer_1" data-name="Layer 1" xmlns="http://www.w3.org/2000/svg" viewBox="0 0 100 100"><defs><style>.cls-1{fill:#fff;}</style></defs><title>number-white</title><path class="cls-1" d="M50,0a50,50,0,1,0,50,50A50,50,0,0,0,50,0ZM44.88,48.9931a1.5164,1.5164,0,0,1-.2219.7894l-2.397,3.9314h1.1038A1.5152,1.5152,0,0,1,44.88,55.229v7.7148a1.5148,1.5148,0,0,1-1.5152,1.5152H28.924a1.5148,1.5148,0,0,1-1.5152-1.5152V57.65a1.5093,1.5093,0,0,1,.219-0.7842L42.0691,33.0034a1.515,1.515,0,0,1,2.8113.7842V48.9931Zm17.968,24.0345a1.5148,1.5148,0,0,1-1.5152,1.5152H52.946a1.5148,1.5148,0,0,1-1.5152-1.5152V24.8239a1.5148,1.5148,0,0,1,1.5152-1.5152h8.3873a1.5148,1.5148,0,0,1,1.5152,1.5152V73.0276Z"/></svg>