<svg id="Layer_1" data-name="Layer 1" xmlns="http://www.w3.org/2000/svg" viewBox="0 0 100 100"><title>number-blue</title><path d="M50,0a50,50,0,1,0,50,50A50,50,0,0,0,50,0ZM34.46,38.44c0-5,2.78-11.76,10.1-13.32a1.6,1.6,0,0,1,2.15,1.4L46.63,39.84a1.52,1.52,0,0,1-1.52,1.51h-9.4a1.25,1.25,0,0,1-1.25-1.25V38.44ZM46.72,73.57a1.52,1.52,0,0,1-1.52,1.52H35a1.52,1.52,0,0,1-1.52-1.52v-3.2c0-11.62,5.8-17.59,10.82-21.1,1.31-.92,2.38-0.35,2.38,1.25v23Zm19.26,0a1.52,1.52,0,0,1-1.52,1.52H54.79a1.52,1.52,0,0,1-1.52-1.52V64.77a1.52,1.52,0,0,1,1.52-1.52h9.67A1.52,1.52,0,0,1,66,64.77v8.79ZM55.57,56a1.56,1.56,0,0,1-2.29-1.31V26.37c0-1,1-1.51,2-1.44,6.77,0.46,11.19,6.52,11.19,14.63C66.48,48.51,62.62,53.38,55.57,56Z" style="fill:#002c44"/></svg>