<?xml version="1.0" encoding="utf-8"?>
<!-- Generator: Adobe Illustrator 22.1.0, SVG Export Plug-In . SVG Version: 6.00 Build 0)  -->
<!DOCTYPE svg PUBLIC "-//W3C//DTD SVG 1.1//EN" "http://www.w3.org/Graphics/SVG/1.1/DTD/svg11.dtd">
<svg version="1.1" id="Layer_1" xmlns="http://www.w3.org/2000/svg" xmlns:xlink="http://www.w3.org/1999/xlink" x="0px" y="0px"
	 viewBox="0 0 37 52" style="enable-background:new 0 0 37 52;" xml:space="preserve">
<style type="text/css">
	.st0{fill:#00A6AD;}
</style>
<title>why-number</title>
<path class="st0" d="M1,14C1,8.8,3.9,1.8,11.4,0.2c0.9-0.3,1.8,0.1,2.1,1c0.1,0.1,0.1,0.3,0.1,0.5l-0.1,13.8c0,0.9-0.7,1.5-1.6,1.5
	H2.3C1.6,17,1,16.4,1,15.7V14z M13.7,50.4c0,0.9-0.7,1.6-1.6,1.6l0,0H1.6C0.7,52,0,51.3,0,50.4v-3.3c0-12,6-18.2,11.2-21.9
	c1.4-1,2.5-0.4,2.5,1.3V50.4z M33.7,50.4c0,0.9-0.7,1.6-1.6,1.6l0,0H22c-0.9,0-1.6-0.7-1.6-1.6v-9.1c0-0.9,0.7-1.6,1.6-1.6h10
	c0.9,0,1.6,0.7,1.6,1.6v9.1H33.7z M22.9,32.2c-0.8,0.4-1.8,0.1-2.2-0.7c-0.1-0.2-0.2-0.4-0.2-0.7V1.5c0-1.1,1-1.6,2.1-1.5
	c7,0.5,11.6,6.8,11.6,15.2C34.2,24.4,30.2,29.5,22.9,32.2z"/>
</svg>
