<svg id="Layer_1" data-name="Layer 1" xmlns="http://www.w3.org/2000/svg" viewBox="0 0 100 100"><defs><style>.cls-1{fill:#fff;}</style></defs><title>number-white</title><path class="cls-1" d="M50,0a50,50,0,1,0,50,50A50,50,0,0,0,50,0ZM34.4623,38.4351c0-5.0241,2.7817-11.7587,10.0985-13.3234a1.5979,1.5979,0,0,1,2.15,1.3953L46.6257,39.8356a1.5151,1.5151,0,0,1-1.5152,1.5055H35.7074a1.2456,1.2456,0,0,1-1.2451-1.2451V38.4351ZM46.7248,73.567A1.5152,1.5152,0,0,1,45.21,75.0821H35.04a1.5152,1.5152,0,0,1-1.5152-1.5152V70.3687c0-11.6152,5.8031-17.5863,10.8176-21.0974,1.311-.9181,2.3822-0.3514,2.3822,1.2488V73.567Zm19.2553,0a1.5152,1.5152,0,0,1-1.5152,1.5152H54.79a1.5152,1.5152,0,0,1-1.5152-1.5152V64.772A1.5152,1.5152,0,0,1,54.79,63.2568H64.465A1.5152,1.5152,0,0,1,65.98,64.772v8.795ZM55.5664,56.0155a1.5642,1.5642,0,0,1-2.2912-1.3065V26.3672c0-1.0365.9706-1.5122,2.0049-1.4426,6.7745,0.4557,11.195,6.5223,11.195,14.6255C66.4751,48.5085,62.6228,53.381,55.5664,56.0155Z"/></svg>