<?xml version="1.0" encoding="utf-8"?>
<!-- Generator: Adobe Illustrator 22.1.0, SVG Export Plug-In . SVG Version: 6.00 Build 0)  -->
<!DOCTYPE svg PUBLIC "-//W3C//DTD SVG 1.1//EN" "http://www.w3.org/Graphics/SVG/1.1/DTD/svg11.dtd">
<svg version="1.1" id="Layer_1" xmlns="http://www.w3.org/2000/svg" xmlns:xlink="http://www.w3.org/1999/xlink" x="0px" y="0px"
	 viewBox="0 0 37 52" style="enable-background:new 0 0 37 52;" xml:space="preserve">
<style type="text/css">
	.st0{fill:#00A6AD;}
</style>
<title>why-number</title>
<g>
	<g>
		<path class="st0" d="M31.8,24.1c1.8-2.5,2.9-5.5,2.9-8.9c0-7.9-4.8-13.8-12-15.3c-0.6-0.1-1.2,0.4-1.2,1c0,2,0,5.9,0,8
			c0,0.8,0.4,1.5,0.9,2c1.1,1.1,1.7,2.5,1.7,4.3s-0.7,3.1-1.8,4c-0.3,0.1-0.4,0.3-0.5,0.6c-0.2,0.3-0.3,0.6-0.3,0.9v7.9
			c0,0.3,0.1,0.6,0.3,0.9c0.1,0.6,0.5,1.1,0.9,1.5c1.2,1.1,1.9,2.8,1.9,4.7c0,2-0.8,3.4-2,4.4c-0.5,0.4-0.9,1-0.9,1.7v8.6
			c0,1,1,1.8,2,1.5c7.3-2.2,12.4-8.5,12.4-16.1C36.1,31.1,34.5,27.1,31.8,24.1z"/>
		<path class="st0" d="M13.7,0.1C7,2.1,2.3,7.9,2.3,14.9c0,3.7,1.1,6.9,2.9,9.5C2.6,27.3,1,31.2,1,35.4C1,44,6.2,50.4,14,52
			c0.7,0.1,1.4-0.4,1.4-1.1c0-2.2,0-6.4,0-8.6c0-0.8-0.4-1.6-1-2.2c-1.2-1.1-1.9-2.8-1.9-4.7c0-2,0.8-3.4,2-4.4
			c0.4-0.3,0.7-0.7,0.8-1.1c0.2-0.2,0.3-0.4,0.3-0.7c0-2,0-5.9,0-8c0-0.8-0.4-1.5-0.9-2c-1.1-1.1-1.7-2.5-1.7-4.3s0.7-3.2,1.8-4
			c0.5-0.4,0.8-0.9,0.8-1.5V1.5C15.5,0.5,14.6-0.2,13.7,0.1z"/>
	</g>
</g>
</svg>
