<svg id="Layer_1" data-name="Layer 1" xmlns="http://www.w3.org/2000/svg" viewBox="0 0 100 100"><defs><style>.cls-1{fill:#fff;}</style></defs><title>number-white</title><path class="cls-1" d="M50,0a50,50,0,1,0,50,50A50,50,0,0,0,50,0ZM42.3614,49.599a1.5152,1.5152,0,0,1-1.5152,1.5152H32.3871A1.5152,1.5152,0,0,1,30.872,49.599V46.0568a1.513,1.513,0,0,1,.5164-1.1393l8.46-7.4115a1.5148,1.5148,0,0,1,2.5132,1.14V49.599ZM59.3528,73.1445A1.5152,1.5152,0,0,1,57.8377,74.66H48.7467a1.5152,1.5152,0,0,1-1.5152-1.5152V34.39a3.03,3.03,0,0,1,1.22-2.43l8.4806-6.3166a1.5156,1.5156,0,0,1,2.4207,1.2155V73.1445Z"/></svg>