<?xml version="1.0" encoding="utf-8"?>
<!-- Generator: Adobe Illustrator 22.1.0, SVG Export Plug-In . SVG Version: 6.00 Build 0)  -->
<!DOCTYPE svg PUBLIC "-//W3C//DTD SVG 1.1//EN" "http://www.w3.org/Graphics/SVG/1.1/DTD/svg11.dtd">
<svg version="1.1" id="Layer_1" xmlns="http://www.w3.org/2000/svg" xmlns:xlink="http://www.w3.org/1999/xlink" x="0px" y="0px"
	 viewBox="0 0 37 52" style="enable-background:new 0 0 37 52;" xml:space="preserve">
<style type="text/css">
	.st0{fill:#00A6AD;}
	.st1{fill:#FFFFFF;}
</style>
<title>why-number</title>
<g>
	<g>
		<g>
			<path class="st0" d="M5.9,28.2h5.4c1.4,0,2.5-1.1,2.5-2.5v-24C13.9,0.8,13.1,0,12.2,0H5C4,0,3.1,0.9,3.1,1.9v23.2
				C3.1,26.6,4.2,28.2,5.9,28.2z"/>
			<path class="st0" d="M22.7,11.5h7.8c1,0,1.9-0.8,1.9-1.9V1.9c0-1-0.8-1.9-1.9-1.9h-7.8c-1,0-1.8,0.8-1.8,1.8v7.9
				C21,10.7,21.8,11.5,22.7,11.5z"/>
			<path class="st0" d="M13.9,41.4c0-0.9-0.5-1.8-1.3-2.2c-1.9-1-3.4-2.1-3.5-2.2c-0.7-0.5-1.7-0.3-2.4,0.3L1.9,43l0,0
				C0.7,44.2,1,45,2,46.2c0.4,0.5,3.5,4,9.4,5.7c1.2,0.3,2.4-0.6,2.4-1.8L13.9,41.4z"/>
			<path class="st0" d="M21,19c0,2.2,0,6.7,0,8.9c0,0.8,0.4,1.6,1,2.2c1.2,1.2,1.9,2.8,1.9,4.9s-0.8,3.5-2,4.6
				c-0.5,0.4-0.9,1-0.9,1.7v8.8c0,1.1,1,1.9,2.1,1.6c7.5-2.3,12.8-8.8,12.8-16.7c0-8.9-5.4-15.5-13.5-17.1C21.6,17.7,21,18.2,21,19z
				"/>
		</g>
	</g>
</g>
<rect x="78.3" y="-3.1" class="st1" width="7.4" height="55.1"/>
</svg>
