<svg id="Layer_1" data-name="Layer 1" xmlns="http://www.w3.org/2000/svg" viewBox="0 0 100 100"><defs><style>.cls-1{fill:#fff;}</style></defs><title>number-white</title><path class="cls-1" d="M50,0a50,50,0,1,0,50,50A50,50,0,0,0,50,0ZM34.0066,36.6921c0.3965-6.03,4.6187-10.0823,10.6815-11.9118a1.5246,1.5246,0,0,1,1.9583,1.4589v8.75a1.6266,1.6266,0,0,1-.4025,1.0224,4.7229,4.7229,0,0,0-.9521,1.94,1.4914,1.4914,0,0,1-1.439,1.1859h-8.35a1.5179,1.5179,0,0,1-1.5152-1.5359C33.9925,37.18,33.9984,36.8083,34.0066,36.6921ZM46.5384,73.6713a1.5255,1.5255,0,0,1-1.9672,1.4582A17.4784,17.4784,0,0,1,32.3079,61.17c-0.0266-.2012-0.0481-0.5586-0.0651-0.9425a1.5157,1.5157,0,0,1,1.5137-1.584h8.56a1.4955,1.4955,0,0,1,1.473,1.166,6.1932,6.1932,0,0,0,2.1743,3.6481,1.5835,1.5835,0,0,1,.5748,1.2658v8.9481Zm8.7772,1.638a1.5223,1.5223,0,0,1-1.9043-1.4745V64.829a1.4728,1.4728,0,0,1,.6052-1.2029,4.8861,4.8861,0,0,0,1.9879-4.2251c0-1.4234-.4994-6.068-6.9218-6.068H46.5051A1.5152,1.5152,0,0,1,44.99,51.8177v-6.63a1.5152,1.5152,0,0,1,1.5152-1.5152h2.2675c5.2668,0,6.48-2.3911,6.48-4.4752A3.2923,3.2923,0,0,0,53.8278,36.3a1.0671,1.0671,0,0,1-.3085-0.84V26.166A1.5207,1.5207,0,0,1,55.45,24.7c6.2086,1.8163,10.4463,6.8641,10.4463,13.137a12.62,12.62,0,0,1-4.3775,9.9691,0.2848,0.2848,0,0,0,.0414.4868c3.7546,2.0123,6.1982,6.5186,6.1982,11.6514C67.7586,67.314,62.5873,73.3643,55.3156,75.3092Z"/></svg>