<svg id="Layer_1" data-name="Layer 1" xmlns="http://www.w3.org/2000/svg" viewBox="0 0 37 52"><title>why-number</title><path d="M1,14C1,8.8,3.86,1.82,11.44.2a1.66,1.66,0,0,1,2.23,1.45L13.58,15.46A1.57,1.57,0,0,1,12,17H2.26A1.29,1.29,0,0,1,1,15.73V14ZM13.68,50.43A1.57,1.57,0,0,1,12.11,52H1.57A1.57,1.57,0,0,1,0,50.43V47.11c0-12,6-18.23,11.21-21.87,1.36-1,2.47-.36,2.47,1.29V50.43Zm20,0A1.57,1.57,0,0,1,32.07,52H22a1.57,1.57,0,0,1-1.57-1.57V41.31A1.57,1.57,0,0,1,22,39.74h10a1.57,1.57,0,0,1,1.57,1.57v9.12ZM22.85,32.24a1.62,1.62,0,0,1-2.38-1.35V1.5c0-1.07,1-1.57,2.08-1.5,7,0.47,11.6,6.76,11.6,15.16C34.16,24.45,30.16,29.5,22.85,32.24Z" style="fill:#00a6ad"/></svg>