<svg id="Layer_1" data-name="Layer 1" xmlns="http://www.w3.org/2000/svg" viewBox="0 0 37 52"><title>why-number</title><path d="M1.81,12.36C2.22,6.17,6.54,2,12.76.14a1.56,1.56,0,0,1,2,1.5v9a1.67,1.67,0,0,1-.41,1,4.84,4.84,0,0,0-1,2,1.53,1.53,0,0,1-1.48,1.22H3.34a1.56,1.56,0,0,1-1.55-1.57C1.8,12.86,1.8,12.48,1.81,12.36ZM14.66,50.27a1.56,1.56,0,0,1-2,1.49A17.92,17.92,0,0,1,.07,37.45c0-.21,0-0.57-0.07-1a1.55,1.55,0,0,1,1.55-1.62h8.78a1.53,1.53,0,0,1,1.51,1.2,6.35,6.35,0,0,0,2.23,3.74,1.62,1.62,0,0,1,.59,1.3v9.17Zm9,1.68a1.56,1.56,0,0,1-2-1.51V41.2A1.51,1.51,0,0,1,22.32,40a5,5,0,0,0,2-4.33c0-1.46-.51-6.22-7.1-6.22H14.62a1.55,1.55,0,0,1-1.55-1.55v-6.8a1.55,1.55,0,0,1,1.55-1.55h2.32c5.4,0,6.64-2.45,6.64-4.59a3.38,3.38,0,0,0-1.46-3,1.09,1.09,0,0,1-.32-0.86V1.57a1.56,1.56,0,0,1,2-1.5c6.37,1.86,10.71,7,10.71,13.47,0,4.22-1.73,8.08-4.49,10.22a0.29,0.29,0,0,0,0,.5c3.85,2.06,6.35,6.68,6.35,11.95C36.41,43.75,31.11,50,23.66,51.95Z" style="fill:#00a6ad"/></svg>